<?xml version="1.0" encoding="UTF-8" standalone="no"?>
<svg
   width="64"
   height="64"
   version="1.1"
   viewBox="0 0 16.933 16.933"
   id="svg7"
   sodipodi:docname="audacious.svg"
   inkscape:version="1.4.4 (dcaf3e7d9e, 2026-05-05)"
   xmlns:inkscape="http://www.inkscape.org/namespaces/inkscape"
   xmlns:sodipodi="http://sodipodi.sourceforge.net/DTD/sodipodi-0.dtd"
   xmlns="http://www.w3.org/2000/svg"
   xmlns:svg="http://www.w3.org/2000/svg"
   xmlns:rdf="http://www.w3.org/1999/02/22-rdf-syntax-ns#"
   xmlns:cc="http://creativecommons.org/ns#"
   xmlns:dc="http://purl.org/dc/elements/1.1/">
  <sodipodi:namedview
     id="namedview7"
     pagecolor="#9c4444"
     bordercolor="#000000"
     borderopacity="0.25"
     inkscape:showpageshadow="2"
     inkscape:pageopacity="0.0"
     inkscape:pagecheckerboard="0"
     inkscape:deskcolor="#d1d1d1"
     inkscape:zoom="3.078125"
     inkscape:cx="129.13706"
     inkscape:cy="84.467005"
     inkscape:window-width="2560"
     inkscape:window-height="1392"
     inkscape:window-x="0"
     inkscape:window-y="0"
     inkscape:window-maximized="1"
     inkscape:current-layer="svg7"
     showgrid="false" />
  <defs
     id="defs2">
    <inkscape:path-effect
       effect="offset"
       id="path-effect2"
       is_visible="true"
       lpeversion="1.3"
       linejoin_type="miter"
       unit="mm"
       offset="1.7"
       miter_limit="4"
       attempt_force_join="false"
       update_on_knot_move="true" />
    <inkscape:path-effect
       effect="clone_original"
       css_properties=""
       attributes="style,clip-path,mask"
       linkeditem="#path1"
       is_visible="true"
       method="d"
       allow_transforms="true"
       id="path-effect1"
       lpeversion="1" />
    <style
       id="current-color-scheme"
       type="text/css">.ColorScheme-Text {color:#d8dee9} .ColorScheme-Highlight {color:#3b4252}</style>
  </defs>
  <metadata
     id="metadata2">
    <rdf:RDF>
      <cc:Work
         rdf:about="">
        <dc:format>image/svg+xml</dc:format>
        <dc:type
           rdf:resource="http://purl.org/dc/dcmitype/StillImage" />
      </cc:Work>
    </rdf:RDF>
  </metadata>
  <path
     id="path9"
     style="baseline-shift:baseline;display:inline;overflow:visible;vector-effect:none;fill:currentColor;fill-opacity:1;stroke-width:0.391968;enable-background:accumulate;stop-color:#000000"
     class="ColorScheme-Text"
     d="m 8.4665,3.174938 c -2.9166978,0 -5.2915617,2.3002578 -5.2915617,5.2919753 V 8.6628664 H 3.566948 v 2.0613316 h 0.023771 c -0.01378,0.09251 -0.023771,0.186526 -0.023771,0.282562 0,1.195155 1.1182893,2.163236 2.3521613,2.163236 v -1.404641 c -0.038823,-0.19013 -0.054506,-0.392067 -0.045577,-0.602742 0.00709,-0.166726 0.018823,-0.280075 0.045577,-0.386429 V 8.8429035 c -0.7662705,0 -1.1315056,0.2957026 -1.5681419,0.8652535 V 8.6628665 H 4.6128582 V 8.4669133 c 0,-2.1926443 1.7176215,-3.8279076 3.8536417,-3.8279076 2.1360181,0 3.8536421,1.6352633 3.8536421,3.8279076 v 0.1959531 h 0.261891 V 9.708157 C 12.145397,9.138606 11.780886,8.8429034 11.014614,8.8429034 V 9.268812 c 0.04132,0.1907639 0.04783,0.3778816 0.04682,0.897292 -9.06e-4,0.479233 -0.0093,0.694241 -0.04682,0.910934 v 0.806033 c 0.04453,0.165021 0.05238,0.339507 0,0.500012 v 0.786913 c 1.233874,0 2.351439,-0.968081 2.351439,-2.163236 0,-0.09604 -0.0101,-0.190054 -0.02377,-0.282562 h 0.02377 V 8.6628664 h 0.392009 V 8.4669133 c 0,-2.9917176 -2.374864,-5.2919753 -5.291562,-5.2919753 z m 0,1.8560774 c -1.1971555,0 -2.2629726,0.5139649 -2.9685453,1.3515184 L 5.8808693,6.7026116 C 6.5640457,5.9864585 7.4948441,5.5828446 8.4664999,5.5816686 9.4385473,5.582446 10.370114,5.9853438 11.053681,6.7018878 l 0.381365,-0.319354 C 10.729477,5.5448453 9.6637599,5.0310154 8.4665,5.0310154 Z m 0.062634,2.64175 C 7.4608843,7.6734854 6.8235387,7.8622401 6.6703697,8.2236257 6.5595976,8.4849804 6.6254565,8.8911796 6.8046225,9.053326 6.9046625,9.14386 7.2157673,9.1540181 7.8386472,9.086398 8.3977332,9.025704 8.5557573,9.039304 8.6871574,9.158224 8.8206871,9.2790649 8.7269234,9.4764664 8.4890336,9.5758648 8.4261959,9.6021214 8.1782992,9.6482799 7.938174,9.6778717 7.4616684,9.7366038 7.3179605,9.77728 7.0072934,9.9428634 6.7094247,10.101626 6.4684942,10.3485 6.3376829,10.627872 c -0.092354,0.197246 -0.1129985,0.286636 -0.1241238,0.549207 -0.035698,0.842583 0.3763834,1.490638 1.1009961,1.730919 0.2642354,0.08763 0.7750195,0.07067 1.0511811,-0.03472 0.1037674,-0.0396 0.2754098,-0.129835 0.3807441,-0.199778 0.2379894,-0.158021 0.3721177,-0.150723 0.6123539,0.03266 0.1896543,0.144773 0.398681,0.211326 0.5563368,0.177143 0.1371469,-0.02974 0.6547889,-0.398284 0.7382349,-0.525745 0.08239,-0.12583 0.07763,-0.310488 -0.01302,-0.515411 -0.09251,-0.209297 -0.09215,-0.243177 0.0029,-0.649567 0.06564,-0.280613 0.0771,-0.433719 0.07824,-1.02741 0.0012,-0.6269277 -0.0063,-0.7251707 -0.07865,-0.975942 C 10.53511,8.815511 10.358034,8.4998469 10.11875,8.254213 9.7197455,7.844619 9.2483527,7.672305 8.529112,7.6727609 Z M 6.3203206,8.858406 v 1.194115 C 6.4696829,9.8883087 6.6501146,9.7477902 6.8474096,9.6426325 6.9420916,9.5921645 7.0242858,9.5515795 7.1043394,9.5178875 V 9.4691026 C 6.8873847,9.458212 6.6966647,9.4140988 6.5763206,9.3051879 6.4518746,9.192566 6.3670731,9.0328287 6.3203206,8.8584023 Z m 2.2627628,1.778668 c 0.068626,0.0011 0.1378559,0.01685 0.2031872,0.05064 0.2327577,0.120362 0.320255,0.421187 0.1880988,0.644908 C 8.8706057,11.508282 8.6231793,11.600965 8.4180321,11.540773 8.272362,11.498033 8.1339522,11.353231 8.0860691,11.19341 7.9997197,10.905202 8.2857242,10.632357 8.5830834,10.637074 Z m -2.2627628,1.992707 v 0.854194 c 0,0.152011 0.1748664,0.274087 0.3920091,0.274087 0.2171426,0 0.3920097,-0.122076 0.3920097,-0.274087 V 13.193353 C 6.7848836,13.068827 6.5209433,12.875563 6.3203206,12.629781 Z m 4.2923654,0.222825 c -0.216639,0.167806 -0.480624,0.331666 -0.6254794,0.363071 -0.052596,0.0114 -0.1055849,0.01685 -0.1585396,0.01695 v 0.251349 c 0,0.152011 0.174867,0.274086 0.39201,0.274086 0.217142,0 0.392009,-0.122075 0.392009,-0.274086 z" />
</svg>
