<?xml version="1.0" encoding="UTF-8" standalone="no"?>
<svg
   width="64"
   height="64"
   version="1.1"
   viewBox="0 0 16.933 16.933"
   id="svg7"
   sodipodi:docname="easyeffects.svg"
   inkscape:version="1.4.4 (dcaf3e7d9e, 2026-05-05)"
   xmlns:inkscape="http://www.inkscape.org/namespaces/inkscape"
   xmlns:sodipodi="http://sodipodi.sourceforge.net/DTD/sodipodi-0.dtd"
   xmlns="http://www.w3.org/2000/svg"
   xmlns:svg="http://www.w3.org/2000/svg"
   xmlns:rdf="http://www.w3.org/1999/02/22-rdf-syntax-ns#"
   xmlns:cc="http://creativecommons.org/ns#"
   xmlns:dc="http://purl.org/dc/elements/1.1/">
  <sodipodi:namedview
     id="namedview7"
     pagecolor="#9c4444"
     bordercolor="#000000"
     borderopacity="0.25"
     inkscape:showpageshadow="2"
     inkscape:pageopacity="0.0"
     inkscape:pagecheckerboard="0"
     inkscape:deskcolor="#d1d1d1"
     inkscape:zoom="12.3125"
     inkscape:cx="49.096447"
     inkscape:cy="29.482234"
     inkscape:window-width="2560"
     inkscape:window-height="1388"
     inkscape:window-x="0"
     inkscape:window-y="0"
     inkscape:window-maximized="1"
     inkscape:current-layer="svg7"
     showgrid="false" />
  <defs
     id="defs2">
    <inkscape:path-effect
       effect="offset"
       id="path-effect8"
       is_visible="true"
       lpeversion="1.3"
       linejoin_type="round"
       unit="px"
       offset="-1"
       miter_limit="4"
       attempt_force_join="false"
       update_on_knot_move="true" />
    <style
       id="current-color-scheme"
       type="text/css">.ColorScheme-Text {color:#d8dee9} .ColorScheme-Highlight {color:#3b4252}</style>
  </defs>
  <metadata
     id="metadata2">
    <rdf:RDF>
      <cc:Work
         rdf:about="">
        <dc:format>image/svg+xml</dc:format>
        <dc:type
           rdf:resource="http://purl.org/dc/dcmitype/StillImage" />
      </cc:Work>
    </rdf:RDF>
  </metadata>
  <path
     id="path5"
     style="fill:currentColor;stroke-width:0.754717"
     d="M 8.4664999,3.1749373 A 5.2915625,5.2915625 0 0 0 3.1749373,8.4664999 5.2915625,5.2915625 0 0 0 8.4664999,13.758063 5.2915625,5.2915625 0 0 0 13.758063,8.4664999 5.2915625,5.2915625 0 0 0 8.4664999,3.1749373 Z M 5.867129,5.5886667 c 0.2571517,0 0.4641037,0.2276476 0.4641037,0.5105141 v 0.3244827 c 0.436274,0.1817409 0.742566,0.6122275 0.742566,1.1146289 0,0.5024014 -0.306292,0.9324982 -0.742566,1.114239 v 2.5525706 c 0,0.282867 -0.206952,0.510514 -0.4641037,0.510514 -0.257151,0 -0.4641038,-0.227647 -0.4641038,-0.510514 V 8.6525314 C 4.966752,8.4707906 4.6604592,8.0406938 4.6604592,7.5382924 c 0,-0.5024014 0.3062928,-0.932888 0.742566,-1.1146289 V 6.0991808 c 0,-0.2828665 0.2069528,-0.5105141 0.4641038,-0.5105141 z m 2.5993709,0 c 0.2571517,0 0.4641037,0.2276476 0.4641037,0.5105141 v 2.3669291 c 0.436274,0.1817408 0.7425658,0.6118377 0.7425658,1.114239 0,0.5024021 -0.3062918,0.9328881 -0.7425658,1.1146291 v 0.510124 c 0,0.282867 -0.206952,0.510514 -0.4641037,0.510514 -0.2571517,0 -0.4641037,-0.227647 -0.4641037,-0.510514 v -0.510124 c -0.4362747,-0.181741 -0.742566,-0.612227 -0.742566,-1.1146291 0,-0.5024013 0.3062913,-0.9324982 0.742566,-1.114239 V 6.0991808 c 0,-0.2828665 0.206952,-0.5105141 0.4641037,-0.5105141 z m 2.5993711,0 c 0.257151,0 0.464104,0.2276476 0.464104,0.5105141 v 0.8817971 c 0.436274,0.1817409 0.742566,0.6118376 0.742566,1.114239 0,0.5024014 -0.306292,0.9324982 -0.742566,1.114239 v 1.9956461 c 0,0.282867 -0.206953,0.510514 -0.464104,0.510514 -0.257151,0 -0.464104,-0.227647 -0.464104,-0.510514 V 9.2094559 C 10.165493,9.0277151 9.8592011,8.5976183 9.8592011,8.0952169 c 0,-0.5024014 0.3062919,-0.9324981 0.7425659,-1.114239 V 6.0991808 c 0,-0.2828665 0.206953,-0.5105141 0.464104,-0.5105141 z M 5.867129,6.5168742 A 1.0211787,1.0211787 0 0 0 4.8461007,7.5382924 1.0211787,1.0211787 0 0 0 5.867129,8.5593207 1.0211787,1.0211787 0 0 0 6.8881572,7.5382924 1.0211787,1.0211787 0 0 0 5.867129,6.5168742 Z m -7.8e-4,0.2074817 C 6.3183388,6.7244225 6.6803915,7.0859901 6.6802855,7.5379025 6.680219,7.9896724 6.3180579,8.3517724 5.866349,8.351839 5.414579,8.3517724 5.054429,7.9900517 5.0543624,7.5379025 5.0542564,7.0856471 5.4144202,6.7244225 5.866349,6.7243559 Z m 5.199522,0.3494428 A 1.0211787,1.0211787 0 0 0 10.044843,8.0952169 1.0211787,1.0211787 0 0 0 11.065871,9.1162451 1.0211787,1.0211787 0 0 0 12.0869,8.0952169 1.0211787,1.0211787 0 0 0 11.065871,7.0737987 Z m -3.9e-4,0.2078717 c 0.45199,6.64e-5 0.813653,0.3616339 0.813547,0.8135465 -6.6e-5,0.4517702 -0.361837,0.8134802 -0.813547,0.8135466 -0.45177,-6.67e-5 -0.812309,-0.3613976 -0.812376,-0.8135466 -1.06e-4,-0.4522552 0.360448,-0.8134798 0.812376,-0.8135465 z M 8.4664999,8.5593207 A 1.0211787,1.0211787 0 0 0 7.4454717,9.5803489 1.0211787,1.0211787 0 0 0 8.4664999,10.601767 1.0211787,1.0211787 0 0 0 9.4875282,9.5803489 1.0211787,1.0211787 0 0 0 8.4664999,8.5593207 Z M 8.46689,8.7675823 C 8.9190211,8.767649 9.2803699,9.1277808 9.2804365,9.5795688 9.2805424,10.031463 8.9188187,10.393439 8.46689,10.393505 8.0149001,10.393439 7.6528474,10.031481 7.6529533,9.5795688 7.6530199,9.1277989 8.0148198,8.767649 8.46689,8.7675823 Z"
     class="ColorScheme-Text" />
</svg>
