<svg xmlns="http://www.w3.org/2000/svg" viewBox="0 0 64 64">
  <title>MDE Quasar mark (color)</title>
  <desc>Official MDE Quasar product mark, full-color variant for non-tinted contexts: brand blue #0850FA + white #FCFCFC as sampled from assets/brand/MDE-QUAZAR-MAIN.png. Same traced geometry as mark.svg. Designed for dark surfaces; background transparent.</desc>
  <!-- faint accents: crosses, tick dashes, dotted guide lines, inner dotted arcs, ring dash tail -->
  <g fill="none" stroke="#FCFCFC" opacity=".65" stroke-linecap="round">
    <path stroke-width=".3" d="M17.95,13.39 A23.1,23.1 0 0 1 19.33,12.54 M20.21,12.07 A23.1,23.1 0 0 1 21.3,11.55 M21.75,11.35 A23.1,23.1 0 0 1 22.12,11.2 M22.35,11.11 A23.1,23.1 0 0 1 22.65,11 M23.18,10.81 A23.1,23.1 0 0 1 28.49,9.66"/>
    <path stroke-width=".28" stroke-dasharray=".05 .8" d="M12.73,27.84 A18.6,18.6 0 0 1 24.34,15.17"/>
    <path stroke-width=".3" stroke-dasharray=".45 .85" d="M27.47,50.97 A18.6,18.6 0 0 1 13.22,39.01"/>
    <path stroke-width=".24" d="M13.6,21.9 V24 M12.55,22.95 H14.65"/>
    <path stroke-width=".28" d="M21.6,40.25 V43.05 M20.2,41.65 H23"/>
    <path stroke-width=".28" stroke-linecap="butt" d="M1.7,32.05 H4.1 M4.9,32.05 H6.3 M9.2,32.05 H11.2"/>
    <path stroke-width=".3" stroke-dasharray=".4 .6" stroke-linecap="butt" d="M30.6,4.25 V8.15"/>
    <path stroke-width=".3" stroke-dasharray=".4 .7" stroke-linecap="butt" d="M30.8,46.75 V50.2 M30.8,51.9 V54.9 M30.8,56.6 V60.35"/>
  </g>
  <!-- blue plane: orbit arcs, links, node constellation (group flattens internal overlaps) -->
  <g opacity="1">
    <g fill="none" stroke="#0850FA" stroke-linecap="round">
      <path stroke-width=".42" d="M31.91,9.58 A23.1,23.1 0 0 1 50.9,21.45"/>
      <path stroke-width=".42" stroke-opacity=".5" d="M50.9,21.45 A23.1,23.1 0 0 1 53.06,26.87"/>
      <path stroke-width=".42" d="M44.44,51.22 A23.1,23.1 0 0 1 40.83,53.41 M38.41,54.43 A23.1,23.1 0 0 1 33.91,55.53"/>
      <path stroke-width=".42" stroke-opacity=".5" d="M51.8,42.05 A23.1,23.1 0 0 1 50.5,44.55"/>
      <path stroke-width="1.1" stroke-linecap="butt" d="M43.3,32.25 L51.9,38.85"/>
      <path stroke-width="1.1" stroke-linecap="butt" d="M16.3,32.25 C19.8,32.75 23.4,33.6 26.6,33.85 C31.6,34.55 37.1,40.75 40.7,49.15"/>
      <path stroke-width=".35" stroke-opacity=".3" stroke-linecap="butt" d="M34.6,32.05 H35.8 M37,32.05 H38.2"/>
    </g>
    <g fill="#0850FA">
      <circle cx="29.7" cy="17.05" r="3.25"/>
      <circle cx="16.3" cy="32.25" r="2.7"/>
      <circle cx="26.6" cy="33.85" r="1.55"/>
      <circle cx="43.3" cy="32.25" r="2.45"/>
      <circle cx="58.9" cy="31.95" r="3.3"/>
      <circle cx="51.9" cy="38.85" r="1.15"/>
      <circle cx="40.7" cy="49.15" r="3.3"/>
      <circle cx="50.1" cy="21.25" r="0.6"/>
    </g>
  </g>
  <!-- white plane: solid orbit arcs, thick links, node rings, ring-junction donuts -->
  <g fill="none" stroke="#FCFCFC">
    <path stroke-width=".3" stroke-linecap="round" d="M29.89,55.74 A23.1,23.1 0 0 1 7.66,34.26 M7.82,29.44 A23.1,23.1 0 0 1 17.45,13.73"/>
    <path stroke-width="1.25" d="M18.81,29.4 L27.55,19.49 M31.87,19.47 L41.67,30.42"/>
    <path stroke-width="1.15" d="M53.11,37.66 L56.55,34.27 M50.65,40 L43.13,46.92"/>
    <circle cx="16.3" cy="32.25" r="3.25" stroke-width="1.1"/>
    <circle cx="51.9" cy="38.85" r="1.55" stroke-width=".6"/>
    <circle cx="30.6" cy="9.55" r=".5" fill="none" stroke="#FCFCFC" stroke-width=".45"/>
    <circle cx="30.6" cy="9.55" r=".16" fill="#FCFCFC" stroke="none"/>
    <circle cx="7.6" cy="32.15" r=".5" fill="none" stroke="#FCFCFC" stroke-width=".45"/>
    <circle cx="30.8" cy="51.05" r=".5" fill="none" stroke="#FCFCFC" stroke-width=".45"/>
    <circle cx="30.8" cy="55.75" r=".5" fill="none" stroke="#FCFCFC" stroke-width=".45"/>
  </g>
</svg>
