<svg xmlns="http://www.w3.org/2000/svg" viewBox="0 0 32 32" fill="none" stroke="currentColor" stroke-width="2" stroke-linecap="round" stroke-linejoin="round"><path d="M13.52 7.35 L13.94 3.67 L18.06 3.67 L18.48 7.35 L20.36 8.13 L23.26 5.82 L26.18 8.74 L23.87 11.64 L24.65 13.52 L28.33 13.94 L28.33 18.06 L24.65 18.48 L23.87 20.36 L26.18 23.26 L23.26 26.18 L20.36 23.87 L18.48 24.65 L18.06 28.33 L13.94 28.33 L13.52 24.65 L11.64 23.87 L8.74 26.18 L5.82 23.26 L8.13 20.36 L7.35 18.48 L3.67 18.06 L3.67 13.94 L7.35 13.52 L8.13 11.64 L5.82 8.74 L8.74 5.82 L11.64 8.13 Z"/><circle cx="16" cy="16" r="3.5"/></svg>
