<svg xmlns="http://www.w3.org/2000/svg" viewBox="0 0 210 48" fill="none" stroke="currentColor" stroke-width="2" stroke-linecap="round" stroke-linejoin="round"><title>Magic Mesh</title><desc>Product wordmark lockup: mesh mark + "Magic Mesh" logotype. Text uses currentColor and a sans-serif stack; for guaranteed rendering under a font-less SVG rasterizer (resvg/usvg without a fontdb), a designer should convert the text to outlined paths.</desc><g transform="translate(4 4) scale(1.25)"><path d="M16 6 L24.7 11 L24.7 21 L16 26 L7.3 21 L7.3 11 Z"/><path d="M16 16 L16 6 M16 16 L24.7 11 M16 16 L24.7 21 M16 16 L16 26 M16 16 L7.3 21 M16 16 L7.3 11"/><circle cx="16" cy="6" r="2" fill="currentColor" stroke="none"/><circle cx="24.7" cy="11" r="2" fill="currentColor" stroke="none"/><circle cx="24.7" cy="21" r="2" fill="currentColor" stroke="none"/><circle cx="16" cy="26" r="2" fill="currentColor" stroke="none"/><circle cx="7.3" cy="21" r="2" fill="currentColor" stroke="none"/><circle cx="7.3" cy="11" r="2" fill="currentColor" stroke="none"/><circle cx="16" cy="16" r="2.6" fill="currentColor" stroke="none"/></g><text x="58" y="32" font-family="system-ui,'Inter','Roboto Flex','Segoe UI',sans-serif" font-size="25" font-weight="600" letter-spacing="-0.5" fill="currentColor" stroke="none">Magic Mesh</text></svg>
