<?xml version="1.0" encoding="UTF-8" standalone="no"?>
<svg
   width="64"
   height="64"
   version="1.1"
   viewBox="0 0 16.933 16.933"
   id="svg7"
   sodipodi:docname="arianna.svg"
   inkscape:version="1.4.4 (dcaf3e7d9e, 2026-05-05)"
   xmlns:inkscape="http://www.inkscape.org/namespaces/inkscape"
   xmlns:sodipodi="http://sodipodi.sourceforge.net/DTD/sodipodi-0.dtd"
   xmlns="http://www.w3.org/2000/svg"
   xmlns:svg="http://www.w3.org/2000/svg"
   xmlns:rdf="http://www.w3.org/1999/02/22-rdf-syntax-ns#"
   xmlns:cc="http://creativecommons.org/ns#"
   xmlns:dc="http://purl.org/dc/elements/1.1/">
  <sodipodi:namedview
     id="namedview7"
     pagecolor="#9c4444"
     bordercolor="#000000"
     borderopacity="0.25"
     inkscape:showpageshadow="2"
     inkscape:pageopacity="0.0"
     inkscape:pagecheckerboard="0"
     inkscape:deskcolor="#d1d1d1"
     inkscape:zoom="6.15625"
     inkscape:cx="15.51269"
     inkscape:cy="29.725888"
     inkscape:window-width="1183"
     inkscape:window-height="941"
     inkscape:window-x="35"
     inkscape:window-y="32"
     inkscape:window-maximized="0"
     inkscape:current-layer="svg7"
     showgrid="false" />
  <defs
     id="defs2">
    <inkscape:path-effect
       effect="offset"
       id="path-effect1"
       is_visible="true"
       lpeversion="1.3"
       linejoin_type="miter"
       unit="px"
       offset="1.0318572"
       miter_limit="4"
       attempt_force_join="false"
       update_on_knot_move="true" />
    <style
       id="current-color-scheme"
       type="text/css">.ColorScheme-Text {color:#d8dee9} .ColorScheme-Highlight {color:#3b4252}</style>
  </defs>
  <metadata
     id="metadata2">
    <rdf:RDF>
      <cc:Work
         rdf:about="">
        <dc:format>image/svg+xml</dc:format>
        <dc:type
           rdf:resource="http://purl.org/dc/dcmitype/StillImage" />
      </cc:Work>
    </rdf:RDF>
  </metadata>
  <path
     id="path5"
     style="fill:currentColor"
     d="m 3.3248655,1.4551729 v 0.2752491 2.4758723 10.1782817 0.0096 0.148809 0.23371 0.700675 4.57e-4 h 1.168554 v -4.67e-4 h 8.2903365 c 0.436691,0 0.787861,-0.490947 0.787861,-1.10054 v -0.01141 c -0.07399,0.502001 -0.392992,0.877329 -0.777818,0.877329 H 3.5585765 v -0.466041 h 9.1868365 c 0.43824,0 0.862721,-0.607804 0.862721,-1.217395 V 13.284037 2.8305054 2.5557128 c 0,-0.6095974 -0.352816,-1.1005399 -0.791056,-1.1005399 h -2.014841 l 0.36289,4.557e-4 c 0.0056,0.01969 0.01147,0.039147 0.01689,0.058884 0.01379,0.050266 0.02699,0.1009805 0.03971,0.1515468 0.0034,0.013528 0.0072,0.026621 0.01049,0.040169 0.01578,0.06422 0.03068,0.1288625 0.04473,0.1935417 0.01405,0.064627 0.02693,0.1294493 0.03926,0.1944546 0.01232,0.065006 0.02411,0.1300944 0.03469,0.1953675 0.0106,0.065377 0.02035,0.1311322 0.02921,0.1967369 0.0088,0.065614 0.01668,0.1313668 0.02373,0.1971933 0.0071,0.06577 0.01295,0.1316687 0.01826,0.1976499 0.0053,0.065986 0.01013,0.1319998 0.01369,0.1981063 v 4.557e-4 c 0.0035,0.065996 0.006,0.1320003 0.0078,0.1981063 v 4.557e-4 c 1.59e-4,0.00644 3.04e-4,0.012731 4.67e-4,0.019172 h 0.893294 c -0.0031,-0.1368975 -0.0053,-0.2737852 -0.01552,-0.4103608 -0.01469,-0.1962452 -0.03642,-0.3919645 -0.06573,-0.586559 -0.0293,-0.1945893 -0.06626,-0.3878451 -0.11001,-0.579712 -0.02026,-0.088845 -0.04241,-0.1771332 -0.06573,-0.2652068 h 0.35924 c 0.0154,0.061052 0.03119,0.1216397 0.04519,0.1830429 0.04579,0.2007986 0.08436,0.4034289 0.11503,0.6071 0.03067,0.2036695 0.05358,0.4085445 0.06893,0.613947 0.01093,0.1457793 0.01644,0.2915881 0.01963,0.437751 h 0.0036 V 3.476862 3.6557967 h -0.0036 c -0.0032,0.1461921 -0.0087,0.2923718 -0.01963,0.4382075 -0.01538,0.2053763 -0.03826,0.4103046 -0.06893,0.6139469 -0.03067,0.2036714 -0.06924,0.4063009 -0.11503,0.6071 -0.04578,0.2007701 -0.09912,0.399376 -0.159762,0.5961447 -0.06068,0.1968159 -0.128379,0.3916565 -0.203585,0.5833638 -0.07519,0.191638 -0.157671,0.3801007 -0.246948,0.5655616 -0.08926,0.1854905 -0.185639,0.3676547 -0.288486,0.5459334 -0.102866,0.1782979 -0.212322,0.3525656 -0.3282,0.5226539 -0.115882,0.1700591 -0.237846,0.3357376 -0.366085,0.4966352 -0.128214,0.1609131 -0.262296,0.3170229 -0.402147,0.4678778 l -0.0014,9.098e-4 -8.84e-4,9.098e-4 c -0.08012,0.083614 -0.326512,0.3269874 -0.435468,0.4327301 l 0.0014,0.00182 c -0.0093,0.0086 -0.019,0.016558 -0.0283,0.025105 -0.0022,0.00208 -0.0086,0.0086 -0.01049,0.010498 l -4.69e-4,-4.674e-4 C 9.8753565,9.6918069 9.7327575,9.8144279 9.5858015,9.9317255 9.4250605,10.059967 9.2599245,10.18242 9.0900795,10.298268 c -0.169855,0.115899 -0.344183,0.225342 -0.522198,0.3282 -0.178008,0.10283 -0.359851,0.198808 -0.54502,0.28803 -0.185161,0.08924 -0.373359,0.171813 -0.564649,0.246948 -0.191292,0.07509 -0.385646,0.143007 -0.581994,0.203584 -0.196344,0.06061 -0.394927,0.113548 -0.595232,0.159306 -0.200305,0.04576 -0.40212,0.08436 -0.605274,0.11503 l -0.0502,-0.354657 c 0.194823,-0.0294 0.388552,-0.06613 0.580625,-0.110009 0.192076,-0.04387 0.382338,-0.0948 0.570583,-0.152916 0.188229,-0.05807 0.373999,-0.123391 0.557345,-0.195368 0.183359,-0.07202 0.363919,-0.150927 0.541369,-0.236449 0.177446,-0.0855 0.351652,-0.177648 0.522197,-0.276162 0.170572,-0.09856 0.337576,-0.203481 0.500287,-0.3145054 0.162679,-0.1109583 0.321267,-0.2277709 0.475181,-0.3505659 0.146086,-0.1166014 0.287085,-0.2394299 0.424514,-0.3660859 0.09246,-0.089459 0.3720665,-0.3659551 0.4409455,-0.437751 0.1336,-0.1441516 0.261882,-0.2931835 0.384344,-0.4468805 v -4.675e-4 c 0.122709,-0.1539594 0.239713,-0.3120455 0.350566,-0.4747248 0.110843,-0.1626979 0.21568,-0.3297809 0.314049,-0.5002868 0.09836,-0.1704955 0.189907,-0.3443865 0.275249,-0.5217409 0.08536,-0.1773207 0.164121,-0.3577232 0.235993,-0.5409124 0.07189,-0.1832413 0.136921,-0.3692567 0.194911,-0.5573452 0.05796,-0.188046 0.108713,-0.3782885 0.15246,-0.5701262 0.04375,-0.1918671 0.08071,-0.3851218 0.110009,-0.5797118 0.0293,-0.194563 0.05104,-0.390356 0.06573,-0.5865591 0.01024,-0.1366137 0.01239,-0.2734259 0.01552,-0.410363 h -0.893305 c -1.59e-4,0.00646 -2.8e-4,0.012711 -4.67e-4,0.019171 v 4.676e-4 c -0.0017,0.066305 -0.0042,0.132735 -0.0078,0.1985627 -0.0035,0.066113 -0.0079,0.1321016 -0.01324,0.1981065 -0.0053,0.065999 -0.01165,0.131874 -0.01872,0.1976498 -0.0071,0.065859 -0.0149,0.1315573 -0.02373,0.1971934 v 4.674e-4 c -0.0089,0.065572 -0.01861,0.1309394 -0.02921,0.1962805 -0.01058,0.065287 -0.02237,0.1303467 -0.03469,0.1953674 h 4.68e-4 c -0.01232,0.065046 -0.02566,0.1298275 -0.03972,0.1944545 -0.01406,0.064692 -0.02896,0.1293079 -0.04473,0.1935417 -0.01577,0.064177 -0.03273,0.1279607 -0.05021,0.1917158 -0.0175,0.063761 -0.03558,0.1271606 -0.05477,0.1903464 v 4.674e-4 c -0.01917,0.063196 -0.03941,0.1259042 -0.06025,0.1885206 -0.02087,0.062648 -0.04229,0.1251757 -0.06482,0.1871511 h -4.69e-4 c -0.02251,0.062044 -0.04568,0.1239484 -0.06984,0.1853253 -0.02419,0.061351 -0.04904,0.1224034 -0.07486,0.1830429 -0.02583,0.060668 -0.05244,0.1208507 -0.07988,0.1807604 -0.02746,0.059909 -0.05584,0.1193772 -0.08491,0.1784783 L 10.381822,6.570811 c 0.0276,-0.056149 0.05471,-0.1124403 0.0808,-0.1693491 0.02608,-0.056932 0.05123,-0.1144378 0.07577,-0.1720877 0.02453,-0.057596 0.04823,-0.1151874 0.0712,-0.173457 0.02297,-0.058356 0.04525,-0.1172132 0.06665,-0.1761959 0.02143,-0.058949 0.04226,-0.1185399 0.06208,-0.1780219 0.01982,-0.059537 0.03884,-0.119327 0.05706,-0.1793911 0.01825,-0.060091 0.03542,-0.1202292 0.05204,-0.1807608 0.01661,-0.060553 0.03247,-0.1215349 0.04747,-0.1825864 0.01501,-0.061065 0.0291,-0.1220654 0.04245,-0.1834993 0.01337,-0.061444 0.02619,-0.1231111 0.03789,-0.184869 0.01171,-0.061755 0.02234,-0.1236611 0.03241,-0.1857816 0.01006,-0.062033 0.01943,-0.1243528 0.02784,-0.1866947 0.0084,-0.062384 0.0161,-0.1250072 0.02283,-0.1876075 0.0067,-0.062555 0.01233,-0.1249365 0.01735,-0.1876075 v -4.674e-4 c 0.005,-0.062723 0.0094,-0.1252068 0.01278,-0.188064 0.0034,-0.062976 0.0057,-0.1258765 0.0073,-0.1885205 v -4.675e-4 c 0.0018,-0.062604 0.0027,-0.1258885 0.0027,-0.1889768 0,-0.063074 -9.71e-4,-0.125932 -0.0027,-0.1885206 V 3.287429 c -0.0016,-0.062599 -0.004,-0.1251343 -0.0073,-0.1880641 v -4.558e-4 c -0.0034,-0.06282 -0.0077,-0.1253674 -0.01278,-0.188064 v -4.557e-4 c -0.005,-0.062672 -0.01063,-0.1250543 -0.01735,-0.1876077 -0.0067,-0.062549 -0.01443,-0.1252761 -0.02283,-0.1876075 -0.0084,-0.062394 -0.01778,-0.1246111 -0.02784,-0.1866947 -0.01005,-0.062103 -0.02068,-0.1240473 -0.0324,-0.1857841 -0.01171,-0.061786 -0.02453,-0.1234349 -0.03789,-0.1848688 -0.01336,-0.061433 -0.02745,-0.1224336 -0.04245,-0.1834994 -0.01498,-0.06099 -0.03087,-0.1220376 -0.04747,-0.1825864 -0.01437,-0.052358 -0.02959,-0.1045376 -0.04519,-0.1565679 H 9.8130805 c 0.05296,0.1435916 0.101812,0.2889777 0.14333,0.4363816 0.048338,0.1715941 0.08852,0.3454451 0.1209635,0.5208279 0.01622,0.087684 0.03026,0.1755119 0.04245,0.2638374 0.01219,0.088311 0.02241,0.176853 0.03058,0.2656633 0.01632,0.1776486 0.02461,0.3560795 0.02465,0.5345219 h -0.0027 c 0.0011,0.061611 0.0032,0.1340234 0.0032,0.1793913 h -0.05204 -0.116855 -0.1789345 -1.773371 c -0.0029,0.063602 -0.0069,0.1270402 -0.01278,0.1903463 -9.72e-4,0.010232 -0.0013,0.020831 -0.0023,0.031039 -0.01095,0.108445 -0.02771,0.2156809 -0.04747,0.3227217 -0.0072,0.03864 -0.01506,0.076805 -0.02329,0.1150293 -0.01679,0.078003 -0.03651,0.1554934 -0.05797,0.2323414 -0.0081,0.028896 -0.01411,0.058571 -0.02282,0.087185 l 1.959608,0.6513771 -0.106812,0.3409802 -1.971918,-0.6554851 c -0.0081,0.01984 -0.01853,0.0383 -0.02693,0.057971 -0.03344,0.078636 -0.06955,0.1563442 -0.108182,0.2327975 -0.01316,0.025949 -0.026,0.052005 -0.03972,0.077599 -0.106053,0.1987015 -0.229545,0.3885204 -0.37065,0.5678438 -0.01013,0.012859 -0.02075,0.025166 -0.03104,0.037887 -0.0079,0.00982 -0.01616,0.019922 -0.02419,0.02967 l 0.09266,0.093119 1.106017,1.1178856 0.237362,0.2401013 0.01095,0.010954 0.700675,0.7084355 c 0.0084,-0.00924 0.01726,-0.018117 0.02556,-0.027388 0.04137,-0.04628 0.08177,-0.093159 0.121876,-0.1405917 0.0401,-0.047496 0.07986,-0.095627 0.118682,-0.1442431 0.03884,-0.048575 0.07704,-0.097785 0.114572,-0.1474388 l 0.274337,0.2200166 c -0.03947,0.052224 -0.07966,0.104117 -0.120508,0.1551987 -0.04082,0.051123 -0.08244,0.1015981 -0.124614,0.1515466 v 4.674e-4 c -0.04224,0.049952 -0.08517,0.099165 -0.128724,0.1478949 -0.04068,0.045522 -0.0819,0.090233 -0.123702,0.1346576 0.0011,-0.00102 1.57e-4,5.142e-4 -0.0059,0.00685 -4.21e-4,4.908e-4 -6.31e-4,5.609e-4 -8.84e-4,9.098e-4 -4.44e-4,4.674e-4 -0.0014,0.00135 -0.0019,0.00182 -0.0032,0.00392 -0.0072,0.00916 -0.01232,0.015521 -0.01146,0.014394 -0.02641,0.033379 -0.04153,0.052494 -0.01512,0.019124 -0.03039,0.038248 -0.04245,0.053406 -0.006,0.00756 -0.01117,0.014247 -0.01552,0.019627 -5.38e-4,6.778e-4 -7.01e-4,0.00102 -8.83e-4,0.00138 l -4.67e-4,4.674e-4 v 4.675e-4 4.673e-4 h -4.67e-4 v 4.675e-4 c -0.0011,0.00162 -0.0048,0.00583 -0.01598,0.017346 l -0.0699,-0.072119 -0.06619,-0.065275 -0.11229,-0.1136601 -0.717109,-0.7248681 c -0.02056,0.020445 -0.0403,0.04195 -0.06116,0.06208 l -0.0019,0.00138 -0.0014,9.098e-4 c -0.06519,0.060054 -0.13163,0.1188094 -0.199476,0.1757394 -0.06785,0.056927 -0.137303,0.1124394 -0.207692,0.1661539 -0.05942,0.045321 -0.119651,0.089434 -0.18076,0.1323751 -0.0051,0.0036 -0.01036,0.00644 -0.01552,0.010043 -0.07872,0.054934 -0.158735,0.1084181 -0.2401,0.1593068 -0.075,0.046897 -0.151195,0.092233 -0.228233,0.1355704 -0.07704,0.043334 -0.154758,0.084915 -0.233711,0.1246152 -0.07893,0.039701 -0.159012,0.077241 -0.239645,0.1132036 -0.08065,0.035973 -0.16199,0.070071 -0.244209,0.1022485 -0.164481,0.064339 -0.332018,0.1210754 -0.501657,0.1698053 l -0.09312,-0.3450883 c 0.07975,-0.022908 0.158773,-0.047819 0.237362,-0.074404 0.07857,-0.026588 0.156875,-0.055134 0.234167,-0.085359 0.154573,-0.060493 0.306273,-0.1280426 0.45464,-0.2026711 0.0742,-0.037311 0.147173,-0.076139 0.219561,-0.1168554 0.07239,-0.04072 0.144076,-0.083296 0.214539,-0.1273538 0.07638,-0.047774 0.151145,-0.097708 0.225038,-0.1492645 0.06243,-0.043558 0.124308,-0.088459 0.184868,-0.1346576 v 4.675e-4 c 0.06611,-0.050445 0.131203,-0.1026532 0.194911,-0.1561115 0.06328,-0.053101 0.124969,-0.107431 0.185782,-0.163415 0.01669,-0.016112 0.03282,-0.033423 0.0493,-0.049755 L 7.0089685,6.3161596 c -0.0087,0.00799 -0.01774,0.015825 -0.02647,0.023736 -0.01882,0.017045 -0.03745,0.034461 -0.0566,0.051124 -0.03591,0.031196 -0.07251,0.061473 -0.109552,0.091293 -0.03703,0.029839 -0.07463,0.059221 -0.112747,0.087642 -0.03812,0.028433 -0.07681,0.056105 -0.115942,0.083077 -0.03918,0.026967 -0.07855,0.053048 -0.118682,0.078512 -0.04011,0.025455 -0.08084,0.050477 -0.121876,0.074404 -0.04102,0.023906 -0.0823,0.047052 -0.124159,0.069383 h -4.67e-4 c -0.02071,0.011064 -0.04162,0.021277 -0.06254,0.031953 -0.02132,0.010883 -0.0424,0.021934 -0.0639,0.032409 -0.04269,0.020774 -0.08573,0.040642 -0.129181,0.059797 v 4.674e-4 c -0.04338,0.019115 -0.08742,0.037323 -0.131462,0.054776 -0.04403,0.017463 -0.08812,0.033938 -0.132831,0.049755 h -4.68e-4 c -0.0447,0.015792 -0.08936,0.031095 -0.134657,0.045191 -0.04518,0.01407 -0.09074,0.02689 -0.136483,0.039256 -0.0318,0.00861 -0.06388,0.016888 -0.09586,0.024649 l -4.67e-4,4.674e-4 v 4.674e-4 h -4.67e-4 l -4.68e-4,4.675e-4 c -0.0014,9.098e-4 -0.0041,0.00203 -0.0064,0.00274 0.0018,-1.806e-4 0.0034,-2.57e-4 0.0055,-4.673e-4 -0.214915,0.058076 -0.483006,0.074265 -0.711174,0.091293 v 0.6481817 c 0.02599,-3.037e-4 0.05221,-4.44e-4 0.07805,-0.00138 0.04302,-0.00159 0.08617,-0.00407 0.12918,-0.00731 0.04297,-0.00326 0.08587,-0.00745 0.128723,-0.012323 0.04277,-0.00488 0.0853,-0.010372 0.127811,-0.01689 h 4.67e-4 c 0.04255,-0.00646 0.08504,-0.013873 0.127354,-0.02191 0.04233,-0.0081 0.08441,-0.017245 0.126441,-0.026931 0.04199,-0.00968 0.08386,-0.019772 0.125529,-0.031039 v -4.675e-4 c 0.04158,-0.011251 0.08297,-0.023242 0.124158,-0.036061 0.04114,-0.012815 0.0821,-0.026257 0.12279,-0.040625 0.04062,-0.01435 0.08086,-0.029726 0.120963,-0.045646 h 4.68e-4 c 0.04007,-0.015878 0.07968,-0.03238 0.119138,-0.049755 0.03948,-0.017397 0.07847,-0.035426 0.117312,-0.05432 0.03875,-0.018854 0.07741,-0.038533 0.115485,-0.058884 l 0.16022,0.3181568 c -0.04185,0.022359 -0.0842,0.044025 -0.126898,0.064818 -0.04269,0.020777 -0.08571,0.040649 -0.12918,0.059797 -0.0434,0.01912 -0.08739,0.037308 -0.131462,0.054776 -0.04408,0.017495 -0.08855,0.034386 -0.133288,0.050211 -0.04469,0.015797 -0.08936,0.03065 -0.134658,0.044734 -0.04519,0.014072 -0.09074,0.027337 -0.136484,0.039713 h -4.67e-4 c -0.04571,0.012366 -0.09164,0.024055 -0.137853,0.034691 -0.04614,0.010636 -0.09223,0.020321 -0.138765,0.029214 h -4.68e-4 c -0.04641,0.00886 -0.09295,0.016647 -0.139679,0.023736 -0.04677,0.00716 -0.09364,0.013789 -0.140591,0.019171 h -4.67e-4 c -0.04706,0.00534 -0.0938,0.00969 -0.141048,0.013238 h -4.67e-4 c -0.04705,0.00352 -0.09382,0.00587 -0.141048,0.00776 -0.03048,0.00126 -0.06094,0.00152 -0.09129,0.00182 v 0.5920423 0.3583258 0.377041 H 4.2597085 V 9.261288 8.9029621 7.3185681 6.9602421 6.6639954 5.3448083 l -4.67e-4,-4.674e-4 h -4.68e-4 v -4.675e-4 h -4.68e-4 v -4.673e-4 -4.675e-4 c 6.2e-5,-0.0032 0.0024,-0.00973 0.0027,-0.013238 V 5.3292334 5.328766 5.3282985 5.3278312 l -4.68e-4,-4.675e-4 v -4.674e-4 h -4.67e-4 -4.02e-4 v -0.34874 c 0.003,3.271e-4 0.0062,6.076e-4 0.0091,9.098e-4 0.04032,0.00414 0.08041,0.00798 0.120964,0.00959 0.771235,-0.019662 1.390328,-0.6566669 1.417783,-1.4570399 9.72e-4,-0.026119 0.0022,-0.052496 0.0019,-0.078512 -3.73e-4,-0.025308 -0.0021,-0.050333 -0.0036,-0.075317 -0.0017,-0.026938 -0.0034,-0.053619 -0.0064,-0.080338 -0.0023,-0.020101 -0.0057,-0.039951 -0.0087,-0.059797 -0.0049,-0.031679 -0.0096,-0.063263 -0.01643,-0.094489 -0.0029,-0.013671 -0.0067,-0.027098 -0.01004,-0.040625 -0.009,-0.036479 -0.01859,-0.072526 -0.03013,-0.1081825 -0.0027,-0.00857 -0.0058,-0.017067 -0.0087,-0.025562 -0.01352,-0.03942 -0.0281,-0.078697 -0.04473,-0.1168554 -0.0026,-0.00583 -0.0056,-0.011098 -0.0082,-0.016889 -0.01791,-0.039762 -0.03719,-0.079204 -0.05843,-0.1173118 -0.0027,-0.00493 -0.0059,-0.00971 -0.0087,-0.014607 -0.02178,-0.038079 -0.04478,-0.075244 -0.06984,-0.1113777 -0.0035,-0.00511 -0.0073,-0.01 -0.01095,-0.015064 -0.02504,-0.035181 -0.05177,-0.069206 -0.07988,-0.1022484 -0.0046,-0.00543 -0.0095,-0.011071 -0.01415,-0.016433 -0.0279,-0.03186 -0.05657,-0.062236 -0.08673,-0.091293 -0.0057,-0.00549 -0.01155,-0.011034 -0.01735,-0.016433 -0.03001,-0.027997 -0.06115,-0.054239 -0.09312,-0.079425 -0.0066,-0.00524 -0.01336,-0.010406 -0.02009,-0.01552 -0.03183,-0.024195 -0.06463,-0.047099 -0.09814,-0.06847 -0.0077,-0.00489 -0.01507,-0.00987 -0.02283,-0.014607 -0.03323,-0.020317 -0.06716,-0.039104 -0.101793,-0.056602 -0.0089,-0.00448 -0.01795,-0.00894 -0.02693,-0.013238 -0.03348,-0.016047 -0.06767,-0.030448 -0.102248,-0.043821 -0.0114,-0.0044 -0.02269,-0.00868 -0.03424,-0.012781 -0.03207,-0.011454 -0.06485,-0.021461 -0.09768,-0.030583 -0.0152,-0.00419 -0.03025,-0.00863 -0.04564,-0.012325 -0.02929,-0.00709 -0.05879,-0.0126 -0.08855,-0.017802 -0.02002,-0.00345 -0.03997,-0.00699 -0.06025,-0.00959 -0.02593,-0.00338 -0.05232,-0.00536 -0.07851,-0.0073 -0.022,-0.00161 -0.04393,-0.00309 -0.06619,-0.00365 -0.04362,0.00171 -0.08715,0.006 -0.130543,0.010521 v -0.519915 z m 1.296821,0 v 0.1707183 c 0.01273,0.00198 0.02522,0.00501 0.03789,0.0073 0.03203,0.00571 0.06351,0.012182 0.09494,0.019628 0.02667,0.00632 0.05312,0.013449 0.07942,0.020998 0.03101,0.00891 0.06188,0.018187 0.09221,0.028757 0.02693,0.00936 0.05343,0.019931 0.07988,0.030583 0.02788,0.011274 0.05543,0.022495 0.08262,0.035148 0.02879,0.013333 0.05682,0.02803 0.08491,0.042908 0.02261,0.012038 0.04506,0.023989 0.0671,0.036974 0.03147,0.018448 0.06228,0.038022 0.09266,0.058428 0.01738,0.011718 0.03463,0.023749 0.05158,0.036061 0.03249,0.023504 0.06392,0.048195 0.09494,0.073948 0.01369,0.011392 0.02727,0.022896 0.04062,0.034691 0.01594,0.01405 0.03289,0.026887 0.04838,0.041538 l 0.630837,-0.6376832 z m 1.581655,0 0.241926,0.2542516 -0.644073,0.6504643 c 0.01276,0.017808 0.02441,0.036099 0.03652,0.054319 0.01144,0.017147 0.02197,0.034942 0.03287,0.052494 0.0202,0.032666 0.03982,0.065714 0.05797,0.09951 0.01192,0.022113 0.0227,0.044449 0.03378,0.067101 0.01496,0.030722 0.03009,0.061635 0.04336,0.093119 0.01156,0.02728 0.02162,0.05514 0.03195,0.083077 0.0105,0.028545 0.02144,0.056778 0.03058,0.085816 0.0098,0.030998 0.01776,0.062809 0.02601,0.094488 0.0072,0.027675 0.01457,0.05506 0.02054,0.083077 0.0068,0.032045 0.01212,0.065055 0.01735,0.097684 0.0047,0.02929 0.0094,0.058091 0.01278,0.087642 0.0015,0.013012 0.0034,0.026164 0.0046,0.039256 h 1.553811 c -0.0024,-0.048449 -0.0031,-0.097711 -0.0073,-0.1456127 -0.0012,-0.013749 -0.0013,-0.02734 -0.0027,-0.041082 -0.0099,-0.099355 -0.02558,-0.1968323 -0.04336,-0.2935077 -0.0072,-0.038738 -0.01572,-0.077358 -0.02419,-0.1159424 -0.01304,-0.059719 -0.02743,-0.1186062 -0.04336,-0.1771089 -0.01176,-0.042956 -0.02311,-0.086068 -0.03652,-0.1287234 -0.0206,-0.065778 -0.04427,-0.1304679 -0.06847,-0.1944546 -0.0059,-0.015665 -0.01073,-0.031407 -0.01689,-0.047016 l -0.03835,-0.089924 8.84e-4,-4.557e-4 C 7.3309995,1.84787 7.2164125,1.6451682 7.0862195,1.4551738 Z m 1.295451,0 c 0.08926,0.1492766 0.172122,0.3031782 0.24147,0.465139 l 0.943973,-0.4258829 0.139678,0.3281991 -0.956753,0.431817 c 0.0048,0.014796 0.0087,0.029446 0.01324,0.044277 0.011,0.035424 0.02056,0.071408 0.03058,0.1072696 0.02132,0.076315 0.04043,0.1530307 0.05705,0.2300589 0.0078,0.035944 0.01559,0.071869 0.02237,0.1081825 0.02053,0.1098003 0.03767,0.2199796 0.04884,0.3304815 0.0015,0.014626 0.0014,0.029602 0.0027,0.044277 0.0054,0.059482 0.0096,0.1189566 0.01232,0.1784783 h 1.766525 c -0.0041,-0.1240936 -0.0096,-0.247478 -0.01643,-0.3218087 -0.0076,-0.083222 -0.01733,-0.1660166 -0.02875,-0.248774 -0.01142,-0.082744 -0.02451,-0.1652584 -0.03972,-0.2474047 -0.03041,-0.1643439 -0.06835,-0.3271371 -0.11366,-0.4879623 -0.0453,-0.1608301 -0.09813,-0.3196973 -0.157937,-0.4756377 -0.0079,-0.020435 -0.01657,-0.040375 -0.02464,-0.06071 z m -3.848923,0.11366 a 0.05959622,0.05959622 0 0 1 0.05934,0.059797 v 0.5961448 a 0.05959622,0.05959622 0 0 1 -0.05934,0.059341 0.05959622,0.05959622 0 0 1 -0.05979,-0.059341 V 1.62863 a 0.05959622,0.05959622 0 0 1 0.05979,-0.059797 z m 0,1.1922896 a 0.05959622,0.05959622 0 0 1 0.05934,0.059341 v 0.5961448 a 0.05959622,0.05959622 0 0 1 -0.05934,0.059341 0.05959622,0.05959622 0 0 1 -0.05979,-0.059341 V 2.8204631 a 0.05959622,0.05959622 0 0 1 0.05979,-0.059341 z m 2.499609,0.8946738 c -0.03216,0.3488365 -0.158278,0.6688409 -0.35011,0.9357555 l 1.119711,1.1320361 c 0.01809,-0.022279 0.03728,-0.043981 0.05478,-0.066644 0.03918,-0.050746 0.07584,-0.1035478 0.11229,-0.1565679 0.03607,-0.052497 0.07061,-0.1060495 0.103618,-0.1602196 0.02985,-0.048934 0.0592,-0.097801 0.08673,-0.1483516 0.02261,-0.041557 0.04394,-0.083631 0.06482,-0.1259846 0.0232,-0.047004 0.04501,-0.095114 0.06619,-0.1433302 0.01856,-0.042281 0.0379,-0.084431 0.05478,-0.1273542 0.03217,-0.081833 0.06142,-0.1648683 0.08764,-0.2496871 0.01192,-0.038467 0.02133,-0.077563 0.03195,-0.1163989 0.01646,-0.060396 0.03228,-0.1213524 0.04565,-0.1830429 0.0084,-0.038597 0.01614,-0.07708 0.02328,-0.1159424 0.01731,-0.094961 0.0327,-0.1909459 0.04245,-0.2884865 8.83e-4,-0.00904 0.0014,-0.017874 0.0023,-0.026932 0.0049,-0.052305 0.0052,-0.1058894 0.0078,-0.1588501 h -1.545145 z m -2.499609,0.2971593 a 0.05959622,0.05959622 0 0 1 0.05934,0.059341 v 0.5961449 a 0.05959622,0.05959622 0 0 1 -0.05934,0.059341 0.05959622,0.05959622 0 0 1 -0.05979,-0.059341 V 4.0122962 a 0.05959622,0.05959622 0 0 1 0.05979,-0.059341 z m 1.978325,0.9677083 c -0.009,0.00753 -0.01777,0.01546 -0.02693,0.022824 -0.02703,0.021789 -0.05445,0.042786 -0.08262,0.062992 h -4.68e-4 c -0.0282,0.020193 -0.05695,0.039824 -0.08628,0.058428 -0.02932,0.018629 -0.05871,0.036472 -0.08901,0.053406 h -4.67e-4 c -0.03025,0.01686 -0.06101,0.032778 -0.09221,0.047929 -0.01031,0.00502 -0.02063,0.00932 -0.03104,0.014151 0.01793,0.055418 0.04788,0.1488375 0.289856,0.8964996 l -0.330025,0.1132036 c -0.241234,-0.7453572 -0.270692,-0.8369229 -0.28894,-0.8933044 -0.01025,0.00254 -0.02027,0.00539 -0.03058,0.00776 h -4.67e-4 c -0.03373,0.00776 -0.06727,0.014696 -0.101336,0.020541 -0.03411,0.00586 -0.06878,0.010704 -0.103161,0.014607 -0.01104,0.00124 -0.02182,0.0017 -0.03287,0.00274 v 1.3214695 0.2862044 c 0.798966,-0.065526 1.517957,-0.4191603 2.061401,-0.9631436 z m -1.978325,0.2241248 a 0.05959622,0.05959622 0 0 1 0.05934,0.059797 v 0.5956886 a 0.05959622,0.05959622 0 0 1 -0.05934,0.059797 0.05959622,0.05959622 0 0 1 -0.05979,-0.059797 V 5.2045858 a 0.05959622,0.05959622 0 0 1 0.05979,-0.059797 z m 0,1.1918332 a 0.05959622,0.05959622 0 0 1 0.05934,0.059797 v 0.5956883 a 0.05959622,0.05959622 0 0 1 -0.05934,0.059797 0.05959622,0.05959622 0 0 1 -0.05979,-0.059797 V 6.3964189 a 0.05959622,0.05959622 0 0 1 0.05979,-0.059797 z m 0,1.1918331 a 0.05959622,0.05959622 0 0 1 0.05934,0.059797 v 0.5961448 a 0.05959622,0.05959622 0 0 1 -0.05934,0.059341 0.05959622,0.05959622 0 0 1 -0.05979,-0.059341 V 7.5882521 a 0.05959622,0.05959622 0 0 1 0.05979,-0.059797 z m 0,1.1922896 a 0.05959622,0.05959622 0 0 1 0.05934,0.059341 v 0.5961447 a 0.05959622,0.05959622 0 0 1 -0.05934,0.059341 0.05959622,0.05959622 0 0 1 -0.05979,-0.059341 V 8.7800852 a 0.05959622,0.05959622 0 0 1 0.05979,-0.059341 z m 4.736293,0.2779879 0.206323,0.2884866 c -0.05178,0.039251 -0.104221,0.077725 -0.157024,0.1154858 -0.05283,0.037725 -0.10595,0.074712 -0.159764,0.1109214 h -4.67e-4 c -0.05379,0.03621 -0.107771,0.071689 -0.162502,0.1063566 -0.0548,0.034706 -0.109988,0.068653 -0.165698,0.1017919 -0.05564,0.033111 -0.111929,0.065705 -0.168436,0.097227 -0.05654,0.031525 -0.113352,0.062298 -0.170718,0.092206 -0.05736,0.029902 -0.115319,0.058922 -0.173457,0.087185 -0.05814,0.028276 -0.11641,0.055547 -0.175283,0.082164 -0.05887,0.0266 -0.118463,0.05223 -0.178022,0.07714 v 4.67e-4 c -0.05954,0.02494 -0.1192,0.04889 -0.179391,0.07212 -0.06023,0.02324 -0.120841,0.04558 -0.181674,0.0671 -0.06076,0.02147 -0.121696,0.04233 -0.183042,0.06208 -0.06131,0.01977 -0.123002,0.03857 -0.18487,0.0566 -0.06185,0.01801 -0.123924,0.03489 -0.186237,0.05112 -0.06228,0.01626 -0.124869,0.03161 -0.187608,0.0461 -0.06272,0.01448 -0.125851,0.02839 -0.188977,0.04108 -0.03157,0.0064 -0.06331,0.01192 -0.09494,0.0178 -0.03164,0.0059 -0.06324,0.0119 -0.09494,0.01735 -0.06337,0.01086 -0.126678,0.02104 -0.190347,0.03013 -0.06366,0.0091 -0.127378,0.01737 -0.191259,0.02465 -0.0057,6.31e-4 -0.01127,7.48e-4 -0.01689,0.0014 -0.05825,0.0065 -0.116832,0.0128 -0.175284,0.0178 -0.03205,0.0027 -0.06425,0.0046 -0.09631,0.0069 -0.03208,0.0022 -0.06422,0.005 -0.09631,0.0069 -0.06416,0.0037 -0.128423,0.0064 -0.192629,0.0082 -0.0062,1.56e-4 -0.01872,0 -0.01872,0 v 0.866373 0.17939 h -0.173914 c -0.06267,0 -0.125415,-0.0021 -0.188064,-0.0036 V 11.36553 10.68357 10.3257 c 0,0 0.1254,0.0041 0.188064,0.0041 0.06078,0 0.121874,-0.0012 0.183044,-0.0027 0.06132,-0.0019 0.122286,-0.0043 0.183042,-0.0078 0.0407,-0.0023 0.08124,-0.0055 0.121876,-0.0087 0.02027,-0.0015 0.04091,-0.0025 0.06116,-0.0041 0.06091,-0.0052 0.121429,-0.0113 0.182131,-0.01826 h 4.67e-4 c 0.06071,-0.0069 0.121173,-0.0151 0.181674,-0.02374 0.06045,-0.0086 0.120989,-0.01798 0.181217,-0.0283 0.03011,-0.0052 0.06035,-0.01129 0.09038,-0.01689 0.03007,-0.0056 0.05995,-0.01084 0.08992,-0.01689 0.05992,-0.01206 0.119775,-0.02458 0.179391,-0.03834 0.05959,-0.01376 0.119232,-0.02883 0.178478,-0.04428 0.05919,-0.01545 0.117944,-0.0313 0.176653,-0.04839 v -4.67e-4 c 0.05878,-0.01715 0.11749,-0.03507 0.175739,-0.05386 0.05829,-0.018774 0.116592,-0.038472 0.17437,-0.058885 0.05775,-0.020424 0.115317,-0.041356 0.172544,-0.063449 0.0572,-0.022088 0.114121,-0.045221 0.170719,-0.068926 0.05661,-0.023686 0.112935,-0.048203 0.168892,-0.073491 0.05595,-0.025291 0.111361,-0.051186 0.166611,-0.078056 0.05523,-0.026847 0.110284,-0.054656 0.164784,-0.083077 0.05449,-0.028414 0.108329,-0.057701 0.162045,-0.087642 0.05369,-0.029949 0.107348,-0.060747 0.160219,-0.092206 0.05293,-0.031481 0.105413,-0.063336 0.157482,-0.096315 0.05203,-0.032956 0.10361,-0.066914 0.154741,-0.1013352 0.05112,-0.034393 0.10183,-0.069617 0.152004,-0.1054438 0.05018,-0.035884 0.09961,-0.072257 0.148808,-0.1095519 z m -4.736293,0.9138452 a 0.05959622,0.05959622 0 0 1 0.05934,0.059341 v 0.5961453 a 0.05959622,0.05959622 0 0 1 -0.05934,0.05934 0.05959622,0.05959622 0 0 1 -0.05979,-0.05934 V 9.9719182 a 0.05959622,0.05959622 0 0 1 0.05979,-0.05934 z m 0,1.1918333 a 0.05959622,0.05959622 0 0 1 0.05934,0.05979 v 0.595688 a 0.05959622,0.05959622 0 0 1 -0.05934,0.05979 0.05959622,0.05959622 0 0 1 -0.05979,-0.05979 v -0.595688 a 0.05959622,0.05959622 0 0 1 0.05979,-0.05979 z m 0,1.191833 a 0.05959622,0.05959622 0 0 1 0.05934,0.05979 v 0.595689 a 0.05959622,0.05959622 0 0 1 -0.05934,0.0598 0.05959622,0.05959622 0 0 1 -0.05979,-0.0598 v -0.595689 a 0.05959622,0.05959622 0 0 1 0.05979,-0.05979 z m 0,1.191833 a 0.05959622,0.05959622 0 0 1 0.05934,0.0598 v 0.596144 a 0.05959622,0.05959622 0 0 1 -0.05934,0.05934 0.05959622,0.05959622 0 0 1 -0.05979,-0.05934 v -0.596144 a 0.05959622,0.05959622 0 0 1 0.05979,-0.0598 z"
     class="ColorScheme-Text" />
</svg>
