<?xml version="1.0" encoding="UTF-8" standalone="no"?>
<svg
   width="64"
   height="64"
   version="1.1"
   viewBox="0 0 16.933 16.933"
   id="svg7"
   sodipodi:docname="atom.svg"
   inkscape:version="1.4.4 (dcaf3e7d9e, 2026-05-05)"
   xmlns:inkscape="http://www.inkscape.org/namespaces/inkscape"
   xmlns:sodipodi="http://sodipodi.sourceforge.net/DTD/sodipodi-0.dtd"
   xmlns="http://www.w3.org/2000/svg"
   xmlns:svg="http://www.w3.org/2000/svg"
   xmlns:rdf="http://www.w3.org/1999/02/22-rdf-syntax-ns#"
   xmlns:cc="http://creativecommons.org/ns#"
   xmlns:dc="http://purl.org/dc/elements/1.1/">
  <sodipodi:namedview
     id="namedview7"
     pagecolor="#9c4444"
     bordercolor="#000000"
     borderopacity="0.25"
     inkscape:showpageshadow="2"
     inkscape:pageopacity="0.0"
     inkscape:pagecheckerboard="0"
     inkscape:deskcolor="#d1d1d1"
     inkscape:zoom="6.15625"
     inkscape:cx="15.51269"
     inkscape:cy="29.725888"
     inkscape:window-width="1183"
     inkscape:window-height="941"
     inkscape:window-x="35"
     inkscape:window-y="32"
     inkscape:window-maximized="0"
     inkscape:current-layer="svg7"
     showgrid="false" />
  <defs
     id="defs2">
    <inkscape:path-effect
       effect="offset"
       id="path-effect1"
       is_visible="true"
       lpeversion="1.3"
       linejoin_type="miter"
       unit="px"
       offset="1.0318572"
       miter_limit="4"
       attempt_force_join="false"
       update_on_knot_move="true" />
    <style
       id="current-color-scheme"
       type="text/css">.ColorScheme-Text {color:#d8dee9} .ColorScheme-Highlight {color:#3b4252}</style>
  </defs>
  <metadata
     id="metadata2">
    <rdf:RDF>
      <cc:Work
         rdf:about="">
        <dc:format>image/svg+xml</dc:format>
        <dc:type
           rdf:resource="http://purl.org/dc/dcmitype/StillImage" />
      </cc:Work>
    </rdf:RDF>
  </metadata>
  <path
     style="fill:currentColor"
     d="M 5.8769531,1.6738281 C 5.7043252,1.6690084 5.510937,1.6800704 5.359375,1.7304687 4.7575559,1.934071 4.3846818,2.3781879 4.1875,3.0683594 4.0176343,3.668121 4.0306415,4.6870613 4.1914062,5.5390625 c 0.00414,0.021747 0.010617,0.053746 0.017578,0.089844 -0.012062,0.00278 -0.025756,0.00677 -0.039063,0.00977 C 2.9776968,5.9072615 2.0635854,6.3160802 1.4980469,6.8789062 1.2388485,7.1346505 1.0853031,7.3674656 0.99609375,7.6699219 c -0.067699,0.2252536 -0.0685115,0.6206245 0,0.8457031 0.16961325,0.5577395 0.63878815,1.0513021 1.30859375,1.4628906 0.1715846,0.1045084 0.3257836,0.1911004 0.4511719,0.2363284 0.2445072,0.08819 0.4350417,0.03747 0.5917969,-0.117188 0.1123103,-0.1108106 0.1621093,-0.2055241 0.1621093,-0.3652341 0,-0.2629958 -0.104015,-0.4031815 -0.3925781,-0.5664063 C 2.802563,8.9912099 2.5590921,8.8186327 2.3886719,8.6582031 2.2182516,8.4977735 2.1237687,8.3500066 2.0859375,8.2304688 2.0481063,8.1109309 2.0537449,8.0181044 2.109375,7.9003906 2.1650051,7.7826769 2.2831287,7.6429409 2.4785156,7.4980469 2.8821868,7.1992357 3.4710344,6.9489487 4.2871094,6.7519531 4.3589959,6.7346804 4.4190611,6.7200153 4.46875,6.7089844 4.5802886,7.1005495 4.8117637,7.7565868 4.8359375,7.8203125 L 4.9394531,8.09375 4.8046875,8.3496094 C 4.0392058,9.8083404 3.5323982,11.32058 3.4707031,12.455078 c -0.050265,0.869592 0.1063305,1.553012 0.5527344,1.996094 0.4899373,0.484043 1.1723032,0.57343 1.9785156,0.318359 0.3111513,-0.09905 0.8863858,-0.389931 1.2128906,-0.609375 0.2583668,-0.170576 0.3533066,-0.249411 0.4121094,-0.402343 0.054014,-0.140471 0.054767,-0.232945 0.00195,-0.376954 -0.082823,-0.226184 -0.2765804,-0.367187 -0.5214843,-0.367187 -0.1546975,0 -0.255341,0.04536 -0.5078125,0.214844 -0.4740399,0.317436 -0.9147582,0.507469 -1.2441407,0.5625 -0.2211543,0.0374 -0.3584727,0.0072 -0.4648437,-0.06445 -0.106371,-0.07164 -0.2024176,-0.203803 -0.2695313,-0.439454 -0.010727,-0.03796 -0.032937,-0.219468 -0.037109,-0.416015 -0.00626,-0.294821 0.0145,-0.661289 0.052734,-0.865235 C 4.7461636,11.397322 4.93899,10.762339 5.2167969,10.087891 5.2955483,9.8963495 5.4126025,9.6345529 5.515625,9.4140625 5.8841274,10.182277 6.3888888,11.05871 6.8828125,11.783203 c 1.2921681,1.892626 2.7797238,3.243926 4.0058595,3.449219 v 0.0039 c 0.561383,0.08944 1.05226,-0.04955 1.435547,-0.427734 0.306051,-0.307242 0.492307,-0.721146 0.595703,-1.265625 0.06777,-0.365517 0.06105,-1.284812 0.002,-1.720703 C 12.738544,10.499764 12.252809,8.9955115 11.53125,7.5058594 11.381706,7.1959646 11.242626,7.0702886 10.980469,7.0703125 10.678363,7.0662497 10.419922,7.299853 10.419922,7.609375 c 0,0.1422352 0.113276,0.3831825 0.171875,0.5058594 0.866072,1.8214484 1.320685,3.5865156 1.275391,4.8066406 -0.02804,0.730477 -0.203315,1.067326 -0.44336,1.183594 -0.11329,0.05508 -0.278775,0.06765 -0.5625,-0.02344 C 10.342139,13.908622 9.6854189,13.420041 9.0214844,12.705078 8.0255825,11.632634 7.0030725,10.059145 6.2382812,8.328125 L 6.1640625,8.1621094 6.2832031,7.9628906 C 6.4834955,7.622882 7.0263846,6.8057372 7.2578125,6.4960937 l 0.087891,-0.1152343 h 0.3046875 c 1.3055023,0 2.6062764,0.1477819 3.7460934,0.4042968 1.139818,0.256515 2.119582,0.624917 2.773438,1.0507813 0.120889,0.078887 0.268138,0.201164 0.390625,0.3222656 0.122487,0.1211016 0.223697,0.2521681 0.25,0.3027344 0.03429,0.063578 0.03973,0.081491 0.04297,0.095703 0.0032,0.014212 0.0078,0.049018 0.0078,0.1367188 0,0.085804 -0.005,0.1248654 -0.0078,0.1386719 -0.0028,0.013806 -0.0031,0.01951 -0.03125,0.070312 -0.05799,0.1098931 -0.184727,0.2527228 -0.369141,0.390625 -0.184414,0.1379021 -0.423559,0.2723338 -0.695312,0.3847656 -0.34993,0.1460159 -0.501954,0.2981813 -0.501954,0.5820316 0,0.252133 0.165502,0.457625 0.404297,0.529297 0.143223,0.04079 0.222067,0.03322 0.427735,-0.04687 0.958746,-0.373933 1.707574,-0.9882139 1.867187,-1.6875005 0.04647,-0.1952532 0.04164,-0.5310037 -0.0039,-0.7167969 C 15.865015,7.9733145 15.577314,7.5503293 15.265625,7.2734375 13.959358,6.1167993 11.31458,5.4038019 8.2558594,5.2871094 8.3959156,5.1327322 8.5810482,4.9383653 8.7128906,4.8066406 9.6076543,3.9092329 10.429681,3.3362155 11.107422,3.1074219 c 0.115893,-0.040104 0.173245,-0.057976 0.220703,-0.066406 0.04746,-0.00843 0.102129,-0.011719 0.220703,-0.011719 0.110878,0 0.173446,0.00376 0.201172,0.00781 0.02773,0.00405 0.02522,0.00377 0.06836,0.025391 0.02585,0.01206 0.07832,0.048713 0.125,0.095703 0.04668,0.04699 0.08838,0.1049884 0.109375,0.1445313 0.05212,0.102275 0.100819,0.2779349 0.121094,0.4902344 0.02028,0.2122994 0.01615,0.4607656 -0.01758,0.7187499 -0.02191,0.1728586 -0.04492,0.4127919 -0.04492,0.5175782 0,0.198831 0.02991,0.2904093 0.16211,0.4042968 0,0 0.002,0.00195 0.002,0.00195 0,0 0.002,0 0.002,0 0,0 0.002,0.00195 0.002,0.00195 0,0 0.002,0 0.002,0 0,0 0,0.00195 0,0.00195 0,0 0.002,0.00195 0.002,0.00195 0.10854,0.096699 0.217376,0.1308594 0.351563,0.1308594 0.203102,0 0.440425,-0.1059897 0.52539,-0.3242187 C 13.297441,4.8974118 13.334579,3.8911677 13.267578,3.4960938 13.151539,2.8201417 12.842968,2.3232301 12.324219,2.078125 11.434621,1.6536308 10.234438,2.0837935 8.9453125,3.1035156 8.2730194,3.636035 7.3857503,4.5413227 6.7832031,5.3007812 L 6.5410156,5.3144531 C 6.2564782,5.3307247 5.8128921,5.372856 5.3027344,5.4316406 l -0.00977,-0.048828 C 5.1910984,4.7972776 5.1855469,4.7504212 5.1855469,4.1914062 c 0,-0.4906382 0.00364,-0.5384961 0.048828,-0.7246093 0.1055621,-0.4472218 0.2889745,-0.6409816 0.4550781,-0.6757813 0.149404,-0.031103 0.3298155,-0.013815 0.5742188,0.082031 0.2444032,0.095847 0.5442686,0.2703837 0.9003906,0.53125 0.4145806,0.3072618 0.9719534,0.02031 0.90625,-0.4941406 C 8.0384854,2.6566134 7.8237024,2.4962472 7.453125,2.2519531 7.1239338,2.0333199 6.7455803,1.8468527 6.4257812,1.7539062 6.2587761,1.7046059 6.0567938,1.6788418 5.8769531,1.6738281 Z m 0.3046875,4.4003906 c -7.136e-4,0.00116 7.791e-4,0.00265 0,0.00391 -0.00133,0.00213 -0.00436,0.00347 -0.00586,0.00586 0.00146,-0.00396 0.00451,-0.00729 0.00586,-0.00977 z M 5.9179687,6.4667969 C 5.8371145,6.5846525 5.7446831,6.722658 5.6699219,6.8378906 5.6270049,6.7051035 5.5937692,6.5921506 5.5683594,6.5039062 c 0.032174,-0.00392 0.066296,-0.00774 0.1015625,-0.011719 0.079326,-0.00895 0.1640901,-0.017274 0.2480468,-0.025391 z M 5.8066406,7.234375 c 0.00263,0.00317 0.00657,0.00764 0.00781,0.00977 0,0 0,0.00195 0,0.00195 0,0 0,0.00195 0,0.00195 0,0 0,0.00195 0,0.00195 0,0 -0.00195,0 -0.00195,0 0,0 0,-0.00195 0,-0.00195 0,0 -0.00195,-0.00195 -0.00195,-0.00195 -5.89e-4,-0.00124 -0.00117,-0.00414 -0.00195,-0.00586 -8.682e-4,-0.00191 -8.809e-4,-0.00339 -0.00195,-0.00586 z m 2.6601563,0.2421875 c -0.5464708,0 -0.9902344,0.4443432 -0.9902344,0.9902344 0,0.5458985 0.4446343,0.9882812 0.9902344,0.9882812 0.5477295,0 0.9882812,-0.4411332 0.9882812,-0.9882812 0,-0.5450175 -0.4418067,-0.9902344 -0.9882812,-0.9902344 z"
     id="path5"
     class="ColorScheme-Text" />
</svg>
