<?xml version="1.0" encoding="UTF-8" standalone="no"?>
<svg
   id="svg3297"
   height="64"
   width="64"
   version="1.0"
   sodipodi:docname="Beeper.svg"
   inkscape:version="1.4.4 (dcaf3e7d9e, 2026-05-05)"
   xmlns:inkscape="http://www.inkscape.org/namespaces/inkscape"
   xmlns:sodipodi="http://sodipodi.sourceforge.net/DTD/sodipodi-0.dtd"
   xmlns="http://www.w3.org/2000/svg"
   xmlns:svg="http://www.w3.org/2000/svg"
   xmlns:rdf="http://www.w3.org/1999/02/22-rdf-syntax-ns#"
   xmlns:cc="http://creativecommons.org/ns#"
   xmlns:dc="http://purl.org/dc/elements/1.1/">
  <sodipodi:namedview
     id="namedview1"
     pagecolor="#9c4444"
     bordercolor="#000000"
     borderopacity="0.25"
     inkscape:showpageshadow="2"
     inkscape:pageopacity="0.0"
     inkscape:pagecheckerboard="0"
     inkscape:deskcolor="#d1d1d1"
     inkscape:zoom="13.09375"
     inkscape:cx="35.398568"
     inkscape:cy="31.045346"
     inkscape:window-width="2560"
     inkscape:window-height="1388"
     inkscape:window-x="0"
     inkscape:window-y="0"
     inkscape:window-maximized="1"
     inkscape:current-layer="svg3297" />
  <metadata
     id="metadata58">
    <rdf:RDF>
      <cc:Work
         rdf:about="">
        <dc:format>image/svg+xml</dc:format>
        <dc:type
           rdf:resource="http://purl.org/dc/dcmitype/StillImage" />
      </cc:Work>
    </rdf:RDF>
  </metadata>
  <defs
     id="defs3299">
    <style
       id="current-color-scheme"
       type="text/css">.ColorScheme-Text {color:#d8dee9} .ColorScheme-Highlight {color:#3b4252}</style>
  </defs>
  <path
     id="path5"
     style="fill:currentColor"
     d="M 32,5.5 A 26.5,26.5 0 0 0 5.5,32 26.5,26.5 0 0 0 32,58.5 26.5,26.5 0 0 0 58.5,32 26.5,26.5 0 0 0 32,5.5 Z m -4.5648,10.24016 c 3.01202,-0.0956 5.91043,-0.0956 8.86292,0 5.63875,1.10831 7.75926,4.60406 7.96343,8.88516 -0.0487,3.88149 -1.85667,5.65826 -4.38708,8.0633 2.87226,1.90558 4.55083,4.12519 4.37596,7.13025 -0.27407,4.00491 -2.65292,6.69046 -7.41916,7.39692 l -13.23888,0.0111 -0.0334,-14.92708 c -2.32713,-1.57706 -4.27727,-3.93942 -4.3426,-7.8411 0.28931,-5.16799 4.06556,-8.38831 8.21877,-8.71857 z m 8.44199,2.48236 c -2.73847,-0.0937 -5.53344,-0.0936 -8.26973,0.0315 -3.5692,0.60345 -5.8348,2.83187 -5.84297,6.40827 -0.12786,3.50318 2.72869,5.96978 5.27101,6.31587 l 4.09816,0.0222 -1.66494,8.39507 8.7958,-8.60736 c 1.78011,-1.55498 3.63886,-3.47125 3.54985,-6.50268 -0.26701,-3.05761 -2.08899,-5.47132 -5.93718,-6.06294 z"
     class="ColorScheme-Text" />
</svg>
