<?xml version="1.0" encoding="UTF-8" standalone="no"?>
<svg
   width="64"
   height="64"
   version="1.1"
   viewBox="0 0 16.933 16.933"
   id="svg7"
   sodipodi:docname="bruno.svg"
   inkscape:version="1.4.4 (dcaf3e7d9e, 2026-05-05)"
   xmlns:inkscape="http://www.inkscape.org/namespaces/inkscape"
   xmlns:sodipodi="http://sodipodi.sourceforge.net/DTD/sodipodi-0.dtd"
   xmlns="http://www.w3.org/2000/svg"
   xmlns:svg="http://www.w3.org/2000/svg"
   xmlns:rdf="http://www.w3.org/1999/02/22-rdf-syntax-ns#"
   xmlns:cc="http://creativecommons.org/ns#"
   xmlns:dc="http://purl.org/dc/elements/1.1/">
  <sodipodi:namedview
     id="namedview7"
     pagecolor="#9c4444"
     bordercolor="#000000"
     borderopacity="0.25"
     inkscape:showpageshadow="2"
     inkscape:pageopacity="0.0"
     inkscape:pagecheckerboard="0"
     inkscape:deskcolor="#d1d1d1"
     inkscape:zoom="6.15625"
     inkscape:cx="15.51269"
     inkscape:cy="29.725888"
     inkscape:window-width="1183"
     inkscape:window-height="941"
     inkscape:window-x="35"
     inkscape:window-y="32"
     inkscape:window-maximized="0"
     inkscape:current-layer="svg7"
     showgrid="false" />
  <defs
     id="defs2">
    <inkscape:path-effect
       effect="offset"
       id="path-effect1"
       is_visible="true"
       lpeversion="1.3"
       linejoin_type="miter"
       unit="px"
       offset="1.0318572"
       miter_limit="4"
       attempt_force_join="false"
       update_on_knot_move="true" />
    <style
       id="current-color-scheme"
       type="text/css">.ColorScheme-Text {color:#d8dee9} .ColorScheme-Highlight {color:#3b4252}</style>
  </defs>
  <metadata
     id="metadata2">
    <rdf:RDF>
      <cc:Work
         rdf:about="">
        <dc:format>image/svg+xml</dc:format>
        <dc:type
           rdf:resource="http://purl.org/dc/dcmitype/StillImage" />
      </cc:Work>
    </rdf:RDF>
  </metadata>
  <path
     id="path5"
     style="fill:currentColor"
     d="M 8.3096306,1.45615 C 7.8832882,1.46275 7.4510589,1.50155 7.1127135,1.5709551 6.460378,1.7047683 5.6194052,2.0346075 5.1269859,2.3497518 5.0378158,2.4068218 4.8889267,2.4524988 4.7495646,2.4655179 4.4763423,2.4910379 3.9881779,2.6861521 3.6580797,2.9017433 3.3110263,3.1284074 2.7635438,3.6256629 2.4467426,4.0019612 1.808877,4.7596208 1.0972445,6.0198258 0.58807705,7.2933209 0.38188587,7.8090324 0.34786683,7.9332075 0.33202983,8.2273007 c -0.03078,0.5716116 0.0999101,1.0777279 0.48533541,1.8791743 0.26610726,0.553334 0.74507956,1.293449 1.23545206,1.908978 0.5491735,0.689338 0.6188925,0.667311 1.0967728,-0.345935 l 0.3373643,-0.715187 -0.08204,-0.323104 C 2.9958521,9.0193784 2.9788541,7.320778 3.3612544,6.272016 3.4607845,5.9990379 3.5603536,5.8986808 3.7314657,5.8986808 c 0.2405192,0 0.3055172,0.2493102 0.1607902,0.6164845 -0.08744,0.2218472 -0.1828133,0.7331916 -0.2255233,1.208854 -0.05146,0.5731465 0.074071,1.7190834 0.2936213,2.6802427 0.1196641,0.523874 0.1138541,0.671441 -0.0395,1.006404 L 3.8173449,11.63667 3.96027,11.874851 c 0.2189061,0.364722 0.5504685,0.780853 0.8886347,1.115441 0.3619614,0.35813 0.5613095,0.500504 0.9572119,0.683539 0.0092,0.0042 0.01811,0.0084 0.02684,0.0125 0.2318463,0.09739 0.4947275,0.175798 0.7458697,0.234577 -0.01998,-0.185855 -0.03358,-0.384367 -0.0407,-0.595334 L 6.5208263,12.81292 6.247394,12.630259 C 5.4806924,12.1182 5.123302,11.52491 5.123302,10.764222 c 0,-0.416133 0.05571,-0.517542 0.2844073,-0.517542 0.2238552,0 0.2658043,0.0735 0.2908172,0.509771 0.01734,0.302492 0.04446,0.421267 0.1413231,0.619287 0.1412582,0.288786 0.4514515,0.599409 0.8111627,0.812205 0.4832575,0.285884 0.6585306,0.262467 1.2210321,-0.163274 l 0.4097071,-0.310126 v -0.43967 c 0,-0.40652 0.0072,-0.44637 0.09494,-0.528838 0.1231631,-0.115706 0.2782042,-0.113402 0.3901593,0.0058 0.07997,0.08512 0.08917,0.139801 0.08917,0.528838 v 0.433903 L 9.2657281,12.0247 c 0.2310622,0.174885 0.4680565,0.321004 0.5434995,0.335122 0.4550604,0.08515 1.2173214,-0.428077 1.5048784,-1.013214 0.119316,-0.24279 0.134501,-0.311854 0.13259,-0.603105 -0.0017,-0.256796 0.01387,-0.348789 0.07098,-0.419322 0.0902,-0.111396 0.304589,-0.115651 0.423087,-0.0084 0.07464,0.06755 0.08042,0.113482 0.06417,0.505125 -0.02135,0.514462 -0.111704,0.782869 -0.387116,1.149248 -0.207335,0.275818 -0.665084,0.654152 -0.977481,0.807958 l -0.205095,0.101021 -0.0046,0.621932 c -0.0014,0.189344 -0.0063,0.349984 -0.01714,0.494951 0.284951,-0.07706 0.599228,-0.187897 0.815892,-0.281044 0.04166,-0.02253 0.08516,-0.04554 0.128824,-0.06802 0.557047,-0.286833 1.137717,-0.909027 1.608066,-1.723111 l 0.192916,-0.33392 -0.09734,-0.192035 c -0.143818,-0.283809 -0.181966,-0.55444 -0.119132,-0.845612 0.02896,-0.134213 0.09008,-0.419386 0.135795,-0.6337091 0.152725,-0.7160416 0.220092,-1.4781733 0.192115,-2.1739978 -0.02585,-0.6430276 -0.06077,-0.8512928 -0.230811,-1.3780562 -0.11042,-0.3420673 -0.09205,-0.4776404 0.07411,-0.5464635 0.21865,-0.09057 0.322201,-0.0074 0.480609,0.3863133 0.358806,0.8917058 0.348529,2.7002244 -0.02371,4.1702213 -0.04379,0.172961 -0.07963,0.369406 -0.07963,0.436466 0,0.165381 0.624719,1.46481 0.731771,1.522102 0.201809,0.108005 0.278161,0.06329 0.616563,-0.361479 0.558048,-0.700477 1.095885,-1.566682 1.391676,-2.2412133 C 16.530391,9.0502072 16.67576,8.2258194 16.571928,7.7998001 16.424977,7.1967639 15.808685,5.7453746 15.391292,5.019223 14.583997,3.6147488 13.432128,2.7018141 12.464695,2.699736 12.268036,2.6993181 12.199022,2.674966 11.943627,2.5160329 11.178303,2.0397585 10.29717,1.6899352 9.4713615,1.5344651 9.1564933,1.475185 8.7360379,1.449595 8.3096956,1.456195 Z m 3.1622144,4.3604937 c 0.291651,0 0.487718,0.1377381 0.577789,0.4059423 0.105457,0.3140153 -0.136063,0.7044657 -0.43198,0.6983616 -0.08634,-0.0018 -0.184633,-0.01294 -0.218473,-0.02476 -0.03384,-0.01182 -0.139976,-0.05813 -0.235858,-0.102948 l -0.17433,-0.08148 V 6.4679782 c 0,-0.4401014 0.156571,-0.6513345 0.482852,-0.6513345 z m -5.3983013,0.0054 c 0.3363003,-0.003 0.4854164,0.1975864 0.4854164,0.6459627 v 0.2437902 l -0.1906742,0.09229 c -0.10487,0.05077 -0.2764282,0.1005651 -0.3812663,0.1106381 -0.1619831,0.01556 -0.2102972,0.0018 -0.3213413,-0.09165 C 5.4103891,6.6082664 5.4053881,6.200929 5.6550283,5.9617628 c 0.09665,-0.0926 0.1709252,-0.1216831 0.3488203,-0.1364351 0.02409,-0.002 0.04728,-0.0031 0.0697,-0.0033 z M 8.6596519,8.4829 C 9.6455697,8.50212 9.7189227,8.50884 9.8273268,8.5892921 9.9725599,8.697078 10.366863,9.5451297 10.370907,9.7584128 10.374393,9.942711 10.328476,9.983839 9.8609749,10.215708 9.4416825,10.423662 9.3372634,10.453186 9.1636552,10.412627 8.9690211,10.367158 8.859987,10.280019 8.772855,10.100419 8.6687198,9.8857742 8.6709698,9.8244391 8.787995,9.6883889 c 0.150122,-0.1745281 0.4300954,-0.1386191 0.5135364,0.06585 0.02261,0.0554 0.0519,0.05003 0.2147881,-0.03958 L 9.7049098,9.6109109 9.5900246,9.3545427 9.4750606,9.0981754 H 8.5557418 7.636424 l -0.08749,0.2401043 c -0.048141,0.1320381 -0.08756,0.2596682 -0.08756,0.2836862 0,0.024021 0.08308,0.0754 0.1845842,0.1141642 l 0.184505,0.0705 0.08508,-0.108155 C 8.1063154,9.4559468 8.4815387,9.641725 8.4309217,9.9536412 8.3839016,10.243378 8.1643485,10.413014 7.8420772,10.408694 7.6730541,10.406394 6.9751014,10.141082 6.8448873,10.02959 c -0.0461,-0.03947 -0.08084,-0.1205559 -0.08084,-0.1886709 0,-0.1749972 0.3513092,-1.0716219 0.4640254,-1.184338 C 7.4084628,8.4761909 7.5339429,8.460946 8.6596458,8.482892 Z m -0.09077,3.773733 c -0.0227,0 -0.1935322,0.120376 -0.3795844,0.267502 -0.3560326,0.28154 -0.6733248,0.429813 -0.919799,0.429813 H 7.1217666 l 0.02179,0.564009 c 0.03111,0.80427 0.1688141,1.344534 0.4182004,1.640913 0.2290201,0.272175 1.1496409,0.411564 1.6550934,0.250599 0.2924052,-0.09312 0.5652214,-0.805898 0.6453254,-1.686018 0.036,-0.395546 -0.0052,-0.769503 -0.08468,-0.769503 -0.1587081,0 -0.5269344,-0.190928 -0.8290277,-0.429817 C 8.762416,12.377009 8.5915858,12.256633 8.5688819,12.256633 Z"
     class="ColorScheme-Text" />
</svg>
