<?xml version="1.0" encoding="UTF-8" standalone="no"?>
<svg
   width="64"
   height="64"
   version="1.1"
   viewBox="0 0 16.933 16.933"
   id="svg7"
   sodipodi:docname="cliamp.svg"
   inkscape:version="1.4.4 (dcaf3e7d9e, 2026-05-05)"
   xmlns:inkscape="http://www.inkscape.org/namespaces/inkscape"
   xmlns:sodipodi="http://sodipodi.sourceforge.net/DTD/sodipodi-0.dtd"
   xmlns="http://www.w3.org/2000/svg"
   xmlns:svg="http://www.w3.org/2000/svg"
   xmlns:rdf="http://www.w3.org/1999/02/22-rdf-syntax-ns#"
   xmlns:cc="http://creativecommons.org/ns#"
   xmlns:dc="http://purl.org/dc/elements/1.1/">
  <sodipodi:namedview
     id="namedview7"
     pagecolor="#9c4444"
     bordercolor="#000000"
     borderopacity="0.25"
     inkscape:showpageshadow="2"
     inkscape:pageopacity="0.0"
     inkscape:pagecheckerboard="0"
     inkscape:deskcolor="#d1d1d1"
     inkscape:zoom="4.3531262"
     inkscape:cx="89.820506"
     inkscape:cy="34.802575"
     inkscape:window-width="2560"
     inkscape:window-height="1388"
     inkscape:window-x="0"
     inkscape:window-y="0"
     inkscape:window-maximized="1"
     inkscape:current-layer="svg7"
     showgrid="false" />
  <defs
     id="defs2">
    <style
       id="current-color-scheme"
       type="text/css">.ColorScheme-Text {color:#d8dee9} .ColorScheme-Highlight {color:#3b4252}</style>
  </defs>
  <metadata
     id="metadata2">
    <rdf:RDF>
      <cc:Work
         rdf:about="">
        <dc:format>image/svg+xml</dc:format>
        <dc:type
           rdf:resource="http://purl.org/dc/dcmitype/StillImage" />
      </cc:Work>
    </rdf:RDF>
  </metadata>
  <path
     id="path5"
     d="m 3.2080085,1.4551797 c -0.971067,0 -1.752829,0.7817623 -1.752829,1.7528301 V 13.72499 c 0,0.971068 0.781762,1.75283 1.752829,1.75283 H 13.724989 c 0.971068,0 1.752831,-0.781762 1.752831,-1.75283 V 3.2080098 c 0,-0.9710678 -0.781763,-1.7528301 -1.752831,-1.7528301 z m 0.261042,2.9459184 1.318903,0.681276 V 5.2971983 L 3.4690505,5.9382482 V 5.5787808 L 4.3215025,5.1833671 3.4690505,4.7631329 Z m 6.9693815,0.121534 h 0.876417 c 0.121386,0 0.219103,0.09772 0.219103,0.2191038 v 7.4495281 c 0,0.121383 -0.09772,0.219103 -0.219103,0.219103 h -0.876417 c -0.121386,0 -0.219103,-0.09772 -0.219103,-0.219103 V 4.7417359 c 0,-0.1213832 0.09772,-0.2191038 0.219103,-0.2191038 z M 6.9327725,5.3990472 h 0.876416 c 0.121387,0 0.219104,0.097721 0.219104,0.2191037 v 6.5731131 c 0,0.121383 -0.09772,0.219103 -0.219104,0.219103 h -0.876416 c -0.121386,0 -0.219103,-0.09772 -0.219103,-0.219103 V 6.848898 h -0.454469 c 0.0106,0.025763 0.01623,0.054201 0.01623,0.083876 v 5.25849 c 0,0.121383 -0.09772,0.219104 -0.219103,0.219104 h -0.876415 c -0.121386,0 -0.219104,-0.09772 -0.219104,-0.219104 v -5.25849 c 0,-0.071979 0.03402,-0.1355591 0.0873,-0.1754544 V 6.4808724 h 1.66553 V 5.6181513 c 0,-0.1213832 0.09772,-0.2191036 0.219104,-0.2191036 z M 6.7136695,6.480872 v 0.368026 h 0.175454 V 6.480872 Z m -1.66553,0.2764472 v 0.091579 h 1.211061 C 6.2264405,6.7692742 6.1480665,6.7136704 6.0563585,6.7136704 h -0.876415 c -0.04941,0 -0.09523,0.016264 -0.131804,0.043649 z M 12.191263,5.8372547 h 0.876416 c 0.121386,0 0.219104,0.09772 0.219104,0.2191039 v 6.1349054 c 0,0.121383 -0.09772,0.219103 -0.219104,0.219103 h -0.876416 c -0.121386,0 -0.219103,-0.09772 -0.219103,-0.219103 V 6.0563586 c 0,-0.1213833 0.09772,-0.2191039 0.219103,-0.2191039 z M 8.6856035,6.2754622 h 0.876415 c 0.121386,0 0.219103,0.09772 0.219103,0.2191038 v 5.696698 c 0,0.121383 -0.09772,0.219103 -0.219103,0.219103 h -0.876415 c -0.121386,0 -0.219104,-0.09772 -0.219104,-0.219103 V 6.4945662 c 0,-0.1213832 0.09772,-0.2191038 0.219104,-0.219104 z m -5.258489,1.7528301 h 0.876414 c 0.121387,0 0.219104,0.09772 0.219104,0.2191039 v 3.9438678 c 0,0.121383 -0.09772,0.219103 -0.219104,0.219103 h -0.876414 c -0.121387,0 -0.219106,-0.09772 -0.219106,-0.219103 V 8.2473962 c 0,-0.1213833 0.09772,-0.2191039 0.219106,-0.2191039 z M 2.5506975,13.286782 H 14.382302 c 0.121386,0 0.219103,0.09772 0.219103,0.219104 0,0.121384 -0.09772,0.219104 -0.219103,0.219104 H 2.5506975 c -0.121386,0 -0.219103,-0.09772 -0.219103,-0.219104 0,-0.121383 0.09772,-0.219104 0.219103,-0.219104 z"
     style="fill:currentColor"
     class="ColorScheme-Text" />
</svg>
