<?xml version="1.0" encoding="UTF-8" standalone="no"?>
<svg
   width="64"
   height="64"
   version="1.1"
   viewBox="0 0 16.933 16.933"
   id="svg7"
   sodipodi:docname="com.rtosta.zapzap.svg"
   inkscape:version="1.4.4 (dcaf3e7d9e, 2026-05-05)"
   xmlns:inkscape="http://www.inkscape.org/namespaces/inkscape"
   xmlns:sodipodi="http://sodipodi.sourceforge.net/DTD/sodipodi-0.dtd"
   xmlns="http://www.w3.org/2000/svg"
   xmlns:svg="http://www.w3.org/2000/svg"
   xmlns:rdf="http://www.w3.org/1999/02/22-rdf-syntax-ns#"
   xmlns:cc="http://creativecommons.org/ns#"
   xmlns:dc="http://purl.org/dc/elements/1.1/">
  <sodipodi:namedview
     id="namedview7"
     pagecolor="#9c4444"
     bordercolor="#000000"
     borderopacity="0.25"
     inkscape:showpageshadow="2"
     inkscape:pageopacity="0.0"
     inkscape:pagecheckerboard="0"
     inkscape:deskcolor="#d1d1d1"
     inkscape:zoom="6.15625"
     inkscape:cx="15.51269"
     inkscape:cy="29.725888"
     inkscape:window-width="1183"
     inkscape:window-height="941"
     inkscape:window-x="35"
     inkscape:window-y="32"
     inkscape:window-maximized="0"
     inkscape:current-layer="svg7"
     showgrid="false" />
  <defs
     id="defs2">
    <inkscape:path-effect
       effect="offset"
       id="path-effect1"
       is_visible="true"
       lpeversion="1.3"
       linejoin_type="miter"
       unit="px"
       offset="1.0318572"
       miter_limit="4"
       attempt_force_join="false"
       update_on_knot_move="true" />
    <style
       id="current-color-scheme"
       type="text/css">.ColorScheme-Text {color:#d8dee9} .ColorScheme-Highlight {color:#3b4252}</style>
  </defs>
  <metadata
     id="metadata2">
    <rdf:RDF>
      <cc:Work
         rdf:about="">
        <dc:format>image/svg+xml</dc:format>
        <dc:type
           rdf:resource="http://purl.org/dc/dcmitype/StillImage" />
      </cc:Work>
    </rdf:RDF>
  </metadata>
  <path
     id="path5"
     style="fill:currentColor"
     d="m 8.4666892,1.4551795 c -4.1106864,0 -7.4432055,3.138947 -7.4432702,7.011194 0.0011,1.195951 0.3269805,2.3718015 0.9465738,3.4156555 l -0.5563397,2.138639 -0.075215,0.288726 c -0.1486687,0.571245 0.4231194,1.129194 1.0291208,1.004343 l 2.7828358,-0.573404 c 1.0300017,0.484127 2.1651962,0.736517 3.3162946,0.737488 4.1107517,0 7.4429567,-3.1392 7.4428917,-7.0114475 0,-3.872247 -3.332205,-7.011194 -7.4428918,-7.011194 z m -0.032361,0.988795 c 3.4735528,1.3e-4 6.2941838,2.663381 6.3103648,5.958687 L 8.5665553,11.13152 13.921372,11.386114 c -1.120938,1.873472 -3.216303,3.031226 -5.4870438,3.031614 -3.4852681,0 -6.3106178,-2.680374 -6.3106178,-5.9868765 5.186e-4,-0.131647 0.00565,-0.263274 0.015422,-0.394532 L 8.7283628,5.1259335 3.3630543,4.8708345 c 1.1893498,-1.525715 3.0711393,-2.426213 5.0712739,-2.42686 z"
     class="ColorScheme-Text" />
</svg>
