<?xml version="1.0" encoding="UTF-8" standalone="no"?>
<svg
   width="64"
   height="64"
   version="1.1"
   viewBox="0 0 16.933 16.933"
   id="svg7"
   sodipodi:docname="devin-desktop.svg"
   inkscape:version="1.4.4 (dcaf3e7d9e, 2026-05-05)"
   xmlns:inkscape="http://www.inkscape.org/namespaces/inkscape"
   xmlns:sodipodi="http://sodipodi.sourceforge.net/DTD/sodipodi-0.dtd"
   xmlns="http://www.w3.org/2000/svg"
   xmlns:svg="http://www.w3.org/2000/svg"
   xmlns:rdf="http://www.w3.org/1999/02/22-rdf-syntax-ns#"
   xmlns:cc="http://creativecommons.org/ns#"
   xmlns:dc="http://purl.org/dc/elements/1.1/">
  <sodipodi:namedview
     id="namedview7"
     pagecolor="#9c4444"
     bordercolor="#000000"
     borderopacity="0.25"
     inkscape:showpageshadow="2"
     inkscape:pageopacity="0.0"
     inkscape:pagecheckerboard="0"
     inkscape:deskcolor="#d1d1d1"
     inkscape:zoom="6.15625"
     inkscape:cx="15.51269"
     inkscape:cy="29.725888"
     inkscape:window-width="1183"
     inkscape:window-height="941"
     inkscape:window-x="35"
     inkscape:window-y="32"
     inkscape:window-maximized="0"
     inkscape:current-layer="svg7"
     showgrid="false" />
  <defs
     id="defs2">
    <inkscape:path-effect
       effect="offset"
       id="path-effect1"
       is_visible="true"
       lpeversion="1.3"
       linejoin_type="miter"
       unit="px"
       offset="1.0318572"
       miter_limit="4"
       attempt_force_join="false"
       update_on_knot_move="true" />
    <style
       id="current-color-scheme"
       type="text/css">.ColorScheme-Text {color:#d8dee9} .ColorScheme-Highlight {color:#3b4252}</style>
  </defs>
  <metadata
     id="metadata2">
    <rdf:RDF>
      <cc:Work
         rdf:about="">
        <dc:format>image/svg+xml</dc:format>
        <dc:type
           rdf:resource="http://purl.org/dc/dcmitype/StillImage" />
      </cc:Work>
    </rdf:RDF>
  </metadata>
  <path
     d="m 8.1161193,9.7349855 a 1.4543917,1.4543917 0 0 1 -1.457124,0 l -1.162785,-0.674342 c -0.03737,-0.02277 -0.07746,-0.03645 -0.118448,-0.05012 l -0.02549,-0.0073 c -0.0392,-0.0091 -0.08018,-0.01457 -0.121203,-0.01639 h -0.0045 c -0.0045,0 -0.009,0.0018 -0.01274,0.0027 a 0.4319434,0.4319434 0 0 0 -0.11118,0.01457 l -0.01929,0.0045 a 0.56134415,0.56134415 0 0 0 -0.114831,0.04739 c -0.0038,0.0018 -0.0083,0.0018 -0.01171,0.0045 L 2.6294263,10.411 a 0.54402998,0.54402998 0 0 0 -0.27065,0.470217 v 2.702835 a 0.5431187,0.5431187 0 0 0 0.27065,0.469306 l 2.32557,1.351417 a 0.53491725,0.53491725 0 0 0 0.539473,0 l 2.32648,-1.350504 0.01,-0.0072 a 0.55587651,0.55587651 0 0 0 0.09844,-0.07653 l 0.01274,-0.01447 a 0.58048088,0.58048088 0 0 0 0.06926,-0.09114 c 0.0027,-0.0045 0.0072,-0.009 0.009,-0.01447 a 0.51942561,0.51942561 0 0 0 0.04739,-0.113005 l 0.0065,-0.02652 a 0.55769907,0.55769907 0 0 0 0.01653,-0.127575 v -1.350507 c 0,-0.52125 0.279742,-1.006958 0.729017,-1.269404 a 1.455303,1.455303 0 0 1 1.4571267,0 l 1.162782,0.676166 a 0.53218342,0.53218342 0 0 0 0.118483,0.04829 l 0.02549,0.0072 a 0.56498923,0.56498923 0 0 0 0.121203,0.01653 h 0.01825 a 0.53491725,0.53491725 0 0 0 0.245127,-0.06744 l 0.01102,-0.0038 2.327389,-1.352329 A 0.5431187,0.5431187 0 0 0 14.57611,9.8177715 v -2.702835 c 0,-0.193192 -0.102054,-0.372711 -0.26972,-0.469306 l -2.327406,-1.351418 c 0,0 -0.0072,-0.0018 -0.01102,-0.0045 -0.03644,-0.02005 -0.07474,-0.03645 -0.114831,-0.04739 l -0.01825,-0.0037 a 0.51942561,0.51942561 0 0 0 -0.112075,-0.0155 l -0.01274,-0.0018 h -0.0055 c -0.04922,0 -0.09844,0.0091 -0.145795,0.02277 a 0.53491725,0.53491725 0 0 0 -0.118448,0.04921 l -1.163577,0.675272 A 1.455303,1.455303 0 0 1 8.0915143,4.7002015 V 3.3496952 c 0,-0.044651 -0.0065,-0.086571 -0.01722,-0.1275784 l -0.0065,-0.025522 a 0.56407799,0.56407799 0 0 0 -0.04646,-0.1139082 c -0.0038,-0.00548 -0.0072,-0.00913 -0.009,-0.014569 a 0.54676378,0.54676378 0 0 0 -0.06926,-0.091128 l -0.01274,-0.013674 c -0.02997,-0.029173 -0.06289,-0.054677 -0.0984,-0.076548 -0.0038,-0.00182 -0.0055,-0.00548 -0.01,-0.0073 L 5.4943883,1.5280604 a 0.53765106,0.53765106 0 0 0 -0.540386,0 l -2.327392,1.351418 a 0.54402998,0.54402998 0 0 0 -0.26972,0.4702168 v 2.7019243 a 0.54220742,0.54220742 0 0 0 0.26972,0.470217 l 2.327392,1.351418 c 0,0 0.0072,0.0018 0.01102,0.0045 a 0.49208739,0.49208739 0 0 0 0.114831,0.04648 c 0.0065,0.0027 0.01171,0.0027 0.01825,0.0045 a 0.57865836,0.57865836 0 0 0 0.113901,0.0155 h 0.01653 a 0.50757904,0.50757904 0 0 0 0.145796,-0.0237 0.5358285,0.5358285 0 0 0 0.118447,-0.0483 l 1.162782,-0.676164 a 1.4534804,1.4534804 0 0 1 1.456215,0 1.4717059,1.4717059 0 0 1 0,2.537895 z"
     id="path5"
     style="fill:currentColor"
     class="ColorScheme-Text" />
</svg>
