<?xml version="1.0" encoding="UTF-8" standalone="no"?>
<svg
   width="64"
   height="64"
   version="1.1"
   viewBox="0 0 16.933 16.933"
   id="svg7"
   sodipodi:docname="devin-desktop-alt.svg"
   inkscape:version="1.4.4 (dcaf3e7d9e, 2026-05-05)"
   xmlns:inkscape="http://www.inkscape.org/namespaces/inkscape"
   xmlns:sodipodi="http://sodipodi.sourceforge.net/DTD/sodipodi-0.dtd"
   xmlns="http://www.w3.org/2000/svg"
   xmlns:svg="http://www.w3.org/2000/svg"
   xmlns:rdf="http://www.w3.org/1999/02/22-rdf-syntax-ns#"
   xmlns:cc="http://creativecommons.org/ns#"
   xmlns:dc="http://purl.org/dc/elements/1.1/">
  <sodipodi:namedview
     id="namedview7"
     pagecolor="#9c4444"
     bordercolor="#000000"
     borderopacity="0.25"
     inkscape:showpageshadow="2"
     inkscape:pageopacity="0.0"
     inkscape:pagecheckerboard="0"
     inkscape:deskcolor="#d1d1d1"
     inkscape:zoom="6.15625"
     inkscape:cx="15.51269"
     inkscape:cy="29.725888"
     inkscape:window-width="1183"
     inkscape:window-height="941"
     inkscape:window-x="35"
     inkscape:window-y="32"
     inkscape:window-maximized="0"
     inkscape:current-layer="svg7"
     showgrid="false" />
  <defs
     id="defs2">
    <inkscape:path-effect
       effect="offset"
       id="path-effect1"
       is_visible="true"
       lpeversion="1.3"
       linejoin_type="miter"
       unit="px"
       offset="1.0318572"
       miter_limit="4"
       attempt_force_join="false"
       update_on_knot_move="true" />
    <style
       id="current-color-scheme"
       type="text/css">.ColorScheme-Text {color:#d8dee9} .ColorScheme-Highlight {color:#3b4252}</style>
  </defs>
  <metadata
     id="metadata2">
    <rdf:RDF>
      <cc:Work
         rdf:about="">
        <dc:format>image/svg+xml</dc:format>
        <dc:type
           rdf:resource="http://purl.org/dc/dcmitype/StillImage" />
      </cc:Work>
    </rdf:RDF>
  </metadata>
  <path
     id="path5"
     d="m 8.4650929,1.4551905 a 0.3480602,0.3480602 0 0 0 -0.176038,0.047482 l -1.513639,0.8766822 -0.0058,0.00578 a 0.36110505,0.36110505 0 0 0 -0.06486,0.049797 l -0.0081,0.00926 a 0.37474282,0.37474282 0 0 0 -0.04516,0.059062 c -0.0013,0.00222 -0.0043,0.00563 -0.0058,0.00811 v 0.00116 a 0.33798009,0.33798009 0 0 0 -0.03126,0.074118 l -0.0047,0.016203 a 0.36288388,0.36288388 0 0 0 -0.01053,0.083383 v 0.8789984 c 0,0.339166 -0.181328,0.6549568 -0.473662,0.8257257 a 0.94693718,0.94693718 0 0 1 -0.948486,0 L 4.4210049,3.9508974 a 0.35754736,0.35754736 0 0 0 -0.077587,-0.031268 l -0.01614,-0.00464 a 0.39015946,0.39015946 0 0 0 -0.07875,-0.010421 h -0.01277 a 0.33798009,0.33798009 0 0 0 -0.15867,0.044009 h -0.0012 -0.0012 l -0.0012,0.00116 c -6.3e-4,1.853e-4 -0.0029,8.894e-4 -0.0036,0.00116 l -1.513638,0.8801566 a 0.35339672,0.35339672 0 0 0 -0.176039,0.3057386 v 1.7591548 c 0,0.126297 0.06692,0.242321 0.176039,0.30458 l 1.514797,0.878998 a 0.34924608,0.34924608 0 0 0 0.350903,0 l 1.513638,-0.878998 0.0058,-0.0046 a 0.36051209,0.36051209 0 0 0 0.066,-0.0498 l 0.0069,-0.0093 a 0.37414987,0.37414987 0 0 0 0.04516,-0.05906 c 0.0013,-0.0022 0.0045,-0.0056 0.0058,-0.0081 v -0.0012 a 0.33086471,0.33086471 0 0 0 0.03126,-0.07412 l 0.0047,-0.01737 a 0.36229093,0.36229093 0 0 0 0.01053,-0.08222 v -0.880154 c 0,-0.3391655 0.182494,-0.6543911 0.474821,-0.824567 a 0.94575128,0.94575128 0 0 1 0.947327,0 l 0.75739,0.4400781 a 0.32019165,0.32019165 0 0 0 0.07644,0.031268 l 0.01614,0.00578 c 0.02609,0.00594 0.05206,0.00867 0.07875,0.00926 h 0.0047 l 0.0069,-0.00116 a 0.3480602,0.3480602 0 0 0 0.159813,-0.044009 l 0.0069,-0.00231 1.5147951,-0.8789984 a 0.35339672,0.35339672 0 0 0 0.1764,-0.3057081 V 2.6862516 A 0.35280377,0.35280377 0 0 0 10.15592,2.3793548 L 8.6399669,1.5026726 a 0.3480602,0.3480602 0 0 0 -0.174874,-0.047482 z m 4.2201191,2.4470666 a 0.3480602,0.3480602 0 0 0 -0.174874,0.047482 l -1.513638,0.8789984 -0.0069,0.00464 a 0.36169798,0.36169798 0 0 0 -0.06369,0.049797 l -0.0081,0.00926 a 0.37770756,0.37770756 0 0 0 -0.04516,0.059062 c -0.0014,0.00222 -0.0045,0.00563 -0.0058,0.00811 v 0.00116 0.00116 a 0.33798009,0.33798009 0 0 0 -0.03126,0.072959 l -0.0047,0.017369 a 0.36288388,0.36288388 0 0 0 -0.01053,0.083383 v 0.877841 c 0,0.339166 -0.18135,0.656115 -0.473662,0.826883 a 0.94693718,0.94693718 0 0 1 -0.9484851,0 l -0.756075,-0.440071 a 0.34628134,0.34628134 0 0 0 -0.07759,-0.03127 l -0.01614,-0.0058 a 0.36762745,0.36762745 0 0 0 -0.07875,-0.01042 h -0.01278 a 0.3480602,0.3480602 0 0 0 -0.15867,0.04401 l -0.0081,0.0023 -1.513638,0.880156 a 0.35339672,0.35339672 0 0 0 -0.176039,0.305738 v 1.759155 c 0,0.125704 0.06692,0.241729 0.176039,0.304581 l 1.513638,0.8801565 c 0,0 0.0047,0.0012 0.0069,0.0023 h 0.0012 c 0.02371,0.01304 0.04803,0.02415 0.07411,0.03126 l 0.01165,0.0023 a 0.33798009,0.33798009 0 0 0 0.07297,0.01042 l 0.0081,0.0012 h 0.0047 c 0.03203,0 0.06298,-0.0062 0.09381,-0.01506 a 0.3480602,0.3480602 0 0 0 0.07759,-0.03243 l 0.757397,-0.438921 a 0.94693718,0.94693718 0 0 1 1.4221471,0.825726 v 0.877841 c 0,0.02904 0.0034,0.0567 0.01053,0.08339 l 0.0047,0.01614 a 0.36703452,0.36703452 0 0 0 0.03012,0.07411 c 8.88e-4,0.0014 0.0036,0.0045 0.0047,0.0058 4.63e-4,6.53e-4 8.31e-4,0.0017 0.0012,0.0022 v 0.0012 0.0012 a 0.3557685,0.3557685 0 0 0 0.04516,0.05907 l 0.0081,0.0081 c 0.0195,0.01905 0.04173,0.03557 0.06486,0.0498 v 0.0012 h 0.0012 l 0.0012,0.0012 0.0012,0.0012 0.0012,0.0012 0.0012,0.0012 1.514795,0.878998 a 0.34983903,0.34983903 0 0 0 0.350905,0 l 1.514797,-0.878998 a 0.35398967,0.35398967 0 0 0 0.176039,-0.306897 V 10.035815 A 0.35280377,0.35280377 0 0 0 14.376312,9.7300755 l -1.514797,-0.878998 c 0,0 -0.0034,-0.0012 -0.0058,-0.0023 l -0.0012,-0.0012 a 0.32019165,0.32019165 0 0 0 -0.07411,-0.03011 h -0.0012 c -0.0029,-9.49e-4 -0.0074,-0.0017 -0.01053,-0.0023 a 0.37652168,0.37652168 0 0 0 -0.07411,-0.01042 h -0.01165 a 0.33027176,0.33027176 0 0 0 -0.09495,0.01506 0.34865313,0.34865313 0 0 0 -0.07644,0.03127 l -0.756239,0.440078 a 0.94575128,0.94575128 0 0 1 -0.948485,0 0.95761023,0.95761023 0 0 1 0,-1.651452 h -0.0022 a 0.94634423,0.94634423 0 0 1 0.948485,0 l 0.756239,0.43892 c 0.02432,0.01481 0.04975,0.02353 0.07644,0.03243 l 0.01748,0.0046 c 0.0255,0.0059 0.05206,0.0092 0.07875,0.01042 h 0.0022 0.0012 0.0012 c 0.0022,-3.61e-4 0.0052,-7.12e-4 0.0069,-0.0012 a 0.28105712,0.28105712 0 0 0 0.07165,-0.0106 l 0.01277,-0.0023 a 0.36525566,0.36525566 0 0 0 0.07411,-0.03127 h 0.0012 0.0012 c 6.52e-4,-1.94e-4 0.0027,-9.49e-4 0.0036,-0.0012 l 0.0012,-0.0012 h 0.0012 l 1.51475,-0.879004 a 0.35398967,0.35398967 0 0 0 0.175876,-0.305724 V 5.1344762 A 0.35339672,0.35339672 0 0 0 14.37488,4.8287376 L 12.861242,3.9497392 A 0.3480602,0.3480602 0 0 0 12.685203,3.9022569 Z M 4.2461309,8.8033385 a 0.3480602,0.3480602 0 0 0 -0.174873,0.04748 l -1.514795,0.878998 a 0.35339672,0.35339672 0 0 0 -0.176039,0.3057405 v 1.757996 c 0,0.126286 0.06694,0.244045 0.176039,0.306897 l 1.514795,0.878998 0.0069,0.0022 a 0.36644157,0.36644157 0 0 0 0.157505,0.04402 l 0.01053,0.0012 h 0.0036 a 0.32612114,0.32612114 0 0 0 0.09496,-0.01502 0.34628134,0.34628134 0 0 0 0.07642,-0.03243 l 0.757399,-0.440077 a 0.94693718,0.94693718 0 0 1 1.422148,0.826883 v 0.877841 c 0,0.02965 0.0034,0.0567 0.01053,0.08339 l 0.0047,0.01614 c 0.0076,0.02609 0.0177,0.0504 0.0301,0.07411 l 0.0058,0.01053 c 0.013,0.02129 0.02797,0.04128 0.04516,0.05908 l 0.0081,0.0092 c 0.01905,0.01905 0.04113,0.03557 0.06486,0.0498 l 0.0058,0.0047 1.514797,0.879 a 0.3480602,0.3480602 0 0 0 0.352062,0 l 1.5136361,-0.879 a 0.35339672,0.35339672 0 0 0 0.176039,-0.305738 v -1.759172 a 0.35339672,0.35339672 0 0 0 -0.176039,-0.305738 h -0.0012 l -1.5136361,-0.879 -0.0081,-0.0035 a 0.31189039,0.31189039 0 0 0 -0.07411,-0.03011 c -0.0031,-8.89e-4 -0.0076,-0.0015 -0.01053,-0.0023 l -0.0012,-0.0012 a 0.37948642,0.37948642 0 0 0 -0.07411,-0.01042 h -0.01165 a 0.33205061,0.33205061 0 0 0 -0.09496,0.0162 0.34865313,0.34865313 0 0 0 -0.07759,0.03126 l -0.756238,0.440078 a 0.94515833,0.94515833 0 0 1 -0.947327,0 c -0.292606,-0.16961 -0.475103,-0.485993 -0.475103,-0.825753 v -0.878998 a 0.33382945,0.33382945 0 0 0 -0.01053,-0.083381 l -0.0047,-0.0162 a 0.35814029,0.35814029 0 0 0 -0.03012,-0.07412 l -0.0058,-0.0093 a 0.35754736,0.35754736 0 0 0 -0.04516,-0.06022 l -0.0081,-0.0081 a 0.35339672,0.35339672 0 0 0 -0.06486,-0.04979 l -0.0012,-0.0012 -0.0012,-0.0012 -0.0012,-0.0012 h -0.0012 v -0.0012 h -0.0012 l -1.514568,-0.879987 a 0.3480602,0.3480602 0 0 0 -0.174874,-0.04748 z"
     style="fill:currentColor"
     class="ColorScheme-Text" />
</svg>
