<?xml version="1.0" encoding="UTF-8" standalone="no"?>
<svg
   width="64"
   height="64"
   version="1.1"
   viewBox="0 0 16.933 16.933"
   id="svg7"
   sodipodi:docname="hydrus_non-transparent.svg"
   inkscape:version="1.4.4 (dcaf3e7d9e, 2026-05-05)"
   xmlns:inkscape="http://www.inkscape.org/namespaces/inkscape"
   xmlns:sodipodi="http://sodipodi.sourceforge.net/DTD/sodipodi-0.dtd"
   xmlns="http://www.w3.org/2000/svg"
   xmlns:svg="http://www.w3.org/2000/svg"
   xmlns:rdf="http://www.w3.org/1999/02/22-rdf-syntax-ns#"
   xmlns:cc="http://creativecommons.org/ns#"
   xmlns:dc="http://purl.org/dc/elements/1.1/">
  <sodipodi:namedview
     id="namedview7"
     pagecolor="#9c4444"
     bordercolor="#000000"
     borderopacity="0.25"
     inkscape:showpageshadow="2"
     inkscape:pageopacity="0.0"
     inkscape:pagecheckerboard="0"
     inkscape:deskcolor="#d1d1d1"
     inkscape:zoom="4.3531262"
     inkscape:cx="89.820506"
     inkscape:cy="35.032295"
     inkscape:window-width="2560"
     inkscape:window-height="1388"
     inkscape:window-x="0"
     inkscape:window-y="0"
     inkscape:window-maximized="1"
     inkscape:current-layer="svg7"
     showgrid="false" />
  <defs
     id="defs2">
    <style
       id="current-color-scheme"
       type="text/css">.ColorScheme-Text {color:#d8dee9} .ColorScheme-Highlight {color:#3b4252}</style>
  </defs>
  <metadata
     id="metadata2">
    <rdf:RDF>
      <cc:Work
         rdf:about="">
        <dc:format>image/svg+xml</dc:format>
        <dc:type
           rdf:resource="http://purl.org/dc/dcmitype/StillImage" />
      </cc:Work>
    </rdf:RDF>
  </metadata>
  <path
     d="m 7.8304775,1.45517 v 10.19847 l -0.09416,-0.012 c -0.228369,-0.026 -0.286467,-0.0361 -0.456737,-0.0741 -0.713157,-0.15825 -1.193933,-0.53285 -1.44233,-1.1218 -0.06209,-0.14423 -0.132213,-0.36459 -0.162262,-0.50282 -0.03606,-0.16426 -0.07012,-0.35657 -0.08012,-0.44272 -0.006,-0.0561 -0.01603,-0.12419 -0.02004,-0.15224 C 5.5467885,9.1877 5.5367685,8.56269 5.5367685,6.7698 V 4.76056 h -2.233612 v 0.38061 l 0.0561,0.012 c 0.370588,0.0821 0.618999,0.25642 0.701122,0.49279 0.09015,0.25642 0.108175,0.47077 0.116197,1.34819 0.01402,1.40026 0.02604,2.18151 0.03606,2.25362 0.004,0.0381 0.01402,0.11419 0.02003,0.17029 0.01603,0.12019 0.04207,0.27443 0.08414,0.5028 0.004,0.022 0.03606,0.13623 0.07012,0.25041 0.270437,0.91148 0.78927,1.47639 1.662675,1.81092 0.44272,0.17029 1.081747,0.27846 1.716778,0.28847 l 0.06411,0.002 v 3.20517 h 1.282066 v -3.20517 l 0.04606,-0.002 c 0.234379,-0.01 0.4888,-0.028 0.6751,-0.0481 0.4326995,-0.0501 0.8814145,-0.18029 1.2720455,-0.37059 0.761234,-0.37461 1.231989,-0.9896 1.472378,-1.92512 0.02404,-0.0921 0.04808,-0.1903 0.05209,-0.21835 0.006,-0.028 0.01803,-0.0961 0.02805,-0.15024 0.01001,-0.0561 0.02404,-0.14022 0.03005,-0.19031 0.008,-0.0501 0.01602,-0.11818 0.02203,-0.15024 0.03005,-0.21234 0.03807,-0.48078 0.0581,-2.26365 0.004,-0.46275 0.01202,-0.86941 0.01803,-0.90146 0.004,-0.0341 0.01603,-0.11017 0.02204,-0.17027 0.04808,-0.38462 0.19231,-0.54288 0.631019,-0.68711 l 0.190297,-0.0641 -0.002,-0.16026 c -0.002,-0.0882 -0.004,-0.17229 -0.006,-0.1863 -0.002,-0.02 -0.230368,-0.024 -1.107785,-0.02 l -1.105785,0.006 -0.002,2.06333 c -0.002,1.13383 -0.01001,2.13945 -0.01803,2.23359 -0.03205,0.34657 -0.04005,0.40667 -0.07411,0.611 -0.01202,0.0661 -0.02604,0.14223 -0.03005,0.17027 -0.01803,0.0941 -0.108174,0.41067 -0.146231,0.51283 -0.114184,0.29448 -0.22637,0.47477 -0.420679,0.66507 -0.286468,0.28245 -0.639042,0.44673 -1.2039555,0.56291 -0.104163,0.02 -0.238374,0.0441 -0.294475,0.0501 l -0.106162,0.012 V 1.4552 Z"
     id="path5"
     style="fill:currentColor"
     class="ColorScheme-Text" />
</svg>
