<?xml version="1.0" encoding="UTF-8" standalone="no"?>
<svg
   width="64"
   height="64"
   version="1.1"
   viewBox="0 0 16.933 16.933"
   id="svg7"
   sodipodi:docname="io.github.arunsivaramanneo.GPUViewer.svg"
   inkscape:version="1.4.4 (dcaf3e7d9e, 2026-05-05)"
   xmlns:inkscape="http://www.inkscape.org/namespaces/inkscape"
   xmlns:sodipodi="http://sodipodi.sourceforge.net/DTD/sodipodi-0.dtd"
   xmlns="http://www.w3.org/2000/svg"
   xmlns:svg="http://www.w3.org/2000/svg"
   xmlns:rdf="http://www.w3.org/1999/02/22-rdf-syntax-ns#"
   xmlns:cc="http://creativecommons.org/ns#"
   xmlns:dc="http://purl.org/dc/elements/1.1/">
  <sodipodi:namedview
     id="namedview7"
     pagecolor="#9c4444"
     bordercolor="#000000"
     borderopacity="0.25"
     inkscape:showpageshadow="2"
     inkscape:pageopacity="0.0"
     inkscape:pagecheckerboard="0"
     inkscape:deskcolor="#d1d1d1"
     inkscape:zoom="4.3531262"
     inkscape:cx="89.935366"
     inkscape:cy="34.687715"
     inkscape:window-width="2560"
     inkscape:window-height="1388"
     inkscape:window-x="0"
     inkscape:window-y="0"
     inkscape:window-maximized="1"
     inkscape:current-layer="svg7"
     showgrid="false" />
  <defs
     id="defs2">
    <style
       id="current-color-scheme"
       type="text/css">.ColorScheme-Text {color:#d8dee9} .ColorScheme-Highlight {color:#3b4252}</style>
  </defs>
  <metadata
     id="metadata2">
    <rdf:RDF>
      <cc:Work
         rdf:about="">
        <dc:format>image/svg+xml</dc:format>
        <dc:type
           rdf:resource="http://purl.org/dc/dcmitype/StillImage" />
      </cc:Work>
    </rdf:RDF>
  </metadata>
  <path
     id="path5"
     style="fill:currentColor;stroke-width:0.0223897"
     d="M 0.8205731,4.8953379 V 5.1416254 5.387913 h 0.3806264 0.3806253 v 3.7055039 3.7055051 h 0.2316816 0.2316815 l 0.014479,-0.251885 c 0.019064,-0.330875 0.01903,-6.3357983 -4.52e-5,-7.0771312 L 2.0448369,4.8953379 H 1.4327045 Z m 7.1217354,1.7240117 c -0.088902,0 -0.471977,0.5303344 -0.471977,0.6534136 0,0.020921 -0.00894,0.04354 -0.019857,0.050287 -0.010868,0.00679 -0.026343,0.046913 -0.034279,0.089253 -0.011842,0.063102 -0.026921,0.079721 -0.08366,0.092185 -0.086106,0.018917 -0.202414,0.084464 -0.3283245,0.1850219 L 6.907566,7.7666951 6.841883,7.7038081 C 6.80577,7.6692121 6.776245,7.6276651 6.776245,7.6114991 c 0,-0.016166 -0.0077,-0.029389 -0.017094,-0.029389 -0.021815,0 -0.1024416,-0.1782374 -0.1487253,-0.3288499 -0.01963,-0.063883 -0.035683,-0.1728294 -0.035683,-0.2420886 V 6.8852289 l -0.1025893,0.073687 c -0.1926272,0.1383351 -0.3228148,0.279086 -0.3228148,0.3490098 0,0.074592 0.129308,0.4150314 0.1849348,0.4868898 0.00951,0.012317 0.066623,0.087883 0.1268603,0.1679231 0.060238,0.080038 0.1391706,0.1727015 0.1754016,0.2058804 0.056355,0.051611 0.067981,0.082347 0.080468,0.2127022 0.00804,0.083808 0.02057,0.1878657 0.02786,0.2312887 l 0.013245,0.078974 -0.1644691,0.040845 c -0.250543,0.062241 -0.5565691,0.026072 -0.7913378,-0.093543 l -0.089559,-0.045657 -0.00702,0.065377 c -0.00385,0.035955 0.015057,0.1564393 0.042023,0.2677586 0.065785,0.2714966 0.076019,0.2763973 0.5806902,0.2777286 0.3295427,8.717e-4 0.3847008,-0.00453 0.5108536,-0.049981 0.077785,-0.028042 0.1603302,-0.062785 0.1834483,-0.07723 0.034008,-0.021238 0.060894,-0.016823 0.140897,0.023128 0.054374,0.027158 0.1091208,0.04937 0.1216574,0.04937 0.056887,0 0.071762,0.059921 0.04937,0.1989725 -0.012385,0.076902 -0.030555,0.1567553 -0.040358,0.1774993 -0.067528,0.142848 -0.132617,0.25302 -0.2014642,0.340963 -0.082313,0.105136 -0.2724962,0.2677153 -0.3131943,0.2677153 -0.012725,0 -0.029513,0.0103 -0.037302,0.02291 -0.00792,0.01276 0.033668,0.04317 0.093804,0.06862 0.0594,0.02513 0.1281645,0.05494 0.1527928,0.0662 0.024623,0.01132 0.095151,0.02961 0.1567279,0.0408 0.061574,0.01121 0.118594,0.0215 0.1267302,0.02287 0.016596,0.0028 0.2476619,-0.255169 0.2650914,-0.295965 0.00611,-0.01441 0.037415,-0.0665 0.069487,-0.1157543 0.03206,-0.04926 0.066057,-0.114747 0.075521,-0.145534 0.00951,-0.03078 0.025098,-0.06605 0.034766,-0.07836 0.02443,-0.03111 0.1112943,-0.4044203 0.1112943,-0.4783188 0,-0.051974 0.018951,-0.069543 0.1334638,-0.1239306 l 0.1334638,-0.063408 0.084838,0.067698 c 0.2550147,0.2033988 0.4012676,0.4760864 0.425143,0.7927804 L 8.6184516,10.08761 8.7161046,10.0204 C 8.8753831,9.9108147 9.0376072,9.7363387 9.0376072,9.6745827 c 0,-0.08425 -0.087283,-0.3174218 -0.1746135,-0.4664233 C 8.7688957,9.0476024 8.7110467,8.9768963 8.5385603,8.8115273 L 8.4080263,8.6863718 8.4351395,8.4923861 c 0.014921,-0.1066868 0.03934,-0.2040668 0.054226,-0.21642 0.078464,-0.065117 0.61054,-0.068162 0.74341,-0.00419 0.02195,0.010528 0.0822,0.041049 0.133901,0.067777 0.0517,0.02674 0.100891,0.048623 0.10928,0.048623 0.02379,0 -0.0098,-0.2655011 -0.05217,-0.4114109 C 9.3816085,7.8311714 9.3707975,7.8230872 9.1607545,7.7796755 8.9713188,7.7405284 8.6994316,7.7449321 8.4846893,7.7906567 L 8.301198,7.8297019 8.2042923,7.7327963 C 8.1509829,7.6794868 8.0622734,7.610711 8.0071572,7.5799604 7.9219232,7.5324133 7.9073648,7.5141755 7.9097648,7.4579533 7.9161044,7.3087932 8.177881,6.9700004 8.3715101,6.8602513 8.4176874,6.8340778 8.455295,6.8069645 8.4551252,6.799991 8.454584,6.7790476 8.0012512,6.6193864 7.9423029,6.6193864 Z m 5.3880595,0 c -0.04175,0 -0.210929,0.1830148 -0.310439,0.3358461 -0.08932,0.1371815 -0.129681,0.2199555 -0.19849,0.4070389 -0.04001,0.1087811 -0.05677,0.1293962 -0.115709,0.1423415 -0.08602,0.018894 -0.20533,0.086989 -0.317481,0.1811728 -0.0474,0.039804 -0.09875,0.067562 -0.114134,0.061664 -0.0763,-0.029275 -0.25373,-0.3506287 -0.273969,-0.4961604 -0.0074,-0.052675 -0.02203,-0.101117 -0.03263,-0.1076604 -0.01064,-0.00657 -0.01924,-0.061687 -0.01924,-0.1225313 0,-0.060849 -0.0061,-0.1106378 -0.01355,-0.1106378 -0.05303,0 -0.411849,0.3302525 -0.411849,0.3790517 0,0.039385 0.05387,0.1942246 0.117371,0.3374197 0.06943,0.1565864 0.224014,0.381694 0.338251,0.4925751 0.08832,0.085721 0.104026,0.1141132 0.105305,0.1903132 8.29e-4,0.049257 0.0103,0.1348981 0.02113,0.1903132 0.03886,0.1995317 0.04343,0.1866102 -0.07827,0.2214046 -0.274965,0.078611 -0.60827,0.0408 -0.854878,-0.097041 l -0.101319,-0.056627 0.01207,0.08366 c 0.031,0.2143585 0.06547,0.3766234 0.08409,0.3960193 0.01121,0.011694 0.02042,0.037789 0.02042,0.057985 0,0.070064 0.164319,0.099883 0.550779,0.099883 0.218329,0 0.381667,-0.00985 0.414211,-0.025019 0.02956,-0.013743 0.111283,-0.047264 0.181611,-0.074513 0.117864,-0.045679 0.132757,-0.046913 0.190313,-0.015441 0.03435,0.018781 0.101027,0.051328 0.148157,0.072328 0.06992,0.031143 0.08321,0.046834 0.07224,0.085189 -0.0074,0.025857 -0.02347,0.097381 -0.03568,0.1589581 -0.05017,0.2528528 -0.304879,0.6083031 -0.513041,0.7159471 l -0.07719,0.03988 0.05174,0.0419 c 0.02845,0.02304 0.06672,0.0419 0.08505,0.0419 0.01833,0 0.06552,0.0153 0.104909,0.03397 0.03937,0.01869 0.116493,0.04277 0.171334,0.05352 0.05484,0.01075 0.106268,0.02065 0.11431,0.022 0.04453,0.0075 0.397463,-0.4385502 0.400348,-0.5059562 4.14e-4,-0.0097 0.02024,-0.05805 0.04404,-0.1073091 0.0238,-0.04926 0.04362,-0.1051929 0.04404,-0.1242809 4.16e-4,-0.01909 0.01042,-0.04434 0.02221,-0.05615 0.01181,-0.01181 0.02944,-0.1019316 0.03918,-0.200284 l 0.0177,-0.1788113 0.122182,-0.061698 c 0.06719,-0.033928 0.135367,-0.061664 0.151524,-0.061664 0.01615,0 0.09215,0.062966 0.168885,0.1399358 0.188954,0.1895151 0.297437,0.4090025 0.328938,0.6655266 0.01281,0.104343 0.02331,0.1983922 0.02331,0.2089862 0,0.02701 0.166655,-0.1035632 0.315511,-0.2471622 l 0.125243,-0.1207821 -0.03223,-0.104955 c -0.06915,-0.2253232 -0.190467,-0.4654796 -0.303223,-0.6002814 -0.06524,-0.078 -0.221515,-0.2317279 -0.275717,-0.2712136 -0.05851,-0.042611 -0.05891,-0.044751 -0.03258,-0.175663 0.01466,-0.072883 0.03211,-0.1648155 0.03879,-0.2043068 0.01644,-0.097155 0.109766,-0.125983 0.40459,-0.12498 0.229062,7.8e-4 0.427696,0.048668 0.553839,0.1335079 0.02429,0.016336 0.05016,0.029694 0.05751,0.029694 0.02187,0 -0.02121,-0.315334 -0.06048,-0.4425906 C 14.77327,7.8608701 14.74972,7.824515 14.71583,7.8165135 14.351958,7.7306235 14.2088,7.7245775 13.924141,7.7830605 l -0.240645,0.04946 -0.116848,-0.1134351 c -0.06428,-0.062377 -0.152611,-0.1283027 -0.19626,-0.1465393 -0.04365,-0.018238 -0.08517,-0.048351 -0.09226,-0.06686 -0.01087,-0.028245 0.06669,-0.2232125 0.103155,-0.2594061 0.0062,-0.00611 0.04066,-0.054555 0.07662,-0.1075359 0.03594,-0.05297 0.11654,-0.1359883 0.179074,-0.1844966 0.06254,-0.048509 0.12585,-0.098343 0.140724,-0.1107622 0.01487,-0.01243 0.03754,-0.022608 0.05038,-0.022608 0.01284,0 0.02318,-0.00758 0.023,-0.016789 -5.08e-4,-0.026094 -0.447628,-0.1847151 -0.520694,-0.1847151 z M 2.5893641,6.6865157 V 6.9328032 7.1790908 H 3.361811 3.9637978 l 1.777e-4,-0.4914815 h 0.00105 v -0.00109 H 3.3618098 Z m 1.3742152,1.0161985 c -0.1418106,-4.585e-4 -0.3692185,0.00181 -0.6212717,0.00657 l -0.7529435,0.014343 v 0.2277453 c 0,0.1252597 0.00668,0.2344925 0.014909,0.2427012 0.00826,0.00826 0.3349358,0.014909 0.7260487,0.014909 h 0.4910445 c 0.029876,-0.035626 0.056151,-0.06737 0.074819,-0.090521 l 0.067257,-0.083343 z M 2.5893641,8.7239844 v 0.2455868 0.245588 l 0.2742748,0.00634 c 0.029377,6.736e-4 0.058166,0.00113 0.085574,0.00136 0.014683,-0.017004 0.028053,-0.032479 0.039838,-0.046087 0.023434,-0.027079 0.045532,-0.052551 0.053355,-0.061359 0.020184,-0.022745 0.2067534,-0.2402525 0.3327398,-0.3881039 -0.082041,-0.00204 -0.1835695,-0.00328 -0.2932087,-0.00328 z M 8.6229225,4.1340839 8.2427784,4.5147103 7.8626331,4.8953356 H 5.9984669 4.1342578 v 0.8843955 0.726574 0.1578215 0.1927178 h -0.00109 L 4.1329446,7.3914002 4.1326401,8.0949286 4.0279118,8.2247629 C 3.9703117,8.2961516 3.8525929,8.4351558 3.7663185,8.5336712 3.6800431,8.6321844 3.5924023,8.7329403 3.5715449,8.7575686 3.459877,8.8894282 3.2034438,9.1889573 3.1690106,9.2277535 c -0.00691,0.0077 -0.025324,0.02897 -0.051996,0.059774 -0.058211,0.067257 -0.1555914,0.1802219 -0.2572631,0.2984562 L 2.5901998,9.8994407 2.5897594,10.028182 2.58937,10.156923 h 0.968751 0.968794 l 0.5100227,0.638107 0.5100668,0.638109 h 4.360708 4.3607545 l 0.09931,-0.117546 c 0.05463,-0.06465 0.140693,-0.162886 0.191231,-0.218301 0.05054,-0.05541 0.271377,-0.307299 0.490738,-0.559743 0.219362,-0.252445 0.501484,-0.5748573 0.626914,-0.7164723 0.125428,-0.141615 0.340351,-0.3853843 0.477618,-0.5416832 L 16.403842,8.9952354 V 7.1404712 5.2857081 L 15.825731,4.7099152 15.247664,4.1340782 h -3.312372 z m 1.3774525,1.0075393 h 0.269201 0.269202 l -0.0061,0.3862234 -0.0061,0.3862234 -0.247467,0.00634 C 10.143007,5.92392 10.02462,5.9196402 10.01603,5.91101 10.00743,5.90241 10.00042,5.7258251 10.00042,5.518533 Z m 5.247598,0.4924437 c 0.0454,-0.00215 0.107694,0.00215 0.193112,0.00475 l 0.212702,0.00657 0.0061,0.3862234 0.0061,0.3862234 H 15.396811 15.127609 V 6.0376462 c 0,-0.3339408 -0.01586,-0.3972577 0.120345,-0.4035838 z M 4.9067035,5.6453877 H 5.152991 5.3992786 l 0.00611,0.3862234 0.00611,0.3862234 H 5.1529729 4.8944408 l 0.00611,-0.3862234 z m 8.0261595,0.2570015 c 0.399178,-0.00498 0.797871,0.087917 1.157139,0.2790408 0.618612,0.329083 1.058209,0.8837027 1.243287,1.5685948 0.06299,0.2330819 0.08012,0.7751174 0.03202,1.012525 -0.104219,0.5143178 -0.305788,0.903091 -0.665833,1.2840442 -0.347692,0.367881 -0.868886,0.629091 -1.4057,0.704446 -0.12858,0.01804 -0.295005,0.03163 -0.369826,0.03022 -1.028328,-0.0194 -1.984228,-0.727875 -2.288128,-1.6958927 -0.0635,-0.2022544 -0.120463,-0.5540808 -0.12017,-0.7419668 3.39e-4,-0.2143438 0.06368,-0.5974451 0.129923,-0.7857408 0.198202,-0.5633933 0.618559,-1.0659216 1.127228,-1.3475831 0.36125,-0.2000332 0.76089,-0.3027464 1.160068,-0.3076845 z m -5.3505828,0.00113 c 0.6370302,0 1.231902,0.2402683 1.7095373,0.6904529 0.222414,0.209632 0.51049,0.6672181 0.604698,0.9605287 0.2811835,0.8754578 0.08127,1.7929552 -0.531932,2.4414899 C 8.9988905,10.382755 8.5587576,10.626963 8.04127,10.730217 7.6863915,10.801027 7.2457798,10.782457 6.9108496,10.682587 5.5282877,10.270329 4.7888703,8.7839844 5.3082326,7.4610478 5.5301884,6.8956757 5.9487711,6.4329296 6.4739873,6.1722375 6.8616892,5.9798005 7.1762806,5.9035168 7.5822802,5.9035168 Z m 8.8210818,3.9063125 -0.08458,0.08956 c -0.04653,0.04926 -0.330638,0.3716702 -0.631374,0.7164722 -0.300735,0.344803 -0.557304,0.638119 -0.570108,0.651796 -0.0128,0.01367 -0.04846,0.05398 -0.07928,0.08956 -0.03082,0.03558 -0.160303,0.183063 -0.287743,0.327757 l -0.231726,0.26308 H 9.8980875 5.2776212 L 4.7675103,11.309947 4.2573993,10.671839 H 3.4233812 2.589363 v 1.063514 1.063513 H 8.7855972 14.98183 l 0.711007,-0.710743 0.711006,-0.710744 -2.54e-4,-0.783772 z m -6.402988,0.1903133 h 0.269202 0.269202 l -0.0061,0.386223 -0.0061,0.386224 -0.247468,0.0063 c -0.136104,0.0035 -0.25449,-7.69e-4 -0.26308,-0.0094 -0.0086,-0.0086 -0.01561,-0.185184 -0.01561,-0.392476 z M 3.6080985,11.018878 H 3.86558 4.1230627 l 0.00611,0.386224 0.00611,0.386223 H 3.8655631 3.5958359 l 0.00611,-0.386223 z M 3.9650227,5.646255 3.1043725,5.651345 2.5949611,5.654405 2.2319147,5.656555 c 0.00747,0.641168 0.011785,2.4189171 0.011321,4.0117467 0.037336,-0.04547 0.080581,-0.09763 0.1248057,-0.150476 L 2.4817389,9.3819173 2.4201653,9.3805588 V 8.9695837 8.5547618 h 0.6618102 c 0.028619,0 0.064257,6.68e-5 0.1034604,3.057e-4 l 0.076879,-0.088551 0.076619,-0.088245 h -0.0086 c -0.2653064,0 -0.6485468,-0.00396 -0.7333076,-0.013551 -0.00396,-4.438e-4 -0.063577,-0.00204 -0.1124264,-0.050898 C 2.4529434,8.2821693 2.4414528,8.2432939 2.4391207,8.2351089 2.4212792,8.1724939 2.4201472,8.0142093 2.4201472,7.9514323 V 7.5576444 l 0.9189419,-0.017536 c 0.078872,-0.00147 0.1682751,-0.00283 0.2578324,-0.00396 V 7.4477651 7.3483236 H 3.3618291 2.4201472 V 6.9328021 6.5172794 H 3.3618291 3.5969215 V 6.2382817 5.8133141 H 3.8520416 3.9650453 V 5.7797254 Z M 0.7981829,6.5521247 V 6.7984111 7.0446987 H 1.1788094 1.4125897 V 6.5521247 H 1.1788094 Z m 0.6144068,1.1664974 -0.1050339,0.0026 -0.2518846,0.00634 -0.00668,1.2426307 c -0.00374,0.6834479 -3.125e-4,1.3156792 0.00747,1.4049582 l 0.014207,0.162326 h 0.2444072 0.097517 V 9.0933399 Z m 0,3.1784259 -0.2281834,0.0037 -0.3750283,0.0061 -0.00634,0.240691 -0.00634,0.24069 h 0.381414 0.2345242 z m -0.8834332,-3.3149949 0.00577,1.3937627 0.00577,1.3937612 0.2518845,0.0063 0.094415,0.0024 C 0.877596,10.22883 0.877036,9.4679392 0.879636,8.9692961 l 0.00748,-1.3872294 z"
     class="ColorScheme-Text" />
</svg>
