<?xml version="1.0" encoding="UTF-8" standalone="no"?>
<svg
   width="64"
   height="64"
   version="1.1"
   viewBox="0 0 16.933 16.933"
   id="svg7"
   sodipodi:docname="io.github.ilya_zlobintsev.LACT.svg"
   inkscape:version="1.4.4 (dcaf3e7d9e, 2026-05-05)"
   xmlns:inkscape="http://www.inkscape.org/namespaces/inkscape"
   xmlns:sodipodi="http://sodipodi.sourceforge.net/DTD/sodipodi-0.dtd"
   xmlns="http://www.w3.org/2000/svg"
   xmlns:svg="http://www.w3.org/2000/svg"
   xmlns:rdf="http://www.w3.org/1999/02/22-rdf-syntax-ns#"
   xmlns:cc="http://creativecommons.org/ns#"
   xmlns:dc="http://purl.org/dc/elements/1.1/">
  <sodipodi:namedview
     id="namedview7"
     pagecolor="#9c4444"
     bordercolor="#000000"
     borderopacity="0.25"
     inkscape:showpageshadow="2"
     inkscape:pageopacity="0.0"
     inkscape:pagecheckerboard="0"
     inkscape:deskcolor="#d1d1d1"
     inkscape:zoom="8.7062522"
     inkscape:cx="83.790359"
     inkscape:cy="47.437174"
     inkscape:window-width="2560"
     inkscape:window-height="1392"
     inkscape:window-x="0"
     inkscape:window-y="0"
     inkscape:window-maximized="1"
     inkscape:current-layer="svg7"
     showgrid="false" />
  <defs
     id="defs2">
    <style
       id="current-color-scheme"
       type="text/css">.ColorScheme-Text {color:#d8dee9} .ColorScheme-Highlight {color:#3b4252}</style>
  </defs>
  <metadata
     id="metadata2">
    <rdf:RDF>
      <cc:Work
         rdf:about="">
        <dc:format>image/svg+xml</dc:format>
        <dc:type
           rdf:resource="http://purl.org/dc/dcmitype/StillImage" />
      </cc:Work>
    </rdf:RDF>
  </metadata>
  <path
     d="M 0.52915625,3.1458618 H 2.9897303 V 13.003755 H 1.9199008 V 12.117373 H 1.4827046 V 9.5863632 H 1.9199008 V 7.7462301 H 1.4827046 V 5.2152888 H 1.9199008 V 4.2156909 H 0.52915625 Z M 16.403844,6.5024211 v 5.5799399 c 0,0.472617 -0.383109,0.855998 -0.855796,0.855998 h -8.85e-4 v 0.848779 H 10.082485 V 12.938359 H 9.5639518 v 0.848779 H 4.0992729 V 12.938359 H 3.6201152 V 5.6466944 H 15.548048 c 0.472688,0 0.855796,0.3831086 0.855796,0.8557267 z M 4.7880378,12.895852 H 4.5155563 v 0.613082 h 0.2724815 z m 0.5449618,0 H 5.0605194 v 0.613082 h 0.2724802 z m 0.5449631,0 H 5.6054812 v 0.613082 h 0.2724815 z m 0.5449619,0 H 6.1504442 v 0.613082 H 6.4229246 Z M 6.5909098,9.3033923 H 5.9105245 v 0.2673719 h 0.3786804 v 0.132358 c -0.1465268,0.171254 -0.3106289,0.256813 -0.4924415,0.256813 -0.079426,0 -0.1531346,-0.01628 -0.2210501,-0.04905 -0.067981,-0.03262 -0.1266362,-0.07718 -0.176023,-0.133651 -0.049449,-0.05647 -0.088347,-0.123162 -0.116554,-0.199934 -0.0282,-0.07677 -0.042306,-0.159265 -0.042306,-0.2475485 0,-0.084747 0.012804,-0.1650558 0.038355,-0.2409423 0.025608,-0.075822 0.061789,-0.1429837 0.1085887,-0.2012269 0.0468,-0.058177 0.1032679,-0.1040875 0.169483,-0.1376708 0.066147,-0.033521 0.1389657,-0.05027 0.2183943,-0.05027 0.1005397,0 0.1936653,0.024657 0.2793612,0.074115 0.085562,0.049458 0.1521804,0.1209137 0.1998645,0.2144428 L 6.5276268,8.7869757 C 6.4640019,8.6616343 6.3691781,8.5619062 6.2429517,8.4877912 6.1167253,8.4136041 5.9653612,8.3765512 5.7889295,8.3765512 c -0.130654,0 -0.2514997,0.02514 -0.3626717,0.075411 -0.1112378,0.050342 -0.2079034,0.1182568 -0.28992,0.2038849 -0.082087,0.085631 -0.1465268,0.185355 -0.1933256,0.2991833 -0.0468,0.1138293 -0.070098,0.2352201 -0.070098,0.3640349 0,0.1359679 0.023366,0.2625359 0.070098,0.3799079 0.0468,0.117439 0.1102867,0.219415 0.1906686,0.3057918 0.080241,0.08652 0.17466,0.154496 0.2832441,0.203884 0.1085887,0.04946 0.2245925,0.07412 0.348163,0.07412 0.1994559,0 0.374117,-0.075 0.5241861,-0.22507 v 0.211786 H 6.5910457 V 9.3033923 Z M 6.9678876,12.895852 H 6.6954061 v 0.613082 h 0.2724815 z m 0.544962,0 H 7.2403691 v 0.613082 h 0.2724804 z m 0.544963,0 H 7.785331 v 0.613082 H 8.0578126 Z M 8.1661975,8.3899675 H 6.9033151 V 10.269746 H 7.2686438 V 9.4913362 H 8.015311 V 9.194808 H 7.2687072 V 8.7103365 h 0.8975526 v -0.320369 z m 0.436577,4.5058845 H 8.330294 v 0.613082 h 0.2724804 z m 0.5449633,0 H 8.875256 v 0.613082 H 9.1477377 Z M 9.2755308,9.3431068 9.9453578,8.3899675 H 9.5508728 L 9.0849298,9.0889496 8.6162632,8.3899675 H 8.2191888 l 0.6698276,0.9531393 -0.648642,0.9265712 h 0.3971412 l 0.4474142,-0.6724828 0.444758,0.6724828 h 0.394485 z m 1.4957852,3.5527452 h -0.272481 v 0.613082 h 0.272481 z m 0.544963,0 h -0.272481 v 0.613082 h 0.272481 z m 0.544963,0 H 11.58876 v 0.613082 h 0.272482 z m 0.544962,0 h -0.272481 v 0.613082 h 0.272481 z m 0.544963,0 h -0.272482 v 0.613082 h 0.272482 z m 0.544962,0 h -0.272481 v 0.613082 h 0.272481 z m 0.544963,0 H 13.76861 v 0.613082 h 0.272482 z m 0.544961,0 h -0.27248 v 0.613082 h 0.27248 z m 0.544963,0 h -0.272481 v 0.613082 h 0.272481 z m 0.22977,-3.4637128 c 0,-1.3166293 -1.067445,-2.3842106 -2.384211,-2.3842106 -1.316766,0 -2.384211,1.0675813 -2.384211,2.3842106 0,1.3165608 1.067445,2.3842108 2.384211,2.3842108 1.316766,0 2.384211,-1.06765 2.384211,-2.3842108 z m -1.100279,0.03794 c 0.05865,-0.03161 0.117371,-0.06294 0.175069,-0.094073 0.05729,-0.032625 0.113761,-0.064779 0.168325,-0.095913 0.05477,-0.03134 0.10783,-0.061447 0.157562,-0.092643 0.004,-0.00237 0.0076,-0.00463 0.01137,-0.0071 -0.06322,-0.4553161 -0.295301,-0.8568167 -0.631338,-1.1384944 -0.0046,0.00627 -0.0095,0.013079 -0.01443,0.019619 -0.02092,0.028883 -0.04442,0.061036 -0.07003,0.096252 -0.02739,0.035423 -0.05688,0.073704 -0.08828,0.1143741 -0.03079,0.040873 -0.06567,0.083113 -0.101705,0.1269764 -0.0361,0.044069 -0.07344,0.089507 -0.111306,0.1359681 -0.03958,0.045232 -0.0797,0.09142 -0.119959,0.1378076 -1.36e-4,0 -2.73e-4,2.046e-4 -4.78e-4,4.771e-4 0.0028,-0.044821 0.0055,-0.090331 0.0085,-0.1364452 0.004,-0.065189 0.005,-0.1314728 0.0074,-0.1977535 0.0022,-0.066557 0.0043,-0.1330387 0.0063,-0.1985021 3.39e-4,-0.066146 5.44e-4,-0.1309956 8.17e-4,-0.1939387 4.09e-4,-0.063144 6.82e-4,-0.1242515 -0.0015,-0.1828349 0,-0.00473 -2.04e-4,-0.00884 -3.39e-4,-0.01349 -0.210153,-0.08522 -0.439513,-0.1322213 -0.680114,-0.1322213 -0.21853,0 -0.427864,0.038621 -0.621938,0.1092646 0.0033,0.0074 0.0068,0.015259 0.01019,0.022961 0.01438,0.032564 0.03065,0.069005 0.04836,0.1089928 0.01697,0.041283 0.03542,0.086032 0.05484,0.1335159 0.02003,0.047134 0.03924,0.09836 0.05912,0.1514995 0.02009,0.05354 0.04087,0.1083793 0.06185,0.1642384 0.01962,0.057087 0.03952,0.114987 0.05947,0.1728898 6.7e-5,2.724e-4 1.35e-4,3.404e-4 3.4e-4,8.174e-4 -0.03753,-0.024935 -0.07541,-0.050065 -0.114102,-0.075749 -0.05436,-0.035834 -0.111101,-0.069961 -0.167439,-0.1053826 -0.05655,-0.034949 -0.113151,-0.070095 -0.168803,-0.1046333 -0.05709,-0.033171 -0.113151,-0.066012 -0.167507,-0.097682 -0.05443,-0.031814 -0.107151,-0.062537 -0.158925,-0.090125 -0.004,-0.00216 -0.0076,-0.00411 -0.01158,-0.00637 -0.346528,0.2709141 -0.591828,0.6648541 -0.670508,1.1162197 0.0078,8.175e-4 0.01601,0.00174 0.02425,0.00237 0.03522,0.0038 0.07507,0.00813 0.118462,0.012739 0.04427,0.00586 0.09223,0.012401 0.143052,0.019352 0.05075,0.00607 0.104774,0.015259 0.160832,0.024523 0.05613,0.00936 0.114306,0.018735 0.17323,0.028544 0.05913,0.011517 0.11921,0.023228 0.179293,0.034949 2.73e-4,0 4.76e-4,0 8.17e-4,0 -0.04019,0.02003 -0.08092,0.040327 -0.122548,0.061036 -0.05823,0.02915 -0.11601,0.061242 -0.174865,0.092233 -0.05865,0.03154 -0.117371,0.06288 -0.175069,0.09401 -0.05735,0.03262 -0.113829,0.06478 -0.168326,0.09612 -0.05476,0.03113 -0.10783,0.06145 -0.157493,0.09251 -0.004,0.0024 -0.0076,0.0045 -0.01151,0.007 0.06328,0.4554534 0.29537,0.8568184 0.631407,1.1385644 0.0046,-0.0062 0.0095,-0.01301 0.01443,-0.01969 0.02091,-0.02874 0.04442,-0.06096 0.07003,-0.09625 0.02732,-0.03542 0.05694,-0.07364 0.08828,-0.114238 0.03078,-0.041 0.06566,-0.08324 0.101706,-0.126976 0.0361,-0.04414 0.07336,-0.08958 0.111306,-0.135832 0.03958,-0.0453 0.0797,-0.09163 0.119961,-0.137807 6.8e-5,-1.37e-4 2.72e-4,-4.77e-4 4.76e-4,-6.13e-4 -0.0028,0.04476 -0.0055,0.09019 -0.0084,0.136445 -0.004,0.06518 -0.0051,0.131335 -0.0075,0.197753 -0.0022,0.06649 -0.0043,0.133107 -0.0063,0.198503 -2.73e-4,0.06601 -4.77e-4,0.131063 -7.49e-4,0.19387 -4.09e-4,0.06322 -6.82e-4,0.124184 0.0014,0.182835 6.8e-5,0.0048 2.73e-4,0.0089 2.73e-4,0.01342 0.21015,0.08529 0.43958,0.132291 0.68018,0.132291 0.21853,0 0.427864,-0.03856 0.621871,-0.109336 -0.0033,-0.0074 -0.0066,-0.01519 -0.01019,-0.02296 -0.01438,-0.03242 -0.03066,-0.06893 -0.04837,-0.10886 -0.01697,-0.04134 -0.03542,-0.08617 -0.05477,-0.133448 -0.02003,-0.04721 -0.03931,-0.09857 -0.05913,-0.151568 -0.02009,-0.0534 -0.04095,-0.108521 -0.06184,-0.164374 -0.01969,-0.05701 -0.03958,-0.114987 -0.05954,-0.172754 -6.6e-5,-2.03e-4 -1.36e-4,-4.76e-4 -2.71e-4,-8.85e-4 0.03747,0.02506 0.07534,0.05006 0.114032,0.07583 0.05429,0.03569 0.111102,0.06983 0.16744,0.105249 0.05655,0.03501 0.113151,0.07017 0.168802,0.104773 0.05709,0.03317 0.113151,0.06601 0.16744,0.09769 0.0545,0.03167 0.107151,0.06254 0.158924,0.08999 0.0041,0.0024 0.0077,0.0042 0.01158,0.0065 0.346596,-0.270984 0.591829,-0.664719 0.670577,-1.1161524 -0.0078,-8.86e-4 -0.01601,-0.0017 -0.02426,-0.0025 -0.03529,-0.0038 -0.075,-0.008 -0.118461,-0.01261 -0.04428,-0.006 -0.09231,-0.01246 -0.143054,-0.01955 -0.05082,-0.006 -0.104773,-0.01505 -0.160832,-0.02432 -0.05613,-0.0094 -0.114305,-0.0188 -0.17323,-0.0286 -0.05913,-0.01152 -0.119211,-0.0233 -0.179292,-0.03495 -2.72e-4,0 -4.77e-4,0 -8.18e-4,0 0.04019,-0.02016 0.08092,-0.0404 0.122481,-0.06117 0.05831,-0.02895 0.116145,-0.06117 0.175002,-0.0921 z"
     id="path1"
     class="ColorScheme-Text"
     style="fill:currentColor;fill-opacity:1;stroke-width:0.0681203" />
</svg>
