<?xml version="1.0" encoding="UTF-8" standalone="no"?>
<svg
   width="64"
   height="64"
   version="1.1"
   viewBox="0 0 16.933 16.933"
   id="svg7"
   sodipodi:docname="kdevelop.svg"
   inkscape:version="1.4.4 (dcaf3e7d9e, 2026-05-05)"
   xmlns:inkscape="http://www.inkscape.org/namespaces/inkscape"
   xmlns:sodipodi="http://sodipodi.sourceforge.net/DTD/sodipodi-0.dtd"
   xmlns="http://www.w3.org/2000/svg"
   xmlns:svg="http://www.w3.org/2000/svg"
   xmlns:rdf="http://www.w3.org/1999/02/22-rdf-syntax-ns#"
   xmlns:cc="http://creativecommons.org/ns#"
   xmlns:dc="http://purl.org/dc/elements/1.1/">
  <sodipodi:namedview
     id="namedview7"
     pagecolor="#9c4444"
     bordercolor="#000000"
     borderopacity="0.25"
     inkscape:showpageshadow="2"
     inkscape:pageopacity="0.0"
     inkscape:pagecheckerboard="0"
     inkscape:deskcolor="#d1d1d1"
     inkscape:zoom="6.15625"
     inkscape:cx="15.51269"
     inkscape:cy="29.725888"
     inkscape:window-width="1183"
     inkscape:window-height="941"
     inkscape:window-x="35"
     inkscape:window-y="32"
     inkscape:window-maximized="0"
     inkscape:current-layer="svg7"
     showgrid="false" />
  <defs
     id="defs2">
    <inkscape:path-effect
       effect="offset"
       id="path-effect1"
       is_visible="true"
       lpeversion="1.3"
       linejoin_type="miter"
       unit="px"
       offset="1.0318572"
       miter_limit="4"
       attempt_force_join="false"
       update_on_knot_move="true" />
    <style
       id="current-color-scheme"
       type="text/css">.ColorScheme-Text {color:#d8dee9} .ColorScheme-Highlight {color:#3b4252}</style>
  </defs>
  <metadata
     id="metadata2">
    <rdf:RDF>
      <cc:Work
         rdf:about="">
        <dc:format>image/svg+xml</dc:format>
        <dc:type
           rdf:resource="http://purl.org/dc/dcmitype/StillImage" />
      </cc:Work>
    </rdf:RDF>
  </metadata>
  <path
     id="path5"
     d="m 8.4671919,1.4551909 a 7.0140947,7.0140947 0 0 0 -0.718534,0.035618 l -0.167132,1.0877327 a 5.9619804,5.9619804 0 0 0 -1.293224,0.345225 l -0.68634,-0.8555278 a 7.0140947,7.0140947 0 0 0 -1.244591,0.7199037 l 0.398653,1.0212904 A 5.9619804,5.9619804 0 0 0 3.8052852,4.7540071 L 2.7908445,4.3587794 A 7.0140947,7.0140947 0 0 0 2.0716257,5.6047403 L 2.9209888,6.2856006 A 5.9619804,5.9619804 0 0 0 2.707963,6.9233078 5.9619804,5.9619804 0 0 0 2.578503,7.5815641 L 1.492826,7.748012 a 7.0140947,7.0140947 0 0 0 -0.00206,1.4370673 l 1.0877325,0.1664481 a 5.9619804,5.9619804 0 0 0 0.345225,1.2932236 l -0.8562078,0.685655 a 7.0140947,7.0140947 0 0 0 0.7205887,1.244591 l 1.0206057,-0.397968 a 5.9619804,5.9619804 0 0 0 0.9452588,0.950739 l -0.395228,1.014441 a 7.0140947,7.0140947 0 0 0 1.246647,0.719218 l 0.680174,-0.849363 a 5.9619804,5.9619804 0 0 0 0.637708,0.213026 5.9619804,5.9619804 0 0 0 0.658256,0.129459 l 0.166448,1.084993 a 7.0140947,7.0140947 0 0 0 1.437068,0.0027 l 0.166447,-1.087733 a 5.9619804,5.9619804 0 0 0 1.2932241,-0.345224 l 0.68634,0.856212 a 7.0140947,7.0140947 0 0 0 1.244591,-0.720583 l -0.397968,-1.020601 a 5.9619804,5.9619804 0 0 0 0.950054,-0.945259 l 1.014441,0.395228 a 7.0140947,7.0140947 0 0 0 0.719218,-1.246646 l -0.849363,-0.680175 a 5.9619804,5.9619804 0 0 0 0.213026,-0.638392 5.9619804,5.9619804 0 0 0 0.13014,-0.6575716 l 1.084997,-0.167133 a 7.0140947,7.0140947 0 0 0 0.0021,-1.4363824 L 14.354525,7.5815641 A 5.9619804,5.9619804 0 0 0 14.009301,6.2883403 l 0.856213,-0.68634 A 7.0140947,7.0140947 0 0 0 14.14491,4.3574096 L 13.124305,4.7553773 A 5.9619804,5.9619804 0 0 0 12.179046,3.8053235 L 12.574273,2.7908828 A 7.0140947,7.0140947 0 0 0 11.328312,2.071664 L 10.648138,2.9210272 A 5.9619804,5.9619804 0 0 0 10.009746,2.7080014 5.9619804,5.9619804 0 0 0 9.3514889,2.5778574 L 9.1857249,1.4928647 a 7.0140947,7.0140947 0 0 0 -0.718533,-0.037674 z m -6.84e-4,2.1014885 A 4.9098663,4.9098663 0 0 1 9.7371279,3.723812 4.9098663,4.9098663 0 0 1 13.209241,9.7371654 4.9098663,4.9098663 0 0 1 7.1958879,13.209279 4.9098663,4.9098663 0 0 1 3.7237737,7.195926 4.9098663,4.9098663 0 0 1 8.4665079,3.5566794 Z m 0,0.7014094 A 4.2084746,4.2084746 0 0 0 4.4012089,7.377443 4.2084746,4.2084746 0 0 0 7.3774049,12.531844 4.2084746,4.2084746 0 0 0 12.531806,9.5556483 4.2084746,4.2084746 0 0 0 9.5556099,4.4019325 4.2084746,4.2084746 0 0 0 8.4665079,4.2580888 Z m -2.352188,2.7871439 c 0.773325,0.029 1.708398,0.5767452 2.41315,1.49529 h -0.0013 c 1.002313,1.306024 1.160399,2.8668023 0.354129,3.4864983 -0.80739,0.619344 -2.442469,0.100827 -3.444783,-1.205548 -1.002313,-1.3060241 -0.992264,-2.905512 -0.184941,-3.5248565 0.20183,-0.1548358 0.444995,-0.2355091 0.711683,-0.2500139 0.05,-0.00274 0.100515,-0.0033 0.152065,-0.00137 z m 1.300073,2.1227225 -2.104228,0.7014095 1.402819,1.4028183 z"
     style="fill:currentColor"
     class="ColorScheme-Text" />
</svg>
