<?xml version="1.0" encoding="UTF-8" standalone="no"?>
<svg
   width="64"
   height="64"
   version="1.1"
   viewBox="0 0 16.933 16.933"
   id="svg7"
   sodipodi:docname="klassy-settings.svg"
   inkscape:version="1.4.4 (dcaf3e7d9e, 2026-05-05)"
   xmlns:inkscape="http://www.inkscape.org/namespaces/inkscape"
   xmlns:sodipodi="http://sodipodi.sourceforge.net/DTD/sodipodi-0.dtd"
   xmlns="http://www.w3.org/2000/svg"
   xmlns:svg="http://www.w3.org/2000/svg"
   xmlns:rdf="http://www.w3.org/1999/02/22-rdf-syntax-ns#"
   xmlns:cc="http://creativecommons.org/ns#"
   xmlns:dc="http://purl.org/dc/elements/1.1/">
  <sodipodi:namedview
     id="namedview7"
     pagecolor="#9c4444"
     bordercolor="#000000"
     borderopacity="0.25"
     inkscape:showpageshadow="2"
     inkscape:pageopacity="0.0"
     inkscape:pagecheckerboard="0"
     inkscape:deskcolor="#d1d1d1"
     inkscape:zoom="4.3531262"
     inkscape:cx="89.820506"
     inkscape:cy="35.032295"
     inkscape:window-width="2560"
     inkscape:window-height="1388"
     inkscape:window-x="0"
     inkscape:window-y="0"
     inkscape:window-maximized="1"
     inkscape:current-layer="svg7"
     showgrid="false" />
  <defs
     id="defs2">
    <style
       id="current-color-scheme"
       type="text/css">.ColorScheme-Text {color:#d8dee9} .ColorScheme-Highlight {color:#3b4252}</style>
  </defs>
  <metadata
     id="metadata2">
    <rdf:RDF>
      <cc:Work
         rdf:about="">
        <dc:format>image/svg+xml</dc:format>
        <dc:type
           rdf:resource="http://purl.org/dc/dcmitype/StillImage" />
      </cc:Work>
    </rdf:RDF>
  </metadata>
  <path
     id="path5"
     style="fill:currentColor"
     d="m 3.7379455,1.4551795 c -1.624827,0 -2.932901,1.308074 -2.932901,2.932901 v 8.1568385 c 0,1.624828 1.308074,2.932902 2.932901,2.932902 h 9.4571095 c 1.624827,0 2.9329,-1.308074 2.9329,-2.932902 V 4.3880805 c 0,-1.624827 -1.308073,-2.932901 -2.9329,-2.932901 z m 6.120186,1.047465 a 0.82300794,0.82300794 0 0 1 0.8230075,0.823008 0.82300794,0.82300794 0 0 1 -0.8230075,0.823008 0.82300794,0.82300794 0 0 1 -0.823008,-0.823008 0.82300794,0.82300794 0 0 1 0.823008,-0.823008 z m 1.9452915,0 a 0.82300794,0.82300794 0 0 1 0.823008,0.823008 0.82300794,0.82300794 0 0 1 -0.823008,0.823008 0.82300794,0.82300794 0 0 1 -0.823008,-0.823008 0.82300794,0.82300794 0 0 1 0.823008,-0.823008 z m 1.945291,0 a 0.82300794,0.82300794 0 0 1 0.823008,0.823008 0.82300794,0.82300794 0 0 1 -0.823008,0.823008 0.82300794,0.82300794 0 0 1 -0.823008,-0.823008 0.82300794,0.82300794 0 0 1 0.823008,-0.823008 z M 1.4170985,5.1380815 H 15.515902 v 6.9142025 c 0,1.549669 -1.263983,2.813482 -2.8136,2.813482 H 4.2306985 c -1.549754,0 -2.8136,-1.263677 -2.8136,-2.813482 z m 0.748189,0.748189 v 6.1660135 c 0,1.134464 0.930947,2.065294 2.065411,2.065294 h 8.4716035 c 1.133776,0 2.065411,-0.931518 2.065411,-2.065294 V 5.8862705 Z m 6.04981,0.806232 h 0.670038 c 0.08952,0 0.165422,0.0303 0.228081,0.093 0.06233,0.06266 0.09294,0.138587 0.09294,0.228431 v 0.533553 c 0.212386,0.06966 0.421633,0.161271 0.610008,0.282792 l 0.3480825,-0.346915 c 0.06335,-0.06441 0.140565,-0.0961 0.227964,-0.0961 0.08777,0 0.163657,0.03169 0.228431,0.0961 l 0.46943,0.46908 c 0.06408,0.06477 0.0968,0.139987 0.0968,0.228081 0,0.08846 -0.03308,0.162278 -0.0968,0.222527 l -0.37953,0.385201 c 0.105828,0.195344 0.185221,0.408424 0.238134,0.624679 h 0.488311 c 0.08984,0 0.165751,0.03131 0.22808,0.09539 0.06266,0.06478 0.09329,0.138948 0.09329,0.224632 v 0.6696885 c 0,0.08952 -0.03063,0.165423 -0.09329,0.228081 -0.06233,0.06233 -0.138236,0.09329 -0.22808,0.09329 h -0.533553 c -0.06999,0.212058 -0.161636,0.422443 -0.282792,0.610124 l 0.353461,0.347967 c 0.06025,0.06375 0.0899,0.140352 0.0899,0.228081 0,0.08776 -0.02965,0.163292 -0.0899,0.228431 l -0.475334,0.469664 c -0.06058,0.06339 -0.134723,0.09645 -0.225918,0.09645 -0.09021,0 -0.16466,-0.03306 -0.225275,-0.09645 L 9.6689225,12.228399 c -0.200563,0.104843 -0.409781,0.1863 -0.630524,0.238193 v 0.488602 c 0,0.08952 -0.03209,0.165387 -0.0958,0.228081 -0.06441,0.06233 -0.138888,0.09329 -0.224573,0.09329 h -0.669395 c -0.08985,0 -0.166161,-0.03096 -0.228491,-0.09329 -0.06266,-0.06269 -0.09294,-0.138564 -0.09294,-0.228081 V 12.42135 c -0.211366,-0.0693 -0.42305,-0.161943 -0.610184,-0.282734 l -0.348142,0.353344 c -0.06335,0.06021 -0.140352,0.08955 -0.22808,0.08955 -0.08777,0 -0.163658,-0.02934 -0.228432,-0.08955 l -0.469371,-0.475217 c -0.06372,-0.06441 -0.09686,-0.140761 -0.09686,-0.22849 0,-0.08882 0.03314,-0.162571 0.09686,-0.22282 l 0.379881,-0.378654 c -0.105172,-0.201293 -0.185936,-0.409087 -0.238193,-0.630524 h -0.488661 c -0.08985,0 -0.165752,-0.03207 -0.228081,-0.09545 -0.06266,-0.06477 -0.09329,-0.139663 -0.09329,-0.224983 V 9.5664265 c 0,-0.09017 0.03063,-0.166044 0.09329,-0.228373 0.06233,-0.06266 0.138236,-0.09329 0.228081,-0.09329 h 0.533552 c 0.07105,-0.213445 0.161272,-0.420611 0.282792,-0.609716 l -0.346505,-0.348317 c -0.06441,-0.06372 -0.09656,-0.140279 -0.09656,-0.228373 0,-0.08777 0.03215,-0.163306 0.09656,-0.22808 l 0.468729,-0.469431 c 0.06408,-0.06408 0.139974,-0.0968 0.228431,-0.0968 0.08846,0 0.161965,0.03308 0.222178,0.0968 l 0.385434,0.379882 c 0.195454,-0.107617 0.407168,-0.187688 0.624445,-0.238193 v -0.488603 c 0,-0.08984 0.03162,-0.165773 0.09534,-0.228431 0.06445,-0.06269 0.139371,-0.093 0.224691,-0.093 z m 0.251344,1.659343 c -0.224137,0 -0.435909,0.04263 -0.636837,0.127251 -0.198702,0.08634 -0.372802,0.202135 -0.519758,0.348142 -0.146481,0.146955 -0.262705,0.321188 -0.348609,0.520693 -0.08474,0.200453 -0.1269,0.412246 -0.1269,0.636019 0,0.2246125 0.04216,0.4359605 0.1269,0.6373635 0.0859,0.199031 0.202128,0.372832 0.348609,0.520225 0.146956,0.146482 0.321056,0.262655 0.519758,0.348668 0.201402,0.08415 0.4127,0.126725 0.636837,0.126725 0.224138,0 0.435646,-0.04257 0.636429,-0.126725 0.200088,-0.08601 0.373292,-0.202186 0.52116,-0.348668 0.145678,-0.147393 0.261399,-0.321194 0.34785,-0.520226 0.084631,-0.201402 0.1270745,-0.412751 0.1270755,-0.6373625 -10e-7,-0.223773 -0.04245,-0.435566 -0.1270755,-0.636019 -0.08645,-0.199177 -0.202172,-0.373628 -0.34785,-0.520693 -0.147394,-0.146007 -0.321072,-0.261801 -0.52116,-0.348142 -0.200783,-0.08463 -0.412291,-0.127251 -0.636429,-0.127251 z"
     class="ColorScheme-Text" />
</svg>
