<?xml version="1.0" encoding="UTF-8" standalone="no"?>
<svg
   id="svg3297"
   height="64"
   width="64"
   version="1.0"
   sodipodi:docname="latte-dock.svg"
   inkscape:version="1.4.4 (dcaf3e7d9e, 2026-05-05)"
   xmlns:inkscape="http://www.inkscape.org/namespaces/inkscape"
   xmlns:sodipodi="http://sodipodi.sourceforge.net/DTD/sodipodi-0.dtd"
   xmlns="http://www.w3.org/2000/svg"
   xmlns:svg="http://www.w3.org/2000/svg"
   xmlns:rdf="http://www.w3.org/1999/02/22-rdf-syntax-ns#"
   xmlns:cc="http://creativecommons.org/ns#"
   xmlns:dc="http://purl.org/dc/elements/1.1/">
  <sodipodi:namedview
     id="namedview1"
     pagecolor="#9c4444"
     bordercolor="#000000"
     borderopacity="0.25"
     inkscape:showpageshadow="2"
     inkscape:pageopacity="0.0"
     inkscape:pagecheckerboard="0"
     inkscape:deskcolor="#d1d1d1"
     inkscape:zoom="13.09375"
     inkscape:cx="35.398568"
     inkscape:cy="31.045346"
     inkscape:window-width="2560"
     inkscape:window-height="1388"
     inkscape:window-x="0"
     inkscape:window-y="0"
     inkscape:window-maximized="1"
     inkscape:current-layer="svg3297" />
  <metadata
     id="metadata58">
    <rdf:RDF>
      <cc:Work
         rdf:about="">
        <dc:format>image/svg+xml</dc:format>
        <dc:type
           rdf:resource="http://purl.org/dc/dcmitype/StillImage" />
      </cc:Work>
    </rdf:RDF>
  </metadata>
  <defs
     id="defs3299">
    <style
       id="current-color-scheme"
       type="text/css">.ColorScheme-Text {color:#d8dee9} .ColorScheme-Highlight {color:#3b4252}</style>
  </defs>
  <path
     id="path5"
     style="fill:currentColor"
     d="M 32,5.5 A 26.5,26.5 0 0 0 5.5,32 26.5,26.5 0 0 0 32,58.5 26.5,26.5 0 0 0 58.5,32 26.5,26.5 0 0 0 32,5.5 Z m 12.83076,7.95 c 0.91916,0 1.65964,0.330853 2.223,0.99375 0.56336,0.632687 0.84624,1.41563 0.84624,2.349755 0,0.602477 -0.13427,1.310822 -0.40112,2.12477 -0.26685,0.78334 -0.54715,1.961795 -0.84366,2.473907 -0.1186,0.0901 -0.25287,0.104675 -0.40112,0.04373 -0.1186,-0.05963 -0.16163,-0.164035 -0.13198,-0.315615 0.1779,-0.542323 0.24962,-1.613321 0.21997,-2.155775 -0.0296,-0.542058 -0.17567,-0.906698 -0.44253,-1.358655 -0.26685,-0.451958 -0.68401,-0.813153 -1.24736,-1.084248 -0.53371,-0.301437 -1.21423,-0.452885 -2.04444,-0.452885 -1.126711,0 -2.104456,0.209615 -2.934665,0.631363 -0.800561,0.39167 -1.543629,0.96831 -2.225587,1.992667 -0.681957,0.994413 -1.319443,2.334385 -1.91245,4.02164 -0.593008,1.687123 -1.199218,3.796523 -1.821875,6.327405 -1.037763,4.037275 -2.475693,7.155795 -4.314015,9.355163 1.334266,0.512112 2.726576,0.97838 4.179444,1.400127 1.482517,0.39167 3.114681,0.587373 4.893702,0.587373 1.482517,0 2.608874,-0.270565 3.379784,-0.812623 0.770912,-0.542455 1.141842,-1.193427 1.645902,-2.217785 0.1186,-0.0901 0.22418,-0.0901 0.31313,0 0.1186,0.05963 0.16162,0.180465 0.13198,0.362387 -0.7116,1.626968 -1.39411,2.744208 -2.580123,3.617781 -1.186014,0.843627 -2.772558,1.265507 -4.759131,1.265507 -1.749371,0 -3.350258,-0.256387 -4.803125,-0.768632 -1.423216,-0.54219 -2.818115,-1.11565 -4.182032,-1.718393 -2.164476,1.657178 -4.817415,2.487025 -7.960351,2.487025 -1.186014,0 -2.075107,-0.209747 -2.668115,-0.631495 C 16.397228,41.546758 16.1,41.01742 16.1,40.384732 c 0,-0.391802 0.134269,-1.209725 0.401123,-1.661417 0.296501,-0.45209 0.696723,-0.873838 1.200781,-1.265508 0.504055,-0.391802 1.095921,-0.722655 1.777881,-0.99375 0.711607,-0.271227 1.497708,-0.406245 2.357568,-0.406245 1.097062,0 2.163459,0.14893 3.201222,0.450235 1.067413,0.270963 2.150738,1.014553 3.247802,1.4363 0.504057,-0.843362 0.992928,-1.89687 1.467335,-3.162377 0.474403,-1.265375 0.948934,-2.817878 1.423338,-4.655653 0.681961,-2.591302 1.496747,-4.910317 2.445557,-6.958767 0.948813,-2.079058 2.000864,-3.826865 3.157227,-5.243025 1.186014,-1.445973 2.446642,-2.546385 3.780909,-3.299648 C 41.924659,13.841405 43.34824,13.45 44.83076,13.45 Z M 19.880909,37.548437 c -1.363917,0 -2.047022,0.466135 -2.047022,1.399996 0,0.602742 0.325914,1.497647 0.978222,1.889185 0.681959,0.391935 1.631017,0.587504 2.846679,0.587504 1.067415,0 2.016472,-0.105999 2.846681,-0.315747 0.85986,-0.241282 1.631617,-0.69324 2.313574,-1.356005 C 25.721979,39.271467 24.609966,38.451027 23.483252,38.089303 22.35654,37.72771 21.155874,37.548437 19.880909,37.548437 Z M 24.05,46.575 a 2.65,2.65 0 0 1 2.65,2.65 2.65,2.65 0 0 1 -2.65,2.65 2.65,2.65 0 0 1 -2.65,-2.65 2.65,2.65 0 0 1 2.65,-2.65 z m 15.9,0 a 2.65,2.65 0 0 1 2.65,2.65 2.65,2.65 0 0 1 -2.65,2.65 2.65,2.65 0 0 1 -2.65,-2.65 2.65,2.65 0 0 1 2.65,-2.65 z M 32,49.225 a 2.65,2.65 0 0 1 2.65,2.65 2.65,2.65 0 0 1 -2.65,2.65 2.65,2.65 0 0 1 -2.65,-2.65 2.65,2.65 0 0 1 2.65,-2.65 z"
     class="ColorScheme-Text" />
</svg>
