<?xml version="1.0" encoding="UTF-8" standalone="no"?>
<svg
   width="64"
   height="64"
   version="1.1"
   viewBox="0 0 16.933 16.933"
   id="svg7"
   sodipodi:docname="io.mango3d.LycheeSlicer.svg"
   inkscape:version="1.4.4 (dcaf3e7d9e, 2026-05-05)"
   xmlns:inkscape="http://www.inkscape.org/namespaces/inkscape"
   xmlns:sodipodi="http://sodipodi.sourceforge.net/DTD/sodipodi-0.dtd"
   xmlns="http://www.w3.org/2000/svg"
   xmlns:svg="http://www.w3.org/2000/svg"
   xmlns:rdf="http://www.w3.org/1999/02/22-rdf-syntax-ns#"
   xmlns:cc="http://creativecommons.org/ns#"
   xmlns:dc="http://purl.org/dc/elements/1.1/">
  <sodipodi:namedview
     id="namedview7"
     pagecolor="#9c4444"
     bordercolor="#000000"
     borderopacity="0.25"
     inkscape:showpageshadow="2"
     inkscape:pageopacity="0.0"
     inkscape:pagecheckerboard="0"
     inkscape:deskcolor="#d1d1d1"
     inkscape:zoom="4.3531262"
     inkscape:cx="89.820506"
     inkscape:cy="34.572855"
     inkscape:window-width="2560"
     inkscape:window-height="1388"
     inkscape:window-x="0"
     inkscape:window-y="0"
     inkscape:window-maximized="1"
     inkscape:current-layer="svg7"
     showgrid="false" />
  <defs
     id="defs2">
    <style
       id="current-color-scheme"
       type="text/css">.ColorScheme-Text {color:#d8dee9} .ColorScheme-Highlight {color:#3b4252}</style>
  </defs>
  <metadata
     id="metadata2">
    <rdf:RDF>
      <cc:Work
         rdf:about="">
        <dc:format>image/svg+xml</dc:format>
        <dc:type
           rdf:resource="http://purl.org/dc/dcmitype/StillImage" />
      </cc:Work>
    </rdf:RDF>
  </metadata>
  <path
     id="path5"
     style="fill:currentColor"
     d="m 8.2639825,1.4552012 c -0.143994,0 -0.147282,0.0026 -0.542425,0.438492 -0.207789,0.229192 -0.323576,0.334612 -0.367946,0.334966 -0.09356,7.41e-4 -0.439321,0.07651 -0.748664,0.164028 l -0.267729,0.07571 -0.440118,-0.179589 c -0.242092,-0.09877 -0.466781,-0.179589 -0.499284,-0.179589 -0.0325,0 -0.09801,0.02012 -0.145564,0.04471 -0.08607,0.04451 -0.150749,0.21198 -0.359642,0.931157 -0.02887,0.0994 -0.06823,0.149847 -0.173144,0.222033 -0.07467,0.05137 -0.262415,0.200559 -0.417241,0.331482 l -0.28149,0.238 -0.357726,0.02061 c -0.196745,0.01133 -0.426949,0.02166 -0.511535,0.02299 -0.119863,0.0019 -0.173972,0.01945 -0.245259,0.07943 -0.112964,0.09505 -0.114842,0.145223 -0.02926,0.782632 l 0.06224,0.463285 -0.211698,0.433092 -0.211697,0.433092 -0.46433,0.247639 c -0.255379,0.13618 -0.489082,0.272332 -0.519374,0.302625 -0.0346,0.03459 -0.0551,0.0978 -0.0551,0.169892 0,0.09456 0.05284,0.197619 0.30007,0.585276 l 0.300127,0.470542 -0.0041,0.43048 -0.0041,0.430479 -0.286948,0.388906 c -0.400003,0.542086 -0.423976,0.580002 -0.423976,0.671383 0,0.130218 0.08684,0.2086468 0.577669,0.5216958 0.461417,0.294289 0.463948,0.296501 0.524948,0.459221 0.03371,0.08993 0.107329,0.268381 0.163622,0.39657 l 0.102365,0.233065 -0.121526,0.574476 c -0.116205,0.549313 -0.119439,0.578618 -0.07345,0.667551 0.02645,0.05115 0.07757,0.1059 0.113571,0.1217 0.036,0.0158 0.306236,0.06064 0.600546,0.09964 0.29431,0.039 0.536774,0.07231 0.538825,0.07403 0.0021,0.0017 2.209154,-1.786483 4.904643,-3.9737748 l 4.9008675,-3.976854 0.05278,-0.222265 c 0.02903,-0.122223 0.06106,-0.342607 0.07119,-0.489762 0.01647,-0.239344 0.01217,-0.275225 -0.04094,-0.340365 -0.06814,-0.08358 -0.276658,-0.11483 -0.795405,-0.119262 l -0.297283,-0.0026 -0.247465,-0.208156 c -0.13609,-0.114484 -0.341814,-0.274439 -0.457187,-0.355462 l -0.209782,-0.147306 -0.147016,-0.453936 c -0.21933,-0.676994 -0.250353,-0.691221 -0.895797,-0.411435 l -0.406614,0.176279 -0.3342695,-0.08442 c -0.183845,-0.04643 -0.444741,-0.101322 -0.57976,-0.121991 l -0.24549,-0.03762 -0.175873,-0.195441 c -0.472681,-0.525329 -0.486495,-0.537373 -0.617268,-0.537373 z m 5.3397665,4.792639 c -1.23e-4,5e-6 -2.36e-4,3e-5 -3.48e-4,5.9e-5 -2.36e-4,3e-5 -4.72e-4,9e-5 -6.97e-4,1.8e-4 -0.04286,0.01531 -9.5690795,7.7347248 -9.5690795,7.7541388 0,0.02661 0.457945,0.363334 0.70413,0.517748 l 0.202582,0.1271 0.118913,-0.09511 c 0.612178,-0.489536 8.9016475,-7.1992998 8.9418835,-7.2378478 0.05092,-0.04879 0.04874,-0.06267 -0.05324,-0.331424 -0.13916,-0.366724 -0.312398,-0.736163 -0.34414,-0.734846 z m 1.916487,1.115159 c -0.02176,-0.03889 -0.792304,0.572006 -4.200454,3.3302628 l -4.1738035,3.377875 0.160661,0.05487 c 0.212844,0.07272 0.586896,0.168432 0.844352,0.216053 0.114454,0.02117 0.23707,0.03998 0.27249,0.04175 0.04372,0.0022 1.175227,-0.895273 3.5228005,-2.794109 1.90212,-1.538529 3.496717,-2.8328238 3.543529,-2.8762098 l 0.08512,-0.07891 -0.01405,-0.611984 c -0.0077,-0.336592 -0.02598,-0.633402 -0.04064,-0.659596 z m -1.622223,3.9060738 c -0.0072,-0.01787 -5.1037415,4.082867 -5.2160925,4.196912 -0.06102,0.06193 0.86531,-0.132536 1.259735,-0.264477 0.9969775,-0.333503 1.8045385,-0.847063 2.5504775,-1.621933 0.582426,-0.605016 1.004491,-1.255154 1.305315,-2.010664 0.06051,-0.151977 0.105771,-0.28689 0.100565,-0.299838 z"
     class="ColorScheme-Text" />
</svg>
