<?xml version="1.0" encoding="UTF-8" standalone="no"?>
<svg
   width="64"
   height="64"
   version="1.1"
   viewBox="0 0 16.933 16.933"
   id="svg7"
   sodipodi:docname="myrlyn-3.svg"
   inkscape:version="1.4.4 (dcaf3e7d9e, 2026-05-05)"
   xmlns:inkscape="http://www.inkscape.org/namespaces/inkscape"
   xmlns:sodipodi="http://sodipodi.sourceforge.net/DTD/sodipodi-0.dtd"
   xmlns="http://www.w3.org/2000/svg"
   xmlns:svg="http://www.w3.org/2000/svg"
   xmlns:rdf="http://www.w3.org/1999/02/22-rdf-syntax-ns#"
   xmlns:cc="http://creativecommons.org/ns#"
   xmlns:dc="http://purl.org/dc/elements/1.1/">
  <sodipodi:namedview
     id="namedview7"
     pagecolor="#9c4444"
     bordercolor="#000000"
     borderopacity="0.25"
     inkscape:showpageshadow="2"
     inkscape:pageopacity="0.0"
     inkscape:pagecheckerboard="0"
     inkscape:deskcolor="#d1d1d1"
     inkscape:zoom="4.3531262"
     inkscape:cx="89.820506"
     inkscape:cy="35.721455"
     inkscape:window-width="2560"
     inkscape:window-height="1388"
     inkscape:window-x="0"
     inkscape:window-y="0"
     inkscape:window-maximized="1"
     inkscape:current-layer="svg7"
     showgrid="false" />
  <defs
     id="defs2">
    <style
       id="current-color-scheme"
       type="text/css">.ColorScheme-Text {color:#d8dee9} .ColorScheme-Highlight {color:#3b4252}</style>
  </defs>
  <metadata
     id="metadata2">
    <rdf:RDF>
      <cc:Work
         rdf:about="">
        <dc:format>image/svg+xml</dc:format>
        <dc:type
           rdf:resource="http://purl.org/dc/dcmitype/StillImage" />
      </cc:Work>
    </rdf:RDF>
  </metadata>
  <path
     id="path5"
     style="fill:currentColor"
     d="m 11.016535,1.4561734 c -0.248798,-0.005 -0.493035,0.0087 -0.720615,0.04289 -0.3954719,0.0594 -0.9037849,0.178439 -1.1894989,0.278587 -0.279365,0.09792 -0.736369,0.307445 -0.739935,0.338863 -10e-7,0.01282 0.288291,0.188793 0.640826,0.390832 0.352536,0.20204 1.0114359,0.587495 1.4640279,0.856625 0.452637,0.269126 0.830146,0.490121 0.838851,0.4911 h 1.97e-4 1.98e-4 1.98e-4 l 1.98e-4,-1.98e-4 c 0.01,-0.003 0.04332,-0.06708 0.07573,-0.145861 l 0.06086,-0.147987 -0.10819,-0.09119 c -0.05956,-0.05017 -0.161719,-0.121579 -0.227004,-0.158613 -0.118596,-0.06728 -0.159115,-0.150498 -0.07322,-0.150498 0.02501,0 0.140046,0.06488 0.25579,0.144123 0.16792,0.114962 0.219476,0.136492 0.255209,0.106836 0.07913,-0.06567 0.04845,-0.146438 -0.105484,-0.277041 -0.112324,-0.0953 -0.141413,-0.136796 -0.114758,-0.164022 0.02678,-0.02735 0.06641,-0.01023 0.158419,0.06878 0.06742,0.05789 0.134514,0.124151 0.149147,0.147215 0.02143,0.03377 0.03826,0.0313 0.08694,-0.01275 0.08129,-0.07357 0.07623,-0.17425 -0.01855,-0.361273 -0.04352,-0.08589 -0.07921,-0.179348 -0.07921,-0.207492 0,-0.09708 0.07666,-0.0251 0.172717,0.162091 0.05298,0.103257 0.100072,0.193958 0.104711,0.201502 v 1.98e-4 l 1.98e-4,1.97e-4 c 1.98e-4,2.08e-4 5.98e-4,6.36e-4 7.85e-4,7.85e-4 0.006,0.0051 0.0243,-0.0042 0.04212,-0.02202 0.04029,-0.04029 -0.0012,-0.192464 -0.115917,-0.425414 -0.04,-0.08124 -0.06444,-0.15599 -0.05429,-0.166147 0.0552,-0.0552 0.108798,0.0071 0.202276,0.235697 0.07325,0.179168 0.118277,0.251462 0.152622,0.244971 0.08312,-0.01571 0.07247,-0.188774 -0.03149,-0.513318 -0.06924,-0.216142 -0.08924,-0.319753 -0.06607,-0.34292 0.05276,-0.05276 0.189373,0.305048 0.27221,0.71308 0.01211,0.05966 0.03747,0.08713 0.08037,0.08713 0.05665,0 0.06233,-0.02086 0.05931,-0.219082 -0.0038,-0.251898 0.0168,-0.310354 0.08906,-0.25038 0.03769,0.03127 0.04516,0.08696 0.03342,0.250959 l -0.01507,0.210775 0.145861,0.01739 c 0.08022,0.0096 0.170202,0.02691 0.199957,0.03845 0.0691,0.02678 0.161993,-0.11868 0.243232,-0.380593 0.122625,-0.395349 0.125746,-0.376621 -0.08172,-0.497669 -0.509631,-0.297346 -1.29799,-0.479681 -2.044384,-0.494578 z m -0.330555,0.272211 c 0.278824,-0.005 0.55017,0.169139 0.618995,0.475452 0.114753,0.510728 -0.423765,0.906704 -0.907435,0.667293 -0.208427,-0.103168 -0.30602,-0.272547 -0.30602,-0.531091 0,-0.24993 0.0054,-0.267097 0.126542,-0.398947 0.130648,-0.142214 0.300623,-0.209705 0.467918,-0.212707 z m 0.02975,0.103166 c -0.09356,-0.0047 -0.18878,0.01013 -0.258109,0.04598 -0.37843,0.195696 -0.371088,0.749955 0.01217,0.923856 0.133415,0.06054 0.408977,0.03823 0.517181,-0.04192 0.314925,-0.233266 0.304277,-0.635953 -0.0226,-0.856238 -0.06314,-0.04255 -0.155077,-0.06694 -0.248642,-0.07167 z m -0.0398,0.158033 c 0.243024,0 0.379079,0.122775 0.380207,0.343307 5.98e-4,0.114874 -0.01705,0.15557 -0.106836,0.245357 -0.09186,0.09186 -0.129386,0.107609 -0.25637,0.107609 -0.126984,0 -0.164508,-0.01575 -0.256369,-0.107609 -0.08823,-0.08823 -0.107609,-0.131542 -0.107609,-0.240527 0,-0.108986 0.01938,-0.152301 0.107609,-0.240528 0.08795,-0.08794 0.131616,-0.107609 0.239368,-0.107609 z m -0.158226,0.117849 c -0.09838,0.0039 -0.04348,0.06866 0.13485,0.143543 0.199344,0.0837 0.277813,0.102844 0.277813,0.06781 0,-0.07367 -0.113596,-0.193612 -0.186046,-0.196478 -0.04566,-0.0018 -0.124507,-0.0074 -0.175034,-0.01256 -0.0204,-0.0021 -0.03753,-0.0029 -0.05158,-0.0023 z m -0.04173,0.20807 c -0.03886,0.0019 -0.02476,0.03917 0.01874,0.110508 0.03419,0.05607 0.07431,0.08244 0.115917,0.07612 0.035,-0.0053 0.103392,0.01187 0.152044,0.03825 0.111241,0.06031 0.119852,0.06065 0.16634,0.0046 0.03158,-0.03805 0.01735,-0.05488 -0.08307,-0.09756 -0.213851,-0.09089 -0.325929,-0.134132 -0.369967,-0.131952 z m 2.89444,-0.169625 0.143737,0.103166 c 0.218946,0.157236 0.518147,0.436909 0.518147,0.484339 0,0.02325 -0.07272,0.121929 -0.16151,0.219083 -0.08879,0.09715 -0.177817,0.175919 -0.197831,0.175227 -0.03086,-0.0011 -0.202854,-0.08189 -0.237244,-0.111473 h -1.97e-4 v -1.98e-4 l -1.98e-4,-1.98e-4 v -1.98e-4 -1.98e-4 h -1.98e-4 v -1.97e-4 c -0.0012,-0.01077 0.04365,-0.07945 0.10336,-0.157647 0.06264,-0.08204 0.113984,-0.161288 0.113984,-0.176193 0,-0.0658 -0.08576,-0.01588 -0.204786,0.119394 -0.117868,0.133946 -0.137616,0.144554 -0.231061,0.124031 -0.09621,-0.02113 -0.135943,-0.08777 -0.07477,-0.125577 0.03155,-0.0195 0.143257,-0.317596 0.194161,-0.517954 z m -5.2162519,0.08288 c 0.159429,0.0014 0.375617,0.181667 0.431983,0.385809 0.05885,0.213131 -0.07137,0.471364 -0.277234,0.549832 -0.180427,0.06877 -0.429658,0.01591 -0.587698,-0.12461 -0.137981,-0.122689 -0.193954,-0.421068 -0.08945,-0.476998 0.04998,-0.02675 0.05516,-0.01808 0.04443,0.0738 -0.02293,0.196445 0.175526,0.428768 0.366683,0.429085 0.299913,4.86e-4 0.478429,-0.303196 0.324567,-0.55215 -0.05932,-0.09598 -0.108143,-0.129862 -0.285348,-0.198604 l -0.07844,-0.03053 0.06916,-0.0369 c 0.02426,-0.01298 0.05181,-0.01901 0.08133,-0.01874 z m 0.527421,0.210195 c 1.29e-4,-8e-6 4.86e-4,7e-6 5.99e-4,0 h 1.97e-4 c 2.87e-4,3e-5 7.48e-4,1.29e-4 0.0012,1.99e-4 h 1.98e-4 1.98e-4 c 0.08222,0.03071 0.463433,0.261212 0.47294,0.285541 3e-5,8.9e-5 1.78e-4,4.86e-4 1.98e-4,5.98e-4 v 1.98e-4 c 4.11e-4,0.01306 -0.02846,0.02376 -0.06414,0.02376 -0.03568,0 -0.110432,0.02305 -0.166147,0.0512 -0.05572,0.02815 -0.13226,0.07931 -0.170011,0.113791 l -0.06858,0.06279 0.03284,-0.129634 c 0.02546,-0.100304 0.0222,-0.161909 -0.01449,-0.27337 -0.02321,-0.07051 -0.03385,-0.126311 -0.02627,-0.134077 l 1.97e-4,-1.98e-4 1.98e-4,-1.98e-4 1.98e-4,-1.98e-4 c 7.9e-5,-3.9e-5 4.86e-4,-1.58e-4 5.98e-4,-1.97e-4 z m -0.636189,0.02628 c -0.06008,-0.002 -0.122035,0.01785 -0.175421,0.068 -0.08583,0.08063 -0.0934,0.173177 -0.02241,0.274529 0.100112,0.14293 0.292994,0.158075 0.400106,0.03149 0.140674,-0.166249 -0.02203,-0.368082 -0.202275,-0.374025 z m 0.0083,0.136396 c 0.0387,-8.6e-4 0.06657,0.03966 0.05448,0.102007 -0.0148,0.07635 -0.07168,0.08993 -0.122098,0.02917 -0.03477,-0.04189 -0.03302,-0.05875 0.01082,-0.102586 0.01926,-0.01926 0.03921,-0.02821 0.0568,-0.02859 z m -0.62286,0.143157 0.03806,0.105098 c 0.02093,0.05777 0.03905,0.115803 0.04038,0.12886 0.0036,0.03581 -0.03396,0.02688 -0.151464,-0.03574 l -0.106644,-0.0568 0.08984,-0.07071 z m 6.6800879,0.09563 0.06028,0.07303 c 0.09138,0.110971 0.264495,0.492835 0.320124,0.706126 0.05838,0.223852 0.06716,0.753864 0.01623,0.980075 -0.01943,0.08632 -0.07227,0.22472 -0.117462,0.307759 -0.05721,0.105116 -0.181285,0.259093 -0.199376,0.256563 h -1.98e-4 l -1.98e-4,-1.98e-4 h -1.98e-4 l -1.98e-4,-1.98e-4 h -1.99e-4 l -1.97e-4,-1.98e-4 -1.99e-4,-1.98e-4 -1.97e-4,-1.98e-4 v -1.97e-4 -1.98e-4 h -1.98e-4 v -1.98e-4 c -0.0011,-0.0031 7.85e-4,-0.01072 0.0064,-0.02338 0.0077,-0.01741 0.05459,-0.115722 0.104133,-0.218503 0.0768,-0.15933 0.08986,-0.224689 0.08868,-0.443188 -0.0015,-0.27754 -0.06943,-0.589431 -0.17233,-0.791131 -0.03566,-0.06991 -0.142851,-0.208752 -0.238208,-0.308725 l -0.17349,-0.181796 0.153398,-0.177739 z m -4.8895609,0.03825 c -0.223851,-0.0056 -0.440239,0.11427 -0.490714,0.344079 -0.04836,0.220171 0.144235,0.531265 0.3719,0.600642 0.145414,0.04431 0.364704,0.01966 0.460382,-0.05178 0.222557,-0.166162 0.269279,-0.418105 0.119588,-0.644304 -0.108473,-0.163913 -0.287049,-0.244265 -0.461156,-0.248641 z m -0.0037,0.09582 c 0.03957,-1.39e-4 0.0819,0.01556 0.160351,0.04695 0.373134,0.149299 0.326308,0.689899 -0.06317,0.729696 -0.104544,0.01068 -0.167207,-0.0018 -0.240527,-0.04791 -0.139594,-0.08773 -0.201503,-0.189016 -0.201503,-0.32959 0,-0.165408 0.07111,-0.289252 0.201309,-0.351034 0.06724,-0.03191 0.103971,-0.04797 0.143544,-0.04811 z m -1.98e-4,0.147601 c -0.204243,0.008 -0.31406,0.268741 -0.120747,0.431403 0.117692,0.09903 0.214438,0.103961 0.325726,0.01642 0.146042,-0.114877 0.100599,-0.346834 -0.08307,-0.424062 -0.04297,-0.01807 -0.08408,-0.02525 -0.121906,-0.02376 z m 0.03187,0.165181 c 0.07237,0 0.106946,0.07369 0.05776,0.122872 -0.04064,0.04064 -0.06649,0.0444 -0.0966,0.0143 -0.04567,-0.04567 -0.01977,-0.137168 0.03883,-0.137168 z m -2.232363,-0.312782 c 0.263637,0.0096 0.490426,0.138741 1.451664,0.624791 1.097708,0.555057 2.3076459,1.215682 2.6390369,1.440845 0.06237,0.04238 0.150232,0.131878 0.19532,0.198797 0.04509,0.06692 0.1597,0.218127 0.254631,0.336158 0.09122,0.113422 0.161331,0.211761 0.160738,0.224686 v 1.97e-4 1.98e-4 1.98e-4 l -1.98e-4,1.98e-4 v 1.98e-4 h -1.98e-4 v 1.98e-4 c -0.0067,0.0061 -0.19022,-0.09675 -0.407834,-0.228549 -1.175964,-0.712258 -3.4464249,-1.855666 -4.7006009,-2.367434 l -0.379821,-0.155135 0.332488,-0.03651 c 0.20751,-0.02285 0.334945,-0.04318 0.45478,-0.03883 z m 1.635778,0.07728 -0.03632,0.104518 c -0.02022,0.05801 -0.02785,0.166446 -0.01719,0.244198 0.01055,0.07698 0.0087,0.139361 -0.0041,0.138521 -0.01273,-8.42e-4 -0.10772,-0.04517 -0.211162,-0.09853 l -0.188171,-0.09698 0.12094,-0.04154 c 0.06645,-0.02284 0.169174,-0.0885 0.228356,-0.145862 z m -2.923033,0.01526 c 0.182434,-10e-4 0.286583,0.02017 0.522205,0.106257 1.328782,0.485511 4.2709009,1.98607 5.5381149,2.824504 0.171491,0.113467 0.342919,0.302223 0.342919,0.377502 v 1.98e-4 1.97e-4 1.98e-4 1.98e-4 c -0.0041,0.0071 -0.04885,0.01214 -0.102779,0.01101 -0.07285,-0.0015 -0.153756,-0.04355 -0.277041,-0.14393 -0.449143,-0.365726 -1.619012,-1.039723 -2.9369379,-1.692209 -1.476875,-0.731181 -2.487271,-1.191473 -3.050348,-1.389648 l -0.264097,-0.09293 z m 4.121226,0.05409 0.1835339,0.1022 c 0.100975,0.0562 0.204407,0.122145 0.229903,0.146442 0.04015,0.03827 0.03331,0.04405 -0.051,0.04405 -0.05353,0 -0.147204,0.03391 -0.208264,0.07535 l -0.1110869,0.07535 0.0037,-0.1306 c 0.0021,-0.0719 -0.0075,-0.171758 -0.02144,-0.221787 z m 0.5052039,0.652032 c -0.12745,-0.0037 -0.211966,0.102126 -0.152238,0.246323 0.08004,0.193242 0.302174,0.251237 0.398561,0.104132 0.07101,-0.108374 0.0291,-0.227578 -0.108189,-0.307759 -0.04826,-0.02819 -0.09565,-0.04148 -0.138134,-0.0427 z m 0.0396,0.126349 c 0.01282,1.29e-4 0.02716,0.0029 0.0427,0.0089 0.03013,0.01156 0.04806,0.04732 0.0425,0.08481 -0.01165,0.07866 -0.06191,0.09979 -0.113791,0.04791 -0.06585,-0.06584 -0.04063,-0.142303 0.02859,-0.14161 z m -0.0097,-0.354704 c -0.02844,-5.24e-4 -0.06131,9.5e-4 -0.101621,0.0037 -0.155541,0.01049 -0.199077,0.02695 -0.260812,0.09872 -0.09975,0.11597 -0.1220919,0.222581 -0.07747,0.371513 0.07759,0.258977 0.315325,0.437678 0.58364,0.438938 0.133919,6.31e-4 0.167734,-0.01337 0.265063,-0.110701 0.103917,-0.103913 0.110605,-0.122381 0.0966,-0.268154 -0.01812,-0.188556 -0.116503,-0.342874 -0.292303,-0.458644 -0.08281,-0.05453 -0.127792,-0.07377 -0.213093,-0.07535 z m -0.0083,0.09312 c 0.06364,0.0018 0.127046,0.02295 0.193388,0.06395 0.21461,0.132637 0.264576,0.38108 0.108189,0.537467 -0.112482,0.112482 -0.28561,0.124363 -0.429665,0.02956 -0.101626,-0.06688 -0.205752,-0.231817 -0.205752,-0.325919 0,-0.09649 0.08571,-0.229792 0.173296,-0.2697 0.04559,-0.02077 0.08956,-0.03238 0.133304,-0.03497 0.0091,-5.35e-4 0.01815,-6.43e-4 0.02724,-3.85e-4 z m -0.5712769,0.09583 v 0.148759 c 0,0.08178 0.01166,0.180685 0.02589,0.219856 0.03312,0.09117 0.01359,0.08854 -0.213867,-0.02879 l -0.187978,-0.09698 0.108962,-0.04559 c 0.05985,-0.02514 0.144455,-0.07987 0.187978,-0.121519 z m 1.1205289,0.0255 0.120359,0.06221 c 0.06614,0.03425 0.144622,0.0812 0.174455,0.104325 0.04976,0.03857 0.04399,0.05314 -0.07109,0.17542 l -0.125577,0.133305 v -0.142771 c 0,-0.07853 -0.0221,-0.185476 -0.04907,-0.237629 z m -3.8826309,0.323021 c 0.02057,7.63e-4 0.04581,0.0037 0.07786,0.0081 0.250376,0.03432 0.642758,0.247894 0.642758,0.349876 0,0.02305 -0.04451,0.05075 -0.09891,0.06163 -0.0544,0.01088 -0.225136,0.0199 -0.379241,0.0199 -0.256159,0 -0.284085,-0.0062 -0.325147,-0.07129 -0.08153,-0.129292 -0.09122,-0.212251 -0.03497,-0.298099 0.03612,-0.05513 0.05595,-0.0724 0.117655,-0.07013 z m 4.2110609,0.09447 c 0.01716,-9.49e-4 0.02189,0.0268 0.007,0.08385 -0.01253,0.04787 -0.03177,0.193318 -0.04289,0.323214 -0.01894,0.221302 -0.02282,0.230768 -0.05989,0.148953 -0.05634,-0.124323 -0.04878,-0.359572 0.01488,-0.467337 0.03433,-0.05812 0.06379,-0.08773 0.08095,-0.08868 z m -0.261972,0.150306 v 0.177545 c 0,0.09765 0.02075,0.226908 0.04598,0.287281 0.02522,0.06037 0.04287,0.108965 0.03941,0.107995 -0.03728,-0.01039 -0.463455,-0.271822 -0.464246,-0.284768 -5.99e-4,-0.0096 0.04812,-0.03508 0.108188,-0.0568 0.06007,-0.02172 0.14572,-0.08268 0.190104,-0.13543 z m -3.0086179,0.164601 c 0.05318,-9.8e-5 0.130134,0.07282 0.187398,0.202275 0.07915,0.178925 0.297975,0.416463 0.459803,0.499022 0.174373,0.08896 0.390104,0.08664 0.588278,-0.0062 0.113187,-0.05301 0.169988,-0.06513 0.193774,-0.04134 0.04853,0.04852 -0.07423,0.156194 -0.303895,0.266415 -0.257476,0.123566 -0.413634,0.117183 -0.698592,-0.0284 -0.258117,-0.131869 -0.488395,-0.501503 -0.488395,-0.78379 0,-0.07376 0.02524,-0.107927 0.06163,-0.107996 z m -0.211741,0.105871 c 0.0432,-7.7e-4 0.05157,0.02276 0.06375,0.113598 0.0091,0.06759 0.05279,0.202304 0.09718,0.299259 l 0.08056,0.176193 -0.175613,0.466758 c -0.09667,0.256755 -0.187178,0.495308 -0.200923,0.530126 -0.02313,0.0586 -0.02757,0.05679 -0.05989,-0.0257 -0.0192,-0.04901 -0.03478,-0.09586 -0.03478,-0.104132 0,-0.04533 -0.15445,-0.212392 -0.262358,-0.283803 -0.09141,-0.06049 -0.115271,-0.09183 -0.08945,-0.117655 0.04984,-0.04984 0.04374,-0.197624 -0.01005,-0.242266 -0.03756,-0.03118 -0.0471,-0.01978 -0.05545,0.06704 -0.0076,0.07929 -0.0324,0.115453 -0.101813,0.148566 -0.134102,0.06397 -0.415769,0.0638 -0.479896,-1.98e-4 -0.06096,-0.06083 -0.07277,-0.03299 0.249415,-0.589243 0.155218,-0.267988 0.242106,-0.387741 0.281291,-0.387741 0.03118,0 0.0568,0.02087 0.0568,0.04637 0,0.0255 0.02836,0.06174 0.06317,0.08037 0.03482,0.01863 0.06337,0.06091 0.06337,0.09409 0,0.07799 0.05117,0.109763 0.07534,0.04675 0.01444,-0.03764 0.03265,-0.04119 0.08037,-0.01565 0.07599,0.04067 0.129247,0.04242 0.129247,0.0043 0,-0.01582 -0.08842,-0.0784 -0.196478,-0.1391 l -0.196479,-0.110314 0.251732,-0.02029 c 0.138529,-0.01113 0.2893,-0.02619 0.334999,-0.03342 0.01417,-0.0022 0.02596,-0.0037 0.03594,-0.0039 z m 0.507908,0.06356 h 1.97e-4 1.98e-4 c 1.29e-4,7e-6 2.57e-4,1e-6 3.74e-4,0 0.02109,-2.17e-4 0.140556,0.05386 0.277621,0.125963 0.146202,0.07691 0.356194,0.172069 0.466564,0.211548 0.192781,0.06896 0.197692,0.07336 0.126543,0.112826 -0.101751,0.05644 -0.370454,0.05146 -0.485494,-0.0091 -0.168419,-0.08863 -0.436125,-0.392486 -0.388128,-0.440484 h 1.98e-4 c 4.11e-4,-2.17e-4 0.0012,-6.24e-4 0.0019,-7.7e-4 z m -0.186045,0.638505 c -0.0125,10e-4 -0.01939,0.01354 -0.0284,0.03632 -0.01225,0.03097 -0.108063,0.28423 -0.2129,0.562776 l -0.19049,0.506363 0.0369,0.4532341 c 0.02027,0.2492398 0.04289,0.4701121 0.05042,0.4907141 0.0075,0.020602 0.0014,0.056508 -0.01352,0.079982 -0.06466,0.1014604 -0.144492,0.00946 -0.37673,-0.4343012 l -0.238015,-0.454973 -0.05892,0.07515 c -0.0324,0.04132 -0.111035,0.178887 -0.174647,0.3056333 -0.18781,0.3742084 -0.183742,0.8133999 0.0114,1.2482298 0.04268,0.095095 0.08397,0.1683127 0.09544,0.1705907 9.9e-5,9.1e-6 4.86e-4,9e-7 5.98e-4,0 h 1.98e-4 l 1.98e-4,-1.978e-4 h 1.97e-4 v -1.979e-4 h 1.98e-4 1.98e-4 l 1.98e-4,-1.978e-4 1.98e-4,-1.978e-4 V 8.338306 c 7.9e-5,-1.285e-4 3.66e-4,-5.234e-4 3.74e-4,-5.832e-4 0.0057,-0.015438 -0.01888,-0.1511581 -0.05603,-0.3083384 -0.05078,-0.2148926 -0.06445,-0.3453241 -0.05062,-0.4806679 0.02153,-0.2107112 0.164111,-0.558139 0.229129,-0.558139 0.06022,0 0.055,0.029748 -0.04212,0.2414931 -0.104926,0.2287694 -0.113839,0.4915531 -0.02821,0.8309297 0.05766,0.2285339 0.05789,0.6242576 3.73e-4,0.7741304 -0.02865,0.074651 -0.172178,0.1445518 -0.345238,0.1682724 -0.07618,0.010442 -0.138673,0.027493 -0.141998,0.038252 v 1.978e-4 c 4e-6,1.187e-4 5e-6,3.462e-4 0,3.851e-4 v 1.979e-4 c 0.0033,0.065374 0.189826,0.1450956 0.36224,0.1547488 0.221904,0.012425 0.356549,-0.052632 0.459803,-0.2219806 0.04409,-0.072308 0.06309,-0.086071 0.06317,-0.045787 2.97e-4,0.1451483 -0.123872,0.268285 -0.330555,0.3278512 l -0.128475,0.0369 0.204013,0.0027 0.203821,0.00251 0.154362,-0.1661474 c 0.08497,-0.091398 0.190305,-0.2414641 0.234152,-0.3334536 0.05581,-0.1170832 0.128867,-0.2035151 0.243232,-0.2880531 0.160139,-0.1183745 0.165284,-0.1272446 0.258301,-0.44995 0.0808,-0.2803359 0.0948,-0.3834121 0.09486,-0.6933752 6e-5,-0.3306426 -0.0081,-0.3828448 -0.08983,-0.5697306 -0.109939,-0.251495 -0.134587,-0.348136 -0.08848,-0.348136 0.04526,0 0.173349,0.253951 0.238208,0.4725533 0.0765,0.257828 0.06665,0.6865557 -0.02338,1.0231581 -0.04074,0.1523301 -0.07124,0.2768478 -0.06781,0.2768479 0.01565,-1.7e-6 0.29103,-0.4375607 0.328623,-0.5222048 0.0232,-0.052227 0.04967,-0.2128147 0.05892,-0.3568303 0.02238,-0.3483984 -0.04425,-0.5875552 -0.268734,-0.9640402 -0.175538,-0.294394 -0.261585,-0.507425 -0.261585,-0.647975 0,-0.05089 0.04496,0.0099 0.138327,0.187013 0.07607,0.144337 0.189955,0.354951 0.253085,0.46811 0.16515,0.296028 0.241628,0.5638789 0.242459,0.8500556 l 5.98e-4,0.2420727 0.06066,-0.078823 c 0.08916,-0.1160422 0.157383,-0.3944329 0.164409,-0.6709643 0.0059,-0.232853 -6.7e-5,-0.255592 -0.138907,-0.522398 -0.329251,-0.632723 -0.314974,-0.611841 -0.483179,-0.697626 -0.08705,-0.04439 -0.20281,-0.114742 -0.257336,-0.156294 -0.05157,-0.0393 -0.07706,-0.05698 -0.09312,-0.05564 z m -0.220821,1.254798 h 1.97e-4 1.98e-4 1.98e-4 1.98e-4 c 8.9e-5,2e-5 4.86e-4,1.68e-4 5.98e-4,1.98e-4 0.01081,0.0045 0.05691,0.08541 0.10703,0.188558 0.251309,0.5171589 0.17826,1.0203488 -0.227583,1.5671935 -0.149024,0.2007984 -0.295094,0.3214469 -0.252119,0.2082636 0.01172,-0.030869 0.08219,-0.1389234 0.15668,-0.2403339 0.07447,-0.1014104 0.182136,-0.2791248 0.239163,-0.3948895 0.143566,-0.2914396 0.157477,-0.6253744 0.04308,-1.0335906 -0.04369,-0.1558961 -0.07436,-0.2886571 -0.068,-0.2950081 l 1.98e-4,-1.98e-4 h 1.97e-4 z m -0.590403,0.8318956 0.0035,0.1584194 c 0.0019,0.087046 0.01801,0.2847503 0.03574,0.4395176 0.01773,0.1547673 0.02686,0.2866969 0.02048,0.293076 v 1.978e-4 h -1.97e-4 l -1.98e-4,1.979e-4 h -1.98e-4 -1.98e-4 -1.98e-4 -1.98e-4 -1.97e-4 -1.98e-4 -1.98e-4 c -0.0083,-0.00278 -0.02979,-0.055139 -0.05042,-0.1234513 -0.05692,-0.188425 -0.0751,-0.4911147 -0.03845,-0.6412126 z m 2.040144,-1.9466246 c 0.02303,0 0.102209,0.09169 0.175807,0.203627 0.332127,0.505165 1.1099609,1.019018 1.7694689,1.16902 0.125138,0.028462 0.265631,0.051776 0.312202,0.051776 0.07109,0 0.07836,0.0075 0.04579,0.046753 -0.02134,0.025714 -0.112097,0.081988 -0.201695,0.1249969 -0.171108,0.082135 -0.34145,0.1174685 -0.447824,0.09312 C 10.394405,6.9954405 9.7928541,6.5912314 9.4187401,6.0812444 c -0.162707,-0.2218 -0.333323,-0.501163 -0.321282,-0.52491 l 1.98e-4,-1.97e-4 1.98e-4,-1.98e-4 1.97e-4,-1.98e-4 1.98e-4,-1.98e-4 1.98e-4,-1.98e-4 c 0.09503,-0.06587 0.192003,-0.115723 0.225458,-0.115723 z m 0.28303,0.149533 c 0.03032,-0.0016 0.137316,0.04968 0.373638,0.159771 0.2220079,0.103427 0.2798599,0.145692 0.3305559,0.242266 0.03379,0.06437 0.150757,0.211742 0.259847,0.327465 0.10909,0.115723 0.194569,0.214233 0.18991,0.218889 -0.0047,0.0047 -0.114486,-0.05406 -0.244005,-0.130599 -0.319986,-0.189087 -0.7195589,-0.516768 -0.8467719,-0.694341 -0.05692,-0.07946 -0.08992,-0.122021 -0.06317,-0.123451 z m -0.738969,0.0087 c 0.118416,0 0.125943,0.0071 0.281677,0.261199 0.469575,0.766035 1.2498279,1.3170231 1.9487539,1.3761248 0.241162,0.020392 0.240522,0.05293 -0.0027,0.1466346 -0.161288,0.062138 -0.535466,0.066033 -0.719456,0.00753 C 10.177972,7.3263408 9.8548011,7.1544924 9.6641001,7.0108987 l -0.174068,-0.1309859 0.158226,-0.015842 0.158226,-0.015842 -0.199183,-0.1079964 c -0.270899,-0.146889 -0.494279,-0.398858 -0.694921,-0.78379 -0.0914,-0.175348 -0.166147,-0.32778 -0.166147,-0.33867 0,-0.01089 0.05477,-0.0199 0.121712,-0.0199 z m -1.834189,0.176387 c 0.08091,-0.0026 0.216923,0.07534 0.318191,0.190683 0.14527,0.165452 0.194159,0.369843 0.266995,1.1128002 0.0085,0.087114 0.01123,0.1592008 0.0064,0.1657609 l -1.97e-4,1.978e-4 h -1.98e-4 v 1.979e-4 h -1.98e-4 -1.98e-4 c -0.02237,0 -0.111305,-0.156401 -0.270859,-0.4760318 -0.0909,-0.182094 -0.200099,-0.377328 -0.242652,-0.433914 -0.15909,-0.211558 -0.216981,-0.466994 -0.123451,-0.544616 0.0117,-0.0097 0.0275,-0.01447 0.04617,-0.01507 z m 3.3693129,0.151078 h 1.97e-4 1.98e-4 1.98e-4 1.98e-4 1.98e-4 c 9.6e-5,4e-6 2.96e-4,2e-6 4.11e-4,0 0.02273,-6.13e-4 0.147974,0.05816 0.290759,0.136975 0.239213,0.132044 0.302763,0.186232 0.466951,0.398174 0.09963,0.128614 0.17666,0.23936 0.177352,0.254437 -4e-6,1.19e-4 1.5e-5,4.86e-4 0,5.83e-4 v 1.98e-4 l -1.98e-4,1.98e-4 v 1.98e-4 l -1.98e-4,1.97e-4 c -0.0072,0.0058 -0.06884,-0.0032 -0.136781,-0.02009 -0.08808,-0.02184 -0.195555,-0.09941 -0.374604,-0.270472 -0.271365,-0.259261 -0.45335,-0.472438 -0.426381,-0.499408 1.98e-4,-1.29e-4 7.85e-4,-4.86e-4 9.72e-4,-5.83e-4 h 1.98e-4 l 1.98e-4,-1.98e-4 c 9.9e-5,-8.2e-5 2.97e-4,-1.58e-4 4.11e-4,-1.98e-4 z m 0.786302,0.385033 h 1.98e-4 c 0.01416,-0.0019 0.08559,0.02913 0.174841,0.0767 0.136366,0.07268 0.203575,0.131607 0.24188,0.211934 0.02918,0.06118 0.0448,0.124432 0.03478,0.140646 -0.04654,0.075307 -0.140303,0.01495 -0.285735,-0.184115 -0.08585,-0.117512 -0.161357,-0.226254 -0.167886,-0.241493 -7.4e-5,-1.38e-4 -2.97e-4,-4.45e-4 -4.11e-4,-5.83e-4 v -1.98e-4 -1.98e-4 c -9e-6,-9.9e-5 -10e-7,-4.86e-4 0,-5.83e-4 v -1.98e-4 c 4.6e-5,-1.28e-4 1.98e-4,-5.46e-4 1.98e-4,-5.83e-4 v -1.98e-4 l 1.98e-4,-1.98e-4 1.97e-4,-1.98e-4 h 1.98e-4 l 1.98e-4,-1.97e-4 c 2.97e-4,-1.19e-4 7.11e-4,-2.48e-4 0.0012,-3.86e-4 z m 0.865319,0.6329056 h 0.326499 l 0.01256,0.085392 c 0.0069,0.046962 2.96e-4,0.1074365 -0.01488,0.1344634 -0.02122,0.037911 -0.07957,0.048234 -0.255403,0.045401 -0.245274,-0.00395 -0.306668,-0.012898 -0.44145,-0.065107 -0.104566,-0.040504 -0.107679,-0.061039 -0.02048,-0.1398728 0.05651,-0.051087 0.116587,-0.060277 0.393151,-0.060277 z M 9.6735621,7.1712516 c 0.02593,8.902e-4 0.04842,0.013622 0.08423,0.034002 0.05269,0.029985 0.09566,0.061618 0.09544,0.070323 -2.17e-4,0.0087 -0.203165,0.1196731 -0.450916,0.2467095 -0.247748,0.1270366 -0.471746,0.2297681 -0.49786,0.2281627 -0.07401,-0.00455 0.282954,-0.3163452 0.533796,-0.4661783 0.139404,-0.083269 0.192097,-0.1145045 0.235311,-0.1130188 z m 1.8921479,0.039218 0.162862,0.048492 c 0.202662,0.060184 0.550515,0.061344 0.799826,0.0027 0.102681,-0.024151 0.192849,-0.038277 0.202661,-0.031684 l 1.98e-4,1.978e-4 1.98e-4,1.978e-4 c 0.02744,0.027437 -0.246127,0.2578268 -0.381945,0.3216689 -0.07747,0.036415 -0.224531,0.081733 -0.326885,0.1006543 -0.279437,0.051657 -0.535079,0.035366 -0.981622,-0.062209 -0.08161,-0.017832 -0.134269,-0.036303 -0.136782,-0.04656 2e-6,-1.186e-4 2e-6,-5.342e-4 0,-5.835e-4 -3e-6,-1.187e-4 -7e-6,-5.343e-4 0,-5.836e-4 v -1.979e-4 l 1.98e-4,-1.978e-4 v -1.98e-4 -1.978e-4 -1.978e-4 -1.978e-4 h 1.98e-4 l 1.98e-4,-1.979e-4 1.98e-4,-1.978e-4 c 0.0015,-0.00143 0.0049,-0.00284 0.0095,-0.00367 0.147329,-0.026877 0.358346,-0.1195956 0.499795,-0.2196622 z m -1.402786,0.226424 0.426767,0.1557147 c 0.541875,0.1976065 0.803711,0.2697273 1.432537,0.3946965 l 0.506557,0.1006543 0.0091,0.2584943 c 0.0048,0.1355769 0.0025,0.2477687 -0.0052,0.2579146 l -1.98e-4,1.979e-4 h -1.98e-4 l -1.98e-4,1.978e-4 -1.97e-4,1.978e-4 h -1.98e-4 -1.98e-4 c -0.0086,0 -0.302032,-0.070778 -0.652032,-0.1574535 -0.761723,-0.1886371 -1.141772,-0.2626975 -1.258468,-0.2449706 -0.02717,0.00413 -0.04284,0.00725 -0.04617,0.00966 h -1.98e-4 l -1.98e-4,1.979e-4 v 1.977e-4 l -1.98e-4,1.979e-4 v 1.978e-4 h -1.98e-4 v 1.978e-4 h 1.98e-4 v 1.979e-4 1.978e-4 h 1.98e-4 l 1.98e-4,1.978e-4 c 0.0047,0.00268 0.0301,0.00486 0.07728,0.00676 0.1492,0.00603 0.820788,0.1790123 1.433696,0.369388 0.261137,0.081112 0.574409,0.1723561 0.696273,0.2028542 l 0.221594,0.055447 -0.01005,0.1396796 c -0.0056,0.076725 -0.03318,0.2142357 -0.06124,0.3056337 -0.02718,0.088542 -0.05717,0.1607694 -0.068,0.1644085 -9.9e-5,2.97e-5 -4.86e-4,1.781e-4 -5.98e-4,1.979e-4 h -1.98e-4 -1.98e-4 C 12.853289,9.4572786 12.738358,9.3920949 12.60779,9.3134464 11.996641,8.9453207 11.188661,8.5898204 10.629478,8.4429118 10.243951,8.3416217 9.4700211,8.3401202 9.0796721,8.4400118 c -0.240343,0.061506 -0.257125,0.062174 -0.357603,0.010626 L 8.6168301,8.3964878 8.9267141,8.173155 C 9.2796921,7.9189979 9.6119971,7.7143193 9.9380871,7.5501027 Z M 5.3614631,7.6870805 c 0.113334,0 0.28287,0.098534 0.331521,0.192615 0.140628,0.2719436 -0.07258,0.6200158 -0.513124,0.8376914 -0.139397,0.068877 -0.306556,0.1255703 -0.395083,0.134077 -0.177191,0.017026 -0.212911,-0.038439 -0.04501,-0.069936 0.175739,-0.032969 0.543554,-0.2329656 0.648747,-0.3527732 0.172669,-0.19666 0.105491,-0.4252211 -0.124997,-0.4252211 -0.117084,0 -0.372458,0.1370916 -0.530705,0.2847686 -0.221074,0.2063068 -0.257496,0.1690022 -0.08501,-0.087131 0.174797,-0.2595591 0.528186,-0.5140907 0.713661,-0.5140907 z m -2.309255,0.00522 c 0.06753,-0.00289 0.133091,0.021714 0.24188,0.075926 0.165318,0.082382 0.450345,0.3629237 0.555628,0.5469337 0.07978,0.139441 0.01546,0.1276712 -0.16325,-0.029945 -0.292641,-0.258098 -0.573741,-0.3456709 -0.701103,-0.2183098 -0.188609,0.1886094 0.109285,0.5314107 0.590016,0.6790787 0.102028,0.03134 0.198873,0.069448 0.215412,0.084619 0.06302,0.057813 -0.226746,0.023304 -0.398947,-0.047526 C 3.1044891,8.6648828 2.9260011,8.546698 2.8255911,8.4080866 2.6174331,8.1207322 2.6353281,7.854513 2.8700211,7.7479409 c 0.0759,-0.034466 0.129659,-0.053396 0.182182,-0.05564 z m 0.08037,0.438938 c 0.106413,-0.00458 0.305262,0.1039657 0.48743,0.2795525 0.08614,0.083031 0.156681,0.1748923 0.156681,0.2042066 0,0.065535 -0.008,0.065227 -0.211162,-0.00792 -0.302989,-0.1090773 -0.54785,-0.3186413 -0.504431,-0.4317899 0.01088,-0.028358 0.03601,-0.042522 0.07148,-0.044048 z m 2.145619,0.00985 c 0.06445,-5.159e-4 0.105453,0.025389 0.101427,0.075732 -0.0061,0.075908 -0.223876,0.2557591 -0.415948,0.3434998 -0.237566,0.108523 -0.332488,0.1263487 -0.332488,0.062209 0,-0.074193 0.297439,-0.3508401 0.46386,-0.4314033 0.06866,-0.033236 0.133022,-0.049632 0.183149,-0.050038 z m 4.528286,0.3147139 c 0.3958299,-0.012399 0.4751989,-0.00554 0.7437989,0.064141 0.592457,0.153686 1.348883,0.500667 2.120889,0.9731208 0.760981,0.4657063 0.900286,0.5262468 0.646815,0.2812912 C 13.194928,9.655432 13.065964,9.4657273 13.091176,9.4405153 l 1.98e-4,-1.979e-4 1.98e-4,-1.978e-4 h 1.97e-4 c 0.01382,-0.00328 0.137736,0.1010418 0.279939,0.2362768 l 0.26487,0.2517324 -0.06337,0.079403 c -0.03482,0.04366 -0.148823,0.187498 -0.253278,0.319544 -0.269808,0.341049 -0.290716,0.337615 -0.786687,-0.130986 C 11.96489,9.6591023 11.597579,9.3923779 11.058395,9.1255988 10.454856,8.8269773 10.091399,8.7332776 9.4270611,8.704628 9.0256211,8.687316 8.9511901,8.676246 8.9429151,8.632953 8.9266251,8.547704 9.2967601,8.4717608 9.8064951,8.4557937 Z m -1.429833,0.2523125 c -0.02678,8.225e-4 -0.0532,0.012701 -0.08984,0.036707 -0.108487,0.071083 -0.127525,0.1301395 -0.07013,0.2177303 0.04345,0.066314 0.04118,0.079039 -0.02859,0.1601581 -0.120673,0.1402912 -0.03191,0.2067824 0.104711,0.078437 0.07024,-0.065989 0.07508,-0.066421 0.135237,-0.011978 0.06003,0.05433 0.159772,0.049046 0.159772,-0.0085 0,-0.015257 -0.02809,-0.053177 -0.0624,-0.084233 -0.06189,-0.056001 -0.06177,-0.057059 -5.99e-4,-0.1348494 0.07252,-0.092192 0.04275,-0.1801643 -0.07998,-0.2360837 -0.02633,-0.011996 -0.04737,-0.018021 -0.0682,-0.017388 z m 0.0073,0.1050978 c 0.03343,-0.00145 0.05532,0.035334 0.02975,0.076698 -0.02422,0.039191 -0.06964,0.040838 -0.09273,0.00348 -0.0095,-0.015437 0.0027,-0.044493 0.02705,-0.06472 0.01233,-0.010237 0.02479,-0.014971 0.03593,-0.015455 z m 0.254437,0.1296335 c 0.04326,-0.00212 0.08556,0.032652 0.0624,0.07013 -0.02604,0.042132 -0.102254,0.046448 -0.126543,0.00715 -0.0095,-0.015437 8.23e-4,-0.043243 0.02299,-0.061629 0.01221,-0.010136 0.02673,-0.014947 0.04115,-0.015649 z m -0.507715,0.028593 c 0.03343,-0.00145 0.05551,0.035334 0.02995,0.076698 -0.02422,0.039191 -0.06964,0.041031 -0.09273,0.00367 -0.0095,-0.015437 0.0025,-0.044686 0.02685,-0.064913 0.01233,-0.010237 0.02479,-0.014971 0.03594,-0.015456 z m 0.285154,-0.4924527 c -0.126924,-9.496e-4 -0.347857,0.1111247 -0.443575,0.2248784 -0.36091,0.4289183 0.08586,0.9936489 0.601028,0.7596408 0.423574,-0.1924027 0.463811,-0.7438843 0.06743,-0.9238561 -0.07263,-0.032977 -0.173795,-0.060277 -0.224878,-0.060663 z m -0.0029,0.1632493 c 0.20758,-0.0017 0.389254,0.2106275 0.289985,0.4482113 -0.08908,0.2132397 -0.397839,0.3129053 -0.563724,0.1819892 -0.1665,-0.1314032 -0.136248,-0.3791642 0.06704,-0.5502179 0.06553,-0.055143 0.137524,-0.079419 0.206718,-0.079983 z M 3.9032041,8.5417743 h 0.300804 0.300611 V 8.7000006 8.8582269 H 4.2041101 3.9033061 V 8.7000014 Z m 5.486725,0.2530852 c 0.421586,0 0.8034099,0.067436 1.1875659,0.2094229 0.64234,0.2374042 1.165395,0.5874755 1.932911,1.2936306 0.245639,0.225996 0.481285,0.428961 0.523558,0.451109 l 0.07689,0.04018 -0.149726,0.340216 c -0.12783,0.290584 -0.161028,0.341435 -0.227775,0.348329 -0.10895,0.01125 -0.349487,-0.198991 -0.686422,-0.599675 C 11.370286,10.073404 11.015929,9.7398551 10.604734,9.5206909 10.499315,9.4645029 10.107878,9.3078897 9.7349731,9.1725543 9.3620681,9.0372233 9.0493611,8.9189256 9.0400521,8.9096166 c -0.0093,-0.00931 -0.0084,-0.039015 0.0019,-0.065879 0.01523,-0.039692 0.08043,-0.048878 0.347944,-0.048878 z m -6.911148,0.1582263 h 0.470236 c 0.258583,10e-8 0.558095,0.00925 0.665555,0.020479 l 0.195319,0.020479 -0.0087,0.4623144 -0.0087,0.4623145 -0.656862,0.0085 -0.656861,0.0085 V 9.4443789 Z m 3.481945,0 V 9.4437999 9.934514 h -0.66468 -0.664783 V 9.4640853 8.9936567 l 0.166341,-0.019899 c 0.0914,-0.010978 0.390395,-0.020137 0.664589,-0.020285 z m -2.058295,0.031684 h 0.301191 0.300997 v 1.4402652 c 0,0.792116 -0.01071,1.438742 -0.02376,1.436981 -0.01306,-0.0018 -0.144712,-0.07038 -0.292689,-0.152624 l -0.269121,-0.149532 -0.0083,-1.287642 z m 5.135497,0.2546304 c 0.104897,-0.00274 0.830724,0.2540017 1.1518259,0.4074471 0.368521,0.1760387 0.363958,0.1702675 0.517761,0.6516447 0.241843,0.756976 0.52296,2.290224 0.684874,3.73503 0.02719,0.242614 0.04729,0.385307 0.06839,0.458257 -0.214748,0.146212 -0.440958,0.276716 -0.675602,0.391219 -0.01682,-0.322041 -0.134647,-1.431962 -0.219855,-2.036076 -0.140405,-0.995453 -0.29405,-1.746218 -0.366683,-1.791107 -0.0073,-0.0045 -0.01318,-0.0074 -0.01739,-0.007 -0.01825,0.0018 -0.006,0.06561 0.051,0.327273 0.126186,0.579432 0.444733,3.056567 0.444733,3.458375 0,0.03547 0.0026,0.07021 0.0068,0.09679 -0.341311,0.158248 -0.6993229,0.283083 -1.0654679,0.373252 -5.23e-4,-0.0041 -0.0011,-0.0085 -0.0018,-0.01294 -0.0091,-0.06528 -0.04575,-0.410675 -0.08153,-0.767561 -0.03578,-0.356889 -0.09997,-0.89817 -0.142771,-1.20283 -0.117953,-0.839686 -0.569138,-3.4065545 -0.64469,-3.6677976 -0.02879,-0.099567 -0.02188,-0.117429 0.102393,-0.2596535 0.07341,-0.084023 0.15802,-0.153583 0.187975,-0.1543644 z m -1.42906,0.2894054 c 0.01011,-3.067e-4 0.01981,0.0043 0.02937,0.013717 0.02682,0.026417 0.01952,0.1269351 -0.02879,0.3956624 -0.03562,0.198136 -0.101265,0.716409 -0.145862,1.151632 -0.0446,0.43523 -0.09569,0.865798 -0.113598,0.956893 -0.03462,0.17613 -0.07918,0.235963 -0.112053,0.150305 -0.03936,-0.102568 0.04904,-1.633341 0.111473,-1.930206 0.104001,-0.4944759 0.188706,-0.7358557 0.25946,-0.7380034 z m 0.249994,0.047912 h 1.98e-4 1.98e-4 1.98e-4 1.97e-4 l 1.98e-4,1.978e-4 c 0.01424,0.00753 0.05101,0.2198309 0.08404,0.4889756 0.07027,0.572624 0.07048,0.570921 -0.121326,1.229683 -0.05322,0.182796 -0.137245,0.488931 -0.186626,0.680431 l -0.08964,0.348137 -0.0013,-0.458837 c -7.47e-4,-0.252433 0.01329,-0.622804 0.0313,-0.823009 0.05192,-0.577153 0.207217,-1.3840587 0.281871,-1.4649942 l 1.98e-4,-1.979e-4 1.98e-4,-1.978e-4 h 1.98e-4 z m 0.195706,0.018547 c 0.01791,-7.926e-4 0.04418,0.00284 0.0823,0.00985 0.13958,0.025666 0.152494,0.041567 0.176966,0.2142528 0.0102,0.071996 0.07531,0.4940266 0.14451,0.9379596 0.213804,1.371652 0.393241,2.938972 0.482406,4.213379 0.01689,0.241401 0.0273,0.378573 0.03922,0.45478 -0.166475,0.02229 -0.333439,0.03753 -0.500374,0.04559 -7.48e-4,-0.01536 -0.0022,-0.03289 -0.0041,-0.05274 -0.0079,-0.08269 -0.02927,-0.456633 -0.04753,-0.83093 -0.03645,-0.747017 -0.07159,-1.149091 -0.142578,-1.630175 -0.02569,-0.174091 -0.06095,-0.558544 -0.07844,-0.854499 -0.01748,-0.295956 -0.06713,-0.958029 -0.110314,-1.471177 -0.04319,-0.513134 -0.07863,-0.9588311 -0.07863,-0.9905075 0,-0.030832 0.0067,-0.044463 0.03652,-0.045787 z m 0.525296,0 c 0.0071,-2.572e-4 0.01335,-2.374e-4 0.01835,1.978e-4 0.0067,5.646e-4 0.01131,0.00184 0.01314,0.00367 0.03457,0.034566 0.143558,0.5447126 0.257722,1.2057276 0.06916,0.40041 0.183879,1.063499 0.254823,1.473494 0.135726,0.784371 0.285528,1.923036 0.352774,2.680961 0.01716,0.193363 0.02858,0.305135 0.04154,0.369 -0.143269,0.03269 -0.287784,0.06006 -0.432755,0.08211 -9.35e-4,-0.0086 -0.002,-0.0179 -0.0035,-0.02801 -0.009,-0.06296 -0.02483,-0.242651 -0.03536,-0.399333 -0.08487,-1.26318 -0.303367,-3.113961 -0.539205,-4.568471 -0.06021,-0.371321 -0.109541,-0.7007631 -0.109541,-0.7320135 0,-0.038438 0.0324,-0.063164 0.100074,-0.076698 0.03094,-0.00619 0.06057,-0.00987 0.08191,-0.010626 z m 2.1347989,0.348523 c 1.98e-4,-3.89e-5 1.98e-4,2.18e-5 4.12e-4,0 0.0095,-0.00132 0.03642,0.01585 0.09061,0.053515 0.192387,0.1337244 0.586089,0.4686834 0.703036,0.5981304 0.127249,0.14085 0.137391,0.170982 0.29095,0.858363 0.131243,0.587484 0.184797,0.986639 0.257915,1.924218 0.02532,0.3247 0.03901,0.499969 0.05255,0.58847 -0.178549,0.171376 -0.370294,0.32891 -0.572821,0.472167 -0.01368,-0.429426 -0.26294,-2.124592 -0.466774,-3.116421 -0.09384,-0.45661 -0.273576,-1.145368 -0.349296,-1.3386442 -0.0082,-0.020995 -0.01225,-0.034086 -0.0089,-0.038446 l 1.98e-4,-1.978e-4 1.98e-4,-1.978e-4 c 9.9e-5,-6.93e-5 4.86e-4,-3.265e-4 5.98e-4,-3.851e-4 4.11e-4,-1.88e-4 8.97e-4,-4.636e-4 0.0013,-5.833e-4 z M 3.2542641,10.187599 h 0.554082 v 0.648941 c 0,0.356887 -0.0078,0.648939 -0.01719,0.648939 -0.0094,3e-6 -0.07624,-0.03033 -0.148567,-0.06723 l -0.131565,-0.06704 -0.05699,0.07071 c -0.124774,0.154091 -0.04716,0.398345 0.192229,0.604506 0.146006,0.125736 0.161883,0.152322 0.161897,0.269892 1.5e-5,0.126079 -0.0038,0.13114 -0.118621,0.150112 -0.240579,0.03976 -0.683273,0.01525 -0.886184,-0.04907 l -0.197831,-0.06279 v -1.029727 -1.029533 l 0.12944,0.116883 c 0.161384,0.1458 0.19513,0.123851 0.06414,-0.04154 -0.05433,-0.06859 -0.09872,-0.133186 -0.09872,-0.143737 0,-0.01055 0.249228,-0.01932 0.553888,-0.01932 z m 1.501315,0 c -0.06549,0 -0.06533,8e-4 0.06433,0.299838 0.06453,0.148839 0.06535,0.15951 0.01294,0.197831 -0.03047,0.02228 -0.07329,0.04057 -0.09505,0.04057 -0.08817,0 -0.06772,0.0768 0.120167,0.454006 l 0.196479,0.394698 0.25521,-0.09409 c 0.140405,-0.05166 0.265151,-0.103726 0.277041,-0.115723 l 1.97e-4,-1.98e-4 c 0.01072,-0.0144 -0.04698,-0.186976 -0.129053,-0.385617 -0.08272,-0.200205 -0.159493,-0.388368 -0.170591,-0.418265 -0.01841,-0.04959 -0.02996,-0.05029 -0.131372,-0.0079 -0.06114,0.02554 -0.119456,0.04637 -0.129634,0.04637 h -1.98e-4 -1.98e-4 l -1.98e-4,-1.98e-4 h -1.97e-4 c -0.01182,-0.0042 -0.06227,-0.09505 -0.113984,-0.205559 -0.06841,-0.14618 -0.113607,-0.205752 -0.155909,-0.205752 z m 0.385616,0.569731 h 1.98e-4 c 0.02844,0.0032 0.249607,0.417322 0.249607,0.467723 0,0.01434 -0.05353,0.04669 -0.118815,0.07187 -0.06528,0.02517 -0.129133,0.05059 -0.141997,0.05641 h -1.99e-4 l -1.97e-4,1.98e-4 h -1.98e-4 -1.98e-4 -1.98e-4 c -0.01472,7.11e-4 -0.074,-0.102587 -0.13369,-0.233572 -0.06112,-0.13413 -0.111087,-0.248909 -0.111087,-0.25521 v -1.98e-4 -1.98e-4 l 1.98e-4,-1.98e-4 v -1.98e-4 c 0.0067,-0.01702 0.221441,-0.106643 0.256562,-0.106643 z m -0.07032,0.126349 c -0.0121,4.93e-4 -0.02377,0.0066 -0.03516,0.01797 l -1.98e-4,1.98e-4 c -0.01847,0.02184 0.104274,0.328131 0.132145,0.329783 0.0096,-2.96e-4 0.0361,-0.01218 0.05892,-0.02666 0.03304,-0.02095 0.02701,-0.05645 -0.02995,-0.173682 -0.04925,-0.101368 -0.08948,-0.149223 -0.125768,-0.147601 z m 0.28728,-0.689125 0.387162,0.0089 -0.132531,0.166147 c -0.07587,0.09524 -0.109501,0.148307 -0.104132,0.158419 4.9e-5,9.9e-5 3.26e-4,4.94e-4 3.73e-4,5.95e-4 v 1.98e-4 c 1.29e-4,8e-5 5.61e-4,3.96e-4 5.99e-4,3.96e-4 h 1.97e-4 l 1.98e-4,1.98e-4 c 0.01174,0.0047 0.07102,-0.04261 0.173103,-0.143158 l 0.151851,-0.149532 -0.0083,1.075514 -0.0085,1.075321 -0.278973,0.01584 -0.278973,0.01584 -0.102393,-0.114371 C 5.1014761,12.242 4.9599301,12.135841 4.8433141,12.068769 l -0.212128,-0.1221 0.0019,-0.491679 0.0018,-0.491873 0.17967,0.356251 c 0.09874,0.195852 0.197181,0.356057 0.21889,0.356057 0.04869,0 0.649116,-0.221004 0.682363,-0.251153 v -1.98e-4 c 0.01169,-0.01528 -0.06755,-0.243536 -0.177546,-0.510227 -0.216249,-0.524292 -0.216113,-0.52419 -0.418459,-0.458257 -0.05426,0.01768 -0.07536,-6.91e-4 -0.123645,-0.107803 -0.03202,-0.07101 -0.05081,-0.136587 -0.04173,-0.145668 0.0091,-0.0091 0.190824,-0.01244 0.403777,-0.0075 z m -0.722354,0.135623 0.06201,0.139872 c 0.04907,0.11062 0.05351,0.145412 0.02144,0.165761 -0.07537,0.04782 -0.08802,0.02718 -0.08578,-0.139487 z m -1.090776,1.181964 c 0.05469,7.85e-4 0.160424,0.0506 0.346977,0.149726 0.950177,0.504876 1.066315,0.577521 1.277402,0.800598 0.113159,0.119587 0.251952,0.241052 0.308532,0.269892 l 0.102972,0.05255 v 0.391026 0.391025 l -0.35625,0.02086 c -0.440379,0.02588 -1.146747,0.01496 -1.281266,-0.0199 -0.05515,-0.01429 -0.11041,-0.04236 -0.122679,-0.06221 -0.0056,-0.0091 -0.0091,-0.01587 -0.0064,-0.01971 0.0087,-0.01045 0.06847,0.0022 0.270859,0.04811 0.04939,0.01121 0.07129,0.0016 0.07129,-0.0313 0,-0.0516 -0.01611,-0.05759 -0.404163,-0.150306 -0.29658,-0.07085 -0.692277,-0.247496 -0.784369,-0.350068 l -0.06182,-0.06878 0.142385,0.02202 c 0.07834,0.01206 0.248125,0.04993 0.377115,0.08423 0.159073,0.0423 0.24476,0.05199 0.266609,0.03014 0.04562,-0.04562 -0.130366,-0.113245 -0.455166,-0.174841 -0.147174,-0.02791 -0.318504,-0.06434 -0.380594,-0.08095 -0.14011,-0.03746 -0.480173,-0.277145 -0.463859,-0.326886 0.02101,-0.06406 0.17897,-0.05919 0.413049,0.01256 0.204637,0.06272 0.270767,0.06774 0.670192,0.05042 0.449607,-0.01949 0.813431,-0.07736 0.875171,-0.1391 0.03653,-0.03653 -0.02138,-0.07894 -0.436619,-0.319157 -0.261224,-0.151116 -0.379819,-0.277244 -0.409573,-0.435847 -0.01814,-0.09669 -0.01451,-0.144914 0.04019,-0.144123 z m 8.6336689,0.0823 c 0.04352,-0.0011 0.05554,0.02033 0.07805,0.09003 0.09804,0.303574 0.192767,1.13749 0.192808,1.697215 7e-6,0.09859 3e-6,0.170135 0.0013,0.221013 -0.07267,0.08644 -0.14837,0.170211 -0.227004,0.25096 -0.0016,-0.09386 -0.01491,-0.252749 -0.03903,-0.538819 -0.02978,-0.353336 -0.08389,-0.874452 -0.120359,-1.158009 -0.03646,-0.283555 -0.06089,-0.520132 -0.05429,-0.525682 0.0066,-0.0055 0.05738,-0.01863 0.112825,-0.02917 0.02304,-0.0044 0.04113,-0.0072 0.05564,-0.0075 z m -4.1239299,1.030886 c 0.07955,-4.86e-4 0.08613,0.01138 0.118235,0.213286 0.08864,0.557534 0.144803,1.219794 0.179092,2.112776 0.01096,0.285477 0.0186,0.440364 0.03187,0.523557 -0.125494,0.004 -0.250942,0.0038 -0.375763,-4.11e-4 0.02915,-0.251771 -8.22e-4,-1.008288 -0.08984,-2.258831 -0.0415,-0.583023 -0.04001,-0.589383 0.136395,-0.590402 z m -0.408606,0.06433 c 0.07034,0.0044 0.127442,0.01785 0.134463,0.03806 0.02834,0.08155 0.113998,1.458376 0.132918,2.136731 0.009,0.324242 0.01719,0.509356 0.02898,0.607597 -0.1986,-0.009 -0.395782,-0.02844 -0.590209,-0.05854 l 0.01681,-0.29211 c 0.01235,-0.215371 0.01733,-0.843012 0.0112,-1.394864 -0.01089,-0.981379 -0.0098,-1.003822 0.05216,-1.020454 0.05974,-0.01605 0.143328,-0.02079 0.213673,-0.01642 z m -1.321064,0.03284 c 0.02004,8.97e-4 0.03789,0.0072 0.05062,0.0199 0.01965,0.01966 0.01953,0.165684 -1.98e-4,0.409186 -0.04103,0.506605 0.01104,1.70547 0.07824,2.062157 -0.110946,-0.02984 -0.227745,-0.06144 -0.330942,-0.09834 -0.0027,-0.02339 -0.0061,-0.04948 -0.01024,-0.07689 -0.06294,-0.418039 -0.0243,-1.885507 0.05834,-2.214782 0.01487,-0.05924 0.09406,-0.104029 0.154169,-0.101234 z m -0.217537,0.02647 -0.03864,0.226423 c -0.02116,0.124572 -0.04862,0.395837 -0.06105,0.602768 -0.01504,0.250287 -0.03454,0.375106 -0.05854,0.373058 -0.01984,-0.0017 -0.08984,-0.02503 -0.155522,-0.05197 l -0.119394,-0.04907 0.0085,-0.541331 0.0087,-0.541524 0.207877,-0.0093 z m 0.407061,0.01835 h 0.337703 c 0.185744,0 0.34807,0.01032 0.360695,0.02299 0.01262,0.01267 0.0045,0.358859 -0.01797,0.769301 -0.02295,0.419321 -0.05283,0.734246 -0.0682,0.718876 -0.01504,-0.01504 -0.08888,-0.211545 -0.164215,-0.436813 -0.09395,-0.280924 -0.153234,-0.412704 -0.188751,-0.419618 -0.04676,-0.0091 -0.04986,0.03454 -0.03188,0.450915 0.0132,0.305592 0.0089,0.461156 -0.01256,0.461156 -0.0895,0 -0.195807,-0.135636 -0.229708,-0.293076 -0.03798,-0.176373 -0.0418,-0.851424 -0.0064,-1.115505 z"
     class="ColorScheme-Text" />
</svg>
