<?xml version="1.0" encoding="UTF-8" standalone="no"?>
<svg
   width="64"
   height="64"
   version="1.1"
   viewBox="0 0 16.933 16.933"
   id="svg7"
   sodipodi:docname="myrlyn-1.svg"
   inkscape:version="1.4.4 (dcaf3e7d9e, 2026-05-05)"
   xmlns:inkscape="http://www.inkscape.org/namespaces/inkscape"
   xmlns:sodipodi="http://sodipodi.sourceforge.net/DTD/sodipodi-0.dtd"
   xmlns="http://www.w3.org/2000/svg"
   xmlns:svg="http://www.w3.org/2000/svg"
   xmlns:rdf="http://www.w3.org/1999/02/22-rdf-syntax-ns#"
   xmlns:cc="http://creativecommons.org/ns#"
   xmlns:dc="http://purl.org/dc/elements/1.1/">
  <sodipodi:namedview
     id="namedview7"
     pagecolor="#9c4444"
     bordercolor="#000000"
     borderopacity="0.25"
     inkscape:showpageshadow="2"
     inkscape:pageopacity="0.0"
     inkscape:pagecheckerboard="0"
     inkscape:deskcolor="#d1d1d1"
     inkscape:zoom="4.3531262"
     inkscape:cx="89.820506"
     inkscape:cy="35.262015"
     inkscape:window-width="2560"
     inkscape:window-height="1388"
     inkscape:window-x="0"
     inkscape:window-y="0"
     inkscape:window-maximized="1"
     inkscape:current-layer="svg7"
     showgrid="false" />
  <defs
     id="defs2">
    <style
       id="current-color-scheme"
       type="text/css">.ColorScheme-Text {color:#d8dee9} .ColorScheme-Highlight {color:#3b4252}</style>
  </defs>
  <metadata
     id="metadata2">
    <rdf:RDF>
      <cc:Work
         rdf:about="">
        <dc:format>image/svg+xml</dc:format>
        <dc:type
           rdf:resource="http://purl.org/dc/dcmitype/StillImage" />
      </cc:Work>
    </rdf:RDF>
  </metadata>
  <path
     id="path5"
     style="fill:currentColor"
     d="m 10.017958,1.5294688 c -0.8162411,-0.0022 -1.2264381,0.05545 -2.3594881,0.331304 -0.695827,0.169408 -1.322136,0.393553 -1.877924,0.672185 l -0.315115,0.158014 0.165538,0.09485 c 0.824916,0.472864 1.911357,1.105516 2.380694,1.386326 1.297467,0.776285 2.6801391,1.5917332 2.7001431,1.5924494 9.2e-5,3.2e-6 5.72e-4,1e-5 7.05e-4,0 h 2.34e-4 c 0.01343,-0.00456 0.06689,-0.1120137 0.12062,-0.242835 0.05501,-0.1339609 0.100098,-0.2583864 0.100098,-0.2765804 0,-0.03997 -0.442126,-0.368637 -0.662838,-0.492739 -0.165232,-0.09291 -0.201447,-0.168707 -0.09919,-0.207948 0.08245,-0.03164 0.325115,0.09264 0.626582,0.320815 0.139059,0.105253 0.268542,0.181745 0.287753,0.169871 0.01922,-0.01187 0.06148,-0.07312 0.09394,-0.135896 0.05841,-0.11294 0.05753,-0.115556 -0.08368,-0.260165 -0.07849,-0.08038 -0.19751,-0.183555 -0.264497,-0.229154 -0.128121,-0.08722 -0.160406,-0.201305 -0.06703,-0.237135 0.05519,-0.02117 0.261046,0.118615 0.498439,0.338373 l 0.124039,0.114692 0.09075,-0.104659 c 0.04988,-0.05765 0.09075,-0.145061 0.09075,-0.19404 0,-0.04898 -0.07834,-0.242021 -0.173973,-0.429123 -0.133756,-0.261688 -0.163707,-0.350467 -0.129741,-0.384432 0.07548,-0.07549 0.162798,0.01578 0.334953,0.349774 0.170727,0.33122 0.214926,0.378936 0.254464,0.275897 0.03014,-0.07854 -0.06816,-0.399678 -0.230523,-0.753586 -0.104395,-0.227554 -0.115309,-0.2758 -0.07068,-0.312836 0.04044,-0.03356 0.06558,-0.03304 0.107851,0.0021 0.06668,0.05534 0.246473,0.431519 0.334953,0.701143 0.0648,0.197447 0.123264,0.236727 0.241467,0.16189 0.08369,-0.05298 0.02545,-0.424254 -0.145016,-0.925052 -0.175937,-0.516868 -0.183701,-0.582473 -0.0675,-0.565704 0.06996,0.01009 0.107848,0.08559 0.245571,0.488863 0.08957,0.262284 0.172542,0.569605 0.184236,0.682902 0.0117,0.113296 0.03375,0.213874 0.04925,0.223453 0.0155,0.0096 0.07849,0.0073 0.140001,-0.005 0.10878,-0.02176 0.11093,-0.02595 0.07433,-0.158469 -0.04645,-0.168209 -0.01732,-0.630161 0.04355,-0.689971 0.03452,-0.03392 0.06242,-0.02271 0.121532,0.04925 0.06929,0.08436 0.07489,0.128647 0.057,0.457625 l -0.01984,0.364366 0.117882,4.54e-4 c 0.06484,3.16e-4 0.213792,0.02324 0.331077,0.05085 0.202672,0.0477 0.216755,0.04616 0.285245,-0.02873 0.146637,-0.16032 0.369999,-0.74279 0.434366,-1.133003 0.02586,-0.1568 0.02499,-0.158122 -0.154592,-0.27316 -0.895666,-0.573736 -2.422834,-0.943136 -3.916369,-0.947171 z m -0.3921831,0.462869 c 0.32743,0 0.5474351,0.09348 0.7905241,0.33632 0.310955,0.310631 0.398284,0.653836 0.273389,1.074402 -0.08099,0.272723 -0.368089,0.578359 -0.637755,0.679254 -0.2637251,0.09867 -0.6034821,0.09796 -0.8630331,-0.0018 -0.258912,-0.09954 -0.548215,-0.412003 -0.627039,-0.67743 -0.124895,-0.420566 -0.03757,-0.763771 0.273389,-1.074402 0.243089,-0.242836 0.463094,-0.336321 0.790525,-0.336321 z m 0,0.188339 c -0.5217,0 -0.912513,0.383293 -0.912513,0.894955 0,0.511662 0.390813,0.894955 0.912513,0.894955 0.126787,0 0.269979,-0.0292 0.373715,-0.07615 0.3570161,-0.161608 0.5387961,-0.437952 0.5387961,-0.818798 0,-0.511662 -0.390811,-0.894955 -0.9125111,-0.894955 z m 0,0.259935 c 0.226426,0 0.358919,0.06172 0.5155401,0.2401 0.26787,0.305088 0.161069,0.778706 -0.2202631,0.9759 -0.14967,0.0774 -0.475665,0.06916 -0.614497,-0.0155 -0.373021,-0.227475 -0.461108,-0.658818 -0.19632,-0.960395 0.15662,-0.17838 0.289113,-0.2401 0.51554,-0.2401 z m -0.292771,0.186744 c -0.08073,0 -0.195844,0.116284 -0.136808,0.138177 0.02054,0.0076 0.188565,0.0791 0.373487,0.158926 0.354068,0.152829 0.402008,0.166431 0.4421191,0.126319 0.01366,-0.01366 -0.01954,-0.101884 -0.07388,-0.196092 -0.127531,-0.221097 -0.118216,-0.213854 -0.174887,-0.136352 -0.04669,0.06386 -0.05585,0.0633 -0.203616,-0.01208 -0.08509,-0.0434 -0.187022,-0.0789 -0.226419,-0.0789 z m -0.09713,0.42137 c -0.0046,2.92e-4 -0.0079,0.0013 -0.0096,0.003 -0.03196,0.03197 0.124484,0.360262 0.171694,0.360262 0.01911,0 0.04176,-0.02064 0.05016,-0.04583 0.01099,-0.03298 0.08236,-0.01828 0.255148,0.05244 0.2972451,0.121652 0.272038,0.119139 0.3493181,0.03375 0.06255,-0.06912 0.05918,-0.07405 -0.0969,-0.142736 -0.33674,-0.14818 -0.642696,-0.259109 -0.714824,-0.260848 -0.0019,-4.5e-5 -0.0035,-9.6e-5 -0.005,0 z m 5.1367011,-0.272021 -2.34e-4,2.34e-4 c -1.08e-4,3.7e-5 -5.74e-4,1.75e-4 -7.06e-4,2.33e-4 -0.01442,0.009 -0.06227,0.155113 -0.108535,0.332445 -0.04776,0.183053 -0.151248,0.464564 -0.230066,0.625671 -0.0782,0.159848 -0.13074,0.301655 -0.117884,0.316483 0.014,0.01293 0.09144,0.04463 0.172151,0.07046 0.145698,0.04663 0.147728,0.04606 0.28023,-0.09964 0.07339,-0.08071 0.186626,-0.21349 0.251499,-0.294822 0.109664,-0.137486 0.122337,-0.143375 0.181044,-0.08664 0.07671,0.07412 0.05497,0.122749 -0.182413,0.408601 l -0.167361,0.201564 0.212052,0.117655 c 0.116681,0.06472 0.226339,0.119597 0.243747,0.121988 0.0174,0.0024 0.110071,-0.08264 0.205669,-0.188796 0.0956,-0.106158 0.230522,-0.265566 0.299839,-0.354334 0.120103,-0.153806 0.123209,-0.165539 0.06703,-0.251271 -0.103359,-0.157744 -1.019349,-0.919809 -1.10564,-0.919809 h -2.33e-4 z m -9.2425501,0.118112 c -0.06241,0.0012 -0.117206,0.02446 -0.173973,0.06886 l -0.09326,0.07297 0.10443,9.27e-4 c 0.436117,0.0035 0.802268,0.591279 0.605377,0.972024 -0.102366,0.197953 -0.493331,0.410524 -0.659188,0.358438 -0.02788,-0.0088 -0.09665,-0.02602 -0.152769,-0.03831 -0.126237,-0.02764 -0.34973,-0.219689 -0.425019,-0.365279 -0.05794,-0.11204 -0.07887,-0.435606 -0.03375,-0.522381 0.002,-0.0038 0.0029,-0.0064 0.0028,-0.008 v -2.33e-4 -2.34e-4 -2.33e-4 l -2.34e-4,-2.34e-4 -2.34e-4,-2.33e-4 h -2.33e-4 v -2.34e-4 h -2.33e-4 -2.34e-4 -2.33e-4 c -0.0073,-3.5e-4 -0.04213,0.03066 -0.09029,0.08163 -0.125489,0.132782 -0.127968,0.210502 -0.01711,0.522608 0.07052,0.19851 0.338186,0.440244 0.570035,0.514628 0.216822,0.06957 0.508786,0.04801 0.704792,-0.05198 0.368875,-0.188186 0.549937,-0.642712 0.39948,-1.002806 -0.09111,-0.218054 -0.231602,-0.376598 -0.440067,-0.496158 -0.126801,-0.07271 -0.219793,-0.10733 -0.300034,-0.105764 z m 0.929158,0.367558 -2.34e-4,2.33e-4 -2.33e-4,2.34e-4 h -2.37e-4 v 2.33e-4 h -2.32e-4 l -2.35e-4,2.34e-4 v 2.33e-4 c -0.0044,0.0088 0.01426,0.06806 0.04424,0.139089 0.06503,0.154107 0.08445,0.490368 0.03784,0.658733 l -0.02987,0.107623 0.119023,-0.100098 c 0.06546,-0.05508 0.185634,-0.13406 0.267004,-0.175572 0.08137,-0.04151 0.216226,-0.08719 0.299838,-0.101465 l 0.152086,-0.02599 -0.436191,-0.251728 c -0.239858,-0.138427 -0.443372,-0.251727 -0.452377,-0.251727 h -2.33e-4 z m -1.126845,0.03739 c -0.144206,0 -0.190193,0.01964 -0.297559,0.127004 -0.06986,0.06986 -0.127004,0.163 -0.127004,0.206808 0,0.14661 0.106353,0.336356 0.231207,0.412478 0.147069,0.08967 0.248629,0.09468 0.425018,0.02097 0.151273,-0.0632 0.244783,-0.241529 0.213194,-0.406777 -0.0112,-0.05861 -0.0775,-0.163687 -0.147297,-0.233486 -0.107253,-0.107251 -0.153382,-0.127004 -0.297559,-0.127004 z m 2.33e-4,0.224138 c 0.07034,0 0.135669,0.08081 0.135669,0.168046 0,0.153695 -0.134735,0.215039 -0.240327,0.109447 -0.03229,-0.03228 -0.0586,-0.08156 -0.0586,-0.109447 0,-0.06323 0.101836,-0.168046 0.163258,-0.168046 z m -1.097893,0.300066 c -0.03292,0.0051 -0.259794,0.218976 -0.255603,0.240327 l 2.34e-4,2.33e-4 v 2.34e-4 h 2.33e-4 v 2.33e-4 c 0.0071,0.007 0.10543,0.055 0.218437,0.106483 0.113008,0.05148 0.207213,0.09499 0.209316,0.09668 0.0021,0.0017 -0.0316,-0.09789 -0.07479,-0.221173 -0.04219,-0.120408 -0.08514,-0.219022 -0.09669,-0.223014 h -2.34e-4 -2.33e-4 c -2.34e-4,1.4e-5 -4.2e-4,-4.1e-5 -7.05e-4,0 z m 11.8380331,0.111727 -0.132705,0.176938 c -0.07299,0.09739 -0.199311,0.246454 -0.280913,0.331306 l -0.148436,0.154365 0.297558,0.294138 c 0.519222,0.51303 0.72463,1.05128 0.732152,1.9189658 0.0049,0.5722577 -0.04019,0.7603234 -0.263356,1.0942393 l -0.130196,0.1947239 0.166679,-0.1623459 c 0.09166,-0.089272 0.210164,-0.249095 0.263356,-0.3550178 0.187914,-0.3742096 0.229594,-0.6194237 0.226873,-1.3320581 -0.0021,-0.5487865 -0.01532,-0.7003404 -0.08276,-0.9444339 -0.08883,-0.3214623 -0.30642,-0.8083193 -0.513488,-1.1491913 z m -8.6982801,0.524889 c -0.07823,8.64e-4 -0.114683,0.02872 -0.20544,0.119478 -0.110644,0.110644 -0.131793,0.157955 -0.131793,0.295279 0,0.4206255 0.519249,0.6385811 0.792577,0.332672 0.115241,-0.128976 0.129502,-0.244248 0.05268,-0.424562 -0.07933,-0.186188 -0.220432,-0.294407 -0.412249,-0.316028 -0.0389,-0.0044 -0.06969,-0.0071 -0.09577,-0.0068 z m 0.09713,0.258796 c 0.06142,0 0.163258,0.104817 0.163258,0.168046 0,0.06323 -0.101836,0.168274 -0.163258,0.168274 -0.02524,0 -0.06609,-0.02026 -0.09075,-0.04492 -0.09133,-0.09133 -0.02902,-0.291401 0.09075,-0.2914 z m -0.03466,-0.694304 c -0.157573,-0.0049 -0.316982,0.03032 -0.463553,0.111271 -0.24331,0.134394 -0.389799,0.338578 -0.412476,0.574596 -0.07092,0.7380612 0.731115,1.2663589 1.409809,0.9284727 0.378864,-0.1886159 0.518335,-0.6446847 0.320588,-1.0488647 -0.17019,-0.347856 -0.507707,-0.554483 -0.854368,-0.565475 z m -0.01231,0.192672 c 0.706153,8.7e-5 1.036563,0.978893 0.434139,1.2862274 -0.199095,0.1015708 -0.402317,0.1220181 -0.576647,0.057915 -0.217756,-0.08007 -0.328364,-0.1737237 -0.422283,-0.3575254 -0.231083,-0.452242 0.07475,-0.986677 0.564791,-0.986617 z m -3.666465,-0.04401 -0.592608,0.06567 c -0.325906,0.03609 -0.663143,0.06634 -0.749254,0.06726 -0.08611,9.23e-4 -0.165126,0.01602 -0.1758,0.03329 h -2.33e-4 v 2.34e-4 l -2.34e-4,2.33e-4 v 2.34e-4 2.33e-4 2.34e-4 c -9.89e-4,0.0204 0.192098,0.113843 0.437104,0.210913 2.26228,0.8963109 6.956676,3.2766445 8.8608531,4.4930163 0.160023,0.1022223 0.297643,0.1803405 0.311011,0.1769389 l 2.33e-4,-2.335e-4 h 2.33e-4 v -2.333e-4 c 0.0075,-0.00753 -0.126393,-0.18879 -0.297787,-0.4029007 C 10.980251,8.6045167 10.761033,8.3186362 10.664607,8.1833804 10.502028,7.9553366 10.446298,7.9120523 9.8987059,7.5862115 8.2092789,6.5809097 5.7346809,5.2799848 3.7927199,4.3762138 Z m -2.260304,0.20088 c -0.06499,-9.05e-4 -0.14332204,0.0014 -0.25104304,0.0039 l -0.317624,0.0073 0.48567004,0.179674 c 1.180259,0.436696 3.02167,1.2814353 5.56149,2.5514773 2.285746,1.1429921 4.0574281,2.176189 5.0108371,2.9219999 0.220353,0.172374 0.286443,0.204972 0.420229,0.207037 0.08596,0.0013 0.156512,-0.0089 0.158697,-0.02235 v -2.34e-4 c 0,-0.01377 -0.06208,-0.121098 -0.137948,-0.2382743 C 11.919252,9.8169989 11.815639,9.7226288 11.536304,9.5373362 9.3745229,8.1033615 4.2066079,5.471126 1.7453819,4.5504458 c -0.378744,-0.141677 -0.452589,-0.17308 -0.64756,-0.175798 z m 4.870835,0.03625 -0.122671,0.122672 c -0.129644,0.129644 -0.446927,0.295585 -0.572315,0.299383 -0.0015,4.4e-5 -0.0029,4.76e-4 -0.0037,9.08e-4 -10e-5,8.3e-5 -3.74e-4,5.96e-4 -4.42e-4,6.89e-4 l -2.33e-4,2.33e-4 c -7.7e-5,2.22e-4 -3e-6,8.74e-4 0,0.0012 0.0051,0.03487 0.593708,0.362232 0.666485,0.367331 0.0149,9.89e-4 0.0149,-0.05293 0,-0.119707 -0.03579,-0.160427 -0.03454,-0.431137 0.0028,-0.56502 z m 2.162942,0.06271 c 0,0.0046 0.02718,0.08872 0.06065,0.186971 0.04128,0.121161 0.05423,0.243468 0.04013,0.380099 l -0.02075,0.201336 0.12974,-0.09896 c 0.07138,-0.05444 0.231432,-0.126733 0.355702,-0.16075 l 0.225965,-0.06179 -0.395833,-0.227787 c -0.217682,-0.125228 -0.395604,-0.22377 -0.395604,-0.219121 z m 0.905899,1.1457695 c -0.07261,7.104e-4 -0.144899,0.023075 -0.209773,0.074105 -0.113482,0.089266 -0.129675,0.2395464 -0.04355,0.406093 0.134194,0.2594997 0.461808,0.3478703 0.637756,0.1719226 0.250706,-0.2507065 -0.06978,-0.6552009 -0.384432,-0.6521202 z m 0.09349,0.226874 c 0.104364,0.00179 0.175021,0.1075733 0.139545,0.2193495 -0.02764,0.087061 -0.174768,0.098923 -0.240783,0.019381 -0.07723,-0.093056 -0.03305,-0.2247811 0.07981,-0.2378187 0.0072,-8.383e-4 0.01447,-0.00103 0.02143,-9.089e-4 z M 8.9615729,5.2059588 c -0.239792,-9.89e-4 -0.401881,0.06384 -0.548145,0.2193496 -0.09361,0.099523 -0.112779,0.1540926 -0.125864,0.3595781 -0.01312,0.206065 -2.68e-4,0.2727514 0.08505,0.4471355 0.120385,0.2460587 0.359611,0.4540263 0.630002,0.5474617 0.226844,0.078387 0.327163,0.083598 0.528081,0.027817 C 9.8228579,6.7261877 10.031792,6.3924734 9.9753249,6.0972649 9.8825949,5.61251 9.4223139,5.2078748 8.9615729,5.2059588 Z m 0.08755,0.1493493 c 0.266352,0.002 0.596428,0.2608734 0.688603,0.5401653 0.11545,0.3498202 -0.170669,0.7295742 -0.549059,0.7289608 -0.07807,-1.286e-4 -0.192366,-0.026379 -0.254007,-0.058371 C 8.6784629,6.4330904 8.4704009,6.1361229 8.4685989,5.9011744 8.4664989,5.636931 8.7682809,5.3532066 9.0491229,5.3553081 Z m -1.011014,0.2332583 -0.16417,0.144561 c -0.09028,0.07952 -0.229475,0.164161 -0.309415,0.1881115 l -0.145473,0.043551 0.328112,0.179675 c 0.180502,0.098804 0.338513,0.1798961 0.350913,0.1803591 h 2.34e-4 2.33e-4 2.34e-4 2.33e-4 l 2.34e-4,-2.335e-4 c 8.1e-5,-4.96e-5 6.18e-4,-3.97e-4 7.06e-4,-4.546e-4 l 2.34e-4,-2.335e-4 c 0.0086,-0.00966 -0.005,-0.093129 -0.03196,-0.1942577 -0.02874,-0.1078706 -0.04711,-0.2738318 -0.04104,-0.3686986 z m 2.0534941,0.035798 c -2.57e-4,3.37e-5 -7.06e-4,1.635e-4 -9.27e-4,2.335e-4 -9.6e-5,3.84e-5 -5.74e-4,1.867e-4 -7.05e-4,2.335e-4 v 2.334e-4 l -2.35e-4,2.335e-4 -2.33e-4,2.335e-4 c -0.0082,0.011493 0.01732,0.092072 0.05769,0.1810431 0.04706,0.1037142 0.07525,0.2470721 0.07615,0.388536 l 0.0014,0.2241378 0.07706,-0.1203915 c 0.04242,-0.066227 0.143327,-0.1690404 0.224138,-0.2284699 0.110366,-0.081164 0.135121,-0.1172745 0.09964,-0.1445611 -0.113574,-0.08735 -0.501491,-0.3056409 -0.534009,-0.3014345 z m -6.8739391,0.552022 c -0.129936,0 -0.17665,0.019062 -0.238958,0.098273 -0.09321,0.1185036 -0.09717,0.2237583 -0.01664,0.4250181 0.09334,0.2332763 0.184691,0.2664429 0.667853,0.2421509 0.226015,-0.011363 0.499103,-0.030392 0.606974,-0.04241 0.230412,-0.025672 0.255955,-0.092558 0.09349,-0.245343 C 4.0545589,6.3946915 3.5459409,6.176386 3.2176749,6.176386 Z m 7.4259621,0.130652 -0.07799,0.07 c -0.129931,0.1166606 -0.205565,0.3694692 -0.183095,0.6119896 0.02124,0.2292283 0.09798,0.4409087 0.142509,0.3930962 0.01487,-0.015967 0.03702,-0.1887811 0.04925,-0.3839757 0.01223,-0.1951946 0.03266,-0.4303756 0.0456,-0.5228361 z M 10.130138,6.6433591 9.9864879,6.8009168 c -0.08961,0.098228 -0.215038,0.1841054 -0.333356,0.228242 l -0.189707,0.070685 0.408145,0.2432909 C 10.096025,7.47695 10.283906,7.5827044 10.289291,7.5782172 h 2.34e-4 v -2.335e-4 l 2.33e-4,-2.335e-4 v -2.334e-4 c 0.0029,-0.00921 -0.02946,-0.09298 -0.07389,-0.1906034 -0.06204,-0.1363246 -0.08375,-0.2548573 -0.0846,-0.4633245 z M 4.7973459,6.886194 c -0.05217,-1.115e-4 -0.06526,0.031993 -0.06453,0.1586978 0.0041,0.7170263 0.538112,1.3775892 1.273459,1.5753488 0.259287,0.069731 0.27518,0.069784 0.536972,0.00159 0.34454,-0.089741 0.841145,-0.4002771 0.841145,-0.5260283 0,-0.1043742 -0.117137,-0.096787 -0.340653,0.022346 C 6.6270469,8.3402416 6.1910909,8.3053192 5.7768929,8.0164527 5.5295379,7.8439445 5.2447649,7.4783499 5.1537309,7.2165795 5.0860509,7.021965 4.9399989,6.8864919 4.7973449,6.8861873 Z m -0.316028,0.1970042 c -0.0082,-4.38e-5 -0.01764,0.00151 -0.02828,0.00411 -0.04186,0.010178 -0.282387,0.030243 -0.534693,0.044691 -0.252307,0.014446 -0.465927,0.037663 -0.474497,0.051531 -6.7e-5,1.083e-4 -1.76e-4,5.719e-4 -2.34e-4,6.888e-4 -7.9e-5,2.452e-4 -2.1e-4,8.64e-4 -2.33e-4,0.00115 2.1e-4,0.017631 0.10286,0.087315 0.235083,0.1589257 0.36016,0.1950611 0.409925,0.2363878 0.353421,0.293682 -0.03717,0.037694 -0.07251,0.034476 -0.178763,-0.016189 -0.168543,-0.080372 -0.167135,-0.080775 -0.167135,0.030098 0,0.058112 -0.02122,0.093486 -0.05609,0.093486 -0.03876,0 -0.05609,-0.038942 -0.05609,-0.1263198 0,-0.1004625 -0.02666,-0.1466456 -0.130652,-0.2259618 -0.07191,-0.054851 -0.130879,-0.122457 -0.130879,-0.1500333 0,-0.06928 -0.110904,-0.1055588 -0.170783,-0.055863 -0.05817,0.048271 -0.856709,1.4392907 -0.888798,1.5482151 -0.02873,0.097533 0.0099,0.1543754 0.138176,0.2031606 0.218684,0.083143 0.694252,0.018141 0.868049,-0.1185673 0.08475,-0.066668 0.09627,-0.098608 0.07981,-0.2214016 -0.02141,-0.1595998 -0.0075,-0.1718431 0.09211,-0.081629 0.08395,0.075975 0.09078,0.3005457 0.01254,0.4122493 -0.05292,0.075563 -0.04758,0.084317 0.105799,0.1742027 0.280076,0.1641357 0.58149,0.5670058 0.584171,0.7807201 0.002,0.1568523 0.07159,0.032582 0.240556,-0.4295784 0.09953,-0.2722452 0.255429,-0.6841301 0.346353,-0.9152484 L 4.8855809,8.1190792 4.7505969,7.8461464 C 4.6763769,7.6959801 4.5962679,7.4596836 4.5725179,7.32103 4.5399579,7.1309514 4.5257879,7.0834478 4.4813079,7.0832113 Z m 0.902935,0.1222155 c -0.04579,0.00342 -0.0018,0.0773 0.0976,0.2241378 0.357073,0.5273973 0.853007,0.7506317 1.316781,0.5926084 0.09609,-0.032744 0.182804,-0.072732 0.192671,-0.088697 7.8e-5,-1.285e-4 1.76e-4,-5.49e-4 2.34e-4,-6.889e-4 0.0049,-0.017308 -0.140535,-0.08446 -0.3272,-0.1507172 C 6.4747109,7.7147478 6.0974909,7.5444939 5.8259319,7.4037815 5.5657449,7.2689629 5.4300609,7.2019859 5.3842679,7.2054095 Z m -0.349773,1.0568452 -0.05997,0.1431928 c -0.03293,0.078756 -0.208341,0.5466207 -0.389675,1.0397439 l -0.329709,0.8965514 0.03193,0.261532 c 0.106097,0.870336 0.146782,1.448348 0.105343,1.49828 -0.0537,0.06469 -0.198793,0.0677 -0.249904,0.0052 -0.02103,-0.02568 -0.209828,-0.386993 -0.419547,-0.803066 -0.209719,-0.416072 -0.393517,-0.75655 -0.408374,-0.75655 -0.08486,0 -0.420514,0.584256 -0.549742,0.956747 -0.196856,0.567425 -0.112894,1.361693 0.210001,1.987142 0.05347,0.103567 0.0868,0.15546 0.09987,0.149805 0.01964,-0.01056 -0.0087,-0.159804 -0.08437,-0.469708 -0.165691,-0.678995 -0.127941,-1.131411 0.138861,-1.659942 0.07804,-0.154594 0.130875,-0.216843 0.183779,-0.216843 0.09796,0 0.0938,0.07573 -0.01596,0.292315 -0.237851,0.469376 -0.271243,0.907797 -0.117199,1.538182 0.153283,0.627272 0.119366,1.331009 -0.07388,1.532711 -0.10392,0.10847 -0.435855,0.223226 -0.645963,0.223226 -0.148779,0 -0.150215,0.04166 -0.0057,0.163258 0.206247,0.173544 0.541646,0.21847 0.880363,0.117883 0.205147,-0.06092 0.373157,-0.213497 0.495017,-0.449416 l 0.07707,-0.14935 0.0016,0.125181 c 9.27e-4,0.06881 -0.02548,0.182159 -0.0586,0.251955 -0.06891,0.145225 -0.309487,0.33639 -0.466973,0.37098 -0.0588,0.01291 -0.116422,0.03895 -0.128144,0.05791 -0.03495,0.05654 0.347534,0.03928 0.495019,-0.02234 0.07482,-0.03126 0.229726,-0.161108 0.344301,-0.288665 0.114574,-0.127557 0.390476,-0.425676 0.61313,-0.662381 0.222653,-0.236706 0.421478,-0.472463 0.441663,-0.523748 0.02018,-0.05129 0.109688,-0.34561 0.199056,-0.654172 0.318489,-1.099653 0.299524,-1.665841 -0.08346,-2.494246 -0.098,-0.21198 -0.123114,-0.301903 -0.09302,-0.331988 0.0733,-0.0733 0.136981,-0.0091 0.282053,0.284333 0.375944,0.760311 0.402429,1.659188 0.07684,2.616918 l -0.05085,0.149576 0.109674,-0.13088 c 0.192558,-0.229338 0.453068,-0.693433 0.516451,-0.920036 0.09682,-0.346165 0.08586,-0.972373 -0.02326,-1.320885 -0.106347,-0.339653 -0.164164,-0.457974 -0.49365,-1.00919 -0.267214,-0.447038 -0.385443,-0.7818058 -0.36391,-1.0313079 0.01148,-0.132946 0.01249,-0.1318165 0.121303,0.1217595 0.06038,0.14072 0.218783,0.4400638 0.351826,0.6653451 0.499309,0.8454753 0.655652,1.2963253 0.657821,1.8970763 7.93e-4,0.220778 0.0098,0.401459 0.02006,0.401305 0.03823,-5.74e-4 0.181938,-0.255256 0.239187,-0.423878 0.0917,-0.270081 0.142864,-0.675312 0.128608,-1.016945 -0.01235,-0.296029 -0.02317,-0.330252 -0.227786,-0.714367 -0.11818,-0.2218608 -0.302587,-0.5755877 -0.409969,-0.7861923 -0.10738,-0.2106048 -0.21018,-0.3828356 -0.228242,-0.3828356 -0.09131,0 -0.542195,-0.2519786 -0.682674,-0.3814674 z m -0.433682,2.2174361 h 2.33e-4 c 0.03422,-0.0072 0.248348,0.357865 0.320816,0.549286 0.09786,0.2585 0.180678,0.701321 0.182411,0.976584 0.0017,0.266502 -0.08085,0.583827 -0.239187,0.91958 -0.280338,0.594494 -0.917756,1.373956 -0.917756,1.122286 0,-0.02685 0.125484,-0.224358 0.278633,-0.438927 0.352952,-0.494503 0.570052,-0.931108 0.645507,-1.298084 0.0749,-0.364271 0.03361,-0.732509 -0.153225,-1.370137 -0.07213,-0.246142 -0.125702,-0.452769 -0.119252,-0.45922 10e-5,-9.9e-5 5.31e-4,-5.03e-4 7.07e-4,-6.88e-4 l 2.33e-4,-2.33e-4 h 2.34e-4 v -2.34e-4 h 2.33e-4 2.34e-4 z m -1.016487,1.566684 h 2.33e-4 2.34e-4 2.33e-4 c 2.34e-4,-2.3e-5 9.27e-4,-3.1e-5 0.0012,0 5.9e-5,1.6e-5 3.15e-4,1.17e-4 4.41e-4,2.34e-4 h 2.34e-4 c 5.8e-5,2.9e-5 3.15e-4,3.5e-4 4.41e-4,4.85e-4 h 2.33e-4 c 0.01768,0.01306 0.03003,0.192133 0.06065,0.640492 0.02216,0.324515 0.05667,0.676019 0.07661,0.781175 0.02335,0.123138 0.02972,0.189689 0.01961,0.199513 -0.0083,0.0065 -0.02726,-0.02203 -0.05654,-0.08551 -0.166472,-0.360746 -0.23416,-0.983768 -0.149349,-1.3731 0.02057,-0.09445 0.03423,-0.155681 0.04515,-0.162802 5.8e-5,-3.4e-5 5.29e-4,-3.51e-4 7.05e-4,-4.86e-4 z m 3.628388,-3.4790374 c -0.03021,0 -0.139314,0.042626 -0.24238,0.094854 l -0.187428,0.094854 0.120164,0.2134212 c 0.721581,1.2798162 1.809421,2.1894932 3.001121,2.5099782 0.3411491,0.09174 0.4838871,0.09182 0.7494821,4.67e-4 0.249944,-0.08599 0.492996,-0.220726 0.588731,-0.326515 0.06488,-0.07169 0.0607,-0.07344 -0.224365,-0.09622 C 9.8291109,10.96316 8.1631399,9.9440791 7.4801589,8.894087 7.3632129,8.7143065 7.2429039,8.5673469 7.2126969,8.5673469 Z m -0.594206,0.2537797 -0.163942,0.022573 c -0.09021,0.012366 -0.196817,0.022345 -0.236907,0.022345 -0.06442,0 -0.05255,0.038071 0.103064,0.3269721 0.570853,1.0598376 0.845318,1.3897336 1.377432,1.6560656 0.166407,0.08329 0.302575,0.171332 0.302575,0.195636 0,0.02971 -0.07682,0.04306 -0.234626,0.04059 l -0.234627,-0.0039 0.08505,0.09189 c 0.222891,0.239962 0.953119,0.662604 1.394305,0.807171 0.420393,0.137753 0.979789,0.135973 1.3482481,-0.0046 v -2.36e-4 c 0.105347,-0.04018 0.225896,-0.09711 0.267917,-0.126547 0.06972,-0.04884 0.04379,-0.05739 -0.296191,-0.09805 C 9.3731279,11.636575 8.4483249,11.135587 7.6395419,10.29295 7.2878259,9.9265119 6.8781789,9.3603118 6.7058239,9.0023906 Z m 1.078278,0.018924 -2.32e-4,2.335e-4 v 2.335e-4 l -2.34e-4,2.335e-4 c -3.9e-5,1.037e-4 -1.99e-4,5.735e-4 -2.33e-4,6.883e-4 -0.0027,0.015657 0.06417,0.1198817 0.152997,0.2380466 0.183889,0.2446275 0.654698,0.6541036 1.089679,0.9476263 0.250928,0.169325 0.790973,0.480937 0.835671,0.48225 0.0098,2.92e-4 -0.127941,-0.146503 -0.306222,-0.326288 C 9.2899139,10.003285 9.0618999,9.7327263 8.9615499,9.5820243 L 8.7791379,9.3081793 8.2458129,9.0662565 C 7.9525169,8.9331996 7.7054399,8.8313813 7.6967549,8.8400666 Z m -4.540898,0.3112392 c -0.03805,8.11e-5 -0.0613,0.022538 -0.104203,0.077069 -0.04161,0.052891 -0.07547,0.1243324 -0.07547,0.1589258 0,0.1631111 0.133092,0.4766662 0.316027,0.7437817 0.11075,0.161714 0.355046,0.60063 0.542674,0.975444 0.187626,0.374814 0.348425,0.67399 0.357525,0.664889 0.0091,-0.0091 -5.29e-4,-0.199846 -0.02166,-0.424106 C 4.0672859,10.248143 3.9718679,9.8127721 3.7788089,9.5596578 3.6594159,9.4031259 3.4273659,9.2342376 3.2479919,9.173174 3.2070019,9.159219 3.1787019,9.151236 3.1558819,9.151284 Z m 5.96097,0.2879818 c -0.0015,1.985e-4 -0.0025,7.015e-4 -0.0032,0.00137 -0.04022,0.040218 0.34499,0.4839386 0.738994,0.8511767 0.2278581,0.212379 0.4366141,0.398748 0.4637801,0.414073 0.037,0.02088 0.346829,0.113542 0.46036,0.137721 h 2.33e-4 2.34e-4 2.33e-4 2.34e-4 2.33e-4 2.34e-4 v -2.34e-4 h 2.33e-4 l 2.34e-4,-2.33e-4 v -2.34e-4 l 2.33e-4,-2.33e-4 v -2.33e-4 -2.34e-4 c 0.0012,-0.0049 -0.0057,-0.022 -0.01801,-0.04287 C 10.673328,10.650546 10.160065,10.008861 10.063812,9.9278706 9.9365209,9.8207622 9.1786949,9.4310737 9.1168709,9.4392366 Z m 1.3895181,0.6596447 -2.34e-4,2.33e-4 h -2.33e-4 v 2.34e-4 h -2.35e-4 l -2.32e-4,2.33e-4 v 2.34e-4 l -2.34e-4,2.33e-4 v 2.34e-4 c -0.0038,0.01229 0.05543,0.103584 0.139089,0.213421 0.08999,0.118144 0.217807,0.294587 0.284105,0.392184 0.104711,0.154144 0.137427,0.177622 0.249447,0.177622 0.07093,0 0.129056,-0.01803 0.129056,-0.0399 0,-0.02187 -0.03579,-0.12302 -0.07958,-0.224822 -0.07247,-0.168478 -0.1072,-0.200147 -0.386713,-0.352509 -0.168866,-0.0921 -0.31903,-0.167396 -0.333557,-0.167396 h -2.33e-4 c -1.04e-4,1.2e-5 -3.5e-4,-2.3e-5 -4.86e-4,0 z m 1.023555,1.082611 -0.189936,0.150032 -0.190164,0.150262 0.128371,0.05358 c 0.121025,0.05057 0.342352,0.109732 0.551794,0.147524 0.08324,0.01502 0.753143,-0.0078 0.77046,-0.02622 8.7e-5,-9.1e-5 3.5e-4,-5.82e-4 4.86e-4,-7.01e-4 0.01078,-0.01751 0.02185,-0.222816 0.01755,-0.330848 l -0.0041,-0.09987 -0.270881,0.02052 c -0.148965,0.01117 -0.392945,0.0012 -0.542217,-0.02212 z m -0.370751,0.513488 -0.197004,0.15026 c -0.261757,0.199819 -0.467891,0.299794 -0.782317,0.379644 l -0.2603921,0.06612 0.2920861,0.06179 c 0.288588,0.0609 0.674042,0.121021 0.964499,0.150718 0.240339,0.02457 0.747272,-0.01295 0.980233,-0.07274 0.333315,-0.08555 0.594437,-0.229508 0.84502,-0.465377 0.121275,-0.114152 0.213541,-0.21655 0.211369,-0.233714 -2.9e-5,-1.16e-4 -2.33e-4,-5.82e-4 -2.33e-4,-7.01e-4 -5.5e-5,-1.05e-4 -3.5e-4,-5.83e-4 -4.85e-4,-7.02e-4 l -2.33e-4,-2.33e-4 c -0.01233,-0.0099 -0.154394,0.01524 -0.317396,0.05632 -0.446163,0.11245 -1.067649,0.110691 -1.44652,-0.0041 z"
     class="ColorScheme-Text" />
</svg>
