<?xml version="1.0" encoding="UTF-8" standalone="no"?>
<svg
   width="64"
   height="64"
   version="1.1"
   viewBox="0 0 16.933 16.933"
   id="svg7"
   sodipodi:docname="next-music.svg"
   inkscape:version="1.4.4 (dcaf3e7d9e, 2026-05-05)"
   xmlns:inkscape="http://www.inkscape.org/namespaces/inkscape"
   xmlns:sodipodi="http://sodipodi.sourceforge.net/DTD/sodipodi-0.dtd"
   xmlns="http://www.w3.org/2000/svg"
   xmlns:svg="http://www.w3.org/2000/svg"
   xmlns:rdf="http://www.w3.org/1999/02/22-rdf-syntax-ns#"
   xmlns:cc="http://creativecommons.org/ns#"
   xmlns:dc="http://purl.org/dc/elements/1.1/">
  <sodipodi:namedview
     id="namedview7"
     pagecolor="#9c4444"
     bordercolor="#000000"
     borderopacity="0.25"
     inkscape:showpageshadow="2"
     inkscape:pageopacity="0.0"
     inkscape:pagecheckerboard="0"
     inkscape:deskcolor="#d1d1d1"
     inkscape:zoom="4.3531262"
     inkscape:cx="89.820506"
     inkscape:cy="63.05813"
     inkscape:window-width="2560"
     inkscape:window-height="1388"
     inkscape:window-x="0"
     inkscape:window-y="0"
     inkscape:window-maximized="1"
     inkscape:current-layer="svg7"
     showgrid="false" />
  <defs
     id="defs2">
    <style
       id="current-color-scheme"
       type="text/css">.ColorScheme-Text {color:#d8dee9} .ColorScheme-Highlight {color:#3b4252}</style>
  </defs>
  <metadata
     id="metadata2">
    <rdf:RDF>
      <cc:Work
         rdf:about="">
        <dc:format>image/svg+xml</dc:format>
        <dc:type
           rdf:resource="http://purl.org/dc/dcmitype/StillImage" />
      </cc:Work>
    </rdf:RDF>
  </metadata>
  <path
     id="path5"
     style="fill:currentColor"
     d="m 9.48523,1.4551824 c -0.1209471,7.602e-4 -0.094904,0.1723494 0.0685,1.5376933 0.08205,0.6855907 0.1318092,1.2465286 0.1107552,1.2465286 -0.021056,0 -0.7790003,-0.5933874 -1.6844315,-1.3186596 C 6.6116001,1.8245809 6.3056126,1.6147124 6.1667112,1.676692 6.0161932,1.743855 6.1226952,1.9047187 7.2395973,3.2980705 7.9215591,4.1488281 8.4642956,4.8600699 8.4456862,4.8786793 8.4270772,4.8972893 7.3147098,4.5465503 5.9737566,4.0992688 3.5694666,3.2973061 3.3437481,3.2507196 3.2484609,3.5365814 3.2323359,3.5849554 4.224368,4.1906438 5.4529943,4.8826407 6.6816205,5.5746377 7.6771189,6.1515159 7.6651204,6.164492 7.6410304,6.190545 1.9440974,6.6864291 1.642598,6.6887207 c -0.1309413,9.966e-4 -0.2051237,0.067257 -0.2426373,0.216723 -0.029708,0.1183665 -0.039816,0.2286905 -0.022613,0.2451132 0.017202,0.016424 1.4942648,0.1877443 3.2823712,0.3807921 1.7881064,0.1930479 3.2584556,0.3584388 3.2675158,0.3675872 0.00906,0.00915 -1.2163226,1.0236108 -2.7229849,2.2543818 -1.5066622,1.230771 -2.7393257,2.261244 -2.7393257,2.289869 0,0.02863 0.073866,0.118914 0.164069,0.200547 0.1584634,0.143408 0.2734195,0.08844 3.4015437,-1.62534 1.7806459,-0.975547 3.2443097,-1.7679872 3.2526608,-1.7610191 0.00835,0.00696 -0.2673647,1.3795381 -0.6127004,3.0502971 -0.3453369,1.67076 -0.627886,3.067965 -0.627886,3.104768 0,0.0368 0.1045815,0.06619 0.2324034,0.06536 0.2246971,-0.0014 0.2729442,-0.09673 1.4563191,-2.873354 0.6731793,-1.579522 1.2458653,-2.8718689 1.2726083,-2.8718689 0.02675,0 0.364203,0.9792649 0.749864,2.1761429 0.385661,1.196879 0.727814,2.204822 0.760265,2.239857 0.03245,0.03504 0.12498,0.01542 0.205664,-0.04358 0.138414,-0.101212 0.130607,-0.234835 -0.136999,-2.366622 -0.15599,-1.242638 -0.274947,-2.2593333 -0.264426,-2.2593333 0.01052,0 0.524492,0.5738263 1.142212,1.2750843 1.009424,1.145937 1.134087,1.259883 1.231838,1.1262 0.0932,-0.127456 0.05622,-0.246488 -0.258813,-0.831404 -1.057361,-1.9631644 -1.326114,-2.4994947 -1.252472,-2.4994947 0.04452,0 0.564082,0.1713128 1.154591,0.3807921 1.039805,0.3688635 1.22854,0.3973333 1.228372,0.1847018 -6.5e-5,-0.082231 -0.717211,-0.689272 -1.879036,-1.5906779 -0.171566,-0.1331095 -0.155976,-0.1427379 0.449291,-0.2787854 1.166032,-0.2620915 1.260724,-0.2973093 1.260724,-0.4682734 0,-0.1801975 0.04929,-0.1620538 -1.267656,-0.4686036 -0.534528,-0.1244237 -0.984069,-0.2379306 -0.998939,-0.2522108 -0.01487,-0.01428 0.226575,-0.4067705 0.536442,-0.8721738 0.767083,-1.1521141 0.710416,-1.2360872 -0.459525,-0.6831809 -0.483841,0.2286601 -0.896189,0.3991967 -0.91641,0.3789764 -0.02022,-0.02022 0.0049,-0.4929374 0.05579,-1.050438 0.122028,-1.3372187 0.120828,-1.3651106 -0.05546,-1.3633907 -0.09884,9.646e-4 -0.32607,0.310913 -0.685162,0.9345663 C 11.308583,3.9139698 11.052881,4.3200366 11.035962,4.3031172 11.019042,4.2861972 10.720715,3.6469868 10.372919,2.8826159 9.8844791,1.8091447 9.7011268,1.4866054 9.5675938,1.4657462 c -0.03253,-0.00508 -0.059967,-0.010705 -0.082365,-0.010564 z"
     class="ColorScheme-Text" />
</svg>
