<?xml version="1.0" encoding="UTF-8" standalone="no"?>
<svg
   width="64"
   height="64"
   version="1.1"
   viewBox="0 0 16.933 16.933"
   id="svg7"
   sodipodi:docname="openrc-manager-gui.svg"
   inkscape:version="1.4.4 (dcaf3e7d9e, 2026-05-05)"
   xmlns:inkscape="http://www.inkscape.org/namespaces/inkscape"
   xmlns:sodipodi="http://sodipodi.sourceforge.net/DTD/sodipodi-0.dtd"
   xmlns="http://www.w3.org/2000/svg"
   xmlns:svg="http://www.w3.org/2000/svg"
   xmlns:rdf="http://www.w3.org/1999/02/22-rdf-syntax-ns#"
   xmlns:cc="http://creativecommons.org/ns#"
   xmlns:dc="http://purl.org/dc/elements/1.1/">
  <sodipodi:namedview
     id="namedview7"
     pagecolor="#9c4444"
     bordercolor="#000000"
     borderopacity="0.25"
     inkscape:showpageshadow="2"
     inkscape:pageopacity="0.0"
     inkscape:pagecheckerboard="0"
     inkscape:deskcolor="#d1d1d1"
     inkscape:zoom="4.3531261"
     inkscape:cx="36.410615"
     inkscape:cy="41.119875"
     inkscape:window-width="2560"
     inkscape:window-height="1388"
     inkscape:window-x="0"
     inkscape:window-y="0"
     inkscape:window-maximized="1"
     inkscape:current-layer="svg7"
     showgrid="false" />
  <defs
     id="defs2">
    <inkscape:path-effect
       effect="offset"
       id="path-effect1"
       is_visible="true"
       lpeversion="1.3"
       linejoin_type="miter"
       unit="px"
       offset="0.98168406"
       miter_limit="4"
       attempt_force_join="false"
       update_on_knot_move="true" />
    <style
       id="current-color-scheme"
       type="text/css">.ColorScheme-Text {color:#d8dee9} .ColorScheme-Highlight {color:#3b4252}</style>
  </defs>
  <metadata
     id="metadata2">
    <rdf:RDF>
      <cc:Work
         rdf:about="">
        <dc:format>image/svg+xml</dc:format>
        <dc:type
           rdf:resource="http://purl.org/dc/dcmitype/StillImage" />
      </cc:Work>
    </rdf:RDF>
  </metadata>
  <path
     id="path5"
     style="fill:currentColor"
     d="m 8.4664995,1.4551795 a 7.0113203,7.0113203 0 0 0 -7.01132,7.01132 7.0113203,7.0113203 0 0 0 7.01132,7.0113215 7.0113203,7.0113203 0 0 0 7.0113205,-7.0113215 7.0113203,7.0113203 0 0 0 -7.0113205,-7.01132 z m 0,1.285409 h 0.876415 v 1.460691 h -0.876415 z m 3.3303775,0.755394 0.481001,0.481002 -0.206608,0.20655 c -0.08226,0.08226 -0.128325,0.193551 -0.128324,0.309884 0,0.245477 0.192732,0.438207 0.438208,0.438207 0.116333,1e-6 0.227624,-0.04607 0.309883,-0.128324 l 0.206551,-0.206608 0.481001,0.481001 -2.228296,2.228297 c 0.09956,0.12422 0.175775,0.268811 0.228518,0.430391 l 0.09523,0.291682 -0.22829,0.06231 a 2.8045282,2.8045282 0 0 1 0.0083,0.684186 l 0.264008,0.09968 -0.112975,0.277588 c -0.105032,0.258151 -0.256102,0.469319 -0.459433,0.625872 A 2.8045282,2.8045282 0 0 1 8.4664685,11.271029 2.8045282,2.8045282 0 0 1 7.3970825,11.059172 l -0.27445,0.27445 -1.289574,-1.289574 H 5.6565205 V 9.8675105 l -0.115601,-0.1156 0.115601,-0.1156 v -2.789408 h 0.520371 a 2.8045282,2.8045282 0 0 1 2.289577,-1.184929 2.8045282,2.8045282 0 0 1 0.985511,0.178878 z m -6.7483955,0.325518 1.022484,1.022484 -0.613491,0.61349 -1.022484,-1.022484 z m 6.7483955,0.08764 -3.4319405,3.431941 c 0.06297,0.09853 0.106665,0.20843 0.131633,0.326773 0.06629,-0.159258 0.157651,-0.301987 0.27639,-0.42537 0.289824,-0.301157 0.691889,-0.434498 1.17289,-0.434498 0.3455105,0 0.6538995,0.06984 0.9058575,0.231029 l 5.8e-5,5.8e-5 c 8.8e-5,5.8e-5 2.1e-4,5.8e-5 2.87e-4,1.21e-4 l 5.9e-5,5.9e-5 5.74e-4,3.97e-4 c 0.03073,0.01955 0.06034,0.04023 0.08878,0.06202 l 2.023962,-2.023978 -0.06784,-0.06784 a 0.73034586,0.73034586 0 0 1 -0.516434,0.213912 0.73034586,0.73034586 0 0 1 -0.730346,-0.730346 0.73034586,0.73034586 0 0 1 0.213912,-0.516434 z m -1.8510275,3.190984 c -0.420329,0 -0.741111,0.114972 -0.962402,0.344917 -0.221291,0.229945 -0.331965,0.559381 -0.331965,0.988364 0,0.427746 0.114383,0.760948 0.343092,0.999546 0.229945,0.237363 0.555081,0.356044 0.9754106,0.356044 0.2769229,0 0.5142849,-0.06122 0.7120869,-0.183613 0.199039,-0.123627 0.349863,-0.311482 0.452472,-0.563679 l -0.476607,-0.179905 c -0.128572,0.331318 -0.35787,0.496978 -0.6879519,0.496978 -0.2484888,0 -0.4388726,-0.07912 -0.5711536,-0.237363 -0.131044,-0.158242 -0.196622,-0.387597 -0.196622,-0.688008 0,-0.295467 0.0637,-0.51982 0.191031,-0.673117 0.128571,-0.153296 0.316483,-0.229945 0.5637354,-0.229945 0.1619501,0 0.3022381,0.03891 0.4209191,0.116798 0.119917,0.07665 0.200275,0.180495 0.241071,0.311539 l 0.482142,-0.131634 c -0.07788,-0.238598 -0.213226,-0.419093 -0.406083,-0.541483 -0.192857,-0.123626 -0.442582,-0.185439 -0.7491755,-0.185439 z m -3.99716,0.03891 v 2.612869 h 0.547075 v -0.992072 h 0.64162 l 0.606358,0.992072 h 0.615659 l -0.706553,-1.097801 c 0.176786,-0.04203 0.31713,-0.129161 0.420976,-0.261441 0.103846,-0.133517 0.155769,-0.291758 0.155769,-0.474725 10e-7,-0.250961 -0.08465,-0.443229 -0.254023,-0.576745 -0.169368,-0.134752 -0.40985,-0.202157 -0.721388,-0.202157 z m 0.547075,0.424684 h 0.700961 c 0.321428,0 0.482142,0.125509 0.482142,0.376471 0,0.124862 -0.03956,0.22188 -0.118681,0.291111 -0.07912,0.06923 -0.195387,0.103846 -0.348683,0.103846 h -0.715739 z m -3.755176,0.02636 h 1.460691 v 0.876415 h -1.460691 z m 7.2163874,0.232399 c -0.093438,0 -0.1635566,0.01443 -0.2160226,0.03583 -0.052235,0.02131 -0.088891,0.04816 -0.1234168,0.08918 -0.06822,0.08248 -0.123189,0.232961 -0.123189,0.485909 0,0.03954 0.0013,0.07669 0.0038,0.111548 l 0.6776805,-0.677681 c -0.05832,-0.0291 -0.12662,-0.04479 -0.2188754,-0.04479 z m 2.7747441,0.644016 h 1.460691 v 0.876415 H 12.73172 Z m -4.3716905,0.02699 c -0.01712,0.02668 -0.03567,0.05284 -0.05563,0.07851 l -3.98e-4,5.15e-4 -3.97e-4,5.69e-4 c -0.06494,0.08272 -0.138799,0.151963 -0.221278,0.208491 l 0.461773,0.71745 0.07361,-0.07361 c -0.168109,-0.259875 -0.24957,-0.573649 -0.257675,-0.931932 z m -1.572127,0.558486 v 0.9920725 h -0.541654 l 0.876415,0.876415 0.876415,-0.876415 h -0.41915 L 6.9735695,9.0519695 Z m -1.943918,1.8100605 0.61349,0.61349 -1.022484,1.022484 -0.61349,-0.61349 z m 6.6315405,0.61349 1.022484,1.022484 -0.613491,0.613491 -1.022484,-1.022484 z m -3.8854405,1.256195 h 0.876415 v 1.460692 h -0.876415 z"
     class="ColorScheme-Text" />
</svg>
