<?xml version="1.0" encoding="UTF-8" standalone="no"?>
<svg
   width="64"
   height="64"
   version="1.1"
   viewBox="0 0 16.933 16.933"
   id="svg7"
   sodipodi:docname="pcloud.svg"
   inkscape:version="1.4.4 (dcaf3e7d9e, 2026-05-05)"
   xmlns:inkscape="http://www.inkscape.org/namespaces/inkscape"
   xmlns:sodipodi="http://sodipodi.sourceforge.net/DTD/sodipodi-0.dtd"
   xmlns="http://www.w3.org/2000/svg"
   xmlns:svg="http://www.w3.org/2000/svg"
   xmlns:rdf="http://www.w3.org/1999/02/22-rdf-syntax-ns#"
   xmlns:cc="http://creativecommons.org/ns#"
   xmlns:dc="http://purl.org/dc/elements/1.1/">
  <sodipodi:namedview
     id="namedview7"
     pagecolor="#9c4444"
     bordercolor="#000000"
     borderopacity="0.25"
     inkscape:showpageshadow="2"
     inkscape:pageopacity="0.0"
     inkscape:pagecheckerboard="0"
     inkscape:deskcolor="#d1d1d1"
     inkscape:zoom="4.3531261"
     inkscape:cx="36.410615"
     inkscape:cy="41.119875"
     inkscape:window-width="2560"
     inkscape:window-height="1388"
     inkscape:window-x="0"
     inkscape:window-y="0"
     inkscape:window-maximized="1"
     inkscape:current-layer="svg7"
     showgrid="false" />
  <defs
     id="defs2">
    <inkscape:path-effect
       effect="offset"
       id="path-effect1"
       is_visible="true"
       lpeversion="1.3"
       linejoin_type="miter"
       unit="px"
       offset="0.98168406"
       miter_limit="4"
       attempt_force_join="false"
       update_on_knot_move="true" />
    <style
       id="current-color-scheme"
       type="text/css">.ColorScheme-Text {color:#d8dee9} .ColorScheme-Highlight {color:#3b4252}</style>
  </defs>
  <metadata
     id="metadata2">
    <rdf:RDF>
      <cc:Work
         rdf:about="">
        <dc:format>image/svg+xml</dc:format>
        <dc:type
           rdf:resource="http://purl.org/dc/dcmitype/StillImage" />
      </cc:Work>
    </rdf:RDF>
  </metadata>
  <path
     id="path5"
     d="m 8.466532,3.3865925 c -2.762201,0 -4.984659,2.190716 -5.079908,4.889418 v -0.126992 c 0,-0.761987 0.15873,-1.460523 0.444475,-2.095512 -1.873217,0.253996 -3.301943,1.809768 -3.301943,3.746483 0,2.0637135 1.714485,3.7464175 3.778199,3.7464175 h 9.588283 c 1.396975,-0.03175 2.508206,-1.14301 2.508206,-2.539986 0,-0.793736 -0.380957,-1.5239605 -0.952447,-1.9684525 -0.222246,0.444492 -0.634978,0.82551 -1.11122,1.0160075 0.666738,-0.3492445 1.142936,-1.0794725 1.142936,-1.9049575 0,-1.17473 -0.952433,-2.127227 -2.127163,-2.127227 h -0.253985 c 0.285745,0.634988 0.444475,1.33346 0.444475,2.095446 v 0.158773 C 13.45119,5.5773085 11.228733,3.3865925 8.466532,3.3865925 Z m 9.75e-4,1.01562 c 2.244326,0 4.063901,1.819606 4.063901,4.063965 0,2.2446895 -1.819607,4.0639005 -4.063966,4.0639005 -2.244359,0 -4.0639,-1.81921 -4.0639,-4.0639005 0,-2.244359 1.819573,-4.063965 4.063965,-4.063965 z m -6.5e-5,0.499122 C 6.49868,4.9013785 4.9026,6.4974375 4.9026,8.4661775 c 0,1.9688005 1.596107,3.5648435 3.564907,3.5648435 1.968767,0 3.564778,-1.596076 3.564778,-3.5648435 0,-1.968795 -1.596018,-3.564834 -3.564778,-3.564843 z m -1.155337,1.216315 h 1.873241 a 1.7009467,1.7009467 0 0 1 1.176589,0.511782 1.7012443,1.7012443 0 0 1 0,2.376756 1.7012443,1.7012443 0 0 1 -1.176589,0.512105 H 7.96677 v 0.6537615 a 0.65433743,0.65433743 0 0 1 -0.191716,0.462884 0.65509809,0.65509809 0 0 1 -0.926157,0 A 0.65433743,0.65433743 0 0 1 6.65711,10.172054 V 6.7726375 a 0.65450278,0.65450278 0 0 1 0.191781,-0.463272 0.65509809,0.65509809 0 0 1 0.463208,-0.191716 z m 0.65473,1.176654 v 1.047723 h 1.179108 a 0.5222132,0.5222132 0 0 0 0.200373,-0.03998 0.52482592,0.52482592 0 0 0 0.170206,-0.113686 0.52426367,0.52426367 0 0 0 0.113364,-0.169884 c 0.02636,-0.0635 0.03998,-0.131715 0.03998,-0.200308 A 0.52383375,0.52383375 0 0 0 9.629886,7.6174735 0.52426367,0.52426367 0 0 0 9.516522,7.4476545 0.52991907,0.52991907 0 0 0 9.346316,7.3340325 c -0.0635,-0.02636 -0.131385,-0.03972 -0.200308,-0.03972 z"
     style="fill:currentColor"
     class="ColorScheme-Text" />
</svg>
