<?xml version="1.0" encoding="UTF-8" standalone="no"?>
<svg
   width="64"
   height="64"
   version="1.1"
   viewBox="0 0 16.933 16.933"
   id="svg7"
   sodipodi:docname="portproton.svg"
   inkscape:version="1.4.4 (dcaf3e7d9e, 2026-05-05)"
   xmlns:inkscape="http://www.inkscape.org/namespaces/inkscape"
   xmlns:sodipodi="http://sodipodi.sourceforge.net/DTD/sodipodi-0.dtd"
   xmlns="http://www.w3.org/2000/svg"
   xmlns:svg="http://www.w3.org/2000/svg"
   xmlns:rdf="http://www.w3.org/1999/02/22-rdf-syntax-ns#"
   xmlns:cc="http://creativecommons.org/ns#"
   xmlns:dc="http://purl.org/dc/elements/1.1/">
  <sodipodi:namedview
     id="namedview7"
     pagecolor="#9c4444"
     bordercolor="#000000"
     borderopacity="0.25"
     inkscape:showpageshadow="2"
     inkscape:pageopacity="0.0"
     inkscape:pagecheckerboard="0"
     inkscape:deskcolor="#d1d1d1"
     inkscape:zoom="4.3531262"
     inkscape:cx="89.820506"
     inkscape:cy="63.05813"
     inkscape:window-width="2560"
     inkscape:window-height="1388"
     inkscape:window-x="0"
     inkscape:window-y="0"
     inkscape:window-maximized="1"
     inkscape:current-layer="svg7"
     showgrid="false" />
  <defs
     id="defs2">
    <style
       id="current-color-scheme"
       type="text/css">.ColorScheme-Text {color:#d8dee9} .ColorScheme-Highlight {color:#3b4252}</style>
  </defs>
  <metadata
     id="metadata2">
    <rdf:RDF>
      <cc:Work
         rdf:about="">
        <dc:format>image/svg+xml</dc:format>
        <dc:type
           rdf:resource="http://purl.org/dc/dcmitype/StillImage" />
      </cc:Work>
    </rdf:RDF>
  </metadata>
  <path
     id="path5"
     style="fill:currentColor"
     d="m 8.4664995,1.4551795 a 7.0113203,7.0113203 0 0 0 -7.01132,7.01132 7.0113203,7.0113203 0 0 0 7.01132,7.0113215 7.0113203,7.0113203 0 0 0 7.0113205,-7.0113215 7.0113203,7.0113203 0 0 0 -7.0113205,-7.01132 z m 2.3685255,2.599985 c 0.121073,0.002 0.242584,0.01935 0.364495,0.05745 0.404246,0.126532 0.651876,0.412216 0.783338,0.802221 0.145978,0.43273 0.124348,0.875872 0.05451,1.319009 -0.02437,0.154468 -0.05587,0.307573 -0.08216,0.451634 0.251148,0.125437 0.505818,0.239918 0.747927,0.376584 0.347006,0.19555 0.658154,0.437889 0.864112,0.789277 0.24074,0.410819 0.234965,0.825762 -0.0036,1.234117 -0.04327,0.07395 -0.05338,0.133683 -0.03531,0.215573 0.07888,0.360699 -0.0682,0.7167415 -0.369738,0.9153045 -0.303458,0.200206 -0.681675,0.191972 -0.988695,-0.01755 -0.02437,-0.01643 -0.06655,-0.02029 -0.09613,-0.01289 -0.05532,0.01397 -0.106282,0.04357 -0.161332,0.06055 -0.05067,0.01561 -0.06137,0.03699 -0.04686,0.09067 0.08408,0.31058 0.148171,0.625531 0.166521,0.947613 0.02082,0.368094 0.01071,0.733439 -0.142663,1.077706 -0.23718,0.532148 -0.718126,0.795894 -1.300394,0.725781 -0.575695,-0.06929 -1.0750015,-0.32233 -1.5510045,-0.630993 -0.188156,-0.12215 -0.365621,-0.261052 -0.545834,-0.395253 -0.03944,-0.02931 -0.06436,-0.03447 -0.107359,-0.0016 -0.166519,0.126532 -0.340162,0.243723 -0.504216,0.373268 -0.03588,0.02821 -0.05506,0.09149 -0.06136,0.141059 -0.02273,0.178569 -0.08486,0.33826 -0.198242,0.478487 -0.307019,0.379049 -0.883555,0.428307 -1.24535,0.102116 -0.05149,-0.04656 -0.100544,-0.06354 -0.167644,-0.05916 -0.211162,0.01397 -0.420376,-0.006 -0.612913,-0.09693 -0.334681,-0.158028 -0.551893,-0.42422 -0.663089,-0.774512 -0.101061,-0.318522 -0.113362,-0.645573 -0.08543,-0.977515 0.02684,-0.318522 0.08846,-0.629081 0.171174,-0.936647 0.0033,-0.01205 0.0055,-0.02467 0.0088,-0.04028 -0.122424,-0.05176 -0.243237,-0.09996 -0.361553,-0.153362 -0.375763,-0.1700795 -0.729575,-0.3749505 -1.026461,-0.6660845 -0.285109,-0.279631 -0.467236,-0.605542 -0.449708,-1.020469 0.01342,-0.319618 0.14954,-0.583358 0.358237,-0.81506 0.334681,-0.371929 0.760001,-0.609945 1.210259,-0.809603 0.05697,-0.0252 0.11473,-0.04848 0.172245,-0.07286 -0.03369,-0.176104 -0.07641,-0.346162 -0.09613,-0.51898 -0.01315,-0.115577 -0.05366,-0.184304 -0.155822,-0.249488 -0.329751,-0.210613 -0.462848,-0.60994 -0.347271,-0.983238 0.113386,-0.366178 0.449982,-0.610476 0.839987,-0.614037 0.03478,-2.69e-4 0.07695,-0.0145 0.10324,-0.03696 0.277166,-0.236906 0.601193,-0.301839 0.952855,-0.263769 0.562549,0.0608 1.054116,0.304571 1.519711,0.606387 0.236358,0.153098 0.460957,0.32401 0.695398,0.490255 0.152551,-0.113112 0.31111,-0.23636 0.475438,-0.35139 0.406985,-0.284835 0.836197,-0.528087 1.3174045,-0.664479 0.198392,-0.05632 0.398822,-0.09536 0.60061,-0.09195 z m -4.4407565,0.344329 c -0.04119,-5.8e-4 -0.08271,5.69e-4 -0.124584,0.0035 -0.187881,0.01315 -0.364219,0.0649 -0.519782,0.18979 l -2.69e-4,2.69e-4 c 0.518454,0.514072 0.275796,1.305033 -0.349197,1.495105 0.02794,0.148169 0.05583,0.297449 0.08404,0.446713 0.0189,-0.0011 0.02684,4e-6 0.03424,-0.0025 0.560906,-0.162136 1.131157,-0.274429 1.712604,-0.330848 0.08353,-0.0082 0.161026,-0.01891 0.231139,-0.09094 0.254708,-0.262377 0.520393,-0.514376 0.781948,-0.77018 0.02136,-0.02081 0.04323,-0.04108 0.06788,-0.06408 -0.345362,-0.268128 -0.700261,-0.501716 -1.093005,-0.672343 -0.264328,-0.11479 -0.536671,-0.200479 -0.825009,-0.2045 z m 4.1244575,1.14e-4 c -0.211123,-0.0035 -0.416745,0.0436 -0.6192795,0.111798 -0.440672,0.148443 -0.831496,0.389196 -1.202877,0.663624 -0.04327,0.03204 -0.0852,0.06574 -0.138331,0.107091 0.02684,0.02109 0.04631,0.03424 0.06275,0.05012 0.260186,0.253339 0.522293,0.504756 0.778097,0.762477 0.05587,0.05615 0.112,0.08734 0.187865,0.09227 0.07285,0.0047 0.146223,0.0085 0.21798,0.02001 0.3396115,0.05368 0.6800885,0.105427 1.0183305,0.167323 0.186512,0.03396 0.369435,0.08686 0.58087,0.137529 0.03013,-0.228142 0.06849,-0.446427 0.08601,-0.666352 0.02328,-0.290586 0.0068,-0.578997 -0.09671,-0.857532 -0.116399,-0.312223 -0.331893,-0.504793 -0.661643,-0.566963 -0.07169,-0.01349 -0.142685,-0.02024 -0.213059,-0.0214 z m -2.0765115,1.002496 c -0.01811,6.42e-4 -0.04003,0.0069 -0.04996,0.0161 -0.247587,0.228416 -0.492427,0.459328 -0.737549,0.690209 -0.01178,0.01095 -0.01835,0.02708 -0.02519,0.03777 h 1.612627 l -2.69e-4,-2.69e-4 c 0.0058,-0.0071 0.01147,-0.01396 0.01749,-0.02108 -0.263473,-0.239644 -0.526395,-0.480096 -0.792058,-0.717275 -0.0047,-0.0042 -0.01422,-0.0058 -0.02509,-0.0055 z m 8.59e-4,0.853948 c -0.300585,0.0156 -0.603075,0.02957 -0.905301,0.04873 -0.03889,0.0025 -0.08653,0.02356 -0.11228,0.05205 -0.486684,0.539543 -0.907911,1.12702 -1.280387,1.75037 -0.02794,0.04656 -0.02961,0.08377 -0.0033,0.129504 0.13694,0.237454 0.26788,0.478496 0.40975,0.713211 0.2506,0.41438 0.536545,0.804371 0.843838,1.1782175 0.02547,0.03095 0.06899,0.06355 0.105968,0.06574 0.294968,0.01698 0.590219,0.0367 0.885188,0.03643 0.308114,0 0.616229,-0.02053 0.924344,-0.03477 0.06957,-0.0033 0.129829,-0.01784 0.18214,-0.08275 0.475177,-0.5869295 0.8901015,-1.2127355 1.2417625,-1.8810015 0.0241,-0.04574 0.02243,-0.07995 -0.0055,-0.122123 -0.05039,-0.07614 -0.09472,-0.156139 -0.143199,-0.233921 -0.331668,-0.534339 -0.7071595,-1.036361 -1.1251005,-1.506338 -0.02547,-0.02876 -0.06466,-0.06163 -0.09944,-0.06382 -0.304966,-0.02026 -0.6102109,-0.03366 -0.9184599,-0.04953 z m -1.197796,0.07253 c -0.155015,0.02273 -0.298807,0.04408 -0.442594,0.06435 -0.408628,0.05779 -0.809019,0.151762 -1.203679,0.272543 -0.06464,0.01972 -0.07013,0.0479 -0.05178,0.101582 0.07559,0.219651 0.143768,0.442063 0.226753,0.658702 0.07503,0.196619 0.165391,0.387497 0.250557,0.584936 0.200936,-0.296487 0.38576,-0.584494 0.586435,-0.861277 0.200206,-0.275797 0.416301,-0.54011 0.634309,-0.820837 z m 2.435069,0.01129 c -0.02214,-5.07e-4 -0.04086,1.3e-5 -0.05563,0.0016 l -2.69e-4,2.69e-4 c 0.4538195,0.522015 0.8517815,1.077967 1.2135765,1.667082 0.156385,-0.260186 0.489968,-1.148895 0.497637,-1.318153 -0.218248,-0.111435 -1.323283,-0.34325 -1.6553145,-0.350801 z m -1.23738,0.344222 c 0.864086,0.0055 1.5578005,0.709068 1.550679,1.572611 -0.0068,0.858065 -0.710983,1.548779 -1.572883,1.543301 -0.85916,-0.0055 -1.547722,-0.711813 -1.541697,-1.581655 0.0058,-0.843276 0.715691,-1.539739 1.563896,-1.534261 z m 3.4489585,0.212792 c -0.17227,0.594045 -0.410265,1.152481 -0.691814,1.693668 -0.01123,0.02136 -0.0036,0.05971 0.0079,0.08436 0.09476,0.206505 0.194442,0.410567 0.288109,0.61762 0.05779,0.127354 0.107665,0.258512 0.160797,0.386962 0.101518,-0.02739 0.15173,-0.08845 0.150634,-0.183211 -0.0069,-0.610477 0.598969,-1.037721 1.171103,-0.82656 0.01862,0.0068 0.03862,0.01016 0.05697,0.01482 0.142966,-0.243753 0.179948,-0.491387 0.0704,-0.75349 -0.06546,-0.156389 -0.159706,-0.293293 -0.2772,-0.414622 -0.264294,-0.273058 -0.586897,-0.45823 -0.936915,-0.619546 z m -6.9267005,0.01615 c -0.349744,0.134201 -0.825193,0.43273 -1.068398,0.760016 -0.130093,0.17501 -0.224344,0.366199 -0.222153,0.590233 0.0022,0.226772 0.09645,0.421218 0.235312,0.593762 0.339611,0.422597 0.807947,0.649371 1.296275,0.85122 0.0096,-0.01972 0.0167,-0.03316 0.023,-0.04713 0.147348,-0.330299 0.295793,-0.660029 0.440401,-0.991423 0.01205,-0.02739 0.006,-0.07096 -0.0072,-0.09944 -0.09613,-0.205958 -0.205942,-0.405582 -0.292762,-0.615374 -0.141596,-0.342075 -0.268937,-0.690204 -0.404508,-1.041866 z m 0.79944,1.88073 c -0.136118,0.329751 -0.26727,0.647216 -0.400923,0.970668 0.414106,0.146526 0.8167,0.2437535 1.230532,0.3149625 C 6.3192985,9.6532385 6.0492255,9.2349855 5.7646645,8.7937655 Z m 5.3417775,0.0028 c -0.273592,0.425314 -0.540901,0.841277 -0.815862,1.2687805 0.101774,-0.02078 0.201372,-0.03557 0.297952,-0.06184 0.283739,-0.077231 0.566102,-0.1591025 0.849294,-0.2382545 0.04875,-0.01369 0.05148,-0.03999 0.03477,-0.0819 -0.0304,-0.07477 -0.0542,-0.152258 -0.08543,-0.226753 -0.0923,-0.220473 -0.186786,-0.440114 -0.280727,-0.66004 z m 0.555141,1.5430885 c -0.02175,0.0057 -0.03373,0.0084 -0.04574,0.01225 -0.600891,0.193906 -1.216327,0.318502 -1.8429635,0.391081 -0.02684,0.003 -0.05586,0.02465 -0.07559,0.04547 -0.164328,0.175009 -0.325332,0.353339 -0.489934,0.528074 -0.09449,0.10024 -0.193933,0.195786 -0.293351,0.296026 0.01233,0.01096 0.02138,0.02004 0.03124,0.02771 0.267306,0.202123 0.548296,0.383397 0.851755,0.526362 0.3212615,0.151456 0.6529255,0.264861 1.0158155,0.259383 0.428621,-0.0063 0.747169,-0.245971 0.868498,-0.658434 0.139398,-0.474611 0.0794,-0.945915 -0.01974,-1.427919 z m -6.4444105,0.0079 v 2.69e-4 c -0.0038,0.0115 -0.01503,0.03291 -0.01749,0.05537 -0.03013,0.264294 -0.07368,0.528279 -0.08409,0.793395 -0.01205,0.30921 0.04708,0.608306 0.220173,0.875613 0.141048,0.217734 0.492731,0.384803 0.740866,0.344542 0.05231,-0.353578 0.234435,-0.613482 0.575415,-0.737549 0.345088,-0.125711 0.65211,-0.0367 0.926537,0.20787 0.127902,-0.08956 0.255538,-0.178886 0.385357,-0.269814 -0.01068,-0.01588 -0.01508,-0.02545 -0.02193,-0.03257 -0.256078,-0.268402 -0.511864,-0.536806 -0.769859,-0.803291 -0.02109,-0.02164 -0.05699,-0.03502 -0.08794,-0.04023 -0.31058,-0.05313 -0.623879,-0.09316 -0.931993,-0.158069 -0.313045,-0.06573 -0.620903,-0.155279 -0.935043,-0.235526 z m 2.782072,0.464258 v 2.69e-4 c 0.138309,0.132284 0.261861,0.247564 0.382094,0.366154 0.04163,0.04108 0.07011,0.0378 0.109552,-0.0025 0.06957,-0.07066 0.144566,-0.135817 0.216322,-0.204287 0.05094,-0.04848 0.100827,-0.0986 0.162724,-0.159674 z"
     class="ColorScheme-Text" />
</svg>
