<?xml version="1.0" encoding="UTF-8" standalone="no"?>
<svg
   width="64"
   height="64"
   version="1.1"
   viewBox="0 0 16.933 16.933"
   id="svg7"
   sodipodi:docname="preferences-desktop-emoticons.svg"
   inkscape:version="1.4.4 (dcaf3e7d9e, 2026-05-05)"
   xmlns:inkscape="http://www.inkscape.org/namespaces/inkscape"
   xmlns:sodipodi="http://sodipodi.sourceforge.net/DTD/sodipodi-0.dtd"
   xmlns="http://www.w3.org/2000/svg"
   xmlns:svg="http://www.w3.org/2000/svg"
   xmlns:rdf="http://www.w3.org/1999/02/22-rdf-syntax-ns#"
   xmlns:cc="http://creativecommons.org/ns#"
   xmlns:dc="http://purl.org/dc/elements/1.1/">
  <sodipodi:namedview
     id="namedview7"
     pagecolor="#9c4444"
     bordercolor="#000000"
     borderopacity="0.25"
     inkscape:showpageshadow="2"
     inkscape:pageopacity="0.0"
     inkscape:pagecheckerboard="0"
     inkscape:deskcolor="#d1d1d1"
     inkscape:zoom="6.15625"
     inkscape:cx="15.675127"
     inkscape:cy="29.725888"
     inkscape:window-width="1226"
     inkscape:window-height="669"
     inkscape:window-x="0"
     inkscape:window-y="0"
     inkscape:window-maximized="0"
     inkscape:current-layer="svg7"
     showgrid="false" />
  <defs
     id="defs2">
    <style
       id="current-color-scheme"
       type="text/css">.ColorScheme-Text {color:#d8dee9} .ColorScheme-Highlight {color:#3b4252}</style>
  </defs>
  <metadata
     id="metadata2">
    <rdf:RDF>
      <cc:Work
         rdf:about="">
        <dc:format>image/svg+xml</dc:format>
        <dc:type
           rdf:resource="http://purl.org/dc/dcmitype/StillImage" />
      </cc:Work>
    </rdf:RDF>
  </metadata>
  <path
     style="fill:currentColor;stroke-width:0.0209235"
     d="M 7.8859857,15.465766 C 6.1973666,15.308005 4.7320914,14.637055 3.5487312,13.479731 2.38416,12.340789 1.6791078,10.887362 1.4817654,9.2187998 c -0.035448,-0.299713 -0.035448,-1.2072226 0,-1.5069345 C 1.680492,6.0315939 2.3893855,4.5778495 3.5690029,3.4315165 4.6790013,2.352838 6.018838,1.7092586 7.6036005,1.4935317 7.804713,1.4661547 8.0225991,1.4561837 8.4402973,1.4552527 c 0.574405,-0.00128 0.768818,0.013637 1.244587,0.095591 2.2092447,0.380526 4.1235207,1.8335998 5.1028837,3.873452 1.382613,2.8797661 0.639361,6.3551383 -1.797933,8.4069363 -1.075907,0.905735 -2.324975,1.443035 -3.7546757,1.615118 -0.252099,0.03033 -1.1013834,0.04256 -1.3491736,0.01944 z m 1.0772476,-3.525634 c 0.365988,-0.07668 0.680447,-0.20961 1.002716,-0.423861 0.3402837,-0.226228 0.7277507,-0.627602 0.9598447,-0.994295 0.08785,-0.138801 0.202392,-0.360725 0.202392,-0.39214 0,-0.01313 -0.07207,-0.02152 -0.184607,-0.02152 h -0.184607 l -0.110015,0.135686 c -0.161566,0.199244 -0.47688,0.489972 -0.6753497,0.622685 -0.492173,0.329109 -0.964616,0.476476 -1.527535,0.476476 -0.536311,0 -1.0108984,-0.151246 -1.4991748,-0.47777 C 6.7508344,10.73428 6.3917003,10.401462 6.2550725,10.224264 L 6.1656681,10.10831 H 5.9694978 c -0.1078961,0 -0.1961721,0.0065 -0.1961721,0.01435 0,0.02613 0.2256021,0.412384 0.3175545,0.543685 0.4938059,0.70512 1.1971048,1.164264 1.9833629,1.294831 0.2237442,0.03717 0.6605382,0.0268 0.8889902,-0.02105 z M 6.1908222,6.9362351 C 6.7347029,6.8124598 7.0714001,6.2429015 6.9272716,5.6904555 6.7939117,5.1792887 6.266878,4.8535914 5.7482082,4.9618165 5.582963,4.9962963 5.3919193,5.0944977 5.267159,5.209088 4.842692,5.5989536 4.829562,6.2590393 5.2381626,6.666824 5.4946619,6.9228114 5.831383,7.0180355 6.1908222,6.9362351 Z m 5.0201818,0 C 11.754886,6.8124602 12.091583,6.2429015 11.947456,5.6904555 11.814095,5.1792887 11.28706,4.8535914 10.76839,4.9618165 c -0.165244,0.03448 -0.356288,0.1326812 -0.481049,0.2472715 -0.4244657,0.3898656 -0.4375957,1.0499513 -0.029,1.457736 0.2565,0.2559874 0.593221,0.3512115 0.952663,0.2694111 z"
     id="path99"
     class="ColorScheme-Text" />
  <g
     id="g9"
     transform="matrix(0.47848209,0,0,0.47876151,4.291204,3.2740672)"
     style="fill:#999999;fill-opacity:1;stroke:none;stroke-width:0.58349;stroke-dasharray:none;stroke-opacity:0.3" />
</svg>
