<?xml version="1.0" encoding="UTF-8" standalone="no"?>
<svg
   width="64"
   height="64"
   version="1.1"
   viewBox="0 0 16.933 16.933"
   id="svg7"
   sodipodi:docname="supertuxkart.svg"
   inkscape:version="1.4.4 (dcaf3e7d9e, 2026-05-05)"
   xmlns:inkscape="http://www.inkscape.org/namespaces/inkscape"
   xmlns:sodipodi="http://sodipodi.sourceforge.net/DTD/sodipodi-0.dtd"
   xmlns="http://www.w3.org/2000/svg"
   xmlns:svg="http://www.w3.org/2000/svg"
   xmlns:rdf="http://www.w3.org/1999/02/22-rdf-syntax-ns#"
   xmlns:cc="http://creativecommons.org/ns#"
   xmlns:dc="http://purl.org/dc/elements/1.1/">
  <sodipodi:namedview
     id="namedview7"
     pagecolor="#9c4444"
     bordercolor="#000000"
     borderopacity="0.25"
     inkscape:showpageshadow="2"
     inkscape:pageopacity="0.0"
     inkscape:pagecheckerboard="0"
     inkscape:deskcolor="#d1d1d1"
     inkscape:zoom="12.3125"
     inkscape:cx="35.208122"
     inkscape:cy="48"
     inkscape:window-width="2560"
     inkscape:window-height="1392"
     inkscape:window-x="0"
     inkscape:window-y="0"
     inkscape:window-maximized="1"
     inkscape:current-layer="svg7"
     showgrid="false" />
  <defs
     id="defs2">
    <style
       id="current-color-scheme"
       type="text/css">.ColorScheme-Text {color:#d8dee9} .ColorScheme-Highlight {color:#3b4252}</style>
  </defs>
  <metadata
     id="metadata2">
    <rdf:RDF>
      <cc:Work
         rdf:about="">
        <dc:format>image/svg+xml</dc:format>
        <dc:type
           rdf:resource="http://purl.org/dc/dcmitype/StillImage" />
      </cc:Work>
    </rdf:RDF>
  </metadata>
  <path
     id="path28"
     style="fill:currentColor;fill-opacity:1;stroke-width:0.013389;stroke-linejoin:bevel;paint-order:fill markers stroke"
     class="ColorScheme-Text"
     d="m 9.9190146,2.4102538 c -0.05019,-6.38e-5 -0.06921,0.010625 -0.06903,0.06552 l 5.85e-4,0.2035811 c 1.78e-4,0.055665 0.0311,0.060162 0.0702,0.060256 l 1.3355634,0.00293 c 0.01983,4.61e-5 0.08368,0.00311 0.09009,-0.06435 -4.8e-4,-0.046712 0.0017,-0.1948061 0.0017,-0.1948061 -3.4e-5,-0.031479 -0.0101,-0.071331 -0.04154,-0.07137 z m -3.0396768,0.01287 0.013455,1.0647057 -0.8482545,0.015795 -0.031006,-1.0740659 -0.3346217,0.00351 0.00234,1.0424757 0.1427408,-0.054405 a 0.1673796,0.1673796 0 0 1 0.066105,-0.010529 0.1673796,0.1673796 0 0 1 0.1433258,0.091845 L 6.1884496,3.810749 6.9746939,3.808999 C 7.1328812,3.8086069 7.2757277,3.7190785 7.2736299,3.56973 7.2616074,2.7130811 7.2578348,2.4301438 7.2578348,2.4301438 Z m 4.9345022,0.00878 c -0.06368,0.006 -0.109026,0.031253 -0.09243,0.1216807 l -5.85e-4,1.2624369 c 0.13165,0.00379 0.263195,0.00168 0.394877,0.00293 l -0.0076,-0.4919877 h 0.268516 l 0.531183,0.4914027 0.422372,-0.01287 -0.0064,-0.1292857 -0.471513,-0.390782 0.22932,-0.00585 c 0.09357,-0.055399 0.101115,-0.1042084 0.119341,-0.1766709 l 0.0017,-0.4949127 C 13.182888,2.494174 13.06743,2.4450622 12.943482,2.452374 Z m -8.0081089,0.01287 C 3.7118481,2.4445612 3.5987968,2.5218368 3.59513,2.5845895 3.58675,2.7270909 3.581102,2.8550801 3.58811,2.9987718 3.59479,3.1368805 3.668813,3.222455 3.7571759,3.225753 c 0.3420309,0.012767 0.6605059,0.00296 1.0032805,0.0076 l -0.00527,0.2398513 -0.8336295,-0.00234 -0.00409,-0.1216805 -0.3416419,-0.00293 c 3.63e-5,0.090235 -0.018249,0.1806217 0.0234,0.2708565 0.023185,0.050233 0.075469,0.1649708 0.1795959,0.1649708 h 1.095717 l 0.174331,-0.066098 c 0.031155,-0.047302 0.031353,-0.1050287 0.03159,-0.1216806 l 0.00644,-0.4615676 C 5.0849636,3.0283928 4.9410234,2.9626906 4.8476218,2.9613267 l -0.9167,-0.013455 -0.00234,-0.2182062 0.8336295,-0.00995 5.85e-4,0.1456659 0.3118066,-0.00468 C 5.0662257,2.5849349 5.0977374,2.6898224 5.066413,2.5845846 5.0471564,2.5198697 4.978833,2.4473533 4.8774569,2.447109 Z m 4.055827,0.00468 c 0,0 -0.0037,0.8444051 -0.00936,1.2665318 -4.494e-4,0.033139 0.00356,0.08648 0.0468,0.085996 l 0.2860666,-0.00351 c 0.036555,-4.193e-4 0.05079,-0.050611 0.050894,-0.087165 l 0.00121,-0.3907822 0.9190399,0.00117 C 9.2581516,3.321829 9.4254006,3.179897 9.4241396,3.065463 l -0.0041,-0.378497 c -1.73e-4,-0.01876 -0.045654,-0.2338904 -0.246832,-0.2316656 -0.449935,0.00498 -0.8616407,-0.00621 -1.3115766,-0.00585 z m 4.9614119,0.2942565 0.0017,0.2685165 h -0.723037 l -0.0017,-0.2661765 z m -4.5565892,0.00117 0.7587487,0.01521 0.00648,0.2462864 -0.7651839,0.00117 z M 10.8831,2.9373464 9.9190146,2.9390964 c -0.05019,1.099e-4 -0.06921,0.010625 -0.06903,0.06552 l 5.85e-4,0.2035811 c 1.78e-4,0.055665 0.0311,0.060286 0.0702,0.060256 l 0.9120214,-5.851e-4 c 0.01983,-1.77e-5 0.08974,0.00209 0.09009,-0.064936 0.0063,-0.058611 0.0017,-0.1942209 0.0017,-0.1942209 -3.6e-5,-0.031479 -0.0101,-0.071442 -0.04154,-0.071371 z M 9.9190146,3.4685293 c -0.05019,-6.38e-5 -0.06921,0.010625 -0.06903,0.06552 l 5.88e-4,0.2029977 c 1.78e-4,0.055665 0.0311,0.060162 0.0702,0.060256 l 1.3355634,0.00351 c 0.01983,4.57e-5 0.095,-0.00548 0.09009,-0.064936 -0.0025,-0.034848 0.0017,-0.194221 0.0017,-0.194221 -3.5e-5,-0.031479 -0.0101,-0.071332 -0.04154,-0.071371 z M 5.8017619,3.7984662 5.0535429,4.0833627 5.0254628,4.0827778 4.3105889,4.3548043 h 0.02808 L 1.3820628,5.4785954 c 0.2406504,0.7540741 0.4005044,1.550845 0.6622237,2.2522623 L 3.2482231,7.1306443 a 0.1673796,0.1673796 0 0 1 0.2316612,0.091261 l 0.4270524,1.1471913 -5.85e-4,5.848e-4 v 5.847e-4 5.857e-4 5.848e-4 5.847e-4 5.857e-4 l 0.1602908,0.4264664 v 5.848e-4 5.848e-4 l 0.1263606,0.3381323 v 5.847e-4 5.857e-4 l 5.852e-4,5.848e-4 0.00702,0.017552 0.030421,0.081904 L 5.8982854,8.5621472 5.0143456,6.4830462 A 0.1673796,0.1673796 0 0 1 5.1009256,6.26484 l 0.6107458,-0.2696868 0.3334519,-0.1468358 0.00351,0.552828 v 0.00175 l 5.85e-4,0.1088106 0.2135262,2.0516061 0.014626,0.035095 a 0.1673796,0.1673796 0 0 1 0.013455,0.054988 c 0.3525263,0.2850063 0.7109241,0.6038011 1.0530058,0.8845253 0.037822,0.01943 0.061857,0.02568 0.071956,0.02691 l 2.6617647,-0.255061 0.211186,-0.1415714 0.05499,-0.057917 a 0.1673796,0.1673796 0 0 1 0.230492,-0.00994 l 0.245116,0.2129414 0.0064,-0.0029 1.276477,-1.0571006 a 0.1673796,0.1673796 0 0 1 0.260911,0.06318 l 0.614254,1.4414476 1.92466,-0.6084034 -1.152455,-2.0855362 a 0.1673796,0.1673796 0 0 1 0.0427,-0.2117711 l 1.953369,-1.5467261 0.0099,-0.060841 -1.708209,-0.6411634 -0.996846,0.8587847 A 0.1673796,0.1673796 0 0 1 12.795475,5.4171701 L 12.212227,4.3723544 h 0.0065 L 12.109266,4.1769633 11.300792,4.3700144 h 0.04446 l -0.367967,0.088335 a 0.1673796,0.1673796 0 0 1 -0.18954,-0.089505 h 0.0059 a 0.1673796,0.1673796 0 0 1 -0.01989,-0.05265 l -0.0088,-0.04446 -1.6520494,0.07722 v 0.011115 h -5.84e-4 l 0.06493,2.7816902 a 0.1673796,0.1673796 0 0 1 -0.06786,0.1380608 l -0.2638355,0.194806 a 0.1673796,0.1673796 0 0 1 -0.093015,0.03276 L 8.1575694,7.5302015 A 0.1673796,0.1673796 0 0 1 8.0195087,7.4670211 L 7.7351975,7.1072442 a 0.1673796,0.1673796 0 0 1 -0.035685,-0.089505 c -0.0558,-0.6553455 -0.082208,-0.9832764 -0.094186,-1.1489463 -0.006,-0.082835 -0.00879,-0.12342 -0.00936,-0.1515158 -2.842e-4,-0.014048 -0.00226,-0.020482 0.00351,-0.052065 1.065e-4,-6.29e-4 4.957e-4,-0.00224 5.851e-4,-0.00293 -5.989e-4,-0.01677 -0.0024,-0.048339 -0.0076,-0.1210957 -0.01008,-0.1389656 -0.039147,-0.496808 -0.08015,-0.982216 -0.3084275,0.017447 -0.6193783,0.037707 -0.9330801,0.047385 l -0.367382,0.00995 -0.00234,-0.00409 c -8.725e-4,-1.1e-6 -0.00155,1.5e-6 -0.00234,0 L 6.0392732,4.2676388 c 0.00124,2.73e-5 0.00285,-2.63e-5 0.00409,0 l -0.09184,-0.1819359 h -0.00527 z m -3.3918483,0.2702715 -0.00176,0.2819716 0.9658403,0.00175 0.7160439,-0.2720264 -1.5110633,-0.0041 z m 3.9171813,0.01755 0.090675,0.180766 c 0.4087676,-0.00898 0.8220465,-0.040847 1.2396217,-0.06201 a 0.1673796,0.1673796 0 0 1 0.1638008,0.1573659 h 0.00878 l 0.00234,-0.00468 c 1.291e-4,0.00149 4.526e-4,0.00319 5.851e-4,0.00468 l 0.9453651,0.00234 -0.00406,-0.1714059 a 0.1673796,0.1673796 0 0 1 0.03101,-0.1000355 z m 6.1243991,0.01638 0.150345,0.2702714 1.184632,0.00234 0.117585,-0.1012056 a 0.1673796,0.1673796 0 0 1 0.167896,-0.029835 l 0.328772,0.1234357 -0.0029,-0.2597414 z M 10.848,5.4657254 11.472784,6.7369372 10.901236,7.1908997 Z M 3.2037629,8.8113581 1.7313098,8.8417805 0.59932865,12.940898 c -0.02314,0.08373 -0.056174,0.185057 -0.0702,0.257985 l 2.25343215,0.02574 0.071956,-0.920795 a 0.1673796,0.1673796 0 0 1 0.3170717,-0.06084 l 1.1191111,2.279758 0.3814221,-0.204166 -5.851e-4,-5.86e-4 0.4358275,-0.232831 0.6598836,0.04095 0.568038,0.03861 0.1509309,-0.572133 0.1673109,-0.124606 0.6598835,0.02106 0.1573658,0.127531 0.1509309,0.621274 1.2963672,0.10062 0.033342,0.01696 0.1111514,0.0094 0.073706,0.154441 1.3718327,-0.176086 0.102961,-0.02165 -0.01521,-0.488478 -0.0468,-0.640579 0.353927,0.539373 0.04212,0.06376 0.06435,0.09828 0.385517,0.591439 1.521595,-0.585588 -0.02867,-0.02165 0.230491,-0.159706 -0.0017,0.324677 0.0059,0.0047 1.953911,-0.224057 -0.302447,-2.120051 0.159706,-0.190711 1.470113,-0.05616 -0.131041,-1.9644396 -1.041305,0.02399 -5.86e-4,5.85e-4 -0.384346,0.01112 -0.01521,5.86e-4 -0.03452,0.0012 h -5.84e-4 l -0.0544,0.01696 5.84e-4,5.84e-4 -0.369722,0.117001 -1.700604,0.5370326 -0.17433,-0.4633226 -0.373232,0.03978 -0.02165,-0.0023 -0.07663,-0.0158 -0.129871,-0.07137 -0.463907,-0.267931 -0.431734,0.180181 -0.07547,0.0626 a 0.1673796,0.1673796 0 0 1 -0.216451,-0.0029 l -0.07839,-0.06786 -0.495497,0.0778 -0.06201,0.02223 c -1.3096545,0.123557 -0.6578264,0.05546 -1.4450107,0.112789 L 8.8654656,12.332511 8.1055465,9.8456634 c -0.1809311,0.01432 -0.3977061,0.03184 -0.658128,0.05324 -0.00566,4.49e-4 -0.010912,3.76e-4 -0.01638,5.85e-4 h -5.851e-4 l -0.087165,0.0088 a 0.1673796,0.1673796 0 0 1 -0.1210957,-0.03627 c -0.023841,-0.01923 -0.047427,-0.03891 -0.071371,-0.0585 -0.054713,-0.03056 -0.1015614,-0.05877 -0.1456658,-0.08073 l -0.7154588,-0.05616 -0.00702,0.02106 -5.85e-4,5.86e-4 -5.85e-4,5.85e-4 -5.85e-4,5.85e-4 -5.85e-4,5.84e-4 -0.174916,0.5627736 -0.00117,0.0012 -0.5048577,1.604078 -0.1070556,0.364456 0.00351,0.0065 -0.1316258,0.442847 -0.00234,-0.0047 -0.00117,0.0023 -0.2304912,-0.401313 5.849e-4,-0.0029 -0.4551324,-0.790926 a 0.1673796,0.1673796 0 0 1 0.022815,-0.197731 L 5.8076556,10.091435 5.8644008,9.9118404 5.1319768,9.2537116 3.8437999,9.7772894 3.3921774,10.228911 A 0.1673796,0.1673796 0 0 1 3.1066523,10.098365 Z m 7.4570361,1.7672939 0.286651,0.191882 0.163802,0.568038 -0.163802,0.212941 -0.665734,0.128116 -0.12753,-0.9518 z m 1.980236,1.005036 0.459812,0.0041 c 0,0 0.0311,1.832996 0.01697,2.129997 l -1.272382,-1.284667 0.438753,-0.06552 0.411257,-0.445773 z m -5.6347515,0.09594 0.2369263,0.882185 -0.4527924,-0.06084 c -0.011208,-0.05788 0.2158661,-0.821345 0.2158661,-0.821345 z" />
</svg>
