<?xml version="1.0" encoding="UTF-8" standalone="no"?>
<svg
   id="svg3297"
   height="64"
   width="64"
   version="1.0"
   sodipodi:docname="trackma.svg"
   inkscape:version="1.4.4 (dcaf3e7d9e, 2026-05-05)"
   xmlns:inkscape="http://www.inkscape.org/namespaces/inkscape"
   xmlns:sodipodi="http://sodipodi.sourceforge.net/DTD/sodipodi-0.dtd"
   xmlns="http://www.w3.org/2000/svg"
   xmlns:svg="http://www.w3.org/2000/svg"
   xmlns:rdf="http://www.w3.org/1999/02/22-rdf-syntax-ns#"
   xmlns:cc="http://creativecommons.org/ns#"
   xmlns:dc="http://purl.org/dc/elements/1.1/">
  <sodipodi:namedview
     id="namedview1"
     pagecolor="#9c4444"
     bordercolor="#000000"
     borderopacity="0.25"
     inkscape:showpageshadow="2"
     inkscape:pageopacity="0.0"
     inkscape:pagecheckerboard="0"
     inkscape:deskcolor="#d1d1d1"
     inkscape:zoom="13.09375"
     inkscape:cx="35.398568"
     inkscape:cy="31.045346"
     inkscape:window-width="2560"
     inkscape:window-height="1388"
     inkscape:window-x="0"
     inkscape:window-y="0"
     inkscape:window-maximized="1"
     inkscape:current-layer="svg3297" />
  <metadata
     id="metadata58">
    <rdf:RDF>
      <cc:Work
         rdf:about="">
        <dc:format>image/svg+xml</dc:format>
        <dc:type
           rdf:resource="http://purl.org/dc/dcmitype/StillImage" />
      </cc:Work>
    </rdf:RDF>
  </metadata>
  <defs
     id="defs3299">
    <style
       id="current-color-scheme"
       type="text/css">.ColorScheme-Text {color:#d8dee9} .ColorScheme-Highlight {color:#3b4252}</style>
  </defs>
  <path
     id="path5"
     style="fill:currentColor"
     d="m 30.655312,5.5002967 c -0.35683,-0.0117 -0.50117,0.43954 -1.00657,2.03522 -0.14541,0.45914 -0.30002,1.03709 -0.34357,1.28431 -0.0436,0.24722 -0.16539,0.81178 -0.27089,1.2544403 -0.29956,1.25694 -0.54099,2.88904 -0.7154,4.83713 -0.16019,1.78909 -0.16023,1.78903 -0.61447,2.25783 -0.41883,0.43225 -2.75634,1.82223 -4.7567,2.82855 -0.45912,0.23098 -1.87495,0.78054 -3.14637,1.22119 -2.54144,0.88081 -4.43566,1.66419 -6.41147,2.6513 -1.30537,0.65216 -5.6283999,3.23459 -6.8165299,4.07206 -2.17278,1.5315 -4.43068,3.63472 -4.43068,4.1272 0,0.37196 0.4719,0.84245 1.44241,1.4374 2.46536,1.51131 4.3403,2.33585 7.8242499,3.44051 3.12105,0.9896 3.10692,0.98394 3.4535,1.35288 0.28288,0.30111 0.2845,0.31986 0.0811,0.98514 -0.11403,0.37294 -0.33792,1.37149 -0.49782,2.2191 -0.34742,1.84166 -0.44671,1.49084 -0.23991,-0.84822 0.0787,-0.8905 0.10954,-1.70669 0.0684,-1.814 -0.10943,-0.28521 -0.66146,-0.52265 -2.89142,-1.24398 -1.09831,-0.35526 -2.7742999,-0.96781 -3.7244099,-1.3613 -0.9501,-0.39349 -2.00204,-0.82795 -2.33756,-0.9651 l -0.60991,-0.24925 -0.003,0.28684 c -0.005,0.44879 3.5704,3.85145 6.1719999,5.87399 3.1441,2.44429 3.55278,2.87403 4.09188,4.30218 0.66683,1.76647 1.36124,3.20251 2.03502,4.20876 0.90438,1.35066 2.54222,3.0304 3.29606,3.38036 l 0.63041,0.29255 0.74661,-0.37684 c 0.83038,-0.41917 1.53149,-0.48567 1.79351,-0.16996 0.14817,0.17853 0.11906,0.25386 -0.21098,0.54589 -0.21055,0.18629 -0.52191,0.42959 -0.69216,0.54065 -0.41688,0.27196 -0.27902,0.58136 0.33515,0.75093 0.4039,0.11153 0.56523,0.0927 0.95508,-0.11049 0.57522,-0.29983 0.75663,-0.16882 0.75663,0.54474 0,0.86264 0.48981,1.2041 3.0181,2.10473 2.43859,0.86866 3.11851,1.05001 4.46509,1.19156 1.43805,0.15117 4.97263,0.14787 6.08883,-0.006 0.55254,-0.076 2.10255,-0.44713 3.44462,-0.82453 1.34206,-0.37741 3.22033,-0.89705 4.1739,-1.15489 4.92426,-1.33143 6.34256,-2.20047 11.52723,-7.06488 1.99835,-1.87492 3.61934,-4.02851 4.02809,-5.35112 0.52353,-1.69401 0.63286,-2.96776 0.31873,-3.71482 -0.1342,-0.3192 -0.145,-0.50881 -0.0433,-0.75322 0.0748,-0.17964 0.15294,-1.10672 0.17361,-2.06029 0.0366,-1.69024 0.0246,-1.77776 -0.46842,-3.47697 -0.83507,-2.87814 -1.62463,-4.56313 -3.39472,-7.24373 -0.6594,-0.99858 -1.4863,-2.00644 -2.54558,-3.10263 -1.68344,-1.74209 -2.63754,-2.52827 -5.35751,-4.41404 -2.32061,-1.60892 -2.74904,-1.96477 -4.62592,-3.84583 -0.88435,-0.88632 -2.28292,-2.13177 -3.10787,-2.76749 -2.04525,-1.57607 -9.45403,-6.1944103 -11.10597,-6.9229503 -0.23912,-0.10544 -0.41125,-0.18067 -0.5509,-0.18522 z m -0.70059,2.1963 c 0.24963,0.003 1.0036,1.99411 1.40801,3.7558403 0.2893,1.26027 1.08859,4.86389 1.08859,4.90799 0,0.14069 -0.27202,-0.009 -0.37866,-0.20802 -0.072,-0.13449 -0.36376,-1.24698 -0.64864,-2.47222 -0.28488,-1.22523 -0.7532,-3.05582 -1.04052,-4.0681803 -0.2873,-1.01237 -0.49526,-1.86783 -0.46204,-1.90105 0.01,-0.01 0.021,-0.0145 0.0332,-0.0144 z m 21.87085,25.3318803 c 1.06656,3.4e-4 1.41994,0.22884 2.39728,1.55041 l 0.70332,0.95119 v 1.04234 c 0,1.14623 -0.0152,1.17144 -1.14829,1.87803 -0.66971,0.41765 -1.01112,0.36634 -1.90879,-0.28684 -0.69573,-0.50625 -1.56634,-1.46852 -1.56634,-1.73131 0,-0.0491 0.23324,-0.44999 0.51832,-0.89105 l 0.51854,-0.80198 -0.4543,-0.5026 c -0.53113,-0.5879 -0.54111,-0.64044 -0.1834,-0.96372 0.20905,-0.18896 0.46486,-0.2447 1.12366,-0.24447 z m 6.71015,5.6268 c 0.025,9.4e-4 0.0482,0.005 0.0688,0.013 0.19014,0.0729 0.19497,0.10824 0.0367,0.25859 -0.23581,0.22399 -0.76119,0.38299 -0.76119,0.23034 0,-0.21128 0.41416,-0.51056 0.6557,-0.50191 z m -26.36441,1.12754 c 0.80651,-0.0179 1.58378,0.25917 2.14482,0.8202 0.5817,0.58171 0.78902,1.14203 0.90427,2.44534 0.0697,0.788 0.0423,0.9647 -0.22623,1.46406 -0.63699,1.18437 -2.50606,1.78845 -3.57015,1.15374 -0.24723,-0.14746 -0.83964,-0.65136 -1.31643,-1.1198 -0.76101,-0.74768 -0.8669,-0.90982 -0.8669,-1.32758 0,-0.65145 0.26672,-0.87944 1.0289,-0.87944 0.34396,0 0.66034,-0.0566 0.7031,-0.12576 0.11387,-0.18427 -0.16903,-0.66555 -0.59214,-1.00725 -0.45154,-0.36465 -0.46515,-0.57259 -0.0556,-0.84094 0.5742,-0.37622 1.21909,-0.56859 1.84636,-0.58257 z m 14.82193,5.48418 c 0.0123,-2e-5 0.0244,8.2e-4 0.0365,0.003 0.14027,0.0225 0.76079,0.073 1.37885,0.11209 0.9727,0.0615 1.12367,0.10246 1.12367,0.3037 0,0.34033 -0.4483,0.42715 -1.28657,0.24925 -0.43468,-0.0922 -0.82074,-0.11139 -0.93685,-0.0462 -0.10862,0.0609 -0.49616,0.5059 -0.86144,0.98855 -0.57403,0.7585 -1.61628,1.62674 -1.95276,1.62674 -0.059,0 -0.1444,-0.0959 -0.18933,-0.21302 -0.0805,-0.20988 0.12238,-0.427 0.91589,-0.98128 0.18195,-0.12709 0.60582,-0.64717 0.94209,-1.1558 0.43503,-0.658 0.64586,-0.88638 0.83,-0.88672 z m -11.97902,3.43846 c 0.16359,0.002 0.26269,0.10965 0.26269,0.32125 0,0.31288 -0.36988,0.49964 -1.17971,0.59555 -0.48213,0.0571 -0.6339,0.0382 -0.56663,-0.0706 0.0504,-0.0818 0.14947,-0.14877 0.22008,-0.14877 0.0706,0 0.34653,-0.17537 0.6131,-0.3896 0.25857,-0.20779 0.48687,-0.31021 0.65047,-0.3078 z"
     class="ColorScheme-Text" />
</svg>
