<?xml version="1.0" encoding="UTF-8" standalone="no"?>
<svg
   width="64"
   height="64"
   version="1.1"
   viewBox="0 0 16.933 16.933"
   id="svg7"
   sodipodi:docname="veracrypt.svg"
   inkscape:version="1.4.4 (dcaf3e7d9e, 2026-05-05)"
   xmlns:inkscape="http://www.inkscape.org/namespaces/inkscape"
   xmlns:sodipodi="http://sodipodi.sourceforge.net/DTD/sodipodi-0.dtd"
   xmlns="http://www.w3.org/2000/svg"
   xmlns:svg="http://www.w3.org/2000/svg"
   xmlns:rdf="http://www.w3.org/1999/02/22-rdf-syntax-ns#"
   xmlns:cc="http://creativecommons.org/ns#"
   xmlns:dc="http://purl.org/dc/elements/1.1/">
  <sodipodi:namedview
     id="namedview7"
     pagecolor="#9c4444"
     bordercolor="#000000"
     borderopacity="0.25"
     inkscape:showpageshadow="2"
     inkscape:pageopacity="0.0"
     inkscape:pagecheckerboard="0"
     inkscape:deskcolor="#d1d1d1"
     inkscape:zoom="4.3531261"
     inkscape:cx="36.410615"
     inkscape:cy="41.349595"
     inkscape:window-width="2560"
     inkscape:window-height="1388"
     inkscape:window-x="0"
     inkscape:window-y="0"
     inkscape:window-maximized="1"
     inkscape:current-layer="svg7"
     showgrid="false" />
  <defs
     id="defs2">
    <inkscape:path-effect
       effect="offset"
       id="path-effect1"
       is_visible="true"
       lpeversion="1.3"
       linejoin_type="miter"
       unit="px"
       offset="0.98168406"
       miter_limit="4"
       attempt_force_join="false"
       update_on_knot_move="true" />
    <style
       id="current-color-scheme"
       type="text/css">.ColorScheme-Text {color:#d8dee9} .ColorScheme-Highlight {color:#3b4252}</style>
  </defs>
  <metadata
     id="metadata2">
    <rdf:RDF>
      <cc:Work
         rdf:about="">
        <dc:format>image/svg+xml</dc:format>
        <dc:type
           rdf:resource="http://purl.org/dc/dcmitype/StillImage" />
      </cc:Work>
    </rdf:RDF>
  </metadata>
  <path
     id="path5"
     style="fill:currentColor"
     d="m 3.1740384,3.8739715 -2.644884,6.68e-4 1.325135,2.28936 z m -1.319749,2.290033 h 2.639498 l -1.319749,-2.28936 z m 11.8831266,-2.290033 -2.639498,6.68e-4 h -0.0054 l 0.0027,0.0046 -1.3170556,2.284731 H 12.41766 Z m -1.319749,2.290033 h 2.639498 0.0054 l -0.0027,-0.0046 1.322442,-2.284394 -2.644885,-3.42e-4 z m -7.9184926,0.02626 -2.644885,6.72e-4 1.325136,2.289361 h 0.01018 l 1.309565,2.2624275 1.303841,-2.2624275 h 4.23e-4 l -1.304265,2.2624275 h 2.639498 l -1.319749,-2.2893605 -0.0077,0.01347 -2.61e-4,-3.38e-4 0.008,-0.0138 h -0.0159 l -1.303841,-2.261751 -1.304178,2.262427 z m 2.639497,4.5524595 h 2.639498 L 8.4557274,8.4579935 Z m 2.639498,0 2.6448846,0.01616 -1.296688,-2.2785855 h 0.0039 l -0.0027,-0.0046 1.317055,-2.285405 -2.6448836,6.73e-4 0.0027,0.0046 -0.464776,0.806327 -0.836795,1.451471 2.5970776,-6.73e-4 -0.01591,0.02761 h 0.01944 z m -2.612564,0.02626 -2.644884,6.68e-4 1.325135,2.28936 1.316887,-2.285068 1.63e-4,3.44e-4 -1.317054,2.284732 h 2.639497 l 1.316888,-2.285067 1.3226096,2.285067 1.316888,-2.285067 1.61e-4,3.42e-4 -1.317049,2.284733 h 2.639498 0.0054 2.634111 l -1.319749,-2.289359 -1.238106,2.147705 1.238106,-2.148379 -2.639497,6.68e-4 h -4.24e-4 l 4.24e-4,-6.68e-4 -2.6399186,6.68e-4 4.23e-4,-6.68e-4 -2.639507,6.68e-4 h -4.24e-4 z"
     class="ColorScheme-Text" />
</svg>
