<?xml version="1.0" encoding="UTF-8" standalone="no"?>
<svg
   width="64"
   height="64"
   version="1.1"
   viewBox="0 0 16.933 16.933"
   id="svg7"
   sodipodi:docname="vscodium.svg"
   inkscape:version="1.4.4 (dcaf3e7d9e, 2026-05-05)"
   xmlns:inkscape="http://www.inkscape.org/namespaces/inkscape"
   xmlns:sodipodi="http://sodipodi.sourceforge.net/DTD/sodipodi-0.dtd"
   xmlns="http://www.w3.org/2000/svg"
   xmlns:svg="http://www.w3.org/2000/svg"
   xmlns:rdf="http://www.w3.org/1999/02/22-rdf-syntax-ns#"
   xmlns:cc="http://creativecommons.org/ns#"
   xmlns:dc="http://purl.org/dc/elements/1.1/">
  <sodipodi:namedview
     id="namedview7"
     pagecolor="#9c4444"
     bordercolor="#000000"
     borderopacity="0.25"
     inkscape:showpageshadow="2"
     inkscape:pageopacity="0.0"
     inkscape:pagecheckerboard="0"
     inkscape:deskcolor="#d1d1d1"
     inkscape:zoom="12.3125"
     inkscape:cx="21.319797"
     inkscape:cy="37.035533"
     inkscape:window-width="2560"
     inkscape:window-height="1392"
     inkscape:window-x="0"
     inkscape:window-y="0"
     inkscape:window-maximized="1"
     inkscape:current-layer="svg7"
     showgrid="true">
    <inkscape:grid
       id="grid19"
       units="px"
       originx="0"
       originy="0"
       spacingx="0.26457812"
       spacingy="0.26457812"
       empcolor="#0099e5"
       empopacity="0.30196078"
       color="#0099e5"
       opacity="0.14902"
       empspacing="5"
       enabled="true"
       visible="true" />
  </sodipodi:namedview>
  <defs
     id="defs2">
    <inkscape:path-effect
       effect="offset"
       id="path-effect18"
       is_visible="true"
       lpeversion="1.3"
       linejoin_type="miter"
       unit="mm"
       offset="-0.13229167"
       miter_limit="4"
       attempt_force_join="false"
       update_on_knot_move="true" />
    <style
       id="current-color-scheme"
       type="text/css">.ColorScheme-Text {color:#d8dee9} .ColorScheme-Highlight {color:#3b4252}</style>
  </defs>
  <metadata
     id="metadata2">
    <rdf:RDF>
      <cc:Work
         rdf:about="">
        <dc:format>image/svg+xml</dc:format>
        <dc:type
           rdf:resource="http://purl.org/dc/dcmitype/StillImage" />
      </cc:Work>
    </rdf:RDF>
  </metadata>
  <path
     id="path5"
     d="m 8.4665,1.45518 c -3.87217,0 -7.01132,3.13901 -7.01132,7.01132 0,3.87217 3.13915,7.01132 7.01132,7.01132 3.87217,0 7.01132,-3.13915 7.01132,-7.01132 0,-3.87231 -3.13915,-7.01132 -7.01132,-7.01132 z m 0.14828,2.10726 c 0.0405,7.4e-4 0.081,0.005 0.1208,0.0141 0.16076,0.0349 0.301,0.13174 0.39001,0.26966 0.27564,0.42679 0.50378,0.83914 0.69111,1.23925 0.35828,-0.53015 0.99027,-0.96896 1.82404,-0.96896 0.34263,3.1e-4 0.62021,0.27756 0.62001,0.61937 -10e-5,0.34141 -0.27758,0.61835 -0.62001,0.61865 -0.56106,0 -0.94317,0.15411 -1.11372,0.52209 -0.18986,0.42729 -0.1151,0.9945 -0.0532,1.49465 0.0399,0.32282 0.0362,0.73839 10e-4,1.08818 -0.0548,0.54814 -0.18852,1.05668 -0.36565,1.53843 0.22815,0 0.46871,-0.11336 0.67563,-0.244 0.72779,-0.45983 0.76437,-1.3321 0.73204,-2.30895 -0.0112,-0.34181 0.25736,-0.62804 0.60018,-0.63916 0.34242,-0.0111 0.62917,0.25662 0.64048,0.59823 0.0245,0.74607 -0.0939,1.43679 -0.36061,2.06414 0.15682,-0.009 0.31586,-0.0148 0.47903,-0.0146 0.34273,6.1e-4 0.61998,0.27816 0.61937,0.61997 -5e-4,0.34171 -0.27857,0.61846 -0.62129,0.61796 -2.38604,-0.004 -3.83544,0.83224 -3.83544,2.20758 0,0.27372 -0.44226,0.50863 -0.79368,0.50863 -0.34262,0 -0.84338,-0.16651 -0.84338,-0.50863 0,-1.21216 -2.01541,-0.93307 -2.80796,-1.68814 C 3.71803,10.5018 3.39139,9.43887 3.39139,8.32178 3.39149,7.98027 3.66894,7.70341 4.01136,7.7031 4.35398,7.703 4.63184,7.98007 4.63194,8.32178 c 0,0.81791 0.17024,1.37766 0.60521,1.80162 C 5.24845,9.91536 5.25225,9.65498 5.29605,9.41572 5.38515,8.92962 5.58848,8.4227 5.76358,7.85486 5.90058,7.43353 5.95543,7.1269 5.88723,6.84106 5.81903,6.55522 5.61959,6.20793 5.01558,5.7388 4.74499,5.52895 4.69628,5.14015 4.90665,4.87037 5.00779,4.74084 5.15643,4.65679 5.31981,4.63658 5.48319,4.61638 5.64786,4.66168 5.7777,4.76277 6.51912,5.33869 6.94612,5.9328 7.09444,6.5548 c 0.0977,0.40961 0.0698,0.79499 -0.006,1.15155 0.3699,-0.14448 0.76618,-0.22936 1.17014,-0.22936 0.34272,0 0.62057,0.27695 0.62057,0.61877 0,0.34171 -0.27785,0.61865 -0.62057,0.61865 -0.34586,0 -0.79649,0.14276 -1.14831,0.36242 -0.58936,0.37768 -0.79933,1.66806 -0.0153,1.66806 0.80306,0 1.72201,-0.40619 2.14476,-2.40838 C 9.34431,7.29096 9.10322,6.09791 8.08182,4.51615 7.89601,4.22879 7.97918,3.84554 8.26755,3.66054 c 0.0686,-0.0439 0.14517,-0.074 0.22539,-0.0884 0.0401,-0.007 0.0807,-0.0104 0.1213,-0.01 z"
     style="fill:currentColor"
     class="ColorScheme-Text" />
</svg>
