<?xml version="1.0" encoding="UTF-8" standalone="no"?>
<svg
   width="64"
   height="64"
   version="1.1"
   viewBox="0 0 16.933 16.933"
   id="svg7"
   sodipodi:docname="watchmate.svg"
   inkscape:version="1.4.4 (dcaf3e7d9e, 2026-05-05)"
   xmlns:inkscape="http://www.inkscape.org/namespaces/inkscape"
   xmlns:sodipodi="http://sodipodi.sourceforge.net/DTD/sodipodi-0.dtd"
   xmlns="http://www.w3.org/2000/svg"
   xmlns:svg="http://www.w3.org/2000/svg"
   xmlns:rdf="http://www.w3.org/1999/02/22-rdf-syntax-ns#"
   xmlns:cc="http://creativecommons.org/ns#"
   xmlns:dc="http://purl.org/dc/elements/1.1/">
  <sodipodi:namedview
     id="namedview7"
     pagecolor="#9c4444"
     bordercolor="#000000"
     borderopacity="0.25"
     inkscape:showpageshadow="2"
     inkscape:pageopacity="0.0"
     inkscape:pagecheckerboard="0"
     inkscape:deskcolor="#d1d1d1"
     inkscape:zoom="4.3531262"
     inkscape:cx="89.820506"
     inkscape:cy="35.262015"
     inkscape:window-width="2560"
     inkscape:window-height="1388"
     inkscape:window-x="0"
     inkscape:window-y="0"
     inkscape:window-maximized="1"
     inkscape:current-layer="svg7"
     showgrid="false" />
  <defs
     id="defs2">
    <style
       id="current-color-scheme"
       type="text/css">.ColorScheme-Text {color:#d8dee9} .ColorScheme-Highlight {color:#3b4252}</style>
  </defs>
  <metadata
     id="metadata2">
    <rdf:RDF>
      <cc:Work
         rdf:about="">
        <dc:format>image/svg+xml</dc:format>
        <dc:type
           rdf:resource="http://purl.org/dc/dcmitype/StillImage" />
      </cc:Work>
    </rdf:RDF>
  </metadata>
  <path
     id="path5"
     style="fill:currentColor"
     d="m 5.545119,1.4551779 c -0.323689,0 -0.584277,0.260587 -0.584277,0.584277 v 0.651377 c 0.183529,-0.04387 0.375192,-0.0671 0.572409,-0.0671 h 5.866503 c 0.197217,0 0.38888,0.02323 0.572408,0.0671 v -0.651377 c 0,-0.32369 -0.260587,-0.584277 -0.584276,-0.584277 z m -0.01187,1.402264 c -1.223393,0 -2.208384,0.984991 -2.208384,2.208384 v 5.8665021 c 0,1.223392 0.984991,2.208384 2.208384,2.208384 h 5.866503 c 1.223392,0 2.208383,-0.984992 2.208383,-2.208384 V 5.0658259 c 0,-1.223393 -0.984991,-2.208384 -2.208383,-2.208384 z m -0.455554,1.402264 h 6.77761 c 0.323689,0 0.584277,0.260587 0.584277,0.584277 v 6.3101881 c 0,0.323689 -0.260588,0.584277 -0.584277,0.584277 h -6.77761 c -0.323689,0 -0.584277,-0.260588 -0.584277,-0.584277 V 4.8439829 c 0,-0.32369 0.260588,-0.584277 0.584277,-0.584277 z m 3.312575,0.233711 c -0.06474,0 -0.116855,0.05212 -0.116855,0.116855 v 0.72076 c -10e-7,0.06474 0.05212,0.116854 0.116855,0.116856 h 0.15246 c 0.06474,0 0.116855,-0.05212 0.116855,-0.116856 v -0.72076 c 0,-0.06474 -0.05212,-0.116855 -0.116855,-0.116855 z m -1.55518,0.41584 c -0.01883,4.86e-4 -0.03794,0.0056 -0.05546,0.01575 l -0.131918,0.07623 c -0.05606,0.03237 -0.07527,0.103477 -0.04291,0.159536 l 0.128723,0.222755 c 0.03237,0.05606 0.103476,0.07527 0.159535,0.04291 l 0.132147,-0.07623 c 0.05606,-0.03237 0.07504,-0.103705 0.04268,-0.159764 L 6.939392,4.9676879 c -0.02225,-0.03854 -0.06288,-0.05955 -0.104302,-0.058431 z m 3.26282,0 c -0.04142,-0.0011 -0.08205,0.01989 -0.104302,0.05843 l -0.128496,0.222755 c -0.03236,0.05606 -0.01338,0.127398 0.04268,0.159764 l 0.132147,0.07623 c 0.05606,0.03237 0.127169,0.01315 0.159534,-0.04291 l 0.128724,-0.222755 c 0.03237,-0.05606 0.01315,-0.12717 -0.04291,-0.159536 l -0.131918,-0.07623 c -0.01752,-0.01012 -0.03664,-0.01524 -0.05546,-0.01575 z m -4.524949,1.212603 c -0.04142,-0.0012 -0.08205,0.01989 -0.104303,0.05843 l -0.07623,0.131918 c -0.03237,0.05606 -0.01338,0.127398 0.04268,0.159763 l 0.222755,0.128496 c 0.05606,0.03237 0.127398,0.01338 0.159763,-0.04268 l 0.07623,-0.132147 c 0.03237,-0.05606 0.01315,-0.12717 -0.04291,-0.159535 L 5.628191,6.1373819 c -0.01752,-0.01012 -0.03641,-0.01501 -0.05523,-0.01552 z m 5.787078,0 c -0.01883,4.68e-4 -0.03771,0.0054 -0.05523,0.01552 l -0.222755,0.128723 c -0.05606,0.03236 -0.07527,0.103477 -0.04291,0.159536 l 0.07623,0.132147 c 0.03237,0.05606 0.103705,0.07504 0.159763,0.04268 l 0.222756,-0.128496 c 0.05606,-0.03236 0.07504,-0.103704 0.04268,-0.159763 l -0.07623,-0.131918 c -0.02225,-0.03854 -0.06288,-0.05955 -0.104302,-0.05843 z m -2.927546,0.139222 c -0.06693,0.0011 -0.132832,0.0068 -0.198791,0.01552 -0.523794,0.07081 -0.999091,0.379265 -1.272627,0.853591 -0.06887,0.118338 -0.02825,0.27057 0.09106,0.33847 0.118341,0.06887 0.2708,0.02819 0.338698,-0.09015 0.261898,-0.452987 0.776793,-0.692515 1.290887,-0.602307 0.417095,0.07372 0.759561,0.351079 0.922518,0.726465 H 9.211449 c -0.136769,0 -0.248318,0.111548 -0.248318,0.248318 0,0.136768 0.111549,0.248318 0.248318,0.248318 h 0.99327 c 0.136768,1e-6 0.248317,-0.11155 0.248318,-0.248318 v -0.99327 c 0,-0.136767 -0.111551,-0.248318 -0.248318,-0.248318 -0.136769,0 -0.248317,0.111551 -0.248317,0.248318 v 0.347143 C 9.702264,6.6819439 9.273585,6.3765669 8.76822,6.2873299 8.655701,6.2679399 8.543067,6.2591499 8.432489,6.2610799 Z m -3.354798,1.54491 c -0.06474,0 -0.116855,0.05212 -0.116855,0.116855 v 0.152459 c 0,0.06474 0.05212,0.116857 0.116855,0.116856 h 0.72076 c 0.06474,0 0.116856,-0.05212 0.116856,-0.116856 v -0.152459 c -1e-6,-0.06474 -0.05212,-0.116856 -0.116856,-0.116855 z m 6.05685,0 c -0.06474,0 -0.116855,0.05212 -0.116856,0.116855 v 0.152459 c 10e-7,0.06474 0.05212,0.116857 0.116856,0.116856 h 0.72076 c 0.06474,0 0.116855,-0.05212 0.116855,-0.116856 v -0.152459 c -1e-6,-0.06474 -0.05212,-0.116856 -0.116855,-0.116855 z m -4.406268,0.193313 c -0.136768,0 -0.248318,0.111551 -0.248318,0.248317 v 0.993271 c 0,0.136767 0.11155,0.248318 0.248318,0.248317 0.136769,0 0.248317,-0.11155 0.248318,-0.248317 v -0.34623 c 0.283236,0.470446 0.777932,0.78655 1.338587,0.836018 0.672203,0.05917 1.319187,-0.27736 1.656743,-0.862265 0.06887,-0.118338 0.02801,-0.270569 -0.09129,-0.338469 -0.05626,-0.03395 -0.124045,-0.0428 -0.188064,-0.02533 -0.06402,0.01649 -0.118339,0.05826 -0.151318,0.115485 C 9.299725,9.0381679 8.83995,9.2778149 8.357864,9.2361039 7.902939,9.1963339 7.510151,8.9110989 7.328761,8.4959439 H 7.72155 c 0.136768,0 0.248318,-0.111548 0.248318,-0.248318 0,-0.136766 -0.11155,-0.248317 -0.248318,-0.248317 z m -1.014953,1.382636 c -0.01883,4.67e-4 -0.03794,0.0056 -0.05546,0.01575 l -0.222756,0.128495 c -0.05606,0.03237 -0.07504,0.103705 -0.04268,0.159764 l 0.07623,0.131918 c 0.03236,0.05606 0.103476,0.07527 0.159535,0.04291 l 0.222753,-0.128723 c 0.05606,-0.03237 0.07527,-0.103477 0.04291,-0.159536 l -0.07623,-0.132147 c -0.02225,-0.03854 -0.06288,-0.05955 -0.104302,-0.058431 z m 5.506352,0 c -0.04142,-0.0012 -0.08205,0.01989 -0.104303,0.05843 l -0.07623,0.132147 c -0.03236,0.05606 -0.01315,0.127169 0.04291,0.159536 l 0.222755,0.128723 c 0.05606,0.03237 0.12717,0.01315 0.159535,-0.04291 l 0.07623,-0.131918 c 0.03237,-0.05606 0.01338,-0.127397 -0.04268,-0.159763 l -0.222755,-0.128496 c -0.01752,-0.01011 -0.03664,-0.01524 -0.05546,-0.01575 z M 8.39027,10.550266 c -0.06474,10e-7 -0.116856,0.05212 -0.116856,0.116855 v 0.72076 c 0,0.06474 0.05212,0.116856 0.116856,0.116856 h 0.15246 c 0.06474,0 0.116855,-0.05212 0.116855,-0.116856 v -0.72076 c -10e-7,-0.06474 -0.05212,-0.116855 -0.116855,-0.116855 z m -1.552442,0.0059 c -0.04142,-0.0012 -0.08205,0.01989 -0.104302,0.05843 l -0.128724,0.222755 c -0.03236,0.05606 -0.01315,0.127169 0.04291,0.159536 l 0.131919,0.07623 c 0.05606,0.03236 0.127398,0.01338 0.159763,-0.04268 L 7.067889,10.80772 c 0.03237,-0.05606 0.01338,-0.127397 -0.04268,-0.159764 l -0.132147,-0.07623 c -0.01752,-0.01012 -0.03641,-0.01501 -0.05523,-0.01552 z m 3.257343,0 c -0.01883,4.68e-4 -0.03771,0.0054 -0.05523,0.01552 l -0.132147,0.07623 c -0.05606,0.03236 -0.07504,0.103704 -0.04268,0.159763 l 0.128496,0.222756 c 0.03237,0.05606 0.103704,0.07505 0.159763,0.04268 l 0.131918,-0.07623 c 0.05606,-0.03236 0.07527,-0.103477 0.04291,-0.159536 L 10.199476,10.61463 c -0.02225,-0.03854 -0.06288,-0.05955 -0.104302,-0.05843 z m -6.767339,1.428509 c 0.06068,1.168345 1.021445,2.090843 2.205416,2.090843 h 5.866503 c 1.183971,0 2.144738,-0.922498 2.205416,-2.090843 -0.392244,0.822795 -1.231078,1.389711 -2.205416,1.389711 H 5.533248 c -0.974338,0 -1.813171,-0.566916 -2.205416,-1.389711 z m 1.633007,2.257453 v 0.651377 c 0,0.323689 0.260588,0.584277 0.584277,0.584277 h 5.842767 c 0.323689,0 0.584276,-0.260588 0.584276,-0.584277 v -0.651377 c -0.183534,0.04383 -0.375196,0.0671 -0.572408,0.0671 H 5.533248 c -0.197211,0 -0.388874,-0.02327 -0.572409,-0.0671 z"
     class="ColorScheme-Text" />
</svg>
