<?xml version="1.0" encoding="UTF-8" standalone="no"?>
<svg
   width="64"
   height="64"
   version="1.1"
   viewBox="0 0 16.933 16.933"
   id="svg7"
   sodipodi:docname="yast-oneclick.svg"
   inkscape:version="1.4.4 (dcaf3e7d9e, 2026-05-05)"
   xmlns:inkscape="http://www.inkscape.org/namespaces/inkscape"
   xmlns:sodipodi="http://sodipodi.sourceforge.net/DTD/sodipodi-0.dtd"
   xmlns="http://www.w3.org/2000/svg"
   xmlns:svg="http://www.w3.org/2000/svg"
   xmlns:rdf="http://www.w3.org/1999/02/22-rdf-syntax-ns#"
   xmlns:cc="http://creativecommons.org/ns#"
   xmlns:dc="http://purl.org/dc/elements/1.1/">
  <sodipodi:namedview
     id="namedview7"
     pagecolor="#9c4444"
     bordercolor="#000000"
     borderopacity="0.25"
     inkscape:showpageshadow="2"
     inkscape:pageopacity="0.0"
     inkscape:pagecheckerboard="0"
     inkscape:deskcolor="#d1d1d1"
     inkscape:zoom="4.3531262"
     inkscape:cx="89.820506"
     inkscape:cy="36.410615"
     inkscape:window-width="2560"
     inkscape:window-height="1388"
     inkscape:window-x="0"
     inkscape:window-y="0"
     inkscape:window-maximized="1"
     inkscape:current-layer="svg7"
     showgrid="false" />
  <defs
     id="defs2">
    <style
       id="current-color-scheme"
       type="text/css">.ColorScheme-Text {color:#d8dee9} .ColorScheme-Highlight {color:#3b4252}</style>
  </defs>
  <metadata
     id="metadata2">
    <rdf:RDF>
      <cc:Work
         rdf:about="">
        <dc:format>image/svg+xml</dc:format>
        <dc:type
           rdf:resource="http://purl.org/dc/dcmitype/StillImage" />
      </cc:Work>
    </rdf:RDF>
  </metadata>
  <path
     id="path5"
     d="m 2.5338445,1.4551795 c -0.59758,0 -1.078665,0.481085 -1.078665,1.078665 v 9.7079825 c 0,0.59758 0.481085,1.078664 1.078665,1.078664 H 14.399155 c 0.597581,0 1.078666,-0.481084 1.078666,-1.078664 V 2.5338445 c 0,-0.59758 -0.481085,-1.078665 -1.078666,-1.078665 z m 0,0.539333 H 14.399155 c 0.29879,0 0.539332,0.240542 0.539332,0.539332 v 8.6293175 c 0,0.29879 -0.240542,0.539332 -0.539332,0.539332 H 2.5338445 c -0.29879,0 -0.539332,-0.240542 -0.539332,-0.539332 V 2.5338445 c 0,-0.29879 0.240542,-0.539332 0.539332,-0.539332 z m 0.269666,0.808998 V 10.893495 H 14.12949 V 2.8035105 Z m 5.66299,0.808998 h 0.539332 v 4.630674 l 0.69734,-0.69734 a 0.53938625,0.53938625 0 0 1 0.4795535,-0.158007 h 0.441104 v 0.443474 a 0.53938625,0.53938625 0 0 1 -0.158008,0.477183 L 8.4665005,10.307814 6.4671785,8.3084925 a 0.53938625,0.53938625 0 0 1 -0.158008,-0.459012 v -0.461645 h 0.461119 a 0.53938625,0.53938625 0 0 1 0.07268,-0.0055 0.53938625,0.53938625 0 0 1 0.386855,0.163537 l 0.69734,0.697341 v -3.012677 l -0.808999,0.808999 -0.539332,-0.539333 z m -1.528196,10.2473145 -0.0898,1.078664 h -1.078664 c -0.29879,0 -0.539332,0.240543 -0.539332,0.539333 h 6.4719865 c 0,-0.29879 -0.240542,-0.539333 -0.539332,-0.539333 H 10.084498 L 9.994699,13.859823 Z"
     style="fill:currentColor"
     class="ColorScheme-Text" />
</svg>
