<?xml version="1.0" encoding="UTF-8" standalone="no"?>
<svg
   width="64"
   height="64"
   version="1.1"
   viewBox="0 0 16.933 16.933"
   id="svg7"
   sodipodi:docname="yast-sw_single.svg"
   inkscape:version="1.4.4 (dcaf3e7d9e, 2026-05-05)"
   xmlns:inkscape="http://www.inkscape.org/namespaces/inkscape"
   xmlns:sodipodi="http://sodipodi.sourceforge.net/DTD/sodipodi-0.dtd"
   xmlns="http://www.w3.org/2000/svg"
   xmlns:svg="http://www.w3.org/2000/svg"
   xmlns:rdf="http://www.w3.org/1999/02/22-rdf-syntax-ns#"
   xmlns:cc="http://creativecommons.org/ns#"
   xmlns:dc="http://purl.org/dc/elements/1.1/">
  <sodipodi:namedview
     id="namedview7"
     pagecolor="#9c4444"
     bordercolor="#000000"
     borderopacity="0.25"
     inkscape:showpageshadow="2"
     inkscape:pageopacity="0.0"
     inkscape:pagecheckerboard="0"
     inkscape:deskcolor="#d1d1d1"
     inkscape:zoom="4.3531262"
     inkscape:cx="89.820506"
     inkscape:cy="36.180895"
     inkscape:window-width="2560"
     inkscape:window-height="1388"
     inkscape:window-x="0"
     inkscape:window-y="0"
     inkscape:window-maximized="1"
     inkscape:current-layer="svg7"
     showgrid="false" />
  <defs
     id="defs2">
    <style
       id="current-color-scheme"
       type="text/css">.ColorScheme-Text {color:#d8dee9} .ColorScheme-Highlight {color:#3b4252}</style>
  </defs>
  <metadata
     id="metadata2">
    <rdf:RDF>
      <cc:Work
         rdf:about="">
        <dc:format>image/svg+xml</dc:format>
        <dc:type
           rdf:resource="http://purl.org/dc/dcmitype/StillImage" />
      </cc:Work>
    </rdf:RDF>
  </metadata>
  <path
     id="path5"
     style="fill:currentColor"
     d="m 2.1166255,2.6457813 -1.587469,2.6457812 1.206363,0.4020347 -0.14805,1.185434 h 0.529156 3.704094 9.3925225 0.111877 L 15.178877,5.7000567 c 0.40833,-0.136138 0.816652,-0.2723063 1.224966,-0.4084942 L 14.816374,2.6457813 h -0.0168 -0.115495 -8.8633665 z m 3.961954,0.2578603 h 8.4931125 l 0.460686,3.7108115 H 6.0785795 Z m -3.961954,4.5045459 v 5.8207185 1.058313 h 3.704094 1.058312 0.227372 2.825353 0.1222135 4.760598 V 13.123488 7.6727657 h 0.0018 V 7.4081875 h -0.0018 -8.9938485 z m 3.961954,0.2645782 h 8.4781275 v 5.4507223 0.90587 h -4.367089 v -3.73484 l -1.6706665,1.121356 -1.670409,-1.121356 v 3.73484 h -0.769963 v -0.90587 z"
     class="ColorScheme-Text" />
</svg>
