<?xml version="1.0" encoding="UTF-8" standalone="no"?>
<svg
   width="64"
   height="64"
   version="1.1"
   viewBox="0 0 16.933 16.933"
   id="svg7"
   sodipodi:docname="yast-control-center.svg"
   inkscape:version="1.4.4 (dcaf3e7d9e, 2026-05-05)"
   xmlns:inkscape="http://www.inkscape.org/namespaces/inkscape"
   xmlns:sodipodi="http://sodipodi.sourceforge.net/DTD/sodipodi-0.dtd"
   xmlns="http://www.w3.org/2000/svg"
   xmlns:svg="http://www.w3.org/2000/svg"
   xmlns:rdf="http://www.w3.org/1999/02/22-rdf-syntax-ns#"
   xmlns:cc="http://creativecommons.org/ns#"
   xmlns:dc="http://purl.org/dc/elements/1.1/">
  <sodipodi:namedview
     id="namedview7"
     pagecolor="#9c4444"
     bordercolor="#000000"
     borderopacity="0.25"
     inkscape:showpageshadow="2"
     inkscape:pageopacity="0.0"
     inkscape:pagecheckerboard="0"
     inkscape:deskcolor="#d1d1d1"
     inkscape:zoom="4.3531262"
     inkscape:cx="89.820506"
     inkscape:cy="35.951175"
     inkscape:window-width="2560"
     inkscape:window-height="1388"
     inkscape:window-x="0"
     inkscape:window-y="0"
     inkscape:window-maximized="1"
     inkscape:current-layer="svg7"
     showgrid="false" />
  <defs
     id="defs2">
    <style
       id="current-color-scheme"
       type="text/css">.ColorScheme-Text {color:#d8dee9} .ColorScheme-Highlight {color:#3b4252}</style>
  </defs>
  <metadata
     id="metadata2">
    <rdf:RDF>
      <cc:Work
         rdf:about="">
        <dc:format>image/svg+xml</dc:format>
        <dc:type
           rdf:resource="http://purl.org/dc/dcmitype/StillImage" />
      </cc:Work>
    </rdf:RDF>
  </metadata>
  <path
     id="path5"
     d="m 2.039456,1.4551797 c -0.647378,0 -1.168553,0.521175 -1.168553,1.1685536 V 14.309267 c 0,0.647378 0.521175,1.168553 1.168553,1.168553 h 12.854088 c 0.647378,0 1.168553,-0.521175 1.168553,-1.168553 V 2.6237333 c 0,-0.6473786 -0.521175,-1.1685536 -1.168553,-1.1685536 z m 0,1.1685536 H 10.21933 V 10.803607 H 2.039456 Z m 9.932704,0 h 2.337107 c 0.323689,0 0.584277,0.2605874 0.584277,0.5842767 V 7.8822234 9.6350535 10.21933 c 0,0.323689 -0.260588,0.584277 -0.584277,0.584277 H 11.97216 c -0.323689,0 -0.584277,-0.260588 -0.584277,-0.584277 V 9.6350535 7.8822234 3.20801 c 0,-0.3236893 0.260588,-0.5842767 0.584277,-0.5842767 z M 2.623733,3.20801 v 7.01132 h 7.01132 V 3.20801 Z M 3.20801,3.7922867 H 4.376563 5.545117 6.71367 7.882223 9.050777 V 4.96084 6.1293934 7.2979468 8.4665001 9.6350535 H 7.882223 6.71367 5.545117 4.376563 3.20801 V 8.4665001 7.2979468 6.1293934 4.96084 Z M 4.376563,4.96084 V 6.1293934 7.2979468 H 5.545117 V 8.4665001 H 6.71367 V 7.2979468 H 7.882223 V 6.1293934 4.96084 H 6.71367 V 6.1293934 H 5.545117 V 4.96084 Z m 7.846083,1.7088953 c -0.300569,0 -0.542624,0.2420554 -0.542624,0.542624 v 2.7128355 c 0,0.3005682 0.242055,0.5423392 0.542624,0.5423392 h 1.836135 c 0.300568,0 0.542624,-0.241771 0.542624,-0.5423392 V 7.2123593 c 0,-0.3005686 -0.242056,-0.542624 -0.542624,-0.542624 z M 2.623733,11.97216 H 3.20801 c 0.323689,0 0.584276,0.260588 0.584276,0.584277 v 0.584277 c 0,0.323689 -0.260587,0.584276 -0.584276,0.584276 H 2.623733 c -0.323689,0 -0.584277,-0.260587 -0.584277,-0.584276 v -0.584277 c 0,-0.323689 0.260588,-0.584277 0.584277,-0.584277 z m 8.179873,0 h 0.584277 c 0.32369,0 0.584277,0.260588 0.584277,0.584277 v 0.584277 c 0,0.323689 -0.260587,0.584276 -0.584277,0.584276 h -0.584277 c -0.323689,0 -0.584276,-0.260587 -0.584276,-0.584276 v -0.584277 c 0,-0.323689 0.260587,-0.584277 0.584276,-0.584277 z m 2.921384,0 h 0.584277 c 0.323689,0 0.584277,0.260588 0.584277,0.584277 v 0.584277 c 0,0.323689 -0.260588,0.584276 -0.584277,0.584276 H 13.72499 c -0.32369,0 -0.584277,-0.260587 -0.584277,-0.584276 v -0.584277 c 0,-0.323689 0.260587,-0.584277 0.584277,-0.584277 z"
     style="fill:currentColor"
     class="ColorScheme-Text" />
</svg>
