<?xml version="1.0" encoding="UTF-8" standalone="no"?>
<svg
   width="64"
   height="64"
   version="1.1"
   viewBox="0 0 16.933 16.933"
   id="svg7"
   sodipodi:docname="zed.svg"
   inkscape:version="1.4.4 (dcaf3e7d9e, 2026-05-05)"
   xmlns:inkscape="http://www.inkscape.org/namespaces/inkscape"
   xmlns:sodipodi="http://sodipodi.sourceforge.net/DTD/sodipodi-0.dtd"
   xmlns="http://www.w3.org/2000/svg"
   xmlns:svg="http://www.w3.org/2000/svg"
   xmlns:rdf="http://www.w3.org/1999/02/22-rdf-syntax-ns#"
   xmlns:cc="http://creativecommons.org/ns#"
   xmlns:dc="http://purl.org/dc/elements/1.1/">
  <sodipodi:namedview
     id="namedview7"
     pagecolor="#9c4444"
     bordercolor="#000000"
     borderopacity="0.25"
     inkscape:showpageshadow="2"
     inkscape:pageopacity="0.0"
     inkscape:pagecheckerboard="0"
     inkscape:deskcolor="#d1d1d1"
     inkscape:zoom="4.3531261"
     inkscape:cx="36.410615"
     inkscape:cy="40.890155"
     inkscape:window-width="2560"
     inkscape:window-height="1388"
     inkscape:window-x="0"
     inkscape:window-y="0"
     inkscape:window-maximized="1"
     inkscape:current-layer="svg7"
     showgrid="false" />
  <defs
     id="defs2">
    <inkscape:path-effect
       effect="offset"
       id="path-effect1"
       is_visible="true"
       lpeversion="1.3"
       linejoin_type="miter"
       unit="px"
       offset="0.98168406"
       miter_limit="4"
       attempt_force_join="false"
       update_on_knot_move="true" />
    <style
       id="current-color-scheme"
       type="text/css">.ColorScheme-Text {color:#d8dee9} .ColorScheme-Highlight {color:#3b4252}</style>
  </defs>
  <metadata
     id="metadata2">
    <rdf:RDF>
      <cc:Work
         rdf:about="">
        <dc:format>image/svg+xml</dc:format>
        <dc:type
           rdf:resource="http://purl.org/dc/dcmitype/StillImage" />
      </cc:Work>
    </rdf:RDF>
  </metadata>
  <path
     d="m 2.7695313,1.1914062 c -0.8723881,0 -1.578125,0.7057374 -1.5781251,1.5781251 V 12.673828 H 2.5957031 V 2.7695313 c 0,-0.099542 0.074285,-0.1738282 0.1738282,-0.1738282 H 13.34375 L 12.335938,3.6015625 H 4.7421875 c -0.6296707,0 -1.140625,0.5109544 -1.140625,1.140625 V 10.482422 H 5.0058594 V 5.0058594 H 10.933594 L 9.9257813,6.0117187 H 6.9335937 c -0.508422,10e-8 -0.921875,0.4134526 -0.921875,0.921875 v 1.3574219 h 1.4042969 v -0.875 H 8.5234375 L 1.7695312,14.167969 c -0.5804733,0.580484 -0.168651,1.574219 0.6523438,1.574219 h 11.742188 c 0.872387,0 1.578125,-0.705738 1.578125,-1.578125 V 4.2597656 h -1.404297 v 9.9042974 c 0,0.09954 -0.07429,0.173828 -0.173828,0.173828 H 3.5898438 l 1.0058593,-1.00586 h 7.5957029 c 0.629665,0 1.140625,-0.51096 1.140625,-1.140625 V 6.4492187 H 11.927734 V 11.927734 H 6 L 6.9785156,10.949219 H 10 c 0.508414,0 0.921875,-0.413443 0.921875,-0.921875 V 8.640625 H 9.5175781 V 9.5449219 H 8.3828125 L 15.162109,2.765625 C 15.742597,2.1851469 15.330762,1.1914062 14.509766,1.1914062 Z"
     id="path5"
     class="ColorScheme-Text"
     style="fill:currentColor;fill-opacity:1;stroke-width:0.155807"
     transform="matrix(1,0,0,0.96370359,-2.96875e-4,0.30701746)" />
</svg>
