<?xml version="1.0" encoding="UTF-8" standalone="no"?>
<svg
   id="svg3297"
   height="64"
   width="64"
   version="1.0"
   sodipodi:docname="document-scan.svg"
   inkscape:version="1.4.4 (dcaf3e7d9e, 2026-05-05)"
   xmlns:inkscape="http://www.inkscape.org/namespaces/inkscape"
   xmlns:sodipodi="http://sodipodi.sourceforge.net/DTD/sodipodi-0.dtd"
   xmlns="http://www.w3.org/2000/svg"
   xmlns:svg="http://www.w3.org/2000/svg"
   xmlns:rdf="http://www.w3.org/1999/02/22-rdf-syntax-ns#"
   xmlns:cc="http://creativecommons.org/ns#"
   xmlns:dc="http://purl.org/dc/elements/1.1/">
  <sodipodi:namedview
     id="namedview1"
     pagecolor="#9c4444"
     bordercolor="#000000"
     borderopacity="0.25"
     inkscape:showpageshadow="2"
     inkscape:pageopacity="0.0"
     inkscape:pagecheckerboard="0"
     inkscape:deskcolor="#d1d1d1"
     inkscape:zoom="13.09375"
     inkscape:cx="35.398568"
     inkscape:cy="31.00716"
     inkscape:window-width="2560"
     inkscape:window-height="1388"
     inkscape:window-x="0"
     inkscape:window-y="0"
     inkscape:window-maximized="1"
     inkscape:current-layer="svg3297" />
  <metadata
     id="metadata58">
    <rdf:RDF>
      <cc:Work
         rdf:about="">
        <dc:format>image/svg+xml</dc:format>
        <dc:type
           rdf:resource="http://purl.org/dc/dcmitype/StillImage" />
      </cc:Work>
    </rdf:RDF>
  </metadata>
  <defs
     id="defs3299">
    <style
       id="current-color-scheme"
       type="text/css">.ColorScheme-Text {color:#d8dee9} .ColorScheme-Highlight {color:#3b4252}</style>
  </defs>
  <path
     id="path5"
     style="fill:currentColor;fill-opacity:1;stroke:none;stroke-width:2.42424"
     class="ColorScheme-Text"
     d="m 14.424242,12 v 18.181818 h 3.636364 1.818182 V 17.454545 h 16.363636 v 7.878788 1.818182 h 7.878788 v 3.030303 h 1.818182 3.636364 V 22.052082 L 39.523675,12 Z M 12,31.393939 v 3.636364 h 40 v -3.636364 z m 2.424242,4.848485 v 6.060606 h 3.636364 v -0.0095 h 1.818182 v -6.051152 h -1.818182 z m 29.69697,0 v 6.060606 h 1.818182 3.636364 v -6.060606 h -3.636364 z m -29.69697,7.272728 V 52 h 6.060606 v -3.636364 -1.818181 h -0.60606 v -3.030303 h -1.818182 z m 29.69697,0 v 3.030303 h -0.60606 V 48.363636 52 h 6.060606 V 43.515152 H 45.939394 Z M 21.69697,46.545455 V 48.363636 52 h 6.060606 v -3.636364 -1.818181 z m 7.272727,0 V 48.363636 52 h 6.060606 v -3.636364 -1.818181 z m 7.272727,0 V 48.363636 52 h 6.060606 v -3.636364 -1.818181 z" />
</svg>
