<?xml version="1.0" encoding="UTF-8" standalone="no"?>
<svg
   viewBox="0 0 64 64"
   version="1.1"
   width="64"
   height="64"
   xmlns="http://www.w3.org/2000/svg">
  <defs>
    <style type="text/css">.ColorScheme-Text { color: #d8dee9; }</style>
  </defs>
  <path
     class="ColorScheme-Text"
     style="fill:currentColor;stroke-width:2.57142"
     d="M 28.142858,14 A 14.142858,14.142858 0 0 0 14,28.142858 14.142858,14.142858 0 0 0 28.142858,42.285714 14.142858,14.142858 0 0 0 36.158514,39.794 l 9.41606,9.416572 A 2.5714286,2.5714286 0 0 0 47.428574,50 2.5714286,2.5714286 0 0 0 50,47.428572 2.5714286,2.5714286 0 0 0 49.220861,45.584858 l -9.437147,-9.436372 a 14.142858,14.142858 0 0 0 2.502,-8.005628 A 14.142858,14.142858 0 0 0 28.142858,14 Z m 0,5.142858 a 9,9 0 0 1 9,9 9,9 0 0 1 -9,9 9,9 0 0 1 -9,-9 9,9 0 0 1 9,-9 z m -2.571429,3.857142 h 5.142858 v 5.142858 h 5.142856 v 5.142856 h -5.142856 v 5.142858 h -5.142858 v -5.142858 h -5.142857 v -5.142856 h 5.142857 z" />
</svg>
