<svg xmlns="http://www.w3.org/2000/svg" width="1600" height="920" viewBox="0 0 1600 920" font-family="'IBM Plex Sans','Segoe UI',Helvetica,Arial,sans-serif">
<rect width="1600" height="920" fill="#161616"/>
<text x="80" y="56" fill="#f4f4f4" font-size="34" font-weight="600">MCNF — Installation Types</text>
<text x="80" y="88" fill="#8d8d8d" font-size="17">One installer · pick a role at install · roles nest: Lighthouse ⊂ Server ⊂ Workstation — each just turns on more of the same ~30 background services</text>
<text x="80" y="528" fill="#f4f4f4" font-size="20" font-weight="600" letter-spacing="1">LIGHTHOUSE</text>
<text x="80" y="550" fill="#8d8d8d" font-size="14">the always-on anchor</text>
<rect x="80" y="770" width="340" height="50" fill="#262626" stroke="#393939" stroke-width="1"/>
<rect x="80" y="770" width="6" height="50" fill="#0f62fe"/>
<text x="100" y="792" fill="#f4f4f4" font-size="15" font-weight="600">Encryption Library · rustls</text>
<text x="100" y="810" fill="#8d8d8d" font-size="12">All TLS, key-checks &amp; locking — never OpenSSL</text>
<rect x="80" y="708" width="340" height="50" fill="#262626" stroke="#393939" stroke-width="1"/>
<rect x="80" y="708" width="6" height="50" fill="#0f62fe"/>
<text x="100" y="730" fill="#f4f4f4" font-size="15" font-weight="600">Coordination + Shared Disk</text>
<text x="100" y="748" fill="#8d8d8d" font-size="12">etcd · Syncthing — keeps every machine in sync</text>
<rect x="80" y="646" width="340" height="50" fill="#262626" stroke="#393939" stroke-width="1"/>
<rect x="80" y="646" width="6" height="50" fill="#0f62fe"/>
<text x="100" y="668" fill="#f4f4f4" font-size="15" font-weight="600">Secure Overlay (the wire)</text>
<text x="100" y="686" fill="#8d8d8d" font-size="12">Nebula encrypted network all nodes share</text>
<rect x="80" y="584" width="340" height="50" fill="#262626" stroke="#393939" stroke-width="1"/>
<rect x="80" y="584" width="6" height="50" fill="#009d9a"/>
<text x="100" y="606" fill="#f4f4f4" font-size="15" font-weight="600">Control Plane Core</text>
<text x="100" y="624" fill="#8d8d8d" font-size="12">Relay · Certificate Authority · health — 22 services</text>
<text x="80" y="850" fill="#8d8d8d" font-size="13" font-family="'IBM Plex Mono','SFMono-Regular',Consolas,monospace">cloud VPS · headless</text>
<text x="480" y="404" fill="#f4f4f4" font-size="20" font-weight="600" letter-spacing="1">HEADLESS SERVER</text>
<text x="480" y="426" fill="#8d8d8d" font-size="14">automation + storage</text>
<rect x="480" y="770" width="340" height="50" fill="#262626" stroke="#393939" stroke-width="1"/>
<rect x="480" y="770" width="6" height="50" fill="#0f62fe"/>
<text x="500" y="792" fill="#f4f4f4" font-size="15" font-weight="600">Encryption Library · rustls</text>
<text x="500" y="810" fill="#8d8d8d" font-size="12">All TLS, key-checks &amp; locking — never OpenSSL</text>
<rect x="480" y="708" width="340" height="50" fill="#262626" stroke="#393939" stroke-width="1"/>
<rect x="480" y="708" width="6" height="50" fill="#0f62fe"/>
<text x="500" y="730" fill="#f4f4f4" font-size="15" font-weight="600">Coordination + Shared Disk</text>
<text x="500" y="748" fill="#8d8d8d" font-size="12">etcd · Syncthing — keeps every machine in sync</text>
<rect x="480" y="646" width="340" height="50" fill="#262626" stroke="#393939" stroke-width="1"/>
<rect x="480" y="646" width="6" height="50" fill="#0f62fe"/>
<text x="500" y="668" fill="#f4f4f4" font-size="15" font-weight="600">Secure Overlay (the wire)</text>
<text x="500" y="686" fill="#8d8d8d" font-size="12">Nebula encrypted network all nodes share</text>
<rect x="480" y="584" width="340" height="50" fill="#262626" stroke="#393939" stroke-width="1"/>
<rect x="480" y="584" width="6" height="50" fill="#009d9a"/>
<text x="500" y="606" fill="#f4f4f4" font-size="15" font-weight="600">Control Plane Core</text>
<text x="500" y="624" fill="#8d8d8d" font-size="12">Relay · Certificate Authority · health — 22 services</text>
<rect x="480" y="522" width="340" height="50" fill="#262626" stroke="#393939" stroke-width="1"/>
<rect x="480" y="522" width="6" height="50" fill="#8a3ffc"/>
<text x="500" y="544" fill="#f4f4f4" font-size="15" font-weight="600">Fleet Automation + Jobs</text>
<text x="500" y="562" fill="#8d8d8d" font-size="12">magic-fleet — set rules once, self-converge  (+3)</text>
<rect x="480" y="460" width="340" height="50" fill="#262626" stroke="#393939" stroke-width="1"/>
<rect x="480" y="460" width="6" height="50" fill="#8a3ffc"/>
<text x="500" y="482" fill="#f4f4f4" font-size="15" font-weight="600">Storage Replica</text>
<text x="500" y="500" fill="#8d8d8d" font-size="12">Always-on copy of the shared files (like a NAS)</text>
<text x="480" y="850" fill="#8d8d8d" font-size="13" font-family="'IBM Plex Mono','SFMono-Regular',Consolas,monospace">always-on box / NAS</text>
<text x="880" y="218" fill="#f4f4f4" font-size="20" font-weight="600" letter-spacing="1">WORKSTATION</text>
<text x="880" y="240" fill="#8d8d8d" font-size="14">the full experience</text>
<rect x="880" y="770" width="340" height="50" fill="#262626" stroke="#393939" stroke-width="1"/>
<rect x="880" y="770" width="6" height="50" fill="#0f62fe"/>
<text x="900" y="792" fill="#f4f4f4" font-size="15" font-weight="600">Encryption Library · rustls</text>
<text x="900" y="810" fill="#8d8d8d" font-size="12">All TLS, key-checks &amp; locking — never OpenSSL</text>
<rect x="880" y="708" width="340" height="50" fill="#262626" stroke="#393939" stroke-width="1"/>
<rect x="880" y="708" width="6" height="50" fill="#0f62fe"/>
<text x="900" y="730" fill="#f4f4f4" font-size="15" font-weight="600">Coordination + Shared Disk</text>
<text x="900" y="748" fill="#8d8d8d" font-size="12">etcd · Syncthing — keeps every machine in sync</text>
<rect x="880" y="646" width="340" height="50" fill="#262626" stroke="#393939" stroke-width="1"/>
<rect x="880" y="646" width="6" height="50" fill="#0f62fe"/>
<text x="900" y="668" fill="#f4f4f4" font-size="15" font-weight="600">Secure Overlay (the wire)</text>
<text x="900" y="686" fill="#8d8d8d" font-size="12">Nebula encrypted network all nodes share</text>
<rect x="880" y="584" width="340" height="50" fill="#262626" stroke="#393939" stroke-width="1"/>
<rect x="880" y="584" width="6" height="50" fill="#009d9a"/>
<text x="900" y="606" fill="#f4f4f4" font-size="15" font-weight="600">Control Plane Core</text>
<text x="900" y="624" fill="#8d8d8d" font-size="12">Relay · Certificate Authority · health — 22 services</text>
<rect x="880" y="522" width="340" height="50" fill="#262626" stroke="#393939" stroke-width="1"/>
<rect x="880" y="522" width="6" height="50" fill="#8a3ffc"/>
<text x="900" y="544" fill="#f4f4f4" font-size="15" font-weight="600">Fleet Automation + Jobs</text>
<text x="900" y="562" fill="#8d8d8d" font-size="12">magic-fleet — set rules once, self-converge  (+3)</text>
<rect x="880" y="460" width="340" height="50" fill="#262626" stroke="#393939" stroke-width="1"/>
<rect x="880" y="460" width="6" height="50" fill="#8a3ffc"/>
<text x="900" y="482" fill="#f4f4f4" font-size="15" font-weight="600">Storage Replica</text>
<text x="900" y="500" fill="#8d8d8d" font-size="12">Always-on copy of the shared files (like a NAS)</text>
<rect x="880" y="398" width="340" height="50" fill="#262626" stroke="#393939" stroke-width="1"/>
<rect x="880" y="398" width="6" height="50" fill="#24a148"/>
<text x="900" y="420" fill="#f4f4f4" font-size="15" font-weight="600">Message Bus (IPC)</text>
<text x="900" y="438" fill="#8d8d8d" font-size="12">mde-bus — lets apps talk to the engine  (+5)</text>
<rect x="880" y="336" width="340" height="50" fill="#262626" stroke="#393939" stroke-width="1"/>
<rect x="880" y="336" width="6" height="50" fill="#24a148"/>
<text x="900" y="358" fill="#f4f4f4" font-size="15" font-weight="600">Look Stack · IBM Carbon</text>
<text x="900" y="376" fill="#8d8d8d" font-size="12">Shared visual style, single-sourced (mde-theme)</text>
<rect x="880" y="274" width="340" height="50" fill="#262626" stroke="#393939" stroke-width="1"/>
<rect x="880" y="274" width="6" height="50" fill="#24a148"/>
<text x="900" y="296" fill="#f4f4f4" font-size="15" font-weight="600">COSMIC Desktop + Apps</text>
<text x="900" y="314" fill="#8d8d8d" font-size="12">Full desktop: Workbench, Files, Music, Voice</text>
<text x="880" y="850" fill="#8d8d8d" font-size="13" font-family="'IBM Plex Mono','SFMono-Regular',Consolas,monospace">laptop / desktop</text>
<line x1="80" y1="828" x2="1220" y2="828" stroke="#393939" stroke-width="1"/>
<text x="650" y="850" fill="#8d8d8d" font-size="13">more capability  →</text>
<text x="1290" y="250" fill="#f4f4f4" font-size="18" font-weight="600">How to read</text>
<rect x="1290" y="271" width="16" height="16" fill="#0f62fe"/>
<text x="1316" y="284" fill="#f4f4f4" font-size="15" font-weight="600">Shared foundation</text>
<text x="1316" y="302" fill="#8d8d8d" font-size="12">in every install</text>
<rect x="1290" y="321" width="16" height="16" fill="#009d9a"/>
<text x="1316" y="334" fill="#f4f4f4" font-size="15" font-weight="600">+ Lighthouse</text>
<text x="1316" y="352" fill="#8d8d8d" font-size="12">relay, CA, health</text>
<rect x="1290" y="371" width="16" height="16" fill="#8a3ffc"/>
<text x="1316" y="384" fill="#f4f4f4" font-size="15" font-weight="600">+ Headless Server</text>
<text x="1316" y="402" fill="#8d8d8d" font-size="12">automation, storage</text>
<rect x="1290" y="421" width="16" height="16" fill="#24a148"/>
<text x="1316" y="434" fill="#f4f4f4" font-size="15" font-weight="600">+ Workstation</text>
<text x="1316" y="452" fill="#8d8d8d" font-size="12">desktop &amp; apps</text>
<line x1="1290" y1="482" x2="1520" y2="482" stroke="#393939" stroke-width="1"/>
<text x="1290" y="500" fill="#8d8d8d" font-size="13">No fixed center:</text>
<text x="1290" y="522" fill="#8d8d8d" font-size="13">every node can lead,</text>
<text x="1290" y="544" fill="#8d8d8d" font-size="13">enforce, and relay.</text>
<text x="1290" y="566" fill="#8d8d8d" font-size="13">Same foundation —</text>
<text x="1290" y="588" fill="#8d8d8d" font-size="13">more turned on as</text>
<text x="1290" y="610" fill="#8d8d8d" font-size="13">you move up the stack.</text>
</svg>