<?xml version="1.0" encoding="UTF-8" standalone="no"?>
<svg
   id="svg3297"
   height="64"
   width="64"
   version="1.0"
   sodipodi:docname="system-run.svg"
   inkscape:version="1.4.4 (dcaf3e7d9e, 2026-05-05)"
   xmlns:inkscape="http://www.inkscape.org/namespaces/inkscape"
   xmlns:sodipodi="http://sodipodi.sourceforge.net/DTD/sodipodi-0.dtd"
   xmlns="http://www.w3.org/2000/svg"
   xmlns:svg="http://www.w3.org/2000/svg"
   xmlns:rdf="http://www.w3.org/1999/02/22-rdf-syntax-ns#"
   xmlns:cc="http://creativecommons.org/ns#"
   xmlns:dc="http://purl.org/dc/elements/1.1/">
  <sodipodi:namedview
     id="namedview1"
     pagecolor="#9c4444"
     bordercolor="#000000"
     borderopacity="0.25"
     inkscape:showpageshadow="2"
     inkscape:pageopacity="0.0"
     inkscape:pagecheckerboard="0"
     inkscape:deskcolor="#d1d1d1"
     inkscape:zoom="13.09375"
     inkscape:cx="35.398568"
     inkscape:cy="31.083532"
     inkscape:window-width="2560"
     inkscape:window-height="1388"
     inkscape:window-x="0"
     inkscape:window-y="0"
     inkscape:window-maximized="1"
     inkscape:current-layer="svg3297" />
  <metadata
     id="metadata58">
    <rdf:RDF>
      <cc:Work
         rdf:about="">
        <dc:format>image/svg+xml</dc:format>
        <dc:type
           rdf:resource="http://purl.org/dc/dcmitype/StillImage" />
      </cc:Work>
    </rdf:RDF>
  </metadata>
  <defs
     id="defs3299">
    <style
       id="current-color-scheme"
       type="text/css">.ColorScheme-Text {color:#d8dee9} .ColorScheme-Highlight {color:#3b4252}</style>
  </defs>
  <path
     id="path5"
     style="fill:currentColor;fill-opacity:1;fill-rule:nonzero;stroke:none;stroke-width:0.324644;stroke-linecap:round;stroke-linejoin:round;stroke-miterlimit:4;stroke-dasharray:none;stroke-dashoffset:4;stroke-opacity:0.990826"
     d="M 29.957911,5.5 C 28.902986,5.58023 27.863134,5.719295 26.845083,5.915434 26.038011,6.069248 25.246501,6.260473 24.469504,6.48885 h -0.006 l -0.01166,4.300618 c -1.464208,0.518412 -2.866945,1.18122 -4.160282,1.965996 l -3.329159,-2.703246 c -1.540844,1.055602 -2.975438,2.280492 -4.259659,3.627733 l -0.006,0.0058 2.147379,3.721351 c -0.512246,0.601879 -0.995139,1.227238 -1.445238,1.878229 -0.418724,0.60372 -0.810293,1.229393 -1.164386,1.872377 L 7.9865045,20.502396 h -0.006 c -0.797538,1.656943 -1.430689,3.417389 -1.872379,5.242657 h 0.006 l 3.709649,2.170787 c -0.119833,0.648465 -0.209737,1.307746 -0.269143,1.971849 -0.07954,0.85472 -0.113698,1.718881 -0.09362,2.592073 l -4.01377,1.53301 c 0.104039,1.374241 0.308855,2.726512 0.614375,4.037315 0.113208,0.488779 0.245386,0.973222 0.386176,1.451092 l 4.3181705,0.01754 c 0.519335,1.461027 1.185787,2.846155 1.971846,4.136789 l -2.720797,3.335172 c 1.05953,1.544801 2.273744,2.9668 3.627733,4.253808 l 1.878229,-1.070765 1.872379,-1.070763 c 0.618887,0.524783 1.266085,1.013585 1.936738,1.468644 0.588997,0.401312 1.199436,0.779829 1.825567,1.123429 l -0.672882,4.277213 c 1.042266,0.499807 2.126433,0.93476 3.241553,1.298962 0.661867,0.218575 1.331493,0.409032 2.012804,0.573415 l 2.188343,-3.738907 c 0.831474,0.152995 1.67032,0.256859 2.521859,0.315962 0.671065,0.04868 1.350979,0.06838 2.036209,0.05267 L 34.053738,58.5 c 0.695147,-0.05312 1.384789,-0.134841 2.065467,-0.239904 1.164516,-0.177621 2.301423,-0.428532 3.411242,-0.754808 v -0.006 h 0.006 l 0.01166,-4.31232 v -0.01166 c 0.54947,-0.194637 1.09368,-0.409635 1.620782,-0.64363 0.878669,-0.386387 1.725298,-0.826084 2.533558,-1.316516 l 3.35277,2.70907 c 0.7808,-0.535246 1.533141,-1.114569 2.2527,-1.726095 0.700711,-0.598692 1.37195,-1.228779 2.006961,-1.895784 l -2.15909,-3.733054 c 0.98781,-1.160407 1.857029,-2.445526 2.592069,-3.779863 l 4.30062,0.672886 c 0.797,-1.661566 1.421311,-3.424099 1.860671,-5.25436 l -0.006,-0.0058 v -0.0058 l -3.73892,-2.147251 v -0.0058 c 0.110505,-0.598712 0.195411,-1.207517 0.25746,-1.819717 0.0947,-0.90429 0.13828,-1.818992 0.117011,-2.744203 l 4.008059,-1.53301 h 0.006 c -0.08982,-1.17139 -0.250833,-2.319668 -0.485713,-3.440471 -0.142421,-0.688851 -0.317101,-1.367298 -0.514901,-2.036211 v -0.0058 l -2.16494,-0.0058 -2.153229,-0.01166 c -0.259541,-0.729636 -0.560721,-1.440332 -0.889382,-2.129838 -0.328659,-0.689505 -0.689869,-1.362345 -1.082469,-2.006953 l 2.7091,-3.352729 c -1.05987,-1.538477 -2.28132,-2.954992 -3.633609,-4.236462 l -0.006,-0.006 -3.744749,2.141533 c -0.39741,-0.337143 -0.804131,-0.658368 -1.222761,-0.965396 -0.80675,-0.593762 -1.65409,-1.132326 -2.53356,-1.614926 l 0.0936,-0.573417 0.57927,-3.692094 h -0.006 C 42.660578,7.609452 41.802838,7.251056 40.922857,6.93939 40.042168,6.627305 39.142151,6.357951 38.219611,6.137778 v 0.0058 h -0.006 L 36.066297,9.847377 C 34.581319,9.574693 33.046282,9.46095 31.496772,9.496356 L 29.957911,5.505851 Z m 2.516008,10.286375 A 16.174225,16.144097 0 0 1 48.646588,31.929782 16.174225,16.144097 0 0 1 32.473919,48.073189 16.174225,16.144097 0 0 1 16.295407,31.929782 16.174225,16.144097 0 0 1 32.473919,15.786375 Z m -5.266061,7.155994 c -0.33504,-0.01552 -0.676069,0.05888 -0.982996,0.21649 -0.613002,0.315338 -0.9947,0.928915 -0.9947,1.597373 v 14.347093 c 0,0.66846 0.381653,1.282032 0.9947,1.597374 0.613853,0.315348 1.357926,0.282695 1.93674,-0.08776 3.199289,-2.048901 8.25452,-5.28478 11.205011,-7.173547 0.524113,-0.335877 0.842575,-0.903554 0.842575,-1.509605 0,-0.60606 -0.318451,-1.173728 -0.842575,-1.509605 C 36.416115,28.531504 31.360888,25.295528 28.161599,23.24662 27.872202,23.061438 27.5429,22.957866 27.207858,22.94236 Z"
     class="ColorScheme-Text" />
</svg>
